<?xml version="1.0" encoding="UTF-8"?>
<svg version="1.1" xmlns="http://www.w3.org/2000/svg" width="64" height="64">
<path d="M0 0 C21.12 0 42.24 0 64 0 C64 21.12 64 42.24 64 64 C42.88 64 21.76 64 0 64 C0 42.88 0 21.76 0 0 Z " fill="#5DDBFC" transform="translate(0,0)"/>
<path d="M0 0 C21.12 0 42.24 0 64 0 C64 9.24 64 18.48 64 28 C61.69 28 59.38 28 57 28 C56.6596875 27.20335938 56.319375 26.40671875 55.96875 25.5859375 C52.02881591 16.97257096 48.37826887 12.11289134 39.5 8.625 C30.52294086 7.02195373 24.7135599 8.50458594 16.8125 12.6875 C12.28738196 16.40815261 9.07442582 21.17836623 8 27 C7.2879321 34.41251007 7.79656056 40.70671496 12 47 C16.90637046 52.81077055 22.48836946 55.87501321 30 57 C36.95993621 57.38071446 43.38082485 55.05723494 49 51 C52.1773069 47.33387665 54.46646154 43.60061537 56 39 C58.64 38.67 61.28 38.34 64 38 C64 46.58 64 55.16 64 64 C42.88 64 21.76 64 0 64 C0 42.88 0 21.76 0 0 Z " fill="#0353F7" transform="translate(0,0)"/>
<path d="M0 0 C2.5 1.25 2.5 1.25 4.5 4.25 C4.5 5.57 4.5 6.89 4.5 8.25 C7.14 8.25 9.78 8.25 12.5 8.25 C12.726875 7.46625 12.95375 6.6825 13.1875 5.875 C14.5 3.25 14.5 3.25 16.9375 1.8125 C17.783125 1.626875 18.62875 1.44125 19.5 1.25 C20.49 1.91 21.48 2.57 22.5 3.25 C22.273125 4.466875 22.04625 5.68375 21.8125 6.9375 C21.26892751 11.04690804 22.19446892 12.79170338 24.5 16.25 C24.125 18.25 24.125 18.25 23.5 20.25 C23.88567131 22.93149993 23.88567131 22.93149993 24.5 25.25 C23.84 25.25 23.18 25.25 22.5 25.25 C22.479375 25.95125 22.45875 26.6525 22.4375 27.375 C21.01609713 31.73396879 18.43499426 33.98310113 14.5 36.25 C9.49584503 37.79348936 4.98503014 37.83072481 0.125 35.8125 C-3.32180564 33.73602682 -5.3504245 31.5065817 -6.9609375 27.81640625 C-7.92360386 23.23327728 -7.29526118 18.74478248 -6.76171875 14.12890625 C-6.67535156 13.17886719 -6.58898437 12.22882812 -6.5 11.25 C-6.83 10.92 -7.16 10.59 -7.5 10.25 C-7.97094801 3.89220183 -7.97094801 3.89220183 -6.125 1.375 C-2.8875969 -0.86627907 -2.8875969 -0.86627907 0 0 Z " fill="#079EC9" transform="translate(23.5,13.75)"/>
<path d="M0 0 C2.125 0.9375 2.125 0.9375 4 2 C3.75 4.375 3.75 4.375 3 7 C2.34128906 7.23976563 1.68257812 7.47953125 1.00390625 7.7265625 C0.01197266 8.35691406 0.01197266 8.35691406 -1 9 C-1.74673357 12.26943926 -1.74673357 12.26943926 -1.8125 16 C-1.88082031 17.258125 -1.94914062 18.51625 -2.01953125 19.8125 C-2.23530316 22.89749763 -2.23530316 22.89749763 -1 25 C-0.67 24.67 -0.34 24.34 0 24 C1.99964982 23.91241997 4.0023611 23.89303424 6.00390625 23.90234375 C7.21884766 23.90556641 8.43378906 23.90878906 9.68554688 23.91210938 C10.96494141 23.92048828 12.24433594 23.92886719 13.5625 23.9375 C14.84576172 23.94201172 16.12902344 23.94652344 17.45117188 23.95117188 C20.63416022 23.96300455 23.81705762 23.97948932 27 24 C27 24.66 27 25.32 27 26 C26.34 26 25.68 26 25 26 C24.979375 26.70125 24.95875 27.4025 24.9375 28.125 C23.51609713 32.48396879 20.93499426 34.73310113 17 37 C11.99584503 38.54348936 7.48503014 38.58072481 2.625 36.5625 C-0.82180564 34.48602682 -2.8504245 32.2565817 -4.4609375 28.56640625 C-5.42360386 23.98327728 -4.79526118 19.49478248 -4.26171875 14.87890625 C-4.17535156 13.92886719 -4.08898437 12.97882812 -4 12 C-4.33 11.67 -4.66 11.34 -5 11 C-5.47094801 4.64220183 -5.47094801 4.64220183 -3.625 2.125 C-2 1 -2 1 0 0 Z " fill="#086582" transform="translate(21,13)"/>
<path d="M0 0 C0.33 0 0.66 0 1 0 C1 8.58 1 17.16 1 26 C-7.58 26 -16.16 26 -25 26 C-21 24 -21 24 -19.0703125 23.10546875 C-11.33333551 19.45448563 -5.26374237 14.92653582 -2.08984375 6.6171875 C-1.35003183 4.42183865 -0.65202904 2.22282628 0 0 Z " fill="#010105" transform="translate(63,38)"/>
<path d="M0 0 C8.58 0 17.16 0 26 0 C26 8.58 26 17.16 26 26 C24.96420142 23.92840285 23.93775329 21.84749557 23.0625 19.703125 C19.61898568 11.75265812 14.35480589 6.34568931 6.3515625 2.83984375 C4.24440264 2.12527061 2.16647708 1.5023715 0 1 C0 0.67 0 0.34 0 0 Z " fill="#000105" transform="translate(38,0)"/>
<path d="M0 0 C2 4 2 4 2.859375 5.89453125 C7.25966941 15.37060386 12.48331559 19.80700538 22 24 C23.32 24.66 24.64 25.32 26 26 C17.42 26 8.84 26 0 26 C0 17.42 0 8.84 0 0 Z " fill="#000104" transform="translate(0,38)"/>
<path d="M0 0 C8.58 0 17.16 0 26 0 C22 2 22 2 20.10546875 2.859375 C10.62939614 7.25966941 6.19299462 12.48331559 2 22 C1.34 23.32 0.68 24.64 0 26 C0 17.42 0 8.84 0 0 Z " fill="#000104" transform="translate(0,0)"/>
<path d="M0 0 C8.91 0 17.82 0 27 0 C27 0.66 27 1.32 27 2 C26.34 2 25.68 2 25 2 C24.896875 2.78375 24.79375 3.5675 24.6875 4.375 C24 7 24 7 21 9 C14.07425727 9.77965233 8.09478963 9.4448811 2 6 C1.34 5.34 0.68 4.68 0 4 C0 2.68 0 1.36 0 0 Z " fill="#98296E" transform="translate(21,37)"/>
<path d="M0 0 C2.2977796 0.54036766 4.31738736 1.13488963 6.5 2.0625 C11.64899364 3.44169473 16.70051258 3.154354 22 3 C20.61757262 6.29500895 20.35410798 6.85127465 16.875 8.3125 C8.90948746 9.7257361 8.90948746 9.7257361 5 8 C2.86204391 5.54703105 1.3894057 2.9324476 0 0 Z " fill="#079DC9" transform="translate(20,42)"/>
<path d="M0 0 C2.6875 0.875 2.6875 0.875 5 2 C4.79375 3.2375 4.5875 4.475 4.375 5.75 C3.93892876 9.11909835 3.96596361 11.12841921 6 14 C3.36 13.67 0.72 13.34 -2 13 C-2 12.01 -2 11.02 -2 10 C-1.01 10 -0.02 10 1 10 C1 9.34 1 8.68 1 8 C-1.97 7.505 -1.97 7.505 -5 7 C-3.75023244 3.34683329 -3.32901247 2.21934164 0 0 Z " fill="#0B8CB0" transform="translate(41,15)"/>
<path d="M0 0 C8.91 0 17.82 0 27 0 C27 0.66 27 1.32 27 2 C24.03 2 21.06 2 18 2 C18 2.99 18 3.98 18 5 C13.06882891 5.28449064 10.78731641 5.13433082 7 2 C5.68 2 4.36 2 3 2 C2.01 3.485 2.01 3.485 1 5 C0.67 3.35 0.34 1.7 0 0 Z " fill="#D5358D" transform="translate(21,37)"/>
<path d="M0 0 C0.33 0.66 0.66 1.32 1 2 C2.78406473 2.68789577 2.78406473 2.68789577 4.875 3.125 C5.92300781 3.37636719 5.92300781 3.37636719 6.9921875 3.6328125 C9.15165752 4.08994791 9.15165752 4.08994791 12 4 C12 4.99 12 5.98 12 7 C4.08 7 -3.84 7 -12 7 C-9 3 -9 3 -6.95703125 2.609375 C-4.97135417 2.73958333 -2.98567708 2.86979167 -1 3 C-0.67 2.01 -0.34 1.02 0 0 Z " fill="#1092BA" transform="translate(35,30)"/>
<path d="M0 0 C2.31 0 4.62 0 7 0 C7.02688151 1.64574566 7.04634123 3.29161413 7.0625 4.9375 C7.07410156 5.85402344 7.08570312 6.77054688 7.09765625 7.71484375 C7 10 7 10 6 11 C3.66702567 11.04092937 1.33294775 11.04241723 -1 11 C-0.67 7.37 -0.34 3.74 0 0 Z " fill="#FCFEFD" transform="translate(57,28)"/>
<path d="M0 0 C6.0546875 -0.1953125 6.0546875 -0.1953125 8 0 C10 2 10 2 10 5 C7.3125 6.1875 7.3125 6.1875 4 7 C1.125 5.625 1.125 5.625 -1 4 C-0.67 2.68 -0.34 1.36 0 0 Z " fill="#F3F5F4" transform="translate(38,28)"/>
<path d="M0 0 C0.99 0.33 1.98 0.66 3 1 C3.73046875 3.06640625 3.73046875 3.06640625 4.1875 5.5625 C4.34605469 6.38878906 4.50460938 7.21507812 4.66796875 8.06640625 C4.77753906 8.70449219 4.88710938 9.34257812 5 10 C1.66666667 10 -1.66666667 10 -5 10 C-4.75 8.1875 -4.75 8.1875 -4 6 C-2.67151309 4.99357052 -1.33849671 3.99307821 0 3 C0 2.01 0 1.02 0 0 Z " fill="#0AA1CC" transform="translate(24,15)"/>
<path d="M0 0 C-1.65 0.33 -3.3 0.66 -5 1 C-4.77441406 1.58265625 -4.54882812 2.1653125 -4.31640625 2.765625 C-4 5 -4 5 -5.21484375 6.921875 C-5.78332031 7.52515625 -6.35179687 8.1284375 -6.9375 8.75 C-7.50339844 9.36359375 -8.06929687 9.9771875 -8.65234375 10.609375 C-9.31943359 11.29773438 -9.31943359 11.29773438 -10 12 C-11.74565111 8.78360346 -12.204437 6.67986596 -12 3 C-10.75823305 2.29773859 -9.50614401 1.61370891 -8.25 0.9375 C-7.20585937 0.36322266 -7.20585937 0.36322266 -6.140625 -0.22265625 C-3.63859372 -1.1312406 -2.4667645 -0.88336837 0 0 Z " fill="#45BADA" transform="translate(30,28)"/>
<path d="M0 0 C2.125 0.9375 2.125 0.9375 4 2 C3.8125 4.375 3.8125 4.375 3 7 C0.4375 8.3125 0.4375 8.3125 -2 9 C-2.12375 8.360625 -2.2475 7.72125 -2.375 7.0625 C-2.684375 6.0415625 -2.684375 6.0415625 -3 5 C-3.66 4.67 -4.32 4.34 -5 4 C-3.36587557 2.29159719 -2.13093906 1.06546953 0 0 Z " fill="#13617F" transform="translate(21,13)"/>
<path d="M0 0 C2.31 0 4.62 0 7 0 C6.01 0.495 6.01 0.495 5 1 C4.34 2.32 3.68 3.64 3 5 C-1.62 5 -6.24 5 -11 5 C-10.34 4.67 -9.68 4.34 -9 4 C-9 3.34 -9 2.68 -9 2 C-6.03 2.33 -3.06 2.66 0 3 C0 2.01 0 1.02 0 0 Z " fill="#64093F" transform="translate(39,39)"/>
<path d="M0 0 C3.63 0.33 7.26 0.66 11 1 C11 1.99 11 2.98 11 4 C10.05125 3.979375 9.1025 3.95875 8.125 3.9375 C5.09333717 3.77448174 5.09333717 3.77448174 3 5 C2.01 6.485 2.01 6.485 1 8 C0.67 7.34 0.34 6.68 0 6 C-0.66 6 -1.32 6 -2 6 C-1.49396008 3.83125748 -1.00016187 2.00032373 0 0 Z " fill="#088AAF" transform="translate(21,24)"/>
<path d="M0 0 C0.66 0 1.32 0 2 0 C3.62077189 5.61036424 4.55579195 9.46245077 2 15 C1.67 15 1.34 15 1 15 C1.03255208 12.94921875 1.06510417 10.8984375 1.09765625 8.84765625 C1.20561184 6.98267859 1.20561184 6.98267859 0 6 C-0.04080783 4.00041636 -0.04254356 1.99954746 0 0 Z " fill="#0B708E" transform="translate(16,18)"/>
<path d="M0 0 C0 1.32 0 2.64 0 4 C-1.65 4 -3.3 4 -5 4 C-5.33 2.68 -5.66 1.36 -6 0 C-3.50907189 -1.24546405 -2.58919267 -0.7767578 0 0 Z " fill="#171818" transform="translate(31,29)"/>
<path d="M0 0 C1.65 1.32 3.3 2.64 5 4 C4.67 4.66 4.34 5.32 4 6 C1.69 5.67 -0.62 5.34 -3 5 C-3 4.01 -3 3.02 -3 2 C-2.01 2 -1.02 2 0 2 C0 1.34 0 0.68 0 0 Z " fill="#0D657F" transform="translate(42,23)"/>
<path d="M0 0 C2.64 0 5.28 0 8 0 C5.7819776 3.3270336 4.72358715 3.88292386 1 5 C0.34 4.67 -0.32 4.34 -1 4 C-0.67 2.68 -0.34 1.36 0 0 Z " fill="#5F083B" transform="translate(24,38)"/>
<path d="M0 0 C2.97 0 5.94 0 9 0 C9 0.66 9 1.32 9 2 C9.66 2.33 10.32 2.66 11 3 C4.6 3.36923077 4.6 3.36923077 1.5625 1.5 C1.046875 1.005 0.53125 0.51 0 0 Z " fill="#DF3C94" transform="translate(28,39)"/>
<path d="M0 0 C2.31 0.33 4.62 0.66 7 1 C6.67 1.99 6.34 2.98 6 4 C3.36 4 0.72 4 -2 4 C-1.34 2.68 -0.68 1.36 0 0 Z " fill="#0F5874" transform="translate(25,33)"/>
<path d="M0 0 C1.65 0 3.3 0 5 0 C4.67 1.32 4.34 2.64 4 4 C2.35 3.67 0.7 3.34 -1 3 C-0.67 2.01 -0.34 1.02 0 0 Z " fill="#101010" transform="translate(40,29)"/>
<path d="M0 0 C1.65 0 3.3 0 5 0 C5 0.99 5 1.98 5 3 C3.35 3.66 1.7 4.32 0 5 C0 3.35 0 1.7 0 0 Z " fill="#CD328A" transform="translate(19,17)"/>
<path d="M0 0 C1.32 0.33 2.64 0.66 4 1 C3.125 4.875 3.125 4.875 2 6 C0.00041636 6.04080783 -2.00045254 6.04254356 -4 6 C-4 5.67 -4 5.34 -4 5 C-2.35 4.67 -0.7 4.34 1 4 C0.67 2.68 0.34 1.36 0 0 Z " fill="#FAFCFD" transform="translate(30,28)"/>
</svg>
