<?xml version="1.0" encoding="UTF-8"?>
<svg version="1.1" xmlns="http://www.w3.org/2000/svg" width="329" height="329">
<path d="M0 0 C108.57 0 217.14 0 329 0 C329 108.57 329 217.14 329 329 C220.43 329 111.86 329 0 329 C0 220.43 0 111.86 0 0 Z " fill="#0253FD" transform="translate(0,0)"/>
<path d="M0 0 C108.57 0 217.14 0 329 0 C329 108.57 329 217.14 329 329 C220.43 329 111.86 329 0 329 C0 220.43 0 111.86 0 0 Z M31 32 C30.90164427 33.41592398 30.87260981 34.836729 30.87136555 36.25606441 C30.8681411 37.17992189 30.86491665 38.10377937 30.8615945 39.05563253 C30.8631431 40.08245675 30.8646917 41.10928097 30.86628723 42.16722107 C30.86402167 43.24880574 30.86175612 44.33039041 30.85942191 45.44475037 C30.85304967 49.09916384 30.85391333 52.75354054 30.85473633 56.40795898 C30.85174685 59.01566618 30.84834482 61.62337294 30.84455872 64.2310791 C30.83623587 70.59707031 30.83350314 76.96305226 30.83294634 83.32904845 C30.83247195 88.50111098 30.8304211 93.67317045 30.82724571 98.84523201 C30.81843471 113.49363912 30.81382704 128.14203888 30.81457619 142.79044866 C30.81461614 143.58091164 30.8146561 144.37137461 30.81469727 145.18579102 C30.81473815 145.97721381 30.81477903 146.7686366 30.81482115 147.5840419 C30.81522775 160.41546155 30.80565569 173.24685187 30.7915589 186.07826304 C30.77721446 199.23843087 30.77028765 212.39858437 30.77115268 225.55876023 C30.77148531 232.95324793 30.76870912 240.3477049 30.75797462 247.74218559 C30.74794871 254.69337656 30.74818515 261.6445014 30.75549126 268.5956955 C30.75654239 271.15398567 30.75414322 273.7122798 30.7481308 276.27056313 C30.74048218 279.74905201 30.74500802 283.2273118 30.75276184 286.70579529 C30.74761828 287.73038878 30.74247471 288.75498228 30.73717529 289.81062406 C30.74177408 290.73708929 30.74637288 291.66355451 30.75111103 292.61809444 C30.75089366 293.42180003 30.75067629 294.22550562 30.75045234 295.05356592 C30.82867994 297.23631032 30.82867994 297.23631032 33 299 C34.99877653 299.30232398 34.99877653 299.30232398 37.32946682 299.25168228 C38.24424846 299.25689778 39.1590301 299.26211327 40.1015324 299.26748681 C41.11308881 299.26302537 42.12464522 299.25856392 43.16685486 299.25396729 C44.23633773 299.25708727 45.3058206 299.26020725 46.40771204 299.26342177 C50.0152712 299.27144148 53.622664 299.26506265 57.23022461 299.25878906 C59.80690103 299.26149718 62.38357668 299.26505709 64.96025085 299.26940918 C71.24691126 299.2783206 77.53352401 299.27637333 83.82018631 299.2705839 C88.92833643 299.26607387 94.03647317 299.26545164 99.14462471 299.26763153 C99.87063221 299.267938 100.5966397 299.26824446 101.34464743 299.26856022 C102.81936117 299.26919964 104.29407491 299.26984807 105.76878864 299.2705054 C119.61024119 299.27621392 133.45166729 299.26964284 147.2931155 299.25890467 C159.17711305 299.24997056 171.06107152 299.25151902 182.94506836 299.26074219 C196.7341991 299.27143887 210.52330662 299.27566256 224.31244093 299.26951766 C225.78214713 299.26888054 227.25185332 299.2682518 228.72155952 299.26763153 C229.4447443 299.26732298 230.16792908 299.26701443 230.91302855 299.26669653 C236.01622754 299.26496764 241.11941185 299.2678889 246.22260857 299.27259064 C253.08846173 299.27877708 259.95423968 299.27438898 266.82008553 299.26280212 C269.34570314 299.26014907 271.87132695 299.26093156 274.39694214 299.26532745 C277.8334338 299.27075894 281.26968531 299.26397785 284.7061615 299.25396729 C285.71548719 299.25842873 286.72481288 299.26289017 287.7647242 299.26748681 C288.68211358 299.26227132 289.59950297 299.25705582 290.54469204 299.25168228 C291.33836255 299.25135758 292.13203305 299.25103287 292.94975418 299.25069833 C295.31004696 299.11802083 295.31004696 299.11802083 298 297 C298.4505348 294.98526802 298.4505348 294.98526802 298.3719368 292.61809444 C298.37852664 291.69162922 298.38511649 290.76516399 298.39190602 289.81062406 C298.38384962 288.78603057 298.37579321 287.76143707 298.36749268 286.70579529 C298.37076152 285.62265063 298.37403036 284.53950597 298.37739825 283.42353874 C298.38472009 279.76976842 298.37048238 276.11639273 298.35644531 272.46264648 C298.3572356 269.85316906 298.35933104 267.24369175 298.36264038 264.63421631 C298.36828337 258.26798388 298.35794105 251.90187155 298.34235242 245.5356596 C298.32484741 238.12899787 298.3233939 230.7223597 298.32273683 223.31568051 C298.32104748 210.10504028 298.30521632 196.89445491 298.28125 183.68383789 C298.25798605 170.85115097 298.2438248 158.01849885 298.24023438 145.18579102 C298.23990022 144.00009655 298.23990022 144.00009655 298.23955932 142.79044866 C298.23911674 141.19815613 298.23867471 139.60586361 298.23823325 138.01357109 C298.23801369 137.22819235 298.23779412 136.44281361 298.2375679 135.63363552 C298.23735192 134.85029896 298.23713593 134.06696241 298.2369134 133.25988838 C298.23321623 121.04918228 298.22185666 108.83848183 298.2094375 96.62778191 C298.20499608 92.19487103 298.20156037 87.76196068 298.19881538 83.32904845 C298.19397779 75.64365118 298.18389022 67.95828601 298.16798782 60.27290344 C298.1634496 57.71419583 298.16062259 55.15548457 298.15958023 52.59677315 C298.15784554 49.12022818 298.14999195 45.64375203 298.14044189 42.16722107 C298.14130838 41.14039685 298.14217486 40.11357263 298.1430676 39.05563253 C298.13922645 38.13177505 298.13538531 37.20791757 298.13142776 36.25606441 C298.13018127 35.45252118 298.12893477 34.64897795 298.1276505 33.82108492 C298.19866221 31.98001819 298.19866221 31.98001819 297 31 C295.58310949 30.90253398 294.16138108 30.87444562 292.74114227 30.87415886 C291.35443101 30.87024724 291.35443101 30.87024724 289.93970537 30.86625659 C288.91219903 30.86848732 287.8846927 30.87071804 286.8260498 30.87301636 C285.74375957 30.87145637 284.66146934 30.86989638 283.54638243 30.86828911 C279.88963206 30.864274 276.23292261 30.86747073 272.57617188 30.87060547 C269.9668424 30.86925165 267.35751312 30.86747184 264.7481842 30.86529541 C258.37851566 30.86083706 252.00885886 30.86181447 245.63918984 30.86470805 C240.4647354 30.86696183 235.29028426 30.86727472 230.11582947 30.86618423 C229.01325969 30.86595439 229.01325969 30.86595439 227.88841578 30.86571989 C226.39541805 30.86540018 224.90242031 30.86507597 223.40942258 30.8647473 C209.39302304 30.86189232 195.37663004 30.86517982 181.36023158 30.87054767 C169.320392 30.87501572 157.28056206 30.8742398 145.24072266 30.86962891 C131.27619725 30.86428346 117.31167757 30.86216701 103.34715128 30.86524117 C101.85949103 30.86555974 100.37183078 30.86587411 98.88417053 30.86618423 C97.78609025 30.86641565 97.78609025 30.86641565 96.66582653 30.86665174 C91.49457774 30.86751698 86.32333258 30.86605385 81.15208435 30.86370468 C74.19844837 30.86061541 67.24483099 30.86279895 60.29119682 30.86859894 C57.73087533 30.86992733 55.1705523 30.8695311 52.6102314 30.86733627 C49.13144982 30.86462784 45.65272791 30.86800212 42.1739502 30.87301636 C41.14644386 30.87078564 40.11893752 30.86855491 39.06029463 30.86625659 C38.13582045 30.86886434 37.21134627 30.87147209 36.25885773 30.87415886 C35.05272977 30.87440239 35.05272977 30.87440239 33.82223558 30.87465084 C31.98011344 30.80091541 31.98011344 30.80091541 31 32 Z " fill="#000309" transform="translate(0,0)"/>
<path d="M0 0 C12.87 0 25.74 0 39 0 C39 4.29 39 8.58 39 13 C35.04 13 31.08 13 27 13 C26.34 11.35 25.68 9.7 25 8 C22.59454362 6.79727181 21.05003047 6.89928528 18.375 6.9375 C17.55773437 6.94652344 16.74046875 6.95554688 15.8984375 6.96484375 C15.27195313 6.97644531 14.64546875 6.98804688 14 7 C12.8738113 12.85621693 12.8738113 12.85621693 14 18.5625 C17.05411785 20.7576472 19.3479699 20.45650376 23 20 C25.61593153 18.16884793 25.96989455 17.09031634 27 14 C30.96 14 34.92 14 39 14 C39 18.29 39 22.58 39 27 C26.13 27 13.26 27 0 27 C0 18.09 0 9.18 0 0 Z " fill="#F9FAFE" transform="translate(120,183)"/>
<path d="M0 0 C1.98 0 3.96 0 6 0 C6 2.64 6 5.28 6 8 C7.32 8 8.64 8 10 8 C10 5.36 10 2.72 10 0 C10.66 0 11.32 0 12 0 C12 2.64 12 5.28 12 8 C12.66 8 13.32 8 14 8 C14.37125 6.5459375 14.37125 6.5459375 14.75 5.0625 C15.1625 4.051875 15.575 3.04125 16 2 C17.32 1.67 18.64 1.34 20 1 C20 4.3 20 7.6 20 11 C17.36 11 14.72 11 12 11 C12.33 11.66 12.66 12.32 13 13 C14.89533342 13.46523063 14.89533342 13.46523063 17.0625 13.625 C18.361875 13.74875 19.66125 13.8725 21 14 C21.33 13.01 21.66 12.02 22 11 C27.94 11 33.88 11 40 11 C40 20.04216867 40 20.04216867 37.75 22.875 C37.33234375 23.42929688 36.9146875 23.98359375 36.484375 24.5546875 C32.92068227 28.02459884 29.49178067 28.34107194 24.625 28.4375 C17.49721818 28.32550343 17.49721818 28.32550343 14.3125 25.8125 C10.22337903 20.83924477 9.74877966 17.40611866 10 11 C8.68 11 7.36 11 6 11 C6 16.61 6 22.22 6 28 C4.02 28 2.04 28 0 28 C0 18.76 0 9.52 0 0 Z " fill="#E9EFFE" transform="translate(165,149)"/>
<path d="M0 0 C4.01770924 1.9709517 6.52452222 4.28678334 9 8 C9.74090337 12.87286447 10.16078586 17.89563053 7.7265625 22.30859375 C4.93349722 25.58533619 2.80406555 27.81095121 -1.609375 28.2734375 C-11.13348083 28.58143097 -11.13348083 28.58143097 -14.625 25.75 C-18.63802078 21.10334436 -19.56089759 17.62313907 -19.453125 11.54296875 C-18.69677498 7.29828027 -16.29273699 4.65835647 -13 2 C-8.77530681 -0.53481591 -4.81589954 -0.8107575 0 0 Z " fill="#F0F4FE" transform="translate(225,149)"/>
<path d="M0 0 C4.03125409 3.66477644 6.29403454 6.87608671 6.5625 12.375 C6.29403454 17.87391329 4.03125409 21.08522356 0 24.75 C-4.65463246 26.5326252 -9.03458408 26.75752487 -13.9375 25.875 C-17.96851802 23.63397949 -20.4741003 21.26519909 -21.9375 16.875 C-22.33912118 12.31814431 -22.47807047 8.21220064 -20.75 3.9375 C-15.32321139 -2.23781117 -7.54581496 -2.88988658 0 0 Z " fill="#F0F4FE" transform="translate(112.9375,184.125)"/>
<path d="M0 0 C2.536875 -0.061875 5.07375 -0.12375 7.6875 -0.1875 C8.47729248 -0.21481201 9.26708496 -0.24212402 10.08081055 -0.27026367 C14.62873502 -0.32374161 17.43897489 0.14476365 21 3 C23.93693279 6.03953306 24.41015043 8.19209942 24.375 12.375 C24.22865904 16.94815496 23.816785 20.24428666 21 24 C16.36381288 26.90451604 12.46425945 27.38767794 7.125 27.1875 C4.77375 27.125625 2.4225 27.06375 0 27 C0 18.09 0 9.18 0 0 Z " fill="#F6F8FE" transform="translate(138,150)"/>
<path d="M0 0 C7.92 0 15.84 0 24 0 C24 6.6 24 13.2 24 20 C24.66 20 25.32 20 26 20 C26 13.4 26 6.8 26 0 C34.25 0 42.5 0 51 0 C51 8.91 51 17.82 51 27 C47.37 27 43.74 27 40 27 C40.99 26.34 41.98 25.68 43 25 C47.1375518 21.11745987 47.1375518 21.11745987 48.1875 15.6875 C48.00976414 12.19202803 47.76592204 10.00206747 46 7 C44.32171592 6.03375833 44.32171592 6.03375833 42 6 C40.700625 5.87625 39.40125 5.7525 38.0625 5.625 C34.75990305 5.69290386 33.94001811 6.0387383 31 7.9375 C28.66496163 11.5130275 28.2764907 13.64987228 28.5 17.84765625 C29.29692518 21.2781701 31.30234802 22.8804163 34 25 C34.66 25.66 35.32 26.32 36 27 C29.07 27 22.14 27 15 27 C17.97 23.535 17.97 23.535 21 20 C21.97483925 16.83052266 21.78661188 14.21249891 21 11 C19.0125694 7.9567469 17.67958873 6.37926197 14.0625 5.5625 C10.22273235 5.32978681 8.36288196 5.76837322 5.0625 7.875 C2.39553899 10.62277801 2.04175502 11.446746 1.75 15.3125 C2.01759472 19.25952206 2.60059651 20.91505265 5 24 C7.06954847 25.78344178 7.06954847 25.78344178 9 27 C6.03 27 3.06 27 0 27 C0 18.09 0 9.18 0 0 Z " fill="#F6F8FE" transform="translate(135,50)"/>
<path d="M0 0 C3.5578125 -0.0928125 3.5578125 -0.0928125 7.1875 -0.1875 C8.29387817 -0.22846802 8.29387817 -0.22846802 9.42260742 -0.27026367 C13.84236338 -0.32577175 16.46742902 0.35888761 20 3 C21 4 21 4 21.0625 7.375 C21.041875 8.57125 21.02125 9.7675 21 11 C21 11.99 21 12.98 21 14 C21.33 14.33 21.66 14.66 22 15 C22.23828125 16.92578125 22.23828125 16.92578125 22.3125 19.3125 C22.34988281 20.09238281 22.38726562 20.87226563 22.42578125 21.67578125 C22 24 22 24 20.55859375 26.27734375 C16.7212257 28.86097628 13.25556087 28.43163695 8.75 28.25 C5.8625 28.1675 2.975 28.085 0 28 C0 18.76 0 9.52 0 0 Z " fill="#EBF0FE" transform="translate(58,149)"/>
<path d="M0 0 C3.8053125 -0.12375 3.8053125 -0.12375 7.6875 -0.25 C8.87218872 -0.30462402 8.87218872 -0.30462402 10.08081055 -0.36035156 C13.87004222 -0.41976043 15.66463209 -0.20489841 18.9921875 1.828125 C21 4 21 4 21.4375 7 C21.02914449 9.80015206 20.47068318 11.61013983 19 14 C19.66 14 20.32 14 21 14 C22.54586876 17.09173752 22.29359521 19.59429552 22 23 C20.13291495 25.36497439 18.67938569 26.66030715 16 28 C13.28024285 28.07187519 10.59325368 28.0927862 7.875 28.0625 C5.27625 28.041875 2.6775 28.02125 0 28 C0 18.76 0 9.52 0 0 Z " fill="#E9EFFE" transform="translate(58,249)"/>
<path d="M0 0 C2.64 0 5.28 0 8 0 C10.31 5.94 12.62 11.88 15 18 C17.31 12.06 19.62 6.12 22 0 C24.31 0 26.62 0 29 0 C29 8.91 29 17.82 29 27 C27.35 27 25.7 27 24 27 C23.67 22.38 23.34 17.76 23 13 C21.35 17.62 19.7 22.24 18 27 C16.02 27 14.04 27 12 27 C11.35366725 25.22934889 10.7079517 23.45847247 10.0625 21.6875 C9.70285156 20.70136719 9.34320313 19.71523437 8.97265625 18.69921875 C8.29114035 16.8079437 7.6357189 14.90715671 7 13 C6.67 17.62 6.34 22.24 6 27 C4.02 27 2.04 27 0 27 C0 18.09 0 9.18 0 0 Z " fill="#F0F4FE" transform="translate(58,183)"/>
<path d="M0 0 C0.375 2.125 0.375 2.125 0 5 C-1.79340357 7.23913252 -3.83452663 9.12454539 -6 11 C-3.03 11.495 -3.03 11.495 0 12 C0 13.32 0 14.64 0 16 C-1.32 16 -2.64 16 -4 16 C-4 16.66 -4 17.32 -4 18 C-3.01 18.33 -2.02 18.66 -1 19 C0.93380508 21.61063686 1.01480576 22.85194241 0.6875 26.125 C0 29 0 29 -1 31 C-6.28 31 -11.56 31 -17 31 C-18.59387042 27.81225917 -18.52663137 24.46072041 -18 21 C-16 18.5 -16 18.5 -14 17 C-15.32 16.67 -16.64 16.34 -18 16 C-18.05406122 14.06280622 -18.09282025 12.12518079 -18.125 10.1875 C-18.14820313 9.10855469 -18.17140625 8.02960938 -18.1953125 6.91796875 C-18 4 -18 4 -16 1 C-12.5625 0.5625 -12.5625 0.5625 -9 1 C-7.0625 3 -7.0625 3 -6 5 C-5.195625 4.175 -4.39125 3.35 -3.5625 2.5 C-1 0 -1 0 0 0 Z " fill="#00081B" transform="translate(25,267)"/>
<path d="M0 0 C7 0 7 0 8.89624023 1.74414062 C9.36231689 2.54013672 9.82839355 3.33613281 10.30859375 4.15625 C10.82744141 5.01347656 11.34628906 5.87070313 11.88085938 6.75390625 C12.39455078 7.66011719 12.90824219 8.56632813 13.4375 9.5 C13.97826172 10.40621094 14.51902344 11.31242188 15.07617188 12.24609375 C16.40707653 14.48389803 17.70661937 16.74030052 19 19 C19.33 13.06 19.66 7.12 20 1 C21.65 1 23.3 1 25 1 C25 9.91 25 18.82 25 28 C18 28 18 28 16.30322266 26.65478516 C15.9272998 26.03909668 15.55137695 25.4234082 15.1640625 24.7890625 C14.73996094 24.12132812 14.31585938 23.45359375 13.87890625 22.765625 C13.46511719 22.05921875 13.05132812 21.3528125 12.625 20.625 C12.18800781 19.92632812 11.75101563 19.22765625 11.30078125 18.5078125 C9.77124974 16.04540883 8.29661396 13.59322791 7 11 C6.67 16.61 6.34 22.22 6 28 C4.02 28 2.04 28 0 28 C0 18.76 0 9.52 0 0 Z " fill="#F0F3FE" transform="translate(108,149)"/>
<path d="M0 0 C3.36918514 -0.40229076 5.73758079 -0.66907241 9 0 C11.30214968 2.75134962 12.46968126 4.81783722 14 8 C14.68585276 9.24728392 15.3791708 10.49047915 16.078125 11.73046875 C16.82408233 13.06966387 17.56886636 14.40951318 18.3125 15.75 C18.67480713 16.39976807 19.03711426 17.04953613 19.41040039 17.71899414 C21.26010708 21.16267745 22 23.00295403 22 27 C18.7 27 15.4 27 12 27 C12.33 23.04 12.66 19.08 13 15 C12.01 15.33 11.02 15.66 10 16 C9.96261719 16.61488281 9.92523438 17.22976563 9.88671875 17.86328125 C9.82097656 18.67152344 9.75523438 19.47976563 9.6875 20.3125 C9.62949219 21.11300781 9.57148437 21.91351563 9.51171875 22.73828125 C8.89444779 25.46652463 8.29146866 26.40659464 6 28 C3.625 28.3984375 3.625 28.3984375 1 28.375 C0.13375 28.38273437 -0.7325 28.39046875 -1.625 28.3984375 C-4.44981478 27.92453765 -5.34004738 27.30578628 -7 25 C-7.51745613 21.00819558 -7.48225467 18.80375778 -5.39453125 15.32421875 C-2.29879112 12.31938127 -0.50414959 12.31512449 3.75 12.1875 C4.92046875 12.13980469 6.0909375 12.09210938 7.296875 12.04296875 C8.18890625 12.02878906 9.0809375 12.01460938 10 12 C10 10.68 10 9.36 10 8 C6.7 8.33 3.4 8.66 0 9 C0 6.03 0 3.06 0 0 Z " fill="#EDF1FE" transform="translate(88,249)"/>
<path d="M0 0 C7 0 7 0 8.80444336 1.56054688 C9.22862549 2.27275391 9.65280762 2.98496094 10.08984375 3.71875 C10.56357422 4.48574219 11.03730469 5.25273438 11.52539062 6.04296875 C11.99138672 6.85378906 12.45738281 7.66460937 12.9375 8.5 C13.43056641 9.31082031 13.92363281 10.12164062 14.43164062 10.95703125 C15.64383978 12.95774831 16.82499869 14.97721294 18 17 C18.33 11.39 18.66 5.78 19 0 C20.65 0 22.3 0 24 0 C24 8.91 24 17.82 24 27 C22.02 27 20.04 27 18 27 C15.76953125 24.76953125 15.76953125 24.76953125 13.8125 21.8125 C12.83216797 20.36810547 12.83216797 20.36810547 11.83203125 18.89453125 C11.22746094 17.93933594 10.62289062 16.98414062 10 16 C9.42636719 15.09636719 8.85273438 14.19273438 8.26171875 13.26171875 C7 11 7 11 7 9 C6.34 9 5.68 9 5 9 C5 14.94 5 20.88 5 27 C3.35 27 1.7 27 0 27 C0 18.09 0 9.18 0 0 Z " fill="#F8F9FE" transform="translate(211,50)"/>
<path d="M0 0 C2.31 0 4.62 0 7 0 C8.67862395 3.74476003 10.3407917 7.49660176 12 11.25 C12.47695312 12.31347656 12.95390625 13.37695312 13.4453125 14.47265625 C13.89648438 15.49746094 14.34765625 16.52226563 14.8125 17.578125 C15.23144531 18.52075195 15.65039062 19.46337891 16.08203125 20.43457031 C17 23 17 23 17 27 C15.35 27 13.7 27 12 27 C11.34 25.68 10.68 24.36 10 23 C5.71 23 1.42 23 -3 23 C-3.66 24.32 -4.32 25.64 -5 27 C-6.65 27 -8.3 27 -10 27 C-9.43343202 20.88106577 -6.89348871 15.67636193 -4.4375 10.125 C-4.01275391 9.15046875 -3.58800781 8.1759375 -3.15039062 7.171875 C-2.10624496 4.77855235 -1.05597786 2.38811986 0 0 Z " fill="#F0F4FE" transform="translate(97,84)"/>
<path d="M0 0 C2.701875 -0.103125 5.40375 -0.20625 8.1875 -0.3125 C9.02949951 -0.35802002 9.87149902 -0.40354004 10.73901367 -0.45043945 C14.94360153 -0.52790422 16.56674225 -0.32660969 20.046875 2.296875 C22 5 22 5 22.0625 8.5625 C20.3867374 13.98408488 20.3867374 13.98408488 17 16 C13.26623014 16.32818438 9.7627917 16.17918056 6 16 C6 19.63 6 23.26 6 27 C4.02 27 2.04 27 0 27 C0 18.09 0 9.18 0 0 Z " fill="#EAEFFE" transform="translate(214,183)"/>
<path d="M0 0 C6.27 0 12.54 0 19 0 C19.48474576 10.17966102 19.48474576 10.17966102 17.375 13.75 C14.21337667 15.41401228 12.37982503 14.92177046 9 14 C8.67 12.35 8.34 10.7 8 9 C7.34 9 6.68 9 6 9 C5.71125 9.61875 5.4225 10.2375 5.125 10.875 C4 13 4 13 2 15 C7.55079437 17.92678249 13.00067626 20.1668733 19 22 C19 23.65 19 25.3 19 27 C16.20964954 28.00380916 13.41785145 29.0031945 10.625 30 C9.43390625 30.42925781 9.43390625 30.42925781 8.21875 30.8671875 C7.45820313 31.13789062 6.69765625 31.40859375 5.9140625 31.6875 C5.2123291 31.93886719 4.5105957 32.19023438 3.78759766 32.44921875 C2 33 2 33 0 33 C0.33 31.68 0.66 30.36 1 29 C1.99 29 2.98 29 4 29 C4 26.03 4 23.06 4 20 C2.68 19.67 1.36 19.34 0 19 C-0.7230444 12.01057082 -0.7230444 12.01057082 1.3359375 9.1328125 C2.81861028 7.67798334 4.40423474 6.32980438 6 5 C3.03 4.505 3.03 4.505 0 4 C0 2.68 0 1.36 0 0 Z " fill="#0049E3" transform="translate(304,50)"/>
<path d="M0 0 C3.19758575 1.45976741 5.80627043 3.22897317 8 6 C8 6.99 8 7.98 8 9 C5.1875 9.1875 5.1875 9.1875 2 9 C1.525625 8.505 1.05125 8.01 0.5625 7.5 C-1.08339692 5.59216358 -1.08339692 5.59216358 -4.6875 5.8125 C-5.780625 5.874375 -6.87375 5.93625 -8 6 C-8.33 7.32 -8.66 8.64 -9 10 C-8.18015625 10.19335938 -7.3603125 10.38671875 -6.515625 10.5859375 C-5.43796875 10.84632812 -4.3603125 11.10671875 -3.25 11.375 C-2.18265625 11.63023438 -1.1153125 11.88546875 -0.015625 12.1484375 C2.59780983 12.88642816 4.74011474 13.50573007 7 15 C8 18.3125 8 18.3125 8 22 C5.91374661 25.42741629 4.8255689 26.72481037 1 28 C-4.21212052 28.5727605 -9.33421929 29.13474054 -13.6875 25.8125 C-16 23 -16 23 -16.375 20.1875 C-16.25125 19.465625 -16.1275 18.74375 -16 18 C-13.6875 17.75 -13.6875 17.75 -11 18 C-10.5875 18.66 -10.175 19.32 -9.75 20 C-8.19826383 22.22242056 -8.19826383 22.22242056 -5.81640625 22.265625 C-3.53293403 22.25137556 -1.27676042 22.17183098 1 22 C1.33 20.68 1.66 19.36 2 18 C1.19175781 17.90203125 0.38351563 17.8040625 -0.44921875 17.703125 C-5.05774911 17.0582643 -9.06606113 16.46696944 -13.25 14.375 C-15.41451608 11.43744247 -15.79475922 9.51291953 -15.5390625 5.90625 C-15 4 -15 4 -12.5625 1.5 C-8.16460589 -0.35174489 -4.70295694 -0.73021882 0 0 Z " fill="#ECF1FE" transform="translate(174,83)"/>
<path d="M0 0 C2.5625 1.6875 2.5625 1.6875 4.5625 4.6875 C4.5625 5.6775 4.5625 6.6675 4.5625 7.6875 C1.75 7.875 1.75 7.875 -1.4375 7.6875 C-1.911875 7.1925 -2.38625 6.6975 -2.875 6.1875 C-4.52089692 4.27966358 -4.52089692 4.27966358 -8.125 4.5 C-9.218125 4.561875 -10.31125 4.62375 -11.4375 4.6875 C-11.7675 6.0075 -12.0975 7.3275 -12.4375 8.6875 C-11.61765625 8.88085938 -10.7978125 9.07421875 -9.953125 9.2734375 C-8.87546875 9.53382812 -7.7978125 9.79421875 -6.6875 10.0625 C-5.62015625 10.31773438 -4.5528125 10.57296875 -3.453125 10.8359375 C-0.83969017 11.57392816 1.30261474 12.19323007 3.5625 13.6875 C4.5625 17 4.5625 17 4.5625 20.6875 C2.47624661 24.11491629 1.3880689 25.41231037 -2.4375 26.6875 C-7.54181626 27.16948652 -11.95060213 27.46068689 -16.5625 25.0625 C-18.79002176 22.24097244 -19.19534048 20.23917293 -19.4375 16.6875 C-17.125 16.4375 -17.125 16.4375 -14.4375 16.6875 C-14.025 17.3475 -13.6125 18.0075 -13.1875 18.6875 C-11.63576383 20.90992056 -11.63576383 20.90992056 -9.25390625 20.953125 C-6.97043403 20.93887556 -4.71426042 20.85933098 -2.4375 20.6875 C-2.1075 19.3675 -1.7775 18.0475 -1.4375 16.6875 C-2.54158203 16.52314453 -2.54158203 16.52314453 -3.66796875 16.35546875 C-14.5352918 14.5897082 -14.5352918 14.5897082 -18.4375 10.6875 C-18.78178787 7.68727718 -19.01160078 5.58614609 -18.4375 2.6875 C-13.17126075 -2.71377102 -6.67358018 -2.54809425 0 0 Z " fill="#EDF1FE" transform="translate(135.4375,84.3125)"/>
<path d="M0 0 C2.14847953 1.76933609 3.6714814 3.37846965 5.125 5.75 C5.125 6.41 5.125 7.07 5.125 7.75 C2.25 7.9375 2.25 7.9375 -0.875 7.75 C-1.535 6.76 -2.195 5.77 -2.875 4.75 C-5.08225073 4.38637182 -5.08225073 4.38637182 -7.5 4.5625 C-8.31726563 4.58957031 -9.13453125 4.61664063 -9.9765625 4.64453125 C-10.91628906 4.69673828 -10.91628906 4.69673828 -11.875 4.75 C-12.205 6.07 -12.535 7.39 -12.875 8.75 C-11.42867188 9.00523437 -11.42867188 9.00523437 -9.953125 9.265625 C-8.68984375 9.50796875 -7.4265625 9.7503125 -6.125 10 C-4.87203125 10.23203125 -3.6190625 10.4640625 -2.328125 10.703125 C1.32147872 11.80956595 2.86343036 12.71938275 5.125 15.75 C5.1875 18.75 5.1875 18.75 4.125 21.75 C-0.39026658 26.03371445 -3.48123293 27.11539339 -9.546875 27.02734375 C-13.21452097 26.59042619 -15.22760554 25.26502474 -17.875 22.75 C-18.75 19.5 -18.75 19.5 -18.875 16.75 C-16.625 16.5 -16.625 16.5 -13.875 16.75 C-13.235625 17.41 -12.59625 18.07 -11.9375 18.75 C-9.97567921 21.06673927 -9.97567921 21.06673927 -6.75 21.0625 C-3.93560827 20.92528074 -3.93560827 20.92528074 -1.875 19.75 C-1.875 18.76 -1.875 17.77 -1.875 16.75 C-3.08736328 16.51216797 -3.08736328 16.51216797 -4.32421875 16.26953125 C-14.155456 14.12302468 -14.155456 14.12302468 -17.1875 11.4375 C-18.875 8.75 -18.875 8.75 -18.875 5.625 C-17.88043826 2.76563499 -17.28638526 1.51216615 -14.875 -0.25 C-9.87954547 -1.91515151 -4.86661868 -2.11592117 0 0 Z " fill="#EDF1FE" transform="translate(128.875,250.25)"/>
<path d="M0 0 C6.93 0 13.86 0 21 0 C21 1.65 21 3.3 21 5 C15.72 5 10.44 5 5 5 C5 6.98 5 8.96 5 11 C9.95 11 14.9 11 20 11 C20 12.65 20 14.3 20 16 C15.05 16 10.1 16 5 16 C5 17.98 5 19.96 5 22 C10.28 22 15.56 22 21 22 C21 23.65 21 25.3 21 27 C14.07 27 7.14 27 0 27 C0 18.09 0 9.18 0 0 Z " fill="#F4F7FE" transform="translate(84,150)"/>
<path d="M0 0 C4.62 0 9.24 0 14 0 C14 1.65 14 3.3 14 5 C12.68 4.67 11.36 4.34 10 4 C9.67 4.66 9.34 5.32 9 6 C10.65 6 12.3 6 14 6 C13.98839844 6.92683594 13.97679687 7.85367188 13.96484375 8.80859375 C13.95582031 10.00613281 13.94679687 11.20367187 13.9375 12.4375 C13.92589844 13.63246094 13.91429687 14.82742187 13.90234375 16.05859375 C13.66098208 18.88873341 13.66098208 18.88873341 15 20 C15.04092937 22.33297433 15.04241723 24.66705225 15 27 C12.70858714 27.05384521 10.41681812 27.09272087 8.125 27.125 C6.84882813 27.14820312 5.57265625 27.17140625 4.2578125 27.1953125 C1 27 1 27 -1 25 C-1.30078125 22.46875 -1.30078125 22.46875 -1.3125 19.5 C-1.32925781 18.5203125 -1.34601563 17.540625 -1.36328125 16.53125 C-1.24339844 15.6959375 -1.12351563 14.860625 -1 14 C-0.01 13.34 0.98 12.68 2 12 C1.34 11.34 0.68 10.68 0 10 C-0.27450545 6.65103346 -0.08628804 3.36523337 0 0 Z " fill="#F9FAFE" transform="translate(142,84)"/>
<path d="M0 0 C6.6 0 13.2 0 20 0 C20 1.65 20 3.3 20 5 C15.38 5 10.76 5 6 5 C6 6.65 6 8.3 6 10 C10.29 10 14.58 10 19 10 C19 11.65 19 13.3 19 15 C14.38 15 9.76 15 5 15 C5 16.98 5 18.96 5 21 C10.28 21 15.56 21 21 21 C21 22.65 21 24.3 21 26 C14.07 26 7.14 26 0 26 C0 17.42 0 8.84 0 0 Z " fill="#EEF2FE" transform="translate(137,250)"/>
<path d="M0 0 C6.6 0 13.2 0 20 0 C20 1.65 20 3.3 20 5 C15.05 5 10.1 5 5 5 C5 6.98 5 8.96 5 11 C9.62 11 14.24 11 19 11 C19 12.65 19 14.3 19 16 C14.38 16 9.76 16 5 16 C5 17.98 5 19.96 5 22 C9.95 22 14.9 22 20 22 C20 23.65 20 25.3 20 27 C13.4 27 6.8 27 0 27 C0 18.09 0 9.18 0 0 Z " fill="#F4F7FE" transform="translate(113,50)"/>
<path d="M0 0 C24.09 0 48.18 0 73 0 C73 0.33 73 0.66 73 1 C64.75 1 56.5 1 48 1 C48 7.6 48 14.2 48 21 C47.34 21 46.68 21 46 21 C46 14.4 46 7.8 46 1 C38.08 1 30.16 1 22 1 C22 9.91 22 18.82 22 28 C21.34 28 20.68 28 20 28 C20 26.35 20 24.7 20 23 C15.05 23 10.1 23 5 23 C5 21.02 5 19.04 5 17 C9.62 17 14.24 17 19 17 C19 15.35 19 13.7 19 12 C14.38 12 9.76 12 5 12 C5 10.02 5 8.04 5 6 C9.95 6 14.9 6 20 6 C20 4.35 20 2.7 20 1 C13.4 1 6.8 1 0 1 C0 0.67 0 0.34 0 0 Z " fill="#3A77FC" transform="translate(113,49)"/>
<path d="M0 0 C6.6 0 13.2 0 20 0 C20 1.65 20 3.3 20 5 C15.05 5 10.1 5 5 5 C5 6.98 5 8.96 5 11 C9.62 11 14.24 11 19 11 C19 12.32 19 13.64 19 15 C14.38 15 9.76 15 5 15 C5 17.31 5 19.62 5 22 C10.28 22 15.56 22 21 22 C21 23.65 21 25.3 21 27 C14.07 27 7.14 27 0 27 C0 18.09 0 9.18 0 0 Z " fill="#F7F8FE" transform="translate(187,50)"/>
<path d="M0 0 C1.65 0 3.3 0 5 0 C5 3.96 5 7.92 5 12 C5.66 12 6.32 12 7 12 C7.26425781 11.42765625 7.52851563 10.8553125 7.80078125 10.265625 C9.89957514 6.30047693 12.55985935 2.88971815 16 0 C19.9375 -0.5 19.9375 -0.5 23 0 C22.06558465 1.27310312 21.12732889 2.543388 20.1875 3.8125 C19.66542969 4.52019531 19.14335937 5.22789062 18.60546875 5.95703125 C17.16871123 7.78531393 15.68184237 9.39896688 14 11 C15.62135878 14.75050576 18.00586728 17.57364221 20.625 20.6875 C25 25.89747634 25 25.89747634 25 27 C22.14223486 27.53583096 20.74263197 27.78434148 18 27 C14.9589606 24.28686398 12.47002518 21.23348751 10 18 C7.97742781 18.73990208 7.97742781 18.73990208 6 20 C5.18129815 23.56206661 5.18129815 23.56206661 5 27 C3.35 27 1.7 27 0 27 C0 18.09 0 9.18 0 0 Z " fill="#F5F7FE" transform="translate(161,183)"/>
<path d="M0 0 C3.8026029 2.0050088 5.61790841 3.42686262 8 7 C8 7.99 8 8.98 8 10 C5.8125 10.25 5.8125 10.25 3 10 C2.195625 9.34 1.39125 8.68 0.5625 8 C-1.87300945 5.76909343 -1.87300945 5.76909343 -5.0625 5.5 C-8.04164199 5.81336457 -8.04164199 5.81336457 -10.375 7.5 C-12.6684392 11.028368 -12.66274022 13.90611106 -12 18 C-11.20426487 20.61760705 -11.20426487 20.61760705 -9 22 C-5.91330665 22.39196106 -3.95035728 22.62365276 -1 22 C1.18777466 20.0624994 1.18777466 20.0624994 3 18 C5.75 17.75 5.75 17.75 8 18 C7.79396857 21.60555003 6.98789733 23.01433211 4.625 25.8125 C0.87669349 28.68952945 -2.86413355 28.58975107 -7.4453125 28.34765625 C-10.75424135 27.89735859 -12.54750674 27.30385731 -15 25 C-18.77109363 19.80200607 -19.81155954 16.39103136 -19 10 C-14.98187876 1.96375753 -8.8062489 -1.59111116 0 0 Z " fill="#EBF0FE" transform="translate(77,49)"/>
<path d="M0 0 C2.65692184 1.73008864 4.14077017 3.00025808 5.6875 5.75 C5.6875 6.74 5.6875 7.73 5.6875 8.75 C3.5 9 3.5 9 0.6875 8.75 C-0.116875 8.09 -0.92125 7.43 -1.75 6.75 C-4.18550945 4.51909343 -4.18550945 4.51909343 -7.375 4.25 C-10.35414199 4.56336457 -10.35414199 4.56336457 -12.6875 6.25 C-14.9809392 9.778368 -14.97524022 12.65611106 -14.3125 16.75 C-13.51676487 19.36760705 -13.51676487 19.36760705 -11.3125 20.75 C-8.22580665 21.14196106 -6.26285728 21.37365276 -3.3125 20.75 C-1.12472534 18.8124994 -1.12472534 18.8124994 0.6875 16.75 C3.4375 16.5 3.4375 16.5 5.6875 16.75 C5.20903935 21.05614589 4.02823619 22.99880549 0.6875 25.75 C-3.66089174 27.19946391 -7.76812114 27.26592482 -12.3125 26.75 C-16.43139733 24.69055133 -18.64451111 23.01346935 -20.3125 18.75 C-20.92937561 14.08771909 -21.40660501 9.03410768 -19.33203125 4.703125 C-14.11201829 -1.78575264 -7.59698547 -2.86678697 0 0 Z " fill="#EEF2FE" transform="translate(79.3125,84.25)"/>
<path d="M0 0 C3.125 -0.5 3.125 -0.5 7 0 C9.42952606 2.40317545 11.2262164 5.08917564 13 8 C15.64752004 5.42215154 17.94432065 3.08351902 20 0 C23.625 -0.1875 23.625 -0.1875 27 0 C26.06398754 1.41764994 25.1261208 2.83407568 24.1875 4.25 C23.66542969 5.03890625 23.14335938 5.8278125 22.60546875 6.640625 C21 9 21 9 19.17578125 10.984375 C17.69285485 12.98649361 17.69285485 12.98649361 18.6171875 15.44921875 C20.00445109 18.00821063 21.47752324 20.41291428 23.125 22.8125 C23.66382812 23.60269531 24.20265625 24.39289063 24.7578125 25.20703125 C25.16773437 25.79871094 25.57765625 26.39039063 26 27 C22.8125 27.4375 22.8125 27.4375 19 27 C16.82857115 24.9521921 15.31305984 22.67452741 14 20 C14 19.34 14 18.68 14 18 C10.46739129 21.39634558 10.46739129 21.39634558 7.5625 25.3125 C6 27 6 27 2.8125 27.25 C1.884375 27.1675 0.95625 27.085 0 27 C1.82819426 23.04787417 4.33118149 19.7742446 6.953125 16.31640625 C8.28054516 14.02118865 8.28054516 14.02118865 7.3671875 11.515625 C5.98389281 8.97036277 4.5146274 6.57565296 2.875 4.1875 C2.33617187 3.39730469 1.79734375 2.60710937 1.2421875 1.79296875 C0.83226562 1.20128906 0.42234375 0.60960937 0 0 Z " fill="#EEF2FE" transform="translate(59,216)"/>
<path d="M0 0 C3.125 -0.5 3.125 -0.5 7 0 C9.42952606 2.40317545 11.2262164 5.08917564 13 8 C15.64752004 5.42215154 17.94432065 3.08351902 20 0 C23.625 -0.1875 23.625 -0.1875 27 0 C26.06398754 1.41764994 25.1261208 2.83407568 24.1875 4.25 C23.66542969 5.03890625 23.14335938 5.8278125 22.60546875 6.640625 C21 9 21 9 19.17578125 10.984375 C17.69285485 12.98649361 17.69285485 12.98649361 18.6171875 15.44921875 C20.00445109 18.00821063 21.47752324 20.41291428 23.125 22.8125 C23.66382812 23.60269531 24.20265625 24.39289063 24.7578125 25.20703125 C25.16773437 25.79871094 25.57765625 26.39039063 26 27 C22.875 27.5 22.875 27.5 19 27 C16.57047394 24.59682455 14.7737836 21.91082436 13 19 C10.35247996 21.57784846 8.05567935 23.91648098 6 27 C2.875 27.1875 2.875 27.1875 0 27 C1.82819426 23.04787417 4.33118149 19.7742446 6.953125 16.31640625 C8.28054516 14.02118865 8.28054516 14.02118865 7.3671875 11.515625 C5.98389281 8.97036277 4.5146274 6.57565296 2.875 4.1875 C2.33617187 3.39730469 1.79734375 2.60710937 1.2421875 1.79296875 C0.83226562 1.20128906 0.42234375 0.60960938 0 0 Z " fill="#EEF2FE" transform="translate(59,116)"/>
<path d="M0 0 C15.18 0 30.36 0 46 0 C46 0.33 46 0.66 46 1 C44.35 1 42.7 1 41 1 C41 9.91 41 18.82 41 28 C40.34 28 39.68 28 39 28 C39 23.71 39 19.42 39 15 C35.04 15 31.08 15 27 15 C26.67 16.65 26.34 18.3 26 20 C22.26744552 22.48836965 20.41559065 22.54226552 16 22 C13.03864454 19.41830549 12.13243896 17.81118865 11.5 13.9375 C12 11 12 11 13.5625 8.625 C16.91283535 6.3914431 19.0481433 6.50601791 23 7 C25.4375 8.25 25.4375 8.25 27 10 C27 11.32 27 12.64 27 14 C30.96 14 34.92 14 39 14 C39 9.71 39 5.42 39 1 C26.13 1 13.26 1 0 1 C0 0.67 0 0.34 0 0 Z " fill="#1A62FC" transform="translate(120,182)"/>
<path d="M0 0 C1.65 0 3.3 0 5 0 C5.04898438 1.26457031 5.09796875 2.52914062 5.1484375 3.83203125 C5.2234738 5.49220947 5.29902127 7.15236464 5.375 8.8125 C5.4059375 9.64587891 5.436875 10.47925781 5.46875 11.33789062 C5.50742188 12.14033203 5.54609375 12.94277344 5.5859375 13.76953125 C5.6173584 14.50792236 5.6487793 15.24631348 5.68115234 16.00708008 C5.90834614 18.31349588 5.90834614 18.31349588 8 21 C11.5 21.41666667 11.5 21.41666667 15 21 C17.3968665 18.6031335 17.28281133 17.92971686 17.4140625 14.6484375 C17.45273438 13.79765625 17.49140625 12.946875 17.53125 12.0703125 C17.5621875 11.18085938 17.593125 10.29140625 17.625 9.375 C17.66367188 8.4778125 17.70234375 7.580625 17.7421875 6.65625 C17.83659357 4.4377073 17.92216748 2.21917597 18 0 C19.65 0 21.3 0 23 0 C23.0875127 3.22899426 23.14056146 6.45768116 23.1875 9.6875 C23.21263672 10.59951172 23.23777344 11.51152344 23.26367188 12.45117188 C23.35882136 21.17320802 23.35882136 21.17320802 20 25 C15.99266798 27.69063722 11.6641491 27.80694621 7 27 C3.42763326 25.0729972 1.30439298 22.91317895 0 19 C-0.0806622 17.51876453 -0.10761193 16.03417796 -0.09765625 14.55078125 C-0.09443359 13.70322266 -0.09121094 12.85566406 -0.08789062 11.98242188 C-0.07951172 11.10134766 -0.07113281 10.22027344 -0.0625 9.3125 C-0.05798828 8.41982422 -0.05347656 7.52714844 -0.04882812 6.60742188 C-0.03704983 4.40488013 -0.02060164 2.20247401 0 0 Z " fill="#F5F7FE" transform="translate(187,183)"/>
<path d="M0 0 C3.34265205 1.20706879 3.94704566 1.92056849 6 5 C6.43977705 9.5443629 6.58385776 11.90234741 4.4375 15.9375 C1.22755042 18.65361118 -0.82044153 19 -5 19 C-7.90900097 17.77175515 -9.46552692 16.73808187 -11.3125 14.1875 C-12.24084633 11.23367076 -12.37765935 9.084218 -12 6 C-8.46811118 0.70216676 -6.29846462 -0.37790788 0 0 Z " fill="#0957FD" transform="translate(223,154)"/>
<path d="M0 0 C2.79064775 0.52994119 4.71702267 1.62079816 6.93359375 3.3671875 C8.46206036 6.42412072 8.1660182 8.99703297 7.93359375 12.3671875 C6.17344244 15.5522232 5.43468459 16.20015722 1.93359375 17.3671875 C-5.31820481 17.94272707 -5.31820481 17.94272707 -8.50390625 15.4921875 C-11.10114218 11.95994663 -11.58448075 9.77082073 -11.06640625 5.3671875 C-7.90909142 0.82854743 -5.31456161 -0.34157863 0 0 Z " fill="#004AE6" transform="translate(315.06640625,208.6328125)"/>
<path d="M0 0 C2.5625 1.625 2.5625 1.625 4 4 C4.70930433 8.33463758 4.492403 10.25345351 2.0625 13.9375 C-1.51409725 16.34622876 -3.60533173 16.73886988 -7.83984375 16.484375 C-11.45970907 15.6726873 -12.96881409 14.0140178 -15 11 C-15.7446324 7.02862719 -15.37266878 5.55900317 -13.125 2.1875 C-9.0877781 -1.96846372 -5.37270764 -1.21196069 0 0 Z " fill="#004BE9" transform="translate(319,270)"/>
<path d="M0 0 C3 1.4375 3 1.4375 5 4 C5.70514343 7.15002599 5.69951178 9.84930645 5 13 C2.83878582 15.85838005 1.33308076 16.77465717 -2.1953125 17.37109375 C-5.89022678 17.57230195 -8.30692109 17.38880037 -11.5625 15.5625 C-13.71120785 11.7321947 -13.8878631 8.2821716 -13 4 C-9.51109083 -0.47016487 -5.33044515 -1.0209522 0 0 Z " fill="#0048DF" transform="translate(20,95)"/>
<path d="M0 0 C1.875 0.5234375 1.875 0.5234375 3.875 2.0234375 C5.42285561 5.89307652 5.64041544 9.42664246 4.875 13.5234375 C2.8125 16.5859375 2.8125 16.5859375 -0.125 18.5234375 C-4.05720624 19.14431217 -6.11319887 19.16246979 -9.5 17.0234375 C-11.72131897 13.6060237 -12.34309185 10.58640793 -12.125 6.5234375 C-9.48146871 0.44331554 -6.2414203 -1.03258792 0 0 Z " fill="#004EF3" transform="translate(176.125,6.4765625)"/>
<path d="M0 0 C3.35227527 2.4963752 4.80693091 3.84158547 5.5 8 C4.94506497 11.32961021 4.00503147 13.30091917 2 16 C-0.32686453 17.16343227 -1.84721413 17.19895988 -4.4375 17.25 C-5.21996094 17.27578125 -6.00242187 17.3015625 -6.80859375 17.328125 C-9 17 -9 17 -10.7265625 15.7578125 C-13.0620808 12.53393754 -13.24611246 8.8967806 -13 5 C-9.39430448 -0.96804775 -6.66223499 -1.58086932 0 0 Z " fill="#0857FD" transform="translate(109,188)"/>
<path d="M0 0 C3.0625 1.4375 3.0625 1.4375 5 4 C5.57365678 7.08549373 5.67855386 9.92954376 5 13 C3.07395706 15.45794433 2.03994944 15.98668352 -1 17 C-5.3132535 17.47925039 -7.30586782 17.47260063 -10.9375 15 C-13.79117716 10.84919686 -13.7099846 8.9698922 -13 4 C-10.06828471 -1.09863528 -5.30357093 -0.8965111 0 0 Z " fill="#004BE9" transform="translate(20,35)"/>
<path d="M0 0 C10.06312625 -0.60621242 10.06312625 -0.60621242 14.1875 2.0625 C16.49982902 5.81006772 16.76064915 7.66429982 16 12 C13.66786054 16.42302311 13.66786054 16.42302311 11 18 C7.18837497 18.50857356 3.87342198 18.28000641 0 18 C0 12.06 0 6.12 0 0 Z " fill="#0049E2" transform="translate(202,305)"/>
<path d="M0 0 C6.27 0 12.54 0 19 0 C19.60194175 9.02912621 19.60194175 9.02912621 17.0625 13.125 C12.97429004 15.62798569 9.68260367 15.97153085 5 15 C2.49839182 13.12379387 1.38054348 11.76108697 0 9 C0 6.03 0 3.06 0 0 Z " fill="#004BE9" transform="translate(304,192)"/>
<path d="M0 0 C10.18518519 -0.48500882 10.18518519 -0.48500882 13.625 1.5625 C15.46545773 4.8251296 15.93429025 7.25454418 16 11 C14.41161066 14.57387602 13.28365642 15.81089572 10 18 C6.64683663 18.26402861 3.36941342 18.08751723 0 18 C0 12.06 0 6.12 0 0 Z " fill="#0049E4" transform="translate(21,305)"/>
<path d="M0 0 C6.27 0 12.54 0 19 0 C19 1.98 19 3.96 19 6 C17.56445975 6.50559908 16.1264798 7.0042749 14.6875 7.5 C13.48673828 7.91765625 13.48673828 7.91765625 12.26171875 8.34375 C10 9 10 9 7 9 C7 9.66 7 10.32 7 11 C7.86625 11.103125 8.7325 11.20625 9.625 11.3125 C13.16683123 12.03398414 15.84312042 13.27123261 19 15 C19 16.65 19 18.3 19 20 C12.73 20 6.46 20 0 20 C0 18.68 0 17.36 0 16 C4.455 15.505 4.455 15.505 9 15 C4.545 13.02 4.545 13.02 0 11 C1 8 1 8 2.84765625 7.05078125 C4.8984375 6.3671875 6.94921875 5.68359375 9 5 C6.03 4.67 3.06 4.34 0 4 C0 2.68 0 1.36 0 0 Z " fill="#0044D4" transform="translate(304,228)"/>
<path d="M0 0 C7.92 0 15.84 0 24 0 C24 1.65 24 3.3 24 5 C21.03 5 18.06 5 15 5 C15 12.26 15 19.52 15 27 C13.02 27 11.04 27 9 27 C9 19.74 9 12.48 9 5 C6.03 5 3.06 5 0 5 C0 3.35 0 1.7 0 0 Z " fill="#ECF1FE" transform="translate(239,50)"/>
<path d="M0 0 C1.98 0 3.96 0 6 0 C6.50615298 1.26839526 7.00469099 2.53983102 7.5 3.8125 C7.91765625 4.87404297 7.91765625 4.87404297 8.34375 5.95703125 C9 8 9 8 9 11 C9.66 11 10.32 11 11 11 C11.99 7.7 12.98 4.4 14 1 C15.98 1 17.96 1 20 1 C20 6.94 20 12.88 20 19 C18.68 19 17.36 19 16 19 C15.67 15.7 15.34 12.4 15 9 C13.68 12.3 12.36 15.6 11 19 C10.01 18.67 9.02 18.34 8 18 C6.66140666 15.0859429 5.91238901 12.0847438 5 9 C4.67 12.3 4.34 15.6 4 19 C2.68 19 1.36 19 0 19 C0 12.73 0 6.46 0 0 Z " fill="#0041CB" transform="translate(11,6)"/>
<path d="M0 0 C9.1796875 -0.1953125 9.1796875 -0.1953125 12 0 C14 2 14 2 14.125 4.5 C14.08375 5.325 14.0425 6.15 14 7 C14 9.7283768 14.53331141 12.31654063 15 15 C10.33220333 19.23435841 6.0499848 18.21607089 0 18 C0 12.06 0 6.12 0 0 Z " fill="#004CEB" transform="translate(147,305)"/>
<path d="M0 0 C3.65050264 0.88318612 4.94055216 2.348519 6.9375 5.46875 C7.34284963 8.91685396 7.1704094 11.97510903 6.9375 15.46875 C0.9975 15.46875 -4.9425 15.46875 -11.0625 15.46875 C-11.66627358 6.41214623 -11.66627358 6.41214623 -9.0625 2.34375 C-5.74860247 0.27256405 -3.84474192 -0.29126833 0 0 Z " fill="#004CEA" transform="translate(18.0625,113.53125)"/>
<path d="M0 0 C2.375 1.3125 2.375 1.3125 4 4 C4.72979436 8.90749475 4.97175584 13.32857995 2.4375 17.6875 C-0.95166172 19.51243324 -3.21296682 19.55084119 -7 19 C-9.98786199 16.01213801 -10.43179733 13.65154261 -10.4375 9.5 C-10.32942681 5.98057299 -10.21763722 4.35993848 -8.375 1.3125 C-5.26794769 -0.40455522 -3.50031342 -0.58338557 0 0 Z " fill="#0046DA" transform="translate(116,6)"/>
<path d="M0 0 C5.94 0 11.88 0 18 0 C18 1.32 18 2.64 18 4 C14.7 4.33 11.4 4.66 8 5 C12.95 6.98 12.95 6.98 18 9 C18 9.99 18 10.98 18 12 C13.79672559 13.89559434 10.60057086 15.07988583 6 16 C9.96 16.33 13.92 16.66 18 17 C18 17.99 18 18.98 18 20 C12.06 20 6.12 20 0 20 C0 18.02 0 16.04 0 14 C3.63 12.68 7.26 11.36 11 10 C7.37 8.68 3.74 7.36 0 6 C0 4.02 0 2.04 0 0 Z " fill="#004CEA" transform="translate(7,73)"/>
<path d="M0 0 C9 -0.36 9 -0.36 13.125 1.125 C15 3 15 3 15.4375 6.0625 C15 9 15 9 13 11 C11.68 11 10.36 11 9 11 C9.78375 11.763125 10.5675 12.52625 11.375 13.3125 C14 16 14 16 16 19 C13.875 19.375 13.875 19.375 11 19 C8.76086748 17.20659643 6.87545461 15.16547337 5 13 C4.67 14.98 4.34 16.96 4 19 C2.68 19 1.36 19 0 19 C0 12.73 0 6.46 0 0 Z " fill="#003FC3" transform="translate(71,6)"/>
<path d="M0 0 C6.27 0 12.54 0 19 0 C19.36968375 10.35114504 19.36968375 10.35114504 17.67578125 13.32421875 C16 15 16 15 13 15.5625 C10 15 10 15 8.125 12.5 C7.75375 11.675 7.3825 10.85 7 10 C4.03 12.475 4.03 12.475 1 15 C0.6875 12.8125 0.6875 12.8125 1 10 C3.5 7.1875 3.5 7.1875 6 5 C3.03 4.505 3.03 4.505 0 4 C0 2.68 0 1.36 0 0 Z " fill="#0048DE" transform="translate(304,144)"/>
<path d="M0 0 C9.18762089 -0.48355899 9.18762089 -0.48355899 12.625 1.5625 C14.53421825 4.94702327 14.47071274 7.16705339 14 11 C11.8 15.6 11.8 15.6 9 17 C5.99525503 17.13559318 3.00931153 17.04299016 0 17 C0 11.39 0 5.78 0 0 Z " fill="#0F5CFD" transform="translate(143,155)"/>
<path d="M0 0 C3.58895529 0.70028396 4.57327261 2.55299646 6.5625 5.5 C8.5425 3.85 10.5225 2.2 12.5625 0.5 C12.875 2.6875 12.875 2.6875 12.5625 5.5 C10.0625 8.3125 10.0625 8.3125 7.5625 10.5 C9.2125 10.83 10.8625 11.16 12.5625 11.5 C12.5625 12.82 12.5625 14.14 12.5625 15.5 C6.6225 15.5 0.6825 15.5 -5.4375 15.5 C-5.80827155 4.00608186 -5.80827155 4.00608186 -4.078125 1.64453125 C-2.4375 0.5 -2.4375 0.5 0 0 Z " fill="#0049E4" transform="translate(12.4375,161.5)"/>
<path d="M0 0 C1.65 0 3.3 0 5 0 C5 7.26 5 14.52 5 22 C10.28 22 15.56 22 21 22 C21 23.65 21 25.3 21 27 C14.07 27 7.14 27 0 27 C0 18.09 0 9.18 0 0 Z " fill="#F6F8FE" transform="translate(89,50)"/>
<path d="M0 0 C3.36918514 -0.40229076 5.73758079 -0.66907241 9 0 C11.30214968 2.75134962 12.46968126 4.81783722 14 8 C14.68585276 9.24728392 15.3791708 10.49047915 16.078125 11.73046875 C16.82408233 13.06966387 17.56886636 14.40951318 18.3125 15.75 C18.67480713 16.39976807 19.03711426 17.04953613 19.41040039 17.71899414 C21.26010708 21.16267745 22 23.00295403 22 27 C18.7 27 15.4 27 12 27 C12 23.04 12 19.08 12 15 C11.34 14.67 10.68 14.34 10 14 C10.33 12.35 10.66 10.7 11 9 C7.01803543 7.94595055 4.01804691 8.15901344 0 9 C0 6.03 0 3.06 0 0 Z " fill="#F2F5FE" transform="translate(88,249)"/>
<path d="M0 0 C1.65 0 3.3 0 5 0 C6.32 2.97 7.64 5.94 9 9 C10.94268841 6.08596738 12.46395304 3.14191424 14 0 C15.65 0 17.3 0 19 0 C19 5.94 19 11.88 19 18 C18.01 18 17.02 18 16 18 C15.67 14.04 15.34 10.08 15 6 C13.68 9.96 12.36 13.92 11 18 C10.01 18 9.02 18 8 18 C6.68 14.7 5.36 11.4 4 8 C3.67 11.3 3.34 14.6 3 18 C2.01 18 1.02 18 0 18 C0 12.06 0 6.12 0 0 Z " fill="#004DED" transform="translate(34,7)"/>
<path d="M0 0 C1.32 0 2.64 0 4 0 C4 6.27 4 12.54 4 19 C2.35 19 0.7 19 -1 19 C-2.98 15.37 -4.96 11.74 -7 8 C-7.33 11.63 -7.66 15.26 -8 19 C-9.32 19 -10.64 19 -12 19 C-12 13.06 -12 7.12 -12 1 C-10.35 1 -8.7 1 -7 1 C-5.19921875 3.1875 -5.19921875 3.1875 -3.6875 6 C-3.17574219 6.928125 -2.66398437 7.85625 -2.13671875 8.8125 C-1.76160156 9.534375 -1.38648438 10.25625 -1 11 C-0.67 7.37 -0.34 3.74 0 0 Z " fill="#0045D7" transform="translate(274,6)"/>
<path d="M0 0 C4.62 0 9.24 0 14 0 C14 1.65 14 3.3 14 5 C14.66 5 15.32 5 16 5 C16.12375 6.6396875 16.12375 6.6396875 16.25 8.3125 C16.62748301 11.95650147 16.62748301 11.95650147 18.7265625 13.66015625 C21.24637045 15.14519771 23.24820659 15.65269063 26.125 16.125 C30.84753363 16.92376682 30.84753363 16.92376682 33 18 C32.505 20.475 32.505 20.475 32 23 C30.56344146 23.08131463 29.1255517 23.13933559 27.6875 23.1875 C26.48673828 23.23970703 26.48673828 23.23970703 25.26171875 23.29296875 C23 23 23 23 21.20703125 21.61328125 C20 20 20 20 20 18 C18.35 18 16.7 18 15 18 C14.67 19.32 14.34 20.64 14 22 C13.34 21.34 12.68 20.68 12 20 C12.0234375 16.9609375 12.0234375 16.9609375 12.375 13.375 C12.48585937 12.18648437 12.59671875 10.99796875 12.7109375 9.7734375 C12.80632812 8.85820313 12.90171875 7.94296875 13 7 C11.35 7 9.7 7 8 7 C8 5.35 8 3.7 8 2 C8.99 3.485 8.99 3.485 10 5 C10.99 5.33 11.98 5.66 13 6 C13 4.35 13 2.7 13 1 C8.71 1 4.42 1 0 1 C0 0.67 0 0.34 0 0 Z " fill="#276BFC" transform="translate(143,83)"/>
<path d="M0 0 C1.2065625 0.0309375 1.2065625 0.0309375 2.4375 0.0625 C3.44149524 2.68603518 4.44084445 5.31117795 5.4375 7.9375 C5.72367188 8.68386719 6.00984375 9.43023437 6.3046875 10.19921875 C8.4375 15.8359375 8.4375 15.8359375 8.4375 18.0625 C7.1175 18.0625 5.7975 18.0625 4.4375 18.0625 C4.1075 17.0725 3.7775 16.0825 3.4375 15.0625 C0.7975 14.7325 -1.8425 14.4025 -4.5625 14.0625 C-4.8925 15.3825 -5.2225 16.7025 -5.5625 18.0625 C-6.8825 17.7325 -8.2025 17.4025 -9.5625 17.0625 C-8.58662745 14.41540841 -7.60697855 11.76982553 -6.625 9.125 C-6.34720703 8.37025391 -6.06941406 7.61550781 -5.78320312 6.83789062 C-3.26782388 0.07970302 -3.26782388 0.07970302 0 0 Z " fill="#0049E3" transform="translate(245.5625,6.9375)"/>
<path d="M0 0 C0 1.32 0 2.64 0 4 C-0.99 4.33 -1.98 4.66 -3 5 C-3.33 7.64 -3.66 10.28 -4 13 C-2.68 13.33 -1.36 13.66 0 14 C0 14.99 0 15.98 0 17 C-4.48993869 16.41347648 -8.22543184 15.2356462 -12.375 13.4375 C-13.43460938 12.98246094 -14.49421875 12.52742187 -15.5859375 12.05859375 C-16.38257813 11.70925781 -17.17921875 11.35992187 -18 11 C-18 9.35 -18 7.7 -18 6 C-15.37646482 4.99600476 -12.75132205 3.99665555 -10.125 3 C-9.37863281 2.71382812 -8.63226563 2.42765625 -7.86328125 2.1328125 C-2.2265625 0 -2.2265625 0 0 0 Z " fill="#004CEC" transform="translate(25,234)"/>
<path d="M0 0 C6.27 0 12.54 0 19 0 C19 4.29 19 8.58 19 13 C18.01 13 17.02 13 16 13 C16 9.7 16 6.4 16 3 C14.35 3 12.7 3 11 3 C11 5.97 11 8.94 11 12 C10.01 12 9.02 12 8 12 C8 9.36 8 6.72 8 4 C6.68 4 5.36 4 4 4 C4 6.97 4 9.94 4 13 C2.68 13 1.36 13 0 13 C0 8.71 0 4.42 0 0 Z " fill="#0046D9" transform="translate(304,35)"/>
<path d="M0 0 C0.33 0 0.66 0 1 0 C1 5.94 1 11.88 1 18 C-2 14 -2 14 -2 12 C-2.721875 12.495 -3.44375 12.99 -4.1875 13.5 C-7.17528938 15.09348767 -8.67935473 15.53848302 -12 15 C-14.46324069 11.30513897 -14.38991688 9.36706908 -14 5 C-12.8125 3 -12.8125 3 -11 2 C-8.625 2.25 -8.625 2.25 -6 3 C-4.6078125 3.2784375 -4.6078125 3.2784375 -3.1875 3.5625 C-2.465625 3.706875 -1.74375 3.85125 -1 4 C-0.67 2.68 -0.34 1.36 0 0 Z " fill="#000716" transform="translate(219,7)"/>
<path d="M0 0 C5 1 5 1 6.80078125 3.28515625 C7.29964844 4.20167969 7.79851562 5.11820313 8.3125 6.0625 C8.82425781 6.98160156 9.33601562 7.90070312 9.86328125 8.84765625 C10.23839844 9.55792969 10.61351562 10.26820312 11 11 C11.33 7.37 11.66 3.74 12 0 C12.99 0 13.98 0 15 0 C15 5.94 15 11.88 15 18 C13.68 18 12.36 18 11 18 C9.078125 15.375 9.078125 15.375 7.25 12 C6.63640625 10.88625 6.0228125 9.7725 5.390625 8.625 C4.93171875 7.75875 4.4728125 6.8925 4 6 C3.67 9.96 3.34 13.92 3 18 C2.01 18 1.02 18 0 18 C0 12.06 0 6.12 0 0 Z " fill="#004FF4" transform="translate(184,7)"/>
<path d="M0 0 C6.27 0 12.54 0 19 0 C19 4.29 19 8.58 19 13 C18.01 13 17.02 13 16 13 C16 10.03 16 7.06 16 4 C14.35 4 12.7 4 11 4 C11 6.97 11 9.94 11 13 C10.01 13 9.02 13 8 13 C8 10.03 8 7.06 8 4 C6.35 4 4.7 4 3 4 C3 6.97 3 9.94 3 13 C2.01 13 1.02 13 0 13 C0 8.71 0 4.42 0 0 Z " fill="#0046D9" transform="translate(304,161)"/>
<path d="M0 0 C2.375 1.3125 2.375 1.3125 4 3 C4 3.99 4 4.98 4 6 C3.01 6 2.02 6 1 6 C0.67 5.34 0.34 4.68 0 4 C-1.65 4 -3.3 4 -5 4 C-5 4.99 -5 5.98 -5 7 C-2.98177083 7.45572917 -0.96354167 7.91145833 1.0546875 8.3671875 C3 9 3 9 5 11 C4.8125 14 4.8125 14 4 17 C0.20675288 19.52883142 -2.54907942 19.61200158 -7 19 C-9 17.6875 -9 17.6875 -10 16 C-10 15.01 -10 14.02 -10 13 C-8.68 13.33 -7.36 13.66 -6 14 C-6 14.66 -6 15.32 -6 16 C-4.02 15.67 -2.04 15.34 0 15 C0.33 14.01 0.66 13.02 1 12 C-0.8871875 11.8453125 -0.8871875 11.8453125 -2.8125 11.6875 C-5.36524139 11.35767678 -6.79802006 11.12623746 -9 9.75 C-10.41092177 7.2808869 -10.48895928 5.79405302 -10 3 C-7.0294951 -0.31325547 -4.3010419 -0.53763024 0 0 Z " fill="#0048E1" transform="translate(294,6)"/>
<path d="M0 0 C2.375 1.875 2.375 1.875 4 4 C4 4.66 4 5.32 4 6 C2.68 6 1.36 6 0 6 C-0.33 5.34 -0.66 4.68 -1 4 C-2.65 4 -4.3 4 -6 4 C-6 4.99 -6 5.98 -6 7 C-3.98177083 7.45572917 -1.96354167 7.91145833 0.0546875 8.3671875 C2 9 2 9 4 11 C4.375 13.4375 4.375 13.4375 4 16 C1.63019586 18.7489728 0.12597587 18.98650259 -3.5 19.375 C-7.09887044 18.98940674 -8.56352232 18.63139589 -11 16 C-11 15.01 -11 14.02 -11 13 C-9.68 13 -8.36 13 -7 13 C-6.67 13.66 -6.34 14.32 -6 15 C-2.97065509 15.65772428 -2.97065509 15.65772428 0 16 C0 14.68 0 13.36 0 12 C-1.918125 11.814375 -1.918125 11.814375 -3.875 11.625 C-7.75 11.25 -7.75 11.25 -10 9 C-10.375 6.0625 -10.375 6.0625 -10 3 C-7.1012774 -0.34467992 -4.26951578 -0.62263772 0 0 Z " fill="#004CED" transform="translate(121,304)"/>
<path d="M0 0 C2.4375 1.3125 2.4375 1.3125 4 3 C4 3.99 4 4.98 4 6 C2.68 6 1.36 6 0 6 C-0.33 5.34 -0.66 4.68 -1 4 C-2.65 4 -4.3 4 -6 4 C-6 4.99 -6 5.98 -6 7 C-3.98177083 7.45572917 -1.96354167 7.91145833 0.0546875 8.3671875 C2 9 2 9 4 11 C4.375 13.4375 4.375 13.4375 4 16 C1.63019586 18.7489728 0.12597587 18.98650259 -3.5 19.375 C-7.09887044 18.98940674 -8.56352232 18.63139589 -11 16 C-11 15.01 -11 14.02 -11 13 C-9.68 13 -8.36 13 -7 13 C-6.67 13.66 -6.34 14.32 -6 15 C-2.97065509 15.65772428 -2.97065509 15.65772428 0 16 C-0.33 14.68 -0.66 13.36 -1 12 C-2.11375 11.87625 -3.2275 11.7525 -4.375 11.625 C-8 11 -8 11 -10 9 C-10.3267107 5.92891945 -10.48138276 3.84949899 -8.9375 1.125 C-5.88405803 -0.64796631 -3.45262038 -0.36343372 0 0 Z " fill="#004DF0" transform="translate(302,304)"/>
<path d="M0 0 C1.65 0 3.3 0 5 0 C5 3.63 5 7.26 5 11 C5.66 11 6.32 11 7 11 C7 11.99 7 12.98 7 14 C6.34 14 5.68 14 5 14 C5 15.32 5 16.64 5 18 C3.68 18 2.36 18 1 18 C1 16.68 1 15.36 1 14 C-1.97 14 -4.94 14 -8 14 C-7.03186399 10.12745597 -5.94501931 8.01389828 -3.75 4.75 C-2.87601563 3.41195313 -2.87601563 3.41195313 -1.984375 2.046875 C-1.00210938 1.03367187 -1.00210938 1.03367187 0 0 Z " fill="#0045D5" transform="translate(143,7)"/>
<path d="M0 0 C1.32 0 2.64 0 4 0 C4 6.27 4 12.54 4 19 C2.68 19 1.36 19 0 19 C0 16.36 0 13.72 0 11 C-2.64 11 -5.28 11 -8 11 C-8 13.64 -8 16.28 -8 19 C-8.99 19 -9.98 19 -11 19 C-11 13.06 -11 7.12 -11 1 C-10.01 1 -9.02 1 -8 1 C-8 3.31 -8 5.62 -8 8 C-5.36 8 -2.72 8 0 8 C0 5.36 0 2.72 0 0 Z " fill="#004AE5" transform="translate(231,6)"/>
<path d="M0 0 C0.99 0 1.98 0 3 0 C3 2.97 3 5.94 3 9 C4.32 9 5.64 9 7 9 C7 6.03 7 3.06 7 0 C7.99 0 8.98 0 10 0 C10 2.97 10 5.94 10 9 C11.65 9 13.3 9 15 9 C15 6.03 15 3.06 15 0 C15.99 0 16.98 0 18 0 C18 4.29 18 8.58 18 13 C12.06 13 6.12 13 0 13 C0 8.71 0 4.42 0 0 Z " fill="#0049E2" transform="translate(7,207)"/>
<path d="M0 0 C0.99 0 1.98 0 3 0 C3 2.97 3 5.94 3 9 C4.32 9 5.64 9 7 9 C7 6.03 7 3.06 7 0 C7.99 0 8.98 0 10 0 C10 2.97 10 5.94 10 9 C11.65 9 13.3 9 15 9 C15 6.03 15 3.06 15 0 C15.99 0 16.98 0 18 0 C18 4.29 18 8.58 18 13 C12.06 13 6.12 13 0 13 C0 8.71 0 4.42 0 0 Z " fill="#0049E3" transform="translate(7,132)"/>
<path d="M0 0 C0.99 0 1.98 0 3 0 C3 2.97 3 5.94 3 9 C4.32 9 5.64 9 7 9 C7 6.36 7 3.72 7 1 C7.99 1 8.98 1 10 1 C10 3.97 10 6.94 10 10 C11.65 10 13.3 10 15 10 C15 6.7 15 3.4 15 0 C15.99 0 16.98 0 18 0 C18 4.29 18 8.58 18 13 C12.06 13 6.12 13 0 13 C0 8.71 0 4.42 0 0 Z " fill="#004CEC" transform="translate(7,147)"/>
<path d="M0 0 C4.29 0 8.58 0 13 0 C13 0.99 13 1.98 13 3 C10.03 3 7.06 3 4 3 C4 4.32 4 5.64 4 7 C6.64 7 9.28 7 12 7 C12 7.99 12 8.98 12 10 C9.03 10 6.06 10 3 10 C3 11.65 3 13.3 3 15 C6.3 15 9.6 15 13 15 C13 15.99 13 16.98 13 18 C8.71 18 4.42 18 0 18 C0 12.06 0 6.12 0 0 Z " fill="#004BE8" transform="translate(56,7)"/>
<path d="M0 0 C1.32 0 2.64 0 4 0 C4.10853983 2.22808159 4.18583307 4.45769932 4.25 6.6875 C4.29640625 7.92886719 4.3428125 9.17023438 4.390625 10.44921875 C3.93426433 14.5975372 3.03596845 16.18126489 0 19 C-2.99286882 19.92485966 -4.78973401 19.45860943 -8 19 C-10.6632957 16.57064243 -10.98558185 15.16994188 -11.29296875 11.546875 C-11.25816406 10.29390625 -11.22335938 9.0409375 -11.1875 7.75 C-11.16042969 6.48671875 -11.13335937 5.2234375 -11.10546875 3.921875 C-11.07066406 2.95765625 -11.03585938 1.9934375 -11 1 C-10.01 1 -9.02 1 -8 1 C-7.93941406 1.92683594 -7.87882813 2.85367187 -7.81640625 3.80859375 C-7.73261719 5.00613281 -7.64882812 6.20367187 -7.5625 7.4375 C-7.48128906 8.63246094 -7.40007812 9.82742188 -7.31640625 11.05859375 C-7.32343886 13.88570244 -7.32343886 13.88570244 -6 15 C-4.35 15 -2.7 15 -1 15 C-0.67 10.05 -0.34 5.1 0 0 Z " fill="#004CED" transform="translate(175,304)"/>
<path d="M0 0 C6.27 0 12.54 0 19 0 C19 3.96 19 7.92 19 12 C18.01 12 17.02 12 16 12 C16 9.03 16 6.06 16 3 C14.35 3 12.7 3 11 3 C11 5.97 11 8.94 11 12 C10.01 12 9.02 12 8 12 C8 9.03 8 6.06 8 3 C6.35 3 4.7 3 3 3 C3 5.97 3 8.94 3 12 C2.01 12 1.02 12 0 12 C0 8.04 0 4.08 0 0 Z " fill="#004AE4" transform="translate(304,177)"/>
<path d="M0 0 C0.99 0 1.98 0 3 0 C3 2.97 3 5.94 3 9 C4.32 9 5.64 9 7 9 C7 6.03 7 3.06 7 0 C7.99 0 8.98 0 10 0 C10 2.97 10 5.94 10 9 C11.65 9 13.3 9 15 9 C15 6.03 15 3.06 15 0 C15.99 0 16.98 0 18 0 C18 3.96 18 7.92 18 12 C12.06 12 6.12 12 0 12 C0 8.04 0 4.08 0 0 Z " fill="#004DEF" transform="translate(7,253)"/>
<path d="M0 0 C1.65 0 3.3 0 5 0 C5 8.91 5 17.82 5 27 C3.35 27 1.7 27 0 27 C0 18.09 0 9.18 0 0 Z " fill="#F9FAFE" transform="translate(165,150)"/>
<path d="M0 0 C1.65 0 3.3 0 5 0 C5.67354499 1.43429001 6.33859701 2.87257057 7 4.3125 C7.556875 5.51326172 7.556875 5.51326172 8.125 6.73828125 C9 9 9 9 9 12 C9.66 12 10.32 12 11 12 C11 14.31 11 16.62 11 19 C8 18 8 18 7.05078125 16.15234375 C6.3671875 14.1015625 5.68359375 12.05078125 5 10 C4.67 12.97 4.34 15.94 4 19 C2.68 19 1.36 19 0 19 C0 12.73 0 6.46 0 0 Z " fill="#0040C5" transform="translate(318,6)"/>
<path d="M0 0 C2.79064775 0.52994119 4.71702267 1.62079816 6.93359375 3.3671875 C8.47946251 6.45892502 8.22718896 8.96148302 7.93359375 12.3671875 C6.05859375 14.8046875 6.05859375 14.8046875 3.93359375 16.3671875 C3.27359375 16.3671875 2.61359375 16.3671875 1.93359375 16.3671875 C1.93359375 15.0471875 1.93359375 13.7271875 1.93359375 12.3671875 C2.59359375 12.0371875 3.25359375 11.7071875 3.93359375 11.3671875 C3.97631475 9.70106845 3.97423207 8.03335865 3.93359375 6.3671875 C2.92889752 5.1426697 2.92889752 5.1426697 0.90234375 5.234375 C0.08765625 5.23695312 -0.72703125 5.23953125 -1.56640625 5.2421875 C-2.38109375 5.23960938 -3.19578125 5.23703125 -4.03515625 5.234375 C-6.06171002 5.1426697 -6.06171002 5.1426697 -7.06640625 6.3671875 C-7.10704457 8.03335865 -7.10912725 9.70106845 -7.06640625 11.3671875 C-6.40640625 11.6971875 -5.74640625 12.0271875 -5.06640625 12.3671875 C-5.06640625 13.6871875 -5.06640625 15.0071875 -5.06640625 16.3671875 C-8.22756401 14.99735247 -9.05911545 14.3781237 -11.06640625 11.3671875 C-11.6747978 7.36918586 -11.39891928 5.84517498 -9.06640625 2.4921875 C-5.68009705 0.09355182 -4.02939913 -0.25897839 0 0 Z " fill="#004BEA" transform="translate(315.06640625,82.6328125)"/>
<path d="M0 0 C3.0625 0.3125 3.0625 0.3125 5 1.375 C6.0625 3.3125 6.0625 3.3125 6.125 6.75 C5.0625 10.3125 5.0625 10.3125 2.125 12.75 C-0.9375 14.3125 -0.9375 14.3125 -2.9375 14.3125 C-2.9375 14.9725 -2.9375 15.6325 -2.9375 16.3125 C0.3625 16.3125 3.6625 16.3125 7.0625 16.3125 C7.0625 17.3025 7.0625 18.2925 7.0625 19.3125 C2.7725 19.3125 -1.5175 19.3125 -5.9375 19.3125 C-5.9375 13.3125 -5.9375 13.3125 -4.1875 11.51953125 C-3.07375 10.82923828 -3.07375 10.82923828 -1.9375 10.125 C0.28136486 8.78442832 0.28136486 8.78442832 2.0625 7.3125 C2.0625 6.3225 2.0625 5.3325 2.0625 4.3125 C0.7425 4.3125 -0.5775 4.3125 -1.9375 4.3125 C-2.2675 4.9725 -2.5975 5.6325 -2.9375 6.3125 C-3.9275 6.3125 -4.9175 6.3125 -5.9375 6.3125 C-5.12541707 2.25208537 -4.43312263 0.47160879 0 0 Z " fill="#0049E2" transform="translate(97.9375,5.6875)"/>
<path d="M0 0 C3.0625 0.3125 3.0625 0.3125 5 1.375 C6.0625 3.3125 6.0625 3.3125 6.125 6.75 C5.0625 10.3125 5.0625 10.3125 2.125 12.75 C-0.9375 14.3125 -0.9375 14.3125 -2.9375 14.3125 C-2.9375 14.9725 -2.9375 15.6325 -2.9375 16.3125 C0.3625 16.3125 3.6625 16.3125 7.0625 16.3125 C7.0625 17.3025 7.0625 18.2925 7.0625 19.3125 C2.7725 19.3125 -1.5175 19.3125 -5.9375 19.3125 C-5.9375 13.3125 -5.9375 13.3125 -4.1875 11.51953125 C-3.07375 10.82923828 -3.07375 10.82923828 -1.9375 10.125 C0.28136486 8.78442832 0.28136486 8.78442832 2.0625 7.3125 C2.0625 6.3225 2.0625 5.3325 2.0625 4.3125 C0.7425 4.3125 -0.5775 4.3125 -1.9375 4.3125 C-2.2675 4.9725 -2.5975 5.6325 -2.9375 6.3125 C-3.9275 6.3125 -4.9175 6.3125 -5.9375 6.3125 C-5.12541707 2.25208537 -4.43312263 0.47160879 0 0 Z " fill="#004AE4" transform="translate(127.9375,5.6875)"/>
<path d="M0 0 C2.375 1.3125 2.375 1.3125 4 3 C4 3.99 4 4.98 4 6 C3.443125 5.855625 2.88625 5.71125 2.3125 5.5625 C1.549375 5.376875 0.78625 5.19125 0 5 C-0.86625 4.773125 -1.7325 4.54625 -2.625 4.3125 C-3.40875 4.209375 -4.1925 4.10625 -5 4 C-7.38785276 5.94234089 -7.38785276 5.94234089 -7.1875 9.5 C-7.24131237 12.84964703 -7.24131237 12.84964703 -6 15 C-3.58354218 15.16687448 -3.58354218 15.16687448 -1 15 C-0.34 14.34 0.32 13.68 1 13 C1.99 13 2.98 13 4 13 C3.6875 14.875 3.6875 14.875 3 17 C-0.7205836 19.48038907 -2.59796571 19.46337203 -7 19 C-9.4375 17.625 -9.4375 17.625 -11 15 C-11.91682131 9.8709902 -11.84015367 6.23552011 -8.875 1.875 C-5.49739033 -0.32778892 -3.95368341 -0.67296739 0 0 Z " fill="#004DED" transform="translate(213,6)"/>
<path d="M0 0 C0.99 0 1.98 0 3 0 C3.33 4.29 3.66 8.58 4 13 C5.65 13.33 7.3 13.66 9 14 C10.87824891 12.12175109 10.39102397 8.96064724 10.5625 6.4375 C10.64628906 5.23996094 10.73007812 4.04242188 10.81640625 2.80859375 C10.87699219 1.88175781 10.93757813 0.95492188 11 0 C11.99 0 12.98 0 14 0 C14.0809723 2.43816585 14.14046972 4.87364384 14.1875 7.3125 C14.22520508 8.34793945 14.22520508 8.34793945 14.26367188 9.40429688 C14.33718919 14.47699139 14.33718919 14.47699139 12.73828125 16.95703125 C10.66629737 18.20022158 9.40795707 18.40236315 7 18.375 C6.319375 18.38273437 5.63875 18.39046875 4.9375 18.3984375 C3 18 3 18 1.26171875 16.95703125 C-0.69555285 13.92113939 -0.31434945 10.79598107 -0.1875 7.3125 C-0.17396484 6.61060547 -0.16042969 5.90871094 -0.14648438 5.18554688 C-0.11120182 3.45670171 -0.05739583 1.72825235 0 0 Z " fill="#004EF3" transform="translate(275,305)"/>
<path d="M0 0 C0.99 0 1.98 0 3 0 C3.33 4.29 3.66 8.58 4 13 C5.65 13.33 7.3 13.66 9 14 C10.87824891 12.12175109 10.39102397 8.96064724 10.5625 6.4375 C10.64628906 5.23996094 10.73007813 4.04242188 10.81640625 2.80859375 C10.87699219 1.88175781 10.93757813 0.95492188 11 0 C11.99 0 12.98 0 14 0 C14.0809723 2.43816585 14.14046972 4.87364384 14.1875 7.3125 C14.22520508 8.34793945 14.22520508 8.34793945 14.26367188 9.40429688 C14.33718919 14.47699139 14.33718919 14.47699139 12.73828125 16.95703125 C10.66629737 18.20022158 9.40795707 18.40236315 7 18.375 C6.319375 18.38273437 5.63875 18.39046875 4.9375 18.3984375 C3 18 3 18 1.26171875 16.95703125 C-0.69555285 13.92113939 -0.31434945 10.79598107 -0.1875 7.3125 C-0.17396484 6.61060547 -0.16042969 5.90871094 -0.14648438 5.18554688 C-0.11120182 3.45670171 -0.05739583 1.72825235 0 0 Z " fill="#004FF4" transform="translate(94,305)"/>
<path d="M0 0 C0.99 0 1.98 0 3 0 C3 2.97 3 5.94 3 9 C4.65 9 6.3 9 8 9 C8 6.03 8 3.06 8 0 C8.99 0 9.98 0 11 0 C11 2.97 11 5.94 11 9 C13.31 9 15.62 9 18 9 C18 10.32 18 11.64 18 13 C12.06 13 6.12 13 0 13 C0 8.71 0 4.42 0 0 Z " fill="#0048DF" transform="translate(7,179)"/>
<path d="M0 0 C0.99 0 1.98 0 3 0 C3.33 4.29 3.66 8.58 4 13 C5.65 13.33 7.3 13.66 9 14 C10.87824891 12.12175109 10.39102397 8.96064724 10.5625 6.4375 C10.64628906 5.23996094 10.73007812 4.04242188 10.81640625 2.80859375 C10.87699219 1.88175781 10.93757813 0.95492188 11 0 C11.99 0 12.98 0 14 0 C14.1079859 2.43868168 14.18726589 4.87259133 14.25 7.3125 C14.30027344 8.34793945 14.30027344 8.34793945 14.3515625 9.40429688 C14.45019655 14.50860899 14.45019655 14.50860899 12.20703125 16.95703125 C8.99052707 18.47704296 6.50398971 18.38225342 3 18 C1.296875 16.95703125 1.296875 16.95703125 0 15 C-0.2172101 12.35003674 -0.28351554 9.94923442 -0.1875 7.3125 C-0.17396484 6.61060547 -0.16042969 5.90871094 -0.14648438 5.18554688 C-0.11120182 3.45670171 -0.05739583 1.72825235 0 0 Z " fill="#004EF3" transform="translate(301,7)"/>
<path d="M0 0 C4.95 0 9.9 0 15 0 C15 1.32 15 2.64 15 4 C13.02 4 11.04 4 9 4 C9 8.95 9 13.9 9 19 C7.68 19 6.36 19 5 19 C5 14.05 5 9.1 5 4 C3.35 4 1.7 4 0 4 C0 2.68 0 1.36 0 0 Z " fill="#0041CB" transform="translate(230,304)"/>
<path d="M0 0 C4.95 0 9.9 0 15 0 C15 1.32 15 2.64 15 4 C13.02 4 11.04 4 9 4 C9 8.95 9 13.9 9 19 C7.68 19 6.36 19 5 19 C5 14.05 5 9.1 5 4 C3.35 4 1.7 4 0 4 C0 2.68 0 1.36 0 0 Z " fill="#0041CC" transform="translate(49,304)"/>
<path d="M0 0 C6.27 0 12.54 0 19 0 C19.48474576 10.17966102 19.48474576 10.17966102 17.375 13.75 C14.21337667 15.41401228 12.37982503 14.92177046 9 14 C9.33 10.7 9.66 7.4 10 4 C11.98 4 13.96 4 16 4 C16.33 4.99 16.66 5.98 17 7 C17.33 5.02 17.66 3.04 18 1 C12.39 1 6.78 1 1 1 C1 1.66 1 2.32 1 3 C2.98 3 4.96 3 7 3 C7 3.33 7 3.66 7 4 C4.69 4 2.38 4 0 4 C0 2.68 0 1.36 0 0 Z " fill="#0042CC" transform="translate(304,50)"/>
<path d="M0 0 C1.19109375 0.00773438 1.19109375 0.00773438 2.40625 0.015625 C3.2003125 0.01046875 3.994375 0.0053125 4.8125 0 C6.90625 0.265625 6.90625 0.265625 8.90625 2.265625 C9.28125 4.703125 9.28125 4.703125 8.90625 7.265625 C7.34375 9.140625 7.34375 9.140625 4.90625 10.265625 C-1.42102273 9.93835227 -1.42102273 9.93835227 -4.09375 7.265625 C-4.34375 4.765625 -4.34375 4.765625 -4.09375 2.265625 C-2.09375 0.265625 -2.09375 0.265625 0 0 Z " fill="#000510" transform="translate(311.09375,212.734375)"/>
<path d="M0 0 C5.94 0 11.88 0 18 0 C18 1.32 18 2.64 18 4 C14.7 4.33 11.4 4.66 8 5 C9.98 5.66 11.96 6.32 14 7 C13.01 7.99 12.02 8.98 11 10 C7.37 8.68 3.74 7.36 0 6 C0 4.02 0 2.04 0 0 Z " fill="#0046D9" transform="translate(7,73)"/>
<path d="M0 0 C2.4375 0.8125 2.4375 0.8125 4.4375 2.8125 C4.99166667 8.90833333 4.99166667 8.90833333 3.25 11.75 C0.79276759 13.19044659 -0.76413168 13.2430182 -3.5625 12.8125 C-6.02574069 9.11763897 -5.95241688 7.17956908 -5.5625 2.8125 C-3.9058551 0.02236122 -3.24544844 -0.23747184 0 0 Z " fill="#00030C" transform="translate(173.5625,9.1875)"/>
<path d="M0 0 C1.32 0 2.64 0 4 0 C4.08117951 2.41734542 4.14056926 4.83194949 4.1875 7.25 C4.22520508 8.27287109 4.22520508 8.27287109 4.26367188 9.31640625 C4.3092657 12.44718207 4.17712334 14.66341215 2.70703125 17.45703125 C1 19 1 19 -2.5 19.4375 C-6 19 -6 19 -7.9375 17.8125 C-9.32851983 15.43958382 -9.21917317 13.70313576 -9 11 C-8.01 11 -7.02 11 -6 11 C-5.67 12.32 -5.34 13.64 -5 15 C-3.68 15 -2.36 15 -1 15 C-0.67 10.05 -0.34 5.1 0 0 Z " fill="#0046DA" transform="translate(268,304)"/>
<path d="M0 0 C3.5625 0.25 3.5625 0.25 6.5625 2.25 C6.9930182 5.04836832 6.94044659 6.60526759 5.5 9.0625 C2.46874457 10.92036623 0.02827141 10.62133265 -3.4375 10.25 C-5.4375 9.0625 -5.4375 9.0625 -6.4375 7.25 C-6.08193534 2.39061631 -5.09371189 0.37045177 0 0 Z " fill="#00030B" transform="translate(313.4375,272.75)"/>
<path d="M0 0 C5.94 0 11.88 0 18 0 C18 3.96 18 7.92 18 12 C17.01 12 16.02 12 15 12 C15 9.03 15 6.06 15 3 C13.35 3 11.7 3 10 3 C10 5.97 10 8.94 10 12 C9.01 12 8.02 12 7 12 C7 9.03 7 6.06 7 3 C4.69 3 2.38 3 0 3 C0 2.01 0 1.02 0 0 Z " fill="#004DEE" transform="translate(305,130)"/>
<path d="M0 0 C0.99 0 1.98 0 3 0 C3 1.65 3 3.3 3 5 C7.95 5 12.9 5 18 5 C18 6.32 18 7.64 18 9 C13.05 9 8.1 9 3 9 C3 10.98 3 12.96 3 15 C2.01 15 1.02 15 0 15 C0 10.05 0 5.1 0 0 Z " fill="#0049E3" transform="translate(7,222)"/>
<path d="M0 0 C0.99 0 1.98 0 3 0 C3 1.98 3 3.96 3 6 C7.95 6 12.9 6 18 6 C18 7.32 18 8.64 18 10 C13.05 10 8.1 10 3 10 C3 11.65 3 13.3 3 15 C2.01 15 1.02 15 0 15 C0 10.05 0 5.1 0 0 Z " fill="#0049E2" transform="translate(7,52)"/>
<path d="M0 0 C1.32 0 2.64 0 4 0 C4.08119503 2.24940295 4.13927819 4.49964871 4.1875 6.75 C4.22230469 8.00296875 4.25710937 9.2559375 4.29296875 10.546875 C3.98629907 14.16148829 3.64248255 15.56311106 1 18 C-2.49835955 18.43729494 -4.87386726 18.69021039 -7.9375 16.8125 C-9.32851983 14.43958382 -9.21917317 12.70313576 -9 10 C-8.01 10 -7.02 10 -6 10 C-5.67 11.32 -5.34 12.64 -5 14 C-3.68 14 -2.36 14 -1 14 C-0.67 9.38 -0.34 4.76 0 0 Z " fill="#0048DF" transform="translate(87,305)"/>
<path d="M0 0 C0.70125 0.00515625 1.4025 0.0103125 2.125 0.015625 C2.82625 0.01046875 3.5275 0.0053125 4.25 0 C6.125 0.265625 6.125 0.265625 8.125 2.265625 C8.4375 5.265625 8.4375 5.265625 8.125 8.265625 C4.65576119 10.57845087 3.20294425 10.69041086 -0.875 10.265625 C-2.75 9.078125 -2.75 9.078125 -3.875 7.265625 C-4.1875 4.703125 -4.1875 4.703125 -3.875 2.265625 C-1.875 0.265625 -1.875 0.265625 0 0 Z " fill="#000309" transform="translate(13.875,98.734375)"/>
<path d="M0 0 C0.99 0.66 1.98 1.32 3 2 C3.3125 5 3.3125 5 3 8 C1 10 1 10 -0.875 10.265625 C-1.57625 10.26046875 -2.2775 10.2553125 -3 10.25 C-3.70125 10.25515625 -4.4025 10.2603125 -5.125 10.265625 C-7 10 -7 10 -9 8 C-9.36023622 5.19015752 -9.38332602 3.61758081 -7.875 1.1875 C-5.15523346 -0.53501881 -3.15413751 -0.32855599 0 0 Z " fill="#000309" transform="translate(19,38)"/>
<path d="M0 0 C0.33 0 0.66 0 1 0 C1.375 2.125 1.375 2.125 1 5 C-0.79340357 7.23913252 -2.83452663 9.12454539 -5 11 C-2.03 11.495 -2.03 11.495 1 12 C1 12.99 1 13.98 1 15 C-4.61 15 -10.22 15 -16 15 C-16 11.7 -16 8.4 -16 5 C-15.67 5 -15.34 5 -15 5 C-15 7.31 -15 9.62 -15 12 C-12.69 12 -10.38 12 -8 12 C-8 10.02 -8 8.04 -8 6 C-7.34 6.33 -6.68 6.66 -6 7 C-5.57847656 6.4946875 -5.15695313 5.989375 -4.72265625 5.46875 C-4.17480469 4.8190625 -3.62695312 4.169375 -3.0625 3.5 C-2.51722656 2.8503125 -1.97195312 2.200625 -1.41015625 1.53125 C-0.94480469 1.0259375 -0.47945312 0.520625 0 0 Z " fill="#004FF5" transform="translate(24,267)"/>
<path d="M0 0 C3.96 0 7.92 0 12 0 C12 6 12 6 10.375 7.875 C7.30991468 9.32688252 5.35223905 9.49926965 2 9 C0.0625 7.3125 0.0625 7.3125 -1 5 C-0.67 3.35 -0.34 1.7 0 0 Z " fill="#00081B" transform="translate(308,195)"/>
<path d="M0 0 C5.61 0 11.22 0 17 0 C17 1.98 17 3.96 17 6 C16.01 6.495 16.01 6.495 15 7 C15 5.68 15 4.36 15 3 C13.02 3 11.04 3 9 3 C9.33 5.31 9.66 7.62 10 10 C9.01 10.33 8.02 10.66 7 11 C7 10.01 7 9.02 7 8 C6.34 8 5.68 8 5 8 C4.731875 8.61875 4.46375 9.2375 4.1875 9.875 C3 12 3 12 0 14 C-0.375 11.9375 -0.375 11.9375 0 9 C1.79177109 6.46427718 3.84238121 4.22825512 6 2 C4.02 2 2.04 2 0 2 C0 1.34 0 0.68 0 0 Z " fill="#004EF1" transform="translate(305,51)"/>
<path d="M0 0 C3.5 -0.375 3.5 -0.375 7 0 C9 3 9 3 8.6875 4.9375 C8.460625 5.618125 8.23375 6.29875 8 7 C7.814375 7.7425 7.62875 8.485 7.4375 9.25 C7.293125 9.8275 7.14875 10.405 7 11 C5.88625 10.938125 4.7725 10.87625 3.625 10.8125 C1.830625 10.9053125 1.830625 10.9053125 0 11 C-0.66 11.99 -1.32 12.98 -2 14 C-2.05410687 12.22950311 -2.09284119 10.45853151 -2.125 8.6875 C-2.14820313 7.70136719 -2.17140625 6.71523438 -2.1953125 5.69921875 C-2 3 -2 3 0 0 Z " fill="#0049E2" transform="translate(9,268)"/>
<path d="M0 0 C2.31 0 4.62 0 7 0 C6.67 0.66 6.34 1.32 6 2 C5.01 2 4.02 2 3 2 C3 3.98 3 5.96 3 8 C4.65 8 6.3 8 8 8 C8.061875 8.8353125 8.061875 8.8353125 8.125 9.6875 C9.46158051 13.21989134 12.05494112 14.68154939 15 17 C15 17.33 15 17.66 15 18 C11.86162389 18.3077917 10.40656372 18.27813784 7.76171875 16.46875 C7.07722656 15.8190625 6.39273438 15.169375 5.6875 14.5 C4.99011719 13.8503125 4.29273437 13.200625 3.57421875 12.53125 C2.79498047 11.77328125 2.79498047 11.77328125 2 11 C2 12.98 2 14.96 2 17 C1.34 17 0.68 17 0 17 C0 11.39 0 5.78 0 0 Z " fill="#0050F8" transform="translate(72,7)"/>
<path d="M0 0 C0.33 0 0.66 0 1 0 C1.07476562 0.60328125 1.14953125 1.2065625 1.2265625 1.828125 C1.89341039 6.58163604 1.89341039 6.58163604 4.46875 10.453125 C5.93336104 11.37886971 7.46385551 12.19853331 9 13 C9 13.33 9 13.66 9 14 C2.07 14 -4.86 14 -12 14 C-6 7 -6 7 -3.125 6.0625 C-2.42375 6.041875 -1.7225 6.02125 -1 6 C-0.67 4.02 -0.34 2.04 0 0 Z " fill="#E5EBFD" transform="translate(162,63)"/>
<path d="M0 0 C1.875 1.125 1.875 1.125 3 3 C3 4.98 3 6.96 3 9 C-0.96 9 -4.92 9 -9 9 C-9 3 -9 3 -7.875 1.125 C-5.11909116 -0.52854531 -3.14924548 -0.39365568 0 0 Z " fill="#00040F" transform="translate(19,117)"/>
<path d="M0 0 C5.9015544 -0.70466321 5.9015544 -0.70466321 9 0 C11.28928569 2.38336593 12.66469366 4.99388321 14 8 C11 9 11 9 8.6875 8.5 C5.53759463 7.91397109 3.11479378 8.34806642 0 9 C0 6.03 0 3.06 0 0 Z " fill="#E7EDFD" transform="translate(88,249)"/>
<path d="M0 0 C0.99 0 1.98 0 3 0 C3 4.95 3 9.9 3 15 C2.01 15 1.02 15 0 15 C0 13.02 0 11.04 0 9 C-4.95 9 -9.9 9 -15 9 C-15 8.01 -15 7.02 -15 6 C-10.05 6 -5.1 6 0 6 C0 4.02 0 2.04 0 0 Z " fill="#004CEC" transform="translate(320,254)"/>
<path d="M0 0 C0.99 0 1.98 0 3 0 C3 4.95 3 9.9 3 15 C2.01 15 1.02 15 0 15 C0 13.02 0 11.04 0 9 C-4.95 9 -9.9 9 -15 9 C-15 8.01 -15 7.02 -15 6 C-10.05 6 -5.1 6 0 6 C0 4.02 0 2.04 0 0 Z " fill="#004DEE" transform="translate(320,100)"/>
<path d="M0 0 C1.98 0 3.96 0 6 0 C8 2 8 2 8.3125 5.4375 C8 9 8 9 6.8125 10.9375 C5 12 5 12 0 12 C0 8.04 0 4.08 0 0 Z " fill="#000206" transform="translate(206,308)"/>
<path d="M0 0 C1.98 0 3.96 0 6 0 C8 2 8 2 8.3125 5.4375 C8 9 8 9 6.8125 10.9375 C5 12 5 12 0 12 C0 8.04 0 4.08 0 0 Z " fill="#000105" transform="translate(25,308)"/>
<path d="M0 0 C0.33 0 0.66 0 1 0 C1 7.92 1 15.84 1 24 C0.34 22.68 -0.32 21.36 -1 20 C-2.65 21.98 -4.3 23.96 -6 26 C-7.77706209 23.33440687 -8.87548273 20.9719385 -10 18 C-12.64 18 -15.28 18 -18 18 C-18 17.67 -18 17.34 -18 17 C-12.06 17 -6.12 17 0 17 C0 13.04 0 9.08 0 5 C-0.99 4.67 -1.98 4.34 -3 4 C-2.34 3.67 -1.68 3.34 -1 3 C-0.67 2.01 -0.34 1.02 0 0 Z " fill="#000D2A" transform="translate(25,248)"/>
<path d="M0 0 C4.95 0 9.9 0 15 0 C15 0.99 15 1.98 15 3 C13.02 3 11.04 3 9 3 C9 7.95 9 12.9 9 18 C8.01 18 7.02 18 6 18 C6 12.72 6 7.44 6 2 C4.02 2 2.04 2 0 2 C0 1.34 0 0.68 0 0 Z " fill="#004EF3" transform="translate(307,305)"/>
<path d="M0 0 C4.95 0 9.9 0 15 0 C15 0.99 15 1.98 15 3 C13.02 3 11.04 3 9 3 C9 7.95 9 12.9 9 18 C8.01 18 7.02 18 6 18 C6 12.72 6 7.44 6 2 C4.02 2 2.04 2 0 2 C0 1.34 0 0.68 0 0 Z " fill="#004EF3" transform="translate(126,305)"/>
<path d="M0 0 C1.45823212 -0.0270043 2.91660675 -0.04639787 4.375 -0.0625 C5.18710938 -0.07410156 5.99921875 -0.08570313 6.8359375 -0.09765625 C9 0 9 0 11 1 C11 2.98 11 4.96 11 7 C8.59454362 8.20272819 7.05003047 8.10071472 4.375 8.0625 C3.14910156 8.04896484 3.14910156 8.04896484 1.8984375 8.03515625 C0.95871094 8.01775391 0.95871094 8.01775391 0 8 C0 5.36 0 2.72 0 0 Z " fill="#1761FD" transform="translate(64,264)"/>
<path d="M0 0 C0.99 0 1.98 0 3 0 C3 4.95 3 9.9 3 15 C5.97 15 8.94 15 12 15 C12 15.99 12 16.98 12 18 C8.04 18 4.08 18 0 18 C0 12.06 0 6.12 0 0 Z " fill="#004EF3" transform="translate(188,305)"/>
<path d="M0 0 C0.99 0 1.98 0 3 0 C3 4.95 3 9.9 3 15 C5.97 15 8.94 15 12 15 C12 15.99 12 16.98 12 18 C8.04 18 4.08 18 0 18 C0 12.06 0 6.12 0 0 Z " fill="#004FF4" transform="translate(7,305)"/>
<path d="M0 0 C1.32 0 2.64 0 4 0 C4.13526139 2.24834496 4.23210804 4.49902514 4.3125 6.75 C4.39951172 8.62945313 4.39951172 8.62945313 4.48828125 10.546875 C4 14 4 14 1.73046875 16.453125 C-1 18 -1 18 -5 18 C-5 17.01 -5 16.02 -5 15 C-4.03320312 14.70996094 -4.03320312 14.70996094 -3.046875 14.4140625 C-0.65648799 13.11291753 -0.65648799 13.11291753 -0.390625 9.9609375 C-0.34421875 8.77757812 -0.2978125 7.59421875 -0.25 6.375 C-0.19328125 5.18648437 -0.1365625 3.99796875 -0.078125 2.7734375 C-0.05234375 1.85820312 -0.0265625 0.94296875 0 0 Z " fill="#0047DD" transform="translate(5,7)"/>
<path d="M0 0 C1.62463842 -0.05395478 3.24978541 -0.09277195 4.875 -0.125 C5.77992187 -0.14820313 6.68484375 -0.17140625 7.6171875 -0.1953125 C10 0 10 0 12 2 C11.46428571 5.53571429 11.46428571 5.53571429 10 7 C8.31391034 7.07205511 6.62499341 7.08386068 4.9375 7.0625 C4.01839844 7.05347656 3.09929687 7.04445312 2.15234375 7.03515625 C1.44207031 7.02355469 0.73179688 7.01195312 0 7 C0 4.69 0 2.38 0 0 Z " fill="#0555FD" transform="translate(64,165)"/>
<path d="M0 0 C1.8125 2.5 1.8125 2.5 3 5 C2.01 5.33 1.02 5.66 0 6 C0 7.32 0 8.64 0 10 C-2.31 10 -4.62 10 -7 10 C-8.33359073 3.57451737 -8.33359073 3.57451737 -6.875 1.0625 C-4.30740185 -0.39247229 -2.90066607 -0.58013321 0 0 Z " fill="#0049E2" transform="translate(16,163)"/>
<path d="M0 0 C1.32 0 2.64 0 4 0 C4 6.27 4 12.54 4 19 C2.68 19 1.36 19 0 19 C0 12.73 0 6.46 0 0 Z " fill="#0043D1" transform="translate(181,304)"/>
<path d="M0 0 C1.32 0 2.64 0 4 0 C4 6.27 4 12.54 4 19 C2.68 19 1.36 19 0 19 C0 12.73 0 6.46 0 0 Z " fill="#0044D2" transform="translate(0,304)"/>
<path d="M0 0 C-0.61875 0.2475 -1.2375 0.495 -1.875 0.75 C-4.48998244 2.28822496 -5.06708246 3.12350424 -6 6 C-6.34241019 10.65660563 -6.34241019 10.65660563 -5 15 C-2.98330173 16.13350534 -2.98330173 16.13350534 -1 17 C-1.66 17 -2.32 17 -3 17 C-3 17.66 -3 18.32 -3 19 C-5.18486483 18.62329917 -6.80490291 18.12283891 -8.6875 16.9375 C-10.75994299 13.8781794 -11.12707085 10.61445985 -11 7 C-8.64855387 1.59167389 -5.86857524 -0.31722028 0 0 Z " fill="#004DEF" transform="translate(175,6)"/>
<path d="M0 0 C1.65 0.33 3.3 0.66 5 1 C5 4.63 5 8.26 5 12 C3.35 12.33 1.7 12.66 0 13 C-1 12 -1 12 -1.1328125 9.53125 C-1.13023438 8.5309375 -1.12765625 7.530625 -1.125 6.5 C-1.12757812 5.4996875 -1.13015625 4.499375 -1.1328125 3.46875 C-1 1 -1 1 0 0 Z " fill="#00030A" transform="translate(111,9)"/>
<path d="M0 0 C1.32 0 2.64 0 4 0 C4 5.94 4 11.88 4 18 C2.68 18 1.36 18 0 18 C0 12.06 0 6.12 0 0 Z " fill="#0047DC" transform="translate(224,305)"/>
<path d="M0 0 C1.32 0 2.64 0 4 0 C4 5.94 4 11.88 4 18 C2.68 18 1.36 18 0 18 C0 12.06 0 6.12 0 0 Z " fill="#0046D9" transform="translate(43,305)"/>
<path d="M0 0 C0.33 0 0.66 0 1 0 C1.66 2.31 2.32 4.62 3 7 C8.44893869 8.19876651 11.22169095 7.91360308 16 5 C15.51963048 9.56351039 15.51963048 9.56351039 13.4375 11.3125 C9.89609162 12.31135877 6.64462821 12.59001153 3 12 C0.5 10.4375 0.5 10.4375 -1 8 C-1.3125 4.3125 -1.3125 4.3125 -1 1 C-0.67 0.67 -0.34 0.34 0 0 Z " fill="#004DEF" transform="translate(306,214)"/>
<path d="M0 0 C0.268125 0.598125 0.53625 1.19625 0.8125 1.8125 C2.05646632 4.1040169 2.87633118 5.4830937 5 7 C9.4448552 7.4938728 12.8549309 6.57907394 17 5 C15.63016497 8.16115776 15.0109362 8.9927092 12 11 C7.71355009 11.67888525 4.14339686 11.72508094 0.4375 9.375 C-1.37706052 6.37703045 -1.38298208 4.44683871 -1 1 C-0.67 0.67 -0.34 0.34 0 0 Z " fill="#004DED" transform="translate(8,101)"/>
<path d="M0 0 C3.10551666 3.10551666 3.81323934 4.89198233 5 9 C7.31 9.33 9.62 9.66 12 10 C12.33 11.65 12.66 13.3 13 15 C11.02 15 9.04 15 7 15 C6.67 14.01 6.34 13.02 6 12 C4.02 12.33 2.04 12.66 0 13 C0 8.71 0 4.42 0 0 Z " fill="#00091D" transform="translate(289,305)"/>
<path d="M0 0 C1.32 0 2.64 0 4 0 C4.08119503 2.24940295 4.13927819 4.49964871 4.1875 6.75 C4.22230469 8.00296875 4.25710937 9.2559375 4.29296875 10.546875 C3.98802939 14.14109357 3.45605371 15.44725126 1 18 C0.01 17.67 -0.98 17.34 -2 17 C-1.67 16.34 -1.34 15.68 -1 15 C-0.76827173 12.45384991 -0.58105471 9.92603775 -0.4375 7.375 C-0.39431641 6.66859375 -0.35113281 5.9621875 -0.30664062 5.234375 C-0.20055249 3.48981463 -0.09977111 1.74493303 0 0 Z " fill="#0045D8" transform="translate(175,304)"/>
<path d="M0 0 C0 1.65 0 3.3 0 5 C-2.31 5.66 -4.62 6.32 -7 7 C-7.66 6.34 -8.32 5.68 -9 5 C-9.99 5 -10.98 5 -12 5 C-12 3.35 -12 1.7 -12 0 C-7.74433453 -1.16063604 -4.3164922 -0.76173392 0 0 Z " fill="#0049E1" transform="translate(323,72)"/>
<path d="M0 0 C0.33 0 0.66 0 1 0 C1 4.29 1 8.58 1 13 C0.67 12.01 0.34 11.02 0 10 C-3.7960081 8.10199595 -7.91817126 7.12050201 -12 6 C-11.67 4.68 -11.34 3.36 -11 2 C-9.35 2 -7.7 2 -6 2 C-5.67 2.99 -5.34 3.98 -5 5 C-4.01 5 -3.02 5 -2 5 C-1.34 3.35 -0.68 1.7 0 0 Z " fill="#00081A" transform="translate(300,7)"/>
<path d="M0 0 C3 3 3 3 3.6875 6.0625 C4.6498755 9.10107429 4.6498755 9.10107429 6.90234375 9.83203125 C8.91272877 10.32314464 10.9569021 10.67046808 13 11 C13 12.32 13 13.64 13 15 C11.02 15 9.04 15 7 15 C6.67 14.01 6.34 13.02 6 12 C4.02 12.33 2.04 12.66 0 13 C0 8.71 0 4.42 0 0 Z " fill="#00081A" transform="translate(108,305)"/>
<path d="M0 0 C0.33 0 0.66 0 1 0 C1 1.65 1 3.3 1 5 C5.62 5 10.24 5 15 5 C15 3.35 15 1.7 15 0 C15.66 0 16.32 0 17 0 C17 2.64 17 5.28 17 8 C11.39 8 5.78 8 0 8 C0 5.36 0 2.72 0 0 Z " fill="#0052FD" transform="translate(8,121)"/>
<path d="M0 0 C3.3 0 6.6 0 10 0 C10.33 1.32 10.66 2.64 11 4 C9 6 9 6 6.8359375 6.1953125 C5.61777344 6.16050781 5.61777344 6.16050781 4.375 6.125 C3.55773437 6.10695312 2.74046875 6.08890625 1.8984375 6.0703125 C1.27195313 6.04710937 0.64546875 6.02390625 0 6 C0 4.02 0 2.04 0 0 Z " fill="#0656FD" transform="translate(220,188)"/>
<path d="M0 0 C0.33 0 0.66 0 1 0 C1 8.91 1 17.82 1 27 C-2.63 27 -6.26 27 -10 27 C-9.01 26.34 -8.02 25.68 -7 25 C-5.64631404 23.68733482 -4.31200404 22.35432675 -3 21 C-2.34 20.34 -1.68 19.68 -1 19 C-0.63105418 16.96939341 -0.63105418 16.96939341 -0.5859375 14.6484375 C-0.54726562 13.79765625 -0.50859375 12.946875 -0.46875 12.0703125 C-0.4378125 11.18085937 -0.406875 10.29140625 -0.375 9.375 C-0.31699219 8.02921875 -0.31699219 8.02921875 -0.2578125 6.65625 C-0.16340643 4.4377073 -0.07783252 2.21917597 0 0 Z " fill="#C8D6FB" transform="translate(185,50)"/>
<path d="M0 0 C0.33 0 0.66 0 1 0 C1 5.61 1 11.22 1 17 C4.96 16.505 4.96 16.505 9 16 C9.2165625 14.576875 9.2165625 14.576875 9.4375 13.125 C10 10 10 10 11 8 C11.99 8.33 12.98 8.66 14 9 C14.33 10.98 14.66 12.96 15 15 C10.33220333 19.23435841 6.0499848 18.21607089 0 18 C0 12.06 0 6.12 0 0 Z " fill="#0048DF" transform="translate(147,305)"/>
<path d="M0 0 C1.65 0 3.3 0 5 0 C5 5.94 5 11.88 5 18 C4.01 18 3.02 18 2 18 C2 13.05 2 8.1 2 3 C1.34 3 0.68 3 0 3 C0 2.01 0 1.02 0 0 Z " fill="#0050F8" transform="translate(48,7)"/>
<path d="M0 0 C1.47906892 -0.02689216 2.95827483 -0.04634621 4.4375 -0.0625 C5.26121094 -0.07410156 6.08492188 -0.08570313 6.93359375 -0.09765625 C9 0 9 0 10 1 C10 2.65 10 4.3 10 6 C6.7 6 3.4 6 0 6 C0 4.02 0 2.04 0 0 Z " fill="#135EFD" transform="translate(64,154)"/>
<path d="M0 0 C2.97 0 5.94 0 9 0 C9.38218767 1.65614657 9.71395102 3.32457024 10 5 C9 6 9 6 6.93359375 6.09765625 C6.10988281 6.08605469 5.28617187 6.07445312 4.4375 6.0625 C3.61121094 6.05347656 2.78492187 6.04445313 1.93359375 6.03515625 C1.29550781 6.02355469 0.65742187 6.01195312 0 6 C0 4.02 0 2.04 0 0 Z " fill="#0958FD" transform="translate(64,254)"/>
<path d="M0 0 C0.99 0 1.98 0 3 0 C3 3.3 3 6.6 3 10 C0.36 10 -2.28 10 -5 10 C-5 9.01 -5 8.02 -5 7 C-4.34 7 -3.68 7 -3 7 C-2.690625 6.030625 -2.38125 5.06125 -2.0625 4.0625 C-1 1 -1 1 0 0 Z " fill="#F3F6FE" transform="translate(182,150)"/>
<path d="M0 0 C2 1 2 1 2.8515625 3.28515625 C3.10679688 4.20167969 3.36203125 5.11820312 3.625 6.0625 C3.88539062 6.98160156 4.14578125 7.90070313 4.4140625 8.84765625 C4.60742188 9.55792969 4.80078125 10.26820312 5 11 C2.03 11 -0.94 11 -4 11 C-3.52269162 9.5410574 -3.04308958 8.08286504 -2.5625 6.625 C-2.29566406 5.81289062 -2.02882813 5.00078125 -1.75390625 4.1640625 C-1 2 -1 2 0 0 Z " fill="#1660FD" transform="translate(100,90)"/>
<path d="M0 0 C5.94 0 11.88 0 18 0 C18 0.99 18 1.98 18 3 C12.06 3 6.12 3 0 3 C0 2.01 0 1.02 0 0 Z " fill="#004FF6" transform="translate(305,293)"/>
<path d="M0 0 C2.97 0.495 2.97 0.495 6 1 C6 3.31 6 5.62 6 8 C1.38 8 -3.24 8 -8 8 C-8 7.67 -8 7.34 -8 7 C-5.36 7 -2.72 7 0 7 C0 4.69 0 2.38 0 0 Z " fill="#B4C8FB" transform="translate(151,103)"/>
<path d="M0 0 C0.99 0 1.98 0 3 0 C3 5.94 3 11.88 3 18 C2.01 18 1.02 18 0 18 C0 12.06 0 6.12 0 0 Z " fill="#0050F7" transform="translate(256,7)"/>
<path d="M0 0 C0.33 0.99 0.66 1.98 1 3 C2.98 3 4.96 3 7 3 C7.33 3.99 7.66 4.98 8 6 C5.36 6 2.72 6 0 6 C-0.33 7.32 -0.66 8.64 -1 10 C-2.32 9.67 -3.64 9.34 -5 9 C-4.5504955 7.68445015 -4.09010284 6.37261642 -3.625 5.0625 C-3.36976563 4.33160156 -3.11453125 3.60070312 -2.8515625 2.84765625 C-2 1 -2 1 0 0 Z " fill="#004BE9" transform="translate(241,15)"/>
<path d="M0 0 C2.75220373 0.86911697 4.5656698 1.4472161 6.375 3.75 C7.20607725 6.74187809 6.68048336 9.00587323 6 12 C4.35 12.33 2.7 12.66 1 13 C1.33 12.34 1.66 11.68 2 11 C2.039992 9.00039988 2.04346799 6.99952758 2 5 C1.34 4.67 0.68 4.34 0 4 C0 2.68 0 1.36 0 0 Z " fill="#0045D6" transform="translate(19,284)"/>
<path d="M0 0 C0.66 0.33 1.32 0.66 2 1 C2 4.33333333 2 7.66666667 2 11 C1.67 11 1.34 11 1 11 C0.67 9.35 0.34 7.7 0 6 C-1.98 8.97 -1.98 8.97 -4 12 C-2.68 12.33 -1.36 12.66 0 13 C-2.31 13 -4.62 13 -7 13 C-6.65986985 7.55791766 -3.29703472 4.06331802 0 0 Z " fill="#004BE8" transform="translate(143,7)"/>
<path d="M0 0 C1.65 0 3.3 0 5 0 C5 5.61 5 11.22 5 17 C4.34 17 3.68 17 3 17 C3 12.71 3 8.42 3 4 C2.01 4 1.02 4 0 4 C0 2.68 0 1.36 0 0 Z " fill="#0051FA" transform="translate(25,7)"/>
<path d="M0 0 C2.125 0.375 2.125 0.375 4 1 C4.625 3.375 4.625 3.375 5 6 C4.34 6.66 3.68 7.32 3 8 C0.375 7.625 0.375 7.625 -2 7 C-2.125 4.625 -2.125 4.625 -2 2 C-1.34 1.34 -0.68 0.68 0 0 Z " fill="#1861FC" transform="translate(88,265)"/>
<path d="M0 0 C0.66 0.33 1.32 0.66 2 1 C1.34 1.66 0.68 2.32 0 3 C-0.45811675 4.97235333 -0.45811675 4.97235333 -0.625 7.125 C-0.810625 9.043125 -0.810625 9.043125 -1 11 C-3.02045442 10.39816251 -5.02111039 9.72693904 -7 9 C-7.33 8.34 -7.66 7.68 -8 7 C-7.505 6.54625 -7.01 6.0925 -6.5 5.625 C-4.77390663 4.12364481 -4.77390663 4.12364481 -5 2 C-2.625 0.9375 -2.625 0.9375 0 0 Z " fill="#0044D3" transform="translate(20,235)"/>
<path d="M0 0 C1.65 0 3.3 0 5 0 C5.061875 0.8353125 5.061875 0.8353125 5.125 1.6875 C6.46158051 5.21989134 9.05494112 6.68154939 12 9 C12 9.33 12 9.66 12 10 C9.875 10.375 9.875 10.375 7 10 C3.26057026 7.26252273 0.84412473 4.62258782 0 0 Z " fill="#004BE7" transform="translate(75,15)"/>
<path d="M0 0 C-0.09539063 0.69867188 -0.19078125 1.39734375 -0.2890625 2.1171875 C-0.39992188 3.02726562 -0.51078125 3.93734375 -0.625 4.875 C-0.79902344 6.23238281 -0.79902344 6.23238281 -0.9765625 7.6171875 C-0.98429688 8.40351563 -0.99203125 9.18984375 -1 10 C-0.34 10.66 0.32 11.32 1 12 C-0.66611905 12.042721 -2.33382885 12.04063832 -4 12 C-5 11 -5 11 -5.25 7.125 C-5.20891261 3.30387289 -5.20891261 3.30387289 -3.625 1 C-2 0 -2 0 0 0 Z " fill="#004EF2" transform="translate(12,285)"/>
<path d="M0 0 C1.98 0 3.96 0 6 0 C6 1.98 6 3.96 6 6 C4.34385343 6.38218767 2.67542976 6.71395102 1 7 C0 6 0 6 -0.0625 2.9375 C-0.041875 1.968125 -0.02125 0.99875 0 0 Z " fill="#00091C" transform="translate(314,148)"/>
<path d="M0 0 C1.98 0 3.96 0 6 0 C6 1.98 6 3.96 6 6 C4.34385343 6.38218767 2.67542976 6.71395102 1 7 C0 6 0 6 -0.0625 2.9375 C-0.041875 1.968125 -0.02125 0.99875 0 0 Z " fill="#00081B" transform="translate(314,54)"/>
<path d="M0 0 C1.32 0 2.64 0 4 0 C3.84660156 0.52078125 3.69320313 1.0415625 3.53515625 1.578125 C2.86017489 4.63278515 2.65588882 7.63015971 2.4375 10.75 C2.35371094 11.92046875 2.26992188 13.0909375 2.18359375 14.296875 C2.12300781 15.18890625 2.06242187 16.0809375 2 17 C1.34 17 0.68 17 0 17 C0 11.39 0 5.78 0 0 Z " fill="#0052FC" transform="translate(319,7)"/>
<path d="M0 0 C2.64 0 5.28 0 8 0 C7.67 1.65 7.34 3.3 7 5 C4.69 5 2.38 5 0 5 C0 3.35 0 1.7 0 0 Z " fill="#00081B" transform="translate(150,315)"/>
<path d="M0 0 C2.0625 0.4375 2.0625 0.4375 4 1 C4 3.31 4 5.62 4 8 C2.35 8 0.7 8 -1 8 C-1.04241723 5.66705225 -1.04092937 3.33297433 -1 1 C-0.67 0.67 -0.34 0.34 0 0 Z " fill="#00040F" transform="translate(11,271)"/>
<path d="M0 0 C0.33 0 0.66 0 1 0 C1.19466332 1.79090253 1.38051213 3.58276505 1.5625 5.375 C1.66691406 6.37273437 1.77132812 7.37046875 1.87890625 8.3984375 C2 11 2 11 1 13 C-1.64 13 -4.28 13 -7 13 C-7.33 12.01 -7.66 11.02 -8 10 C-5.36 10 -2.72 10 0 10 C0 6.7 0 3.4 0 0 Z " fill="#3573FC" transform="translate(185,150)"/>
<path d="M0 0 C1.32 0.33 2.64 0.66 4 1 C3.01 1 2.02 1 1 1 C1 5.29 1 9.58 1 14 C0.01 14 -0.98 14 -2 14 C-2.3690205 4.58997722 -2.3690205 4.58997722 0 0 Z " fill="#001033" transform="translate(274,304)"/>
<path d="M0 0 C0.99 0 1.98 0 3 0 C3.08159574 4.16138263 2.98248524 7.9472484 2 12 C0.5 11 0.5 11 -1 9 C-1.33190332 6.24520245 -1.18037589 3.79582634 -1 1 C-0.67 0.67 -0.34 0.34 0 0 Z " fill="#1660FC" transform="translate(98,264)"/>
<path d="M0 0 C1.65 0 3.3 0 5 0 C5 2.31 5 4.62 5 7 C3.35 7 1.7 7 0 7 C0 4.69 0 2.38 0 0 Z " fill="#000207" transform="translate(10,166)"/>
<path d="M0 0 C3.32820054 -0.22692276 5.41801336 -0.32162419 8.375 1.3125 C10 3 10 3 10 6 C9.443125 5.855625 8.88625 5.71125 8.3125 5.5625 C5.88615805 4.97230872 3.45093655 4.476571 1 4 C0.67 2.68 0.34 1.36 0 0 Z " fill="#0048DF" transform="translate(207,6)"/>
<path d="M0 0 C2.31 0 4.62 0 7 0 C6.67 1.65 6.34 3.3 6 5 C4.02 5 2.04 5 0 5 C0 3.35 0 1.7 0 0 Z " fill="#000207" transform="translate(75,10)"/>
<path d="M0 0 C-0.598125 0.20625 -1.19625 0.4125 -1.8125 0.625 C-4.81018767 2.50926082 -5.61361776 4.81132084 -7 8 C-7.66 8 -8.32 8 -9 8 C-9.66 9.32 -10.32 10.64 -11 12 C-10.63529412 4.70588235 -10.63529412 4.70588235 -7.75 1.5 C-4.82968014 -0.09290174 -3.26599313 -0.37325636 0 0 Z " fill="#0043D0" transform="translate(175,6)"/>
<path d="M0 0 C3.25 -0.375 3.25 -0.375 6 0 C2.91709845 4.22797927 2.91709845 4.22797927 1 6 C-1.8125 6.375 -1.8125 6.375 -4 6 C-2.375 3 -2.375 3 0 0 Z " fill="#E5ECFD" transform="translate(125,41)"/>
<path d="M0 0 C6.32258065 -0.36476427 6.32258065 -0.36476427 9.4375 1.3125 C11 3 11 3 11 6 C9.68 6 8.36 6 7 6 C6.34 4.35 5.68 2.7 5 1 C3.35 1 1.7 1 0 1 C0 0.67 0 0.34 0 0 Z " fill="#003FC3" transform="translate(295,304)"/>
<path d="M0 0 C3.70293685 -0.33663062 5.39534381 -0.47736015 8.375 1.875 C10 4 10 4 10 6 C8.68 6 7.36 6 6 6 C5.67 5.34 5.34 4.68 5 4 C3.34051852 2.98812105 1.67419438 1.9873454 0 1 C0 0.67 0 0.34 0 0 Z " fill="#0042CF" transform="translate(115,304)"/>
<path d="M0 0 C1.32 0 2.64 0 4 0 C4.33 0.66 4.66 1.32 5 2 C7.52733235 2.65555119 7.52733235 2.65555119 10 3 C8.68 3.33 7.36 3.66 6 4 C6 4.66 6 5.32 6 6 C3.5625 5.25 3.5625 5.25 1 4 C0.1875 1.875 0.1875 1.875 0 0 Z " fill="#0041CA" transform="translate(291,317)"/>
<path d="M0 0 C1.32 0 2.64 0 4 0 C4.33 0.66 4.66 1.32 5 2 C7.52733235 2.65555119 7.52733235 2.65555119 10 3 C8.68 3.33 7.36 3.66 6 4 C6 4.66 6 5.32 6 6 C3.5625 5.25 3.5625 5.25 1 4 C0.1875 1.875 0.1875 1.875 0 0 Z " fill="#0041CB" transform="translate(110,317)"/>
<path d="M0 0 C0.33 0 0.66 0 1 0 C1.12375 0.969375 1.2475 1.93875 1.375 2.9375 C1.684375 4.4534375 1.684375 4.4534375 2 6 C2.66 6.33 3.32 6.66 4 7 C4 8.32 4 9.64 4 11 C0.125 9.125 0.125 9.125 -1 8 C-1.125 4.5 -1.125 4.5 -1 1 C-0.67 0.67 -0.34 0.34 0 0 Z " fill="#004EF3" transform="translate(306,88)"/>
<path d="M0 0 C0 0.33 0 0.66 0 1 C-1.670625 1.12375 -1.670625 1.12375 -3.375 1.25 C-7.05753944 1.57873787 -7.05753944 1.57873787 -8.4375 4.0625 C-8.623125 4.701875 -8.80875 5.34125 -9 6 C-9.66 6 -10.32 6 -11 6 C-11.33 7.65 -11.66 9.3 -12 11 C-12.33 11 -12.66 11 -13 11 C-13.45761159 7.0645403 -13.29742742 5.42755191 -11 2.125 C-6.96957293 -0.72988584 -4.84275759 -0.41040319 0 0 Z " fill="#0044D2" transform="translate(317,83)"/>
<path d="M0 0 C0.94875 0.04125 1.8975 0.0825 2.875 0.125 C1.885 0.62 1.885 0.62 0.875 1.125 C0.875 1.785 0.875 2.445 0.875 3.125 C-0.115 3.455 -1.105 3.785 -2.125 4.125 C-2.455 4.785 -2.785 5.445 -3.125 6.125 C-4.115 6.125 -5.105 6.125 -6.125 6.125 C-5.28810868 1.94054341 -4.61542241 0.1846169 0 0 Z " fill="#0047DC" transform="translate(98.125,5.875)"/>
<path d="M0 0 C0.99 0 1.98 0 3 0 C4.25664978 2.90600261 5 4.79604584 5 8 C3.68 7.67 2.36 7.34 1 7 C0.67 4.69 0.34 2.38 0 0 Z " fill="#004CEC" transform="translate(259,315)"/>
<path d="M0 0 C0.99 0 1.98 0 3 0 C4.25664978 2.90600261 5 4.79604584 5 8 C3.68 7.67 2.36 7.34 1 7 C0.67 4.69 0.34 2.38 0 0 Z " fill="#004CEC" transform="translate(78,315)"/>
<path d="M0 0 C1.98 0 3.96 0 6 0 C6 1.32 6 2.64 6 4 C4.02 4 2.04 4 0 4 C0 2.68 0 1.36 0 0 Z " fill="#00030A" transform="translate(151,308)"/>
<path d="M0 0 C0.33 0 0.66 0 1 0 C1.48951049 6.36363636 1.48951049 6.36363636 -0.875 9.4375 C-3 11 -3 11 -5 11 C-5 9.68 -5 8.36 -5 7 C-4.0409375 6.6596875 -4.0409375 6.6596875 -3.0625 6.3125 C-0.72806339 5.14749104 -0.72806339 5.14749104 -0.25 2.375 C-0.1675 1.59125 -0.085 0.8075 0 0 Z " fill="#0047DD" transform="translate(322,88)"/>
<path d="M0 0 C2.875 -0.125 2.875 -0.125 6 0 C6.66 0.66 7.32 1.32 8 2 C7.625 4.125 7.625 4.125 7 6 C6.4121875 5.2575 6.4121875 5.2575 5.8125 4.5 C3.44908285 2.54406857 1.98564997 2.75792027 -1 3 C-0.67 2.01 -0.34 1.02 0 0 Z " fill="#0050F9" transform="translate(111,7)"/>
<path d="M0 0 C0.33 0 0.66 0 1 0 C1 5.61 1 11.22 1 17 C0.67 17 0.34 17 0 17 C-0.06058594 16.38511719 -0.12117188 15.77023438 -0.18359375 15.13671875 C-0.26738281 14.32847656 -0.35117188 13.52023438 -0.4375 12.6875 C-0.51871094 11.88699219 -0.59992188 11.08648437 -0.68359375 10.26171875 C-0.95265693 7.83912821 -0.95265693 7.83912821 -2 5 C-1.0625 2.3125 -1.0625 2.3125 0 0 Z " fill="#3170FB" transform="translate(81,193)"/>
<path d="M0 0 C0.33 0.66 0.66 1.32 1 2 C1.66 2.33 2.32 2.66 3 3 C2.25 5.375 2.25 5.375 1 8 C-0.98 8.99 -0.98 8.99 -3 10 C-2.01 6.7 -1.02 3.4 0 0 Z " fill="#0047DD" transform="translate(47,8)"/>
<path d="M0 0 C0.556875 0.268125 1.11375 0.53625 1.6875 0.8125 C1.048125 1.080625 0.40875 1.34875 -0.25 1.625 C-2.64381686 2.69917752 -2.64381686 2.69917752 -3.3125 5.8125 C-3.9725 5.8125 -4.6325 5.8125 -5.3125 5.8125 C-5.6425 7.4625 -5.9725 9.1125 -6.3125 10.8125 C-6.6425 10.8125 -6.9725 10.8125 -7.3125 10.8125 C-7.79127076 6.69507146 -7.63415374 5.23243683 -5.0625 1.875 C-2.3125 -0.1875 -2.3125 -0.1875 0 0 Z " fill="#0044D3" transform="translate(311.3125,209.1875)"/>
<path d="M0 0 C4.75 0.75 4.75 0.75 7 3 C4.35261084 4.4606285 3.10551666 5 0 5 C0 3.35 0 1.7 0 0 Z " fill="#000C26" transform="translate(311,72)"/>
<path d="M0 0 C0.66 0 1.32 0 2 0 C2.66 2.31 3.32 4.62 4 7 C2.35 7 0.7 7 -1 7 C-0.67 4.69 -0.34 2.38 0 0 Z " fill="#000B22" transform="translate(244,11)"/>
<path d="M0 0 C0.33 0 0.66 0 1 0 C1 4.62 1 9.24 1 14 C0.67 14 0.34 14 0 14 C-0.2165625 12.6078125 -0.2165625 12.6078125 -0.4375 11.1875 C-0.92100111 7.99274889 -0.92100111 7.99274889 -2 5 C-1.0625 2.3125 -1.0625 2.3125 0 0 Z " fill="#001137" transform="translate(49,11)"/>
<path d="M0 0 C3.875 0.875 3.875 0.875 5 2 C5.04063832 3.66617115 5.042721 5.33388095 5 7 C4.01 6.67 3.02 6.34 2 6 C0.8125 2.9375 0.8125 2.9375 0 0 Z " fill="#004FF5" transform="translate(99,7)"/>
<path d="M0 0 C0.99 0 1.98 0 3 0 C3 2.31 3 4.62 3 7 C2.01 7 1.02 7 0 7 C0 4.69 0 2.38 0 0 Z " fill="#0051FA" transform="translate(164,305)"/>
<path d="M0 0 C0.99 0 1.98 0 3 0 C3 1.65 3 3.3 3 5 C1.68 5 0.36 5 -1 5 C-0.67 3.35 -0.34 1.7 0 0 Z " fill="#004EF0" transform="translate(20,19)"/>
<path d="M0 0 C0.33 0 0.66 0 1 0 C1 2.31 1 4.62 1 7 C-0.65 7 -2.3 7 -4 7 C-2.68 4.69 -1.36 2.38 0 0 Z " fill="#00091C" transform="translate(143,11)"/>
<path d="M0 0 C-0.62759865 2.92879371 -1.58622659 5.36095629 -3 8 C-3.66 6.35 -4.32 4.7 -5 3 C-2.25 0 -2.25 0 0 0 Z " fill="#0049E4" transform="translate(12,285)"/>
<path d="M0 0 C0 1.65 0 3.3 0 5 C-2.4375 4.625 -2.4375 4.625 -5 4 C-5.33 3.34 -5.66 2.68 -6 2 C-1.125 0 -1.125 0 0 0 Z " fill="#000716" transform="translate(18,240)"/>
<path d="M0 0 C0.99 0 1.98 0 3 0 C3 1.98 3 3.96 3 6 C2.01 6 1.02 6 0 6 C0 4.02 0 2.04 0 0 Z " fill="#FDFDFF" transform="translate(153,104)"/>
<path d="M0 0 C0 1.65 0 3.3 0 5 C-1.98 5 -3.96 5 -6 5 C-1.125 0 -1.125 0 0 0 Z " fill="#FCFCFE" transform="translate(185,71)"/>
<path d="M0 0 C-0.66 1.98 -1.32 3.96 -2 6 C-2.99 6 -3.98 6 -5 6 C-5 3 -5 3 -3.625 1.3125 C-2 0 -2 0 0 0 Z " fill="#0045D6" transform="translate(13,35)"/>
</svg>
