<?xml version="1.0" encoding="UTF-8"?>
<svg version="1.1" xmlns="http://www.w3.org/2000/svg" width="300" height="300">
<path d="M0 0 C2.10424714 1.81046533 4.18285609 3.64735119 6.25 5.5 C7.04019531 6.20511719 7.83039063 6.91023438 8.64453125 7.63671875 C33.94189389 31.56665639 49.12033531 67.52416505 50.53515625 102.11328125 C51.47871527 141.95430533 37.74555132 176.93685932 11.25 206.5 C10.54488281 207.29019531 9.83976563 208.08039063 9.11328125 208.89453125 C-14.81665639 234.19189389 -50.77416505 249.37033531 -85.36328125 250.78515625 C-124.16144971 251.70401721 -160.93368173 238.76188125 -189.28222656 211.92797852 C-215.392384 186.55780179 -232.88283378 152.267952 -233.953125 115.390625 C-234.50167547 76.21787247 -222.45574665 39.70025365 -195.16699219 10.96118164 C-193.70657687 9.46172411 -192.23182531 7.9782742 -190.75 6.5 C-189.90308594 5.64148437 -189.05617187 4.78296875 -188.18359375 3.8984375 C-136.63882304 -45.67897555 -53.73959373 -44.95516238 0 0 Z " fill="#335DD2" transform="translate(241.75,41.5)"/>
<path d="M0 0 C2.57229997 0.8662911 4.80743182 1.89683104 7.18457031 3.20678711 C8.5172998 3.9363562 8.5172998 3.9363562 9.87695312 4.68066406 C11.28992676 5.46896606 11.28992676 5.46896606 12.73144531 6.27319336 C13.71725586 6.81741943 14.70306641 7.36164551 15.71875 7.92236328 C22.82006687 11.8614649 29.83854344 15.92680128 36.81738281 20.07788086 C43.64918827 24.13454938 50.54625161 28.07921631 57.43164062 32.04394531 C59.49687681 33.23329138 61.54967764 34.44450342 63.58918762 35.67744446 C66.40028287 37.31475046 69.23778781 38.58784638 72.25071716 39.8107605 C84.89519144 45.33740095 84.89519144 45.33740095 87.54369354 51.17835426 C89.17583374 58.10518594 88.66143326 65.17003581 88.33691406 72.22241211 C88.30143158 74.49344087 88.27440696 76.76461609 88.25544739 79.0358429 C88.18322937 84.98616135 87.99696832 90.92752608 87.78607178 96.87432861 C87.59093975 102.95331651 87.50477291 109.03376682 87.40917969 115.11499023 C87.20600549 127.02580519 86.8821997 138.93000224 86.48144531 150.83569336 C85.7019754 151.28077744 84.92250549 151.72586151 84.11941528 152.18443298 C81.15933933 153.87482419 78.19939499 155.56544544 75.23953247 157.25621033 C73.97123189 157.98064391 72.70288257 158.70499216 71.43447876 159.429245 C59.5328141 166.22517991 47.65802423 173.06693554 35.79150391 179.92407227 C32.27911179 181.95254478 28.7652546 183.97845955 25.25097656 186.00366211 C24.05386877 186.69367635 22.85676585 187.38369904 21.65966797 188.07373047 C19.38741559 189.38350091 17.11491941 190.69284508 14.84228516 192.00195312 C13.30822021 192.88645142 13.30822021 192.88645142 11.74316406 193.78881836 C10.84557373 194.30605469 9.9479834 194.82329102 9.02319336 195.35620117 C6.44591393 196.80361551 6.44591393 196.80361551 4.02758789 198.58862305 C0.67191113 200.23219356 -0.96182438 199.85444664 -4.51855469 198.83569336 C-7.17382812 197.58325195 -7.17382812 197.58325195 -9.87792969 195.98413086 C-10.89757812 195.38793945 -11.91722656 194.79174805 -12.96777344 194.17749023 C-14.60166016 193.20392578 -14.60166016 193.20392578 -16.26855469 192.21069336 C-17.4255282 191.53067158 -18.58309182 190.85165289 -19.74121094 190.17358398 C-22.14520617 188.76502012 -24.54661242 187.35218695 -26.94628906 185.9362793 C-32.44690379 182.6955234 -37.98460312 179.51905563 -43.51855469 176.33569336 C-45.65804321 175.10160542 -47.79736511 173.86722857 -49.93652344 172.63256836 C-53.93446377 170.3259948 -57.93288664 168.0202621 -61.93191528 165.71557617 C-64.32282066 164.33762398 -66.7135414 162.95935164 -69.10424805 161.58105469 C-70.78839432 160.61028354 -72.472807 159.63997462 -74.15722656 158.66967773 C-75.18009766 158.07993164 -76.20296875 157.49018555 -77.25683594 156.88256836 C-78.15442627 156.36533203 -79.0520166 155.8480957 -79.97680664 155.31518555 C-80.8155835 154.82695312 -81.65436035 154.3387207 -82.51855469 153.83569336 C-83.80534622 153.34076134 -83.80534622 153.34076134 -85.11813354 152.83583069 C-87.8705965 150.54235651 -87.91871578 150.09710318 -88.28132629 146.69682312 C-88.36915716 144.9169736 -88.42887709 143.13561051 -88.46704102 141.35400391 C-88.50632217 140.38118973 -88.54560333 139.40837555 -88.58607483 138.40608215 C-88.7052562 135.17831161 -88.78296526 131.95165728 -88.85058594 128.72241211 C-88.87595617 127.61731607 -88.90132641 126.51222004 -88.92746544 125.37363625 C-89.05531273 119.51567875 -89.14705462 113.65826639 -89.21411133 107.79931641 C-89.27619198 102.96376137 -89.4080101 98.13811292 -89.60375977 93.30615234 C-91.19497888 53.16435359 -91.19497888 53.16435359 -85.29083252 45.36157227 C-79.80846239 40.19307967 -73.60196773 37.7446711 -66.43344116 35.71414185 C-62.48692972 34.52479638 -59.51322846 32.72981355 -56.03417969 30.53100586 C-53.94627568 29.33978335 -51.85774573 28.14965719 -49.76855469 26.96069336 C-48.02610926 25.96682488 -46.28366495 24.97295442 -44.54127502 23.97898865 C-42.75576003 22.96062929 -40.96996027 21.94277102 -39.18408203 20.92504883 C-33.43410438 17.64800496 -27.68652248 14.36676631 -21.9395752 11.08441162 C-20.12341832 10.04738306 -18.30684709 9.01108329 -16.49023438 7.97485352 C-15.38711914 7.34498535 -14.28400391 6.71511719 -13.14746094 6.06616211 C-12.17881104 5.513396 -11.21016113 4.96062988 -10.2121582 4.39111328 C-7.49799012 2.87379321 -7.49799012 2.87379321 -4.97924805 1.07128906 C-2.51855469 -0.16430664 -2.51855469 -0.16430664 0 0 Z " fill="#FDFEFE" transform="translate(150.5185546875,50.164306640625)"/>
<path d="M0 0 C3.9588413 0.46297434 6.81030206 1.81797728 10.2265625 3.81640625 C11.75615601 4.70465088 11.75615601 4.70465088 13.31665039 5.61083984 C14.40840576 6.2548877 15.50016113 6.89893555 16.625 7.5625 C17.75478271 8.2220166 18.88456543 8.8815332 20.04858398 9.56103516 C23.07542829 11.32925954 26.09638397 13.10729618 29.11553955 14.88861084 C31.02385611 16.01406951 32.93340238 17.13741554 34.84326172 18.26025391 C38.58545512 20.46103329 42.3248798 22.66646361 46.0625 24.875 C46.65838928 25.22692413 47.25427856 25.57884827 47.8682251 25.94143677 C49.54994852 26.93569636 51.23009238 27.93262623 52.91015625 28.9296875 C53.87058838 29.49929199 54.83102051 30.06889648 55.82055664 30.65576172 C58 32 58 32 59 33 C59.14130703 34.96121035 59.21246749 36.92750582 59.25634766 38.89331055 C59.28532135 40.15519699 59.31429504 41.41708344 59.34414673 42.71720886 C59.43377005 47.74616027 59.50149067 52.77542031 59.54844093 57.80494976 C59.58418415 61.62385468 59.63741483 65.44064944 59.73388672 69.25854492 C59.82686894 72.94929243 59.87538482 76.63817423 59.89283371 80.33002663 C59.906906 81.73481129 59.93649913 83.13953216 59.98213577 84.54364586 C60.32053699 95.49332483 60.32053699 95.49332483 57.15701294 99.10276794 C54.83779698 100.67894999 52.55808228 101.85946375 50 103 C48.91412598 103.65186279 47.82825195 104.30372559 46.70947266 104.9753418 C45.7044873 105.54422119 44.69950195 106.11310059 43.6640625 106.69921875 C42.52598145 107.34648926 41.38790039 107.99375977 40.21533203 108.66064453 C39.01879906 109.33669572 37.82201697 110.01230616 36.625 110.6875 C34.13459093 112.09359691 31.6449124 113.50097002 29.15625 114.91015625 C28.23732468 115.43008148 28.23732468 115.43008148 27.29983521 115.96051025 C23.54354489 118.09501618 19.83684263 120.29495196 16.15625 122.55859375 C15.29563965 123.08171143 14.4350293 123.6048291 13.54833984 124.14379883 C11.97590287 125.10490855 10.41296083 126.08179579 8.86181641 127.0769043 C3.86561139 130.10373029 3.86561139 130.10373029 0.1640625 129.66015625 C-4.56086201 127.18102919 -9.16798056 124.54630679 -13.75 121.8125 C-15.88241185 120.55400838 -18.01524012 119.29622214 -20.1484375 118.0390625 C-21.26057617 117.38196289 -22.37271484 116.72486328 -23.51855469 116.04785156 C-28.87050316 112.89320621 -34.25307591 109.79141665 -39.63586426 106.68978882 C-41.3564281 105.69820325 -43.07616797 104.70518841 -44.79589844 103.7121582 C-49.84258724 100.7541443 -49.84258724 100.7541443 -55 98 C-55.20886274 89.62896677 -55.36860296 81.2590277 -55.46630955 72.8860302 C-55.51321428 68.99762607 -55.57678222 65.11100851 -55.67895508 61.22363281 C-55.77701014 57.46927595 -55.83060817 53.71663265 -55.85389519 49.9610939 C-55.87048027 48.53115987 -55.9028726 47.10131613 -55.95157051 45.67211533 C-56.316709 34.50822303 -56.316709 34.50822303 -53.14385986 30.87388611 C-50.82748273 29.3015777 -48.55809705 28.12858941 -46 27 C-44.46206787 26.06764526 -44.46206787 26.06764526 -42.89306641 25.11645508 C-41.51127197 24.32597778 -41.51127197 24.32597778 -40.1015625 23.51953125 C-39.05347412 22.9177002 -38.00538574 22.31586914 -36.92553711 21.69580078 C-35.83635986 21.07431152 -34.74718262 20.45282227 -33.625 19.8125 C-31.32677392 18.49357495 -29.02859729 17.17456375 -26.73046875 15.85546875 C-25.59915527 15.20755371 -24.4678418 14.55963867 -23.30224609 13.89208984 C-18.50870585 11.14553233 -13.72164655 8.38787957 -8.9375 5.625 C-7.74278076 4.93821167 -7.74278076 4.93821167 -6.52392578 4.23754883 C-3.06108667 2.39459703 -3.06108667 2.39459703 0 0 Z " fill="#345DD2" transform="translate(148,85)"/>
</svg>
