<?xml version="1.0" encoding="UTF-8"?>
<svg version="1.1" xmlns="http://www.w3.org/2000/svg" width="400" height="400">
<path d="M0 0 C1.17780029 0.00273422 1.17780029 0.00273422 2.37939453 0.00552368 C14.89295271 0.05425595 27.04101567 0.67998656 39.3125 3.3125 C40.14587891 3.48942383 40.97925781 3.66634766 41.83789062 3.84863281 C66.95283709 9.34430704 92.64610125 18.74105318 113.3125 34.3125 C114.26253906 34.99441406 115.21257812 35.67632812 116.19140625 36.37890625 C156.2364838 65.56430175 184.21985394 105.80145497 196.0625 153.9375 C196.26133789 154.73526855 196.46017578 155.53303711 196.66503906 156.35498047 C199.88802416 170.1342092 200.66360728 183.84597272 200.62817383 197.93798828 C200.62501956 200.54632688 200.64856533 203.15351946 200.67382812 205.76171875 C200.73750636 222.28476492 198.59793937 238.30835601 194.1875 254.25 C193.74071899 255.88159058 193.74071899 255.88159058 193.28491211 257.54614258 C184.13838642 289.64920571 166.20083219 317.33099374 143.3125 341.3125 C142.55195313 342.11429687 141.79140625 342.91609375 141.0078125 343.7421875 C105.29253451 380.47427055 55.05146147 399.78910194 4.29956055 400.61254883 C-8.11575352 400.65939907 -20.37858559 399.91040644 -32.6875 398.3125 C-34.56888672 398.09013672 -34.56888672 398.09013672 -36.48828125 397.86328125 C-56.36759128 394.85255868 -77.24920078 387.21970925 -94.6875 377.3125 C-95.87653155 376.66988636 -97.06664993 376.02927987 -98.2578125 375.390625 C-122.88697393 361.98990938 -145.63115669 342.30397751 -161.6875 319.3125 C-162.39036133 318.31959961 -162.39036133 318.31959961 -163.10742188 317.30664062 C-194.27516294 273.00710749 -206.25385124 219.8904905 -197.6875 166.3125 C-197.56391113 165.52439941 -197.44032227 164.73629883 -197.31298828 163.92431641 C-191.64047487 129.18103126 -176.0481231 96.67033512 -152.6875 70.3125 C-151.96304688 69.47976562 -151.23859375 68.64703125 -150.4921875 67.7890625 C-141.05099569 57.09781741 -131.06973552 47.85226964 -119.6875 39.3125 C-119.12546875 38.88437012 -118.5634375 38.45624023 -117.984375 38.01513672 C-84.17825948 12.35447835 -42.2037144 -0.20484516 0 0 Z " fill="#A26EFD" transform="translate(199.6875,-0.3125)"/>
<path d="M0 0 C4.81552028 0.01717601 9.63054664 0.00683575 14.44605064 -0.01028061 C31.33762256 -0.06166646 48.22203797 -0.107984 65.04321289 1.60205078 C66.62373695 1.75125473 66.62373695 1.75125473 68.2361908 1.9034729 C74.40776461 2.65436653 79.64293816 4.0981466 84.32055664 8.39111328 C93.54010208 23.6437811 84.34254989 63.25325187 82.75805664 80.45361328 C82.24180489 86.10613242 81.88435115 91.76343171 81.56665039 97.43017578 C81.34009211 100.15606749 80.9201441 102.72517895 80.32055664 105.39111328 C54.59285644 113.37281965 30.93403728 117.77396332 3.8918457 117.65185547 C1.0579721 117.64106537 -1.77527533 117.65186916 -4.60913086 117.66455078 C-15.4692331 117.67292221 -25.94486782 117.08404398 -36.67944336 115.39111328 C-37.50766602 115.26542969 -38.33588867 115.13974609 -39.18920898 115.01025391 C-48.55172408 113.51047661 -57.61695961 111.16264957 -66.67944336 108.39111328 C-68.63771911 107.80758667 -70.59604599 107.2242316 -72.55444336 106.64111328 C-73.92974055 106.2254286 -75.30487028 105.8091862 -76.67944336 105.39111328 C-77.39810742 102.08173892 -77.85527407 98.89192705 -78.05249023 95.51245117 C-78.10924927 94.57119888 -78.1660083 93.62994659 -78.2244873 92.66017151 C-78.3104718 91.15220253 -78.3104718 91.15220253 -78.39819336 89.61376953 C-78.46099487 88.56966415 -78.52379639 87.52555878 -78.58850098 86.44981384 C-78.78877073 83.11793323 -78.98460585 79.78581569 -79.17944336 76.45361328 C-79.43620834 72.06927197 -79.69724649 67.68521379 -79.96069336 63.30126953 C-80.01801636 62.29798111 -80.07533936 61.29469269 -80.13439941 60.26100159 C-80.41635747 55.56954669 -80.81232013 51.01829681 -81.67944336 46.39111328 C-82.16743638 41.06536233 -82.44806805 35.73316092 -82.67944336 30.39111328 C-82.71489258 29.59866211 -82.7503418 28.80621094 -82.78686523 27.98974609 C-82.88152117 25.58181505 -82.94201996 23.17535201 -82.99194336 20.76611328 C-83.02167236 20.02071289 -83.05140137 19.2753125 -83.08203125 18.50732422 C-83.13832177 13.27645339 -82.1421638 10.3074903 -78.67944336 6.39111328 C-72.12971538 2.55208111 -65.49558201 2.33287713 -58.08178711 1.72705078 C-56.98245503 1.63283907 -56.98245503 1.63283907 -55.86091423 1.53672409 C-37.26302915 -0.02522013 -18.65135692 -0.06705262 0 0 Z " fill="#4C2796" transform="translate(198.679443359375,101.60888671875)"/>
<path d="M0 0 C0.73154297 0.3815625 1.46308594 0.763125 2.21679688 1.15625 C4.00539665 2.09146557 5.78492596 3.04399379 7.5625 4 C7.58828125 5.30195313 7.6140625 6.60390625 7.640625 7.9453125 C7.69692701 9.67190756 7.75427387 11.39846876 7.8125 13.125 C7.82667969 13.9809375 7.84085938 14.836875 7.85546875 15.71875 C8.06877069 21.26460047 8.7604626 24.69144117 12.5625 29 C14.69439101 30.85111913 16.93998258 32.41068118 19.3125 33.9375 C19.97008301 34.36498535 20.62766602 34.7924707 21.30517578 35.23291016 C33.56492658 42.97545228 46.37355526 47.33135282 60.5625 50 C61.43245605 50.17732666 62.30241211 50.35465332 63.19873047 50.53735352 C71.53260662 52.11230892 79.72407499 52.35800363 88.1875 52.3125 C88.89148926 52.31067719 89.59547852 52.30885437 90.32080078 52.30697632 C107.34114073 52.23287199 122.53625733 49.69935382 138.5625 44 C140.16738281 43.42958984 140.16738281 43.42958984 141.8046875 42.84765625 C149.42976224 39.90655599 156.06751427 35.95078883 162.5625 31 C163.31273437 30.45214844 164.06296875 29.90429688 164.8359375 29.33984375 C167.59890115 26.86445387 169.4210769 24.85127401 169.71386719 21.01855469 C169.71081288 18.67793704 169.67317665 16.34010991 169.625 14 C169.48976039 6.25281487 169.48976039 6.25281487 171.92089844 3.41357422 C175.76209062 0.47025257 180.06077981 -1.30298791 184.5625 -3 C185.2225 -3.33 185.8825 -3.66 186.5625 -4 C192.4006561 -4.58381561 196.97865119 -3.6809695 201.5625 0 C204.79984644 4.34299754 205.88469016 8.6310634 205.5 14 C202.88511616 30.77668049 193.7953669 44.4674237 180.55078125 54.8359375 C153.87067681 74.15721575 121.55542812 80.46118515 89.125 80.375 C88.34591278 80.37445618 87.56682556 80.37391235 86.76412964 80.37335205 C55.42637818 80.27353376 21.46142745 74.32565506 -3.4375 54 C-4.11296875 53.46375 -4.7884375 52.9275 -5.484375 52.375 C-9.29109725 49.25153559 -12.48063137 45.94249151 -15.4375 42 C-15.4375 41.34 -15.4375 40.68 -15.4375 40 C-16.0975 40 -16.7575 40 -17.4375 40 C-25.22375879 30.00148941 -27.61481517 18.44590325 -26.4375 6 C-25.18818394 1.54931155 -23.59901922 -0.16908509 -19.6875 -2.375 C-12.4602507 -5.98862465 -6.55905373 -3.55257073 0 0 Z " fill="#4C2797" transform="translate(111.4375,218)"/>
<path d="M0 0 C6.01787358 4.47482907 10.44220753 10.09259551 15 16 C15.66056396 16.85609863 15.66056396 16.85609863 16.33447266 17.72949219 C35.70849756 43.05150126 35.70849756 43.05150126 40 56 C39.6171875 58.26953125 39.6171875 58.26953125 39 60 C37.68 59.67 36.36 59.34 35 59 C34.814375 57.8553125 34.814375 57.8553125 34.625 56.6875 C34.11897208 53.79732864 34.11897208 53.79732864 32 51 C31.690625 49.88625 31.38125 48.7725 31.0625 47.625 C29.85813142 43.5159778 28.47847826 40.36896135 25.3125 37.4375 C24 36 24 36 24 32 C23.01 32 22.02 32 21 32 C20.731875 31.236875 20.46375 30.47375 20.1875 29.6875 C19.2011342 26.99574277 19.2011342 26.99574277 17.375 25.4375 C16 24 16 24 16 20 C15.360625 19.7525 14.72125 19.505 14.0625 19.25 C12 18 12 18 11.25 15.875 C11.1675 15.25625 11.085 14.6375 11 14 C10.34 14 9.68 14 9 14 C8.67 13.34 8.34 12.68 8 12 C7.34 11.690625 6.68 11.38125 6 11.0625 C4 10 4 10 3 7 C2.01 6.34 1.02 5.68 0 5 C-0.1875 2.375 -0.1875 2.375 0 0 Z " fill="#AC8BE2" transform="translate(343,60)"/>
<path d="M0 0 C22.32145136 0.8819102 43.22880384 5.49581204 64.1875 13.25 C64.85281738 13.49596924 65.51813477 13.74193848 66.20361328 13.99536133 C68.97641474 15.06230471 70.87490543 15.87490543 73 18 C68.89517207 19.13314263 66.24049263 18.78328091 62.1875 17.5625 C61.21167969 17.27503906 60.23585938 16.98757812 59.23046875 16.69140625 C58.49441406 16.46324219 57.75835937 16.23507813 57 16 C56.505 14.02 56.505 14.02 56 12 C52.7 12.66 49.4 13.32 46 14 C46 13.01 46 12.02 46 11 C45.071875 10.71125 44.14375 10.4225 43.1875 10.125 C40 9 40 9 37 7 C35.04304418 6.56341985 35.04304418 6.56341985 32.91015625 6.40234375 C32.12576172 6.32306641 31.34136719 6.24378906 30.53320312 6.16210938 C29.31020508 6.05092773 29.31020508 6.05092773 28.0625 5.9375 C26.44897851 5.78242764 24.83568545 5.62495575 23.22265625 5.46484375 C22.50859619 5.399021 21.79453613 5.33319824 21.05883789 5.26538086 C19 5 19 5 16.95483398 4.43188477 C14.7498584 3.81351244 14.7498584 3.81351244 11.5 4.625 C8 5 8 5 5.8125 3.6875 C5.214375 3.130625 4.61625 2.57375 4 2 C2.6790982 1.30902919 1.3469856 0.63863292 0 0 Z " fill="#AC85E5" transform="translate(210,0)"/>
<path d="M0 0 C0.66 0.33 1.32 0.66 2 1 C4.06479192 24.90570196 -6.05473983 50.66771118 -16 72 C-16.33 72 -16.66 72 -17 72 C-17.13608243 66.01237329 -15.92309577 61.64108093 -14 56 C-13.34 56 -12.68 56 -12 56 C-12 54.35 -12 52.7 -12 51 C-10.515 50.505 -10.515 50.505 -9 50 C-9 48.68 -9 47.36 -9 46 C-8.34 46 -7.68 46 -7 46 C-6.95101563 45.16597656 -6.90203125 44.33195312 -6.8515625 43.47265625 C-6.40682732 36.77862499 -5.6531796 30.50250641 -4 24 C-3.34 24 -2.68 24 -2 24 C-2.01160156 23.21753906 -2.02320313 22.43507812 -2.03515625 21.62890625 C-2.04417969 20.61699219 -2.05320312 19.60507813 -2.0625 18.5625 C-2.07410156 17.55316406 -2.08570313 16.54382813 -2.09765625 15.50390625 C-2 13 -2 13 -1 12 C-0.76572222 9.98405418 -0.58663876 7.961526 -0.4375 5.9375 C-0.35371094 4.83277344 -0.26992188 3.72804687 -0.18359375 2.58984375 C-0.09271484 1.30787109 -0.09271484 1.30787109 0 0 Z " fill="#AE8DE0" transform="translate(397,216)"/>
<path d="M0 0 C0.33 0 0.66 0 1 0 C1 2.64 1 5.28 1 8 C0.34 8 -0.32 8 -1 8 C-1 9.98 -1 11.96 -1 14 C-1.66 14 -2.32 14 -3 14 C-3.12375 14.804375 -3.2475 15.60875 -3.375 16.4375 C-3.58125 17.283125 -3.7875 18.12875 -4 19 C-4.66 19.33 -5.32 19.66 -6 20 C-6.42534589 22.64068905 -6.75038403 25.21705213 -7 27.875 C-7.73309426 35.59964139 -7.73309426 35.59964139 -10 39 C-9.979375 39.845625 -9.95875 40.69125 -9.9375 41.5625 C-9.958125 42.366875 -9.97875 43.17125 -10 44 C-10.99 44.66 -11.98 45.32 -13 46 C-13.59833533 48.11581351 -13.59833533 48.11581351 -13.73046875 50.5703125 C-13.81103516 51.46621094 -13.89160156 52.36210937 -13.97460938 53.28515625 C-14.04486328 54.22230469 -14.11511719 55.15945312 -14.1875 56.125 C-14.26935547 57.06988281 -14.35121094 58.01476562 -14.43554688 58.98828125 C-14.63615421 61.32476674 -14.8237477 63.66157176 -15 66 C-15.66 65.67 -16.32 65.34 -17 65 C-16.18430119 42.64985264 -10.13206484 19.93728888 0 0 Z " fill="#BEA1E7" transform="translate(18,114)"/>
<path d="M0 0 C0.99 0.33 1.98 0.66 3 1 C4.1875 4.0625 4.1875 4.0625 5 7 C5.66 7 6.32 7 7 7 C7.2475 7.721875 7.495 8.44375 7.75 9.1875 C8.86986283 12.0520007 8.86986283 12.0520007 10.875 14.25 C13.26849631 17.34746581 14.60367043 20.40571862 16.0703125 24.01171875 C16.94100025 26.16835736 16.94100025 26.16835736 19 28 C20.52889729 30.29334594 21.89775099 32.5116544 23.1875 34.9375 C23.55230469 35.60652344 23.91710937 36.27554688 24.29296875 36.96484375 C25.13595069 39.39132766 24.83853936 40.61256629 24 43 C0 11.96089385 0 11.96089385 0 0 Z " fill="#AA87E6" transform="translate(15,277)"/>
<path d="M0 0 C0 4.03223106 -1.64129026 5.80880447 -4 9 C-4.99 9.495 -4.99 9.495 -6 10 C-7.12706706 12.11015954 -7.12706706 12.11015954 -8.125 14.5625 C-8.47820313 15.38878906 -8.83140625 16.21507813 -9.1953125 17.06640625 C-9.46085937 17.70449219 -9.72640625 18.34257813 -10 19 C-11.32 19 -12.64 19 -14 19 C-14.33 19.99 -14.66 20.98 -15 22 C-15.66 22.33 -16.32 22.66 -17 23 C-17.268125 23.721875 -17.53625 24.44375 -17.8125 25.1875 C-19.3787453 28.89702834 -21.17670965 31.10948845 -24 34 C-25.32 34 -26.64 34 -28 34 C-26.53386781 29.43210839 -23.92916925 26.23365829 -20.8125 22.6875 C-20.06939575 21.82765503 -20.06939575 21.82765503 -19.3112793 20.95043945 C-18.32495429 19.81083964 -17.33584673 18.67364121 -16.34375 17.5390625 C-15.22037937 16.25241126 -14.10872783 14.95554042 -13 13.65625 C-8.89559659 8.86777935 -4.5109434 4.40549278 0 0 Z " fill="#AC89E4" transform="translate(63,53)"/>
<path d="M0 0 C8.65011283 5.01353478 15.97770623 11.0071803 23.43310547 17.61669922 C26.10785864 19.97805033 28.83418319 22.2800739 31.546875 24.59765625 C33 26 33 26 35 29 C34.01 29 33.02 29 32 29 C31.773125 28.38125 31.54625 27.7625 31.3125 27.125 C29.59553725 24.34515555 28.003177 24.18730254 25 23 C22.1875 20.5 22.1875 20.5 20 18 C20 17.34 20 16.68 20 16 C19.236875 15.896875 18.47375 15.79375 17.6875 15.6875 C14.75657342 14.93772808 13.98482838 14.16526733 12 12 C11.01 11.67 10.02 11.34 9 11 C9 10.34 9 9.68 9 9 C6.03 8.67 3.06 8.34 0 8 C0 7.01 0 6.02 0 5 C-0.66 4.34 -1.32 3.68 -2 3 C-1.34 3 -0.68 3 0 3 C0 2.01 0 1.02 0 0 Z " fill="#A887DB" transform="translate(308,31)"/>
<path d="M0 0 C0.33 0 0.66 0 1 0 C1 1.98 1 3.96 1 6 C0.01 6.33 -0.98 6.66 -2 7 C-2.95356065 8.96303873 -2.95356065 8.96303873 -3.5625 11.3125 C-4.46289039 14.39010557 -5.37457302 17.22143991 -7 20 C-7.66 20.33 -8.32 20.66 -9 21 C-9.39213038 23.55491823 -9.39213038 23.55491823 -9.5 26.5 C-9.65625 29.53125 -9.65625 29.53125 -10 32 C-10.99 32.495 -10.99 32.495 -12 33 C-12.33 31.02 -12.66 29.04 -13 27 C-13.66 27 -14.32 27 -15 27 C-13.61339444 22.32820588 -11.63848675 18.24996019 -9.1875 14.0625 C-8.83292725 13.45003418 -8.47835449 12.83756836 -8.11303711 12.20654297 C-5.62168595 7.9487621 -3.04726761 3.8783406 0 0 Z " fill="#AE8DE6" transform="translate(34,87)"/>
<path d="M0 0 C-26.18441558 17 -26.18441558 17 -36 17 C-35.34 15.68 -34.68 14.36 -34 13 C-32.68 13 -31.36 13 -30 13 C-30 12.34 -30 11.68 -30 11 C-27.03 11.495 -27.03 11.495 -24 12 C-24 11.34 -24 10.68 -24 10 C-22.35 9.67 -20.7 9.34 -19 9 C-19.33 8.01 -19.66 7.02 -20 6 C-19.35933594 5.74605469 -18.71867187 5.49210937 -18.05859375 5.23046875 C-17.19363281 4.88628906 -16.32867187 4.54210937 -15.4375 4.1875 C-14.52742188 3.8265625 -13.61734375 3.465625 -12.6796875 3.09375 C-10.44111241 2.18004588 -8.25519779 1.20385777 -6.0625 0.1875 C-3 -1 -3 -1 0 0 Z " fill="#B797E5" transform="translate(307,370)"/>
<path d="M0 0 C0.99 0 1.98 0 3 0 C3 0.66 3 1.32 3 2 C5.31 2.33 7.62 2.66 10 3 C10 3.66 10 4.32 10 5 C10.825 5.0825 11.65 5.165 12.5 5.25 C18.68421518 6.57518897 23.83752414 9.14377817 28 14 C24.56299653 15.14582526 24.0484838 15.02002937 20.42578125 13.5234375 C19.04816637 12.81991767 17.67730255 12.10306382 16.3125 11.375 C15.60222656 11.00761719 14.89195313 10.64023437 14.16015625 10.26171875 C9.05402447 7.60615752 3.9837022 4.87947238 -1 2 C-0.67 1.34 -0.34 0.68 0 0 Z " fill="#AB86E5" transform="translate(97,370)"/>
<path d="M0 0 C0.33 0 0.66 0 1 0 C1.01981934 0.8156543 1.03963867 1.63130859 1.06005859 2.47167969 C1.13912506 5.55832985 1.22583674 8.64465368 1.31738281 11.73095703 C1.37355573 13.69938943 1.42126471 15.66805762 1.46875 17.63671875 C1.71075947 25.58269621 2.44852025 33.20066937 4 41 C4.33 41 4.66 41 5 41 C5.83854735 47.90188971 6.01593448 54.11422188 5 61 C4.67 61 4.34 61 4 61 C3.50995479 58.62682508 3.03309473 56.25205061 2.5625 53.875 C2.42779297 53.22917969 2.29308594 52.58335937 2.15429688 51.91796875 C-0.24546981 39.62648084 -0.14029008 27.09489691 -0.0625 14.625 C-0.05746589 13.1953141 -0.05290643 11.76562645 -0.04882812 10.3359375 C-0.03799465 6.89058755 -0.02083984 3.44530573 0 0 Z " fill="#BB97ED" transform="translate(0,185)"/>
<path d="M0 0 C0.66 1.32 1.32 2.64 2 4 C-1.83351278 8.81927321 -6.04293803 13.02342348 -10.5625 17.1875 C-11.39334106 17.95368652 -11.39334106 17.95368652 -12.2409668 18.73535156 C-21.29510239 27 -21.29510239 27 -24 27 C-23.01 23.535 -23.01 23.535 -22 20 C-20.68 20.33 -19.36 20.66 -18 21 C-17.67 20.01 -17.34 19.02 -17 18 C-16.01 18 -15.02 18 -14 18 C-14 17.01 -14 16.02 -14 15 C-12.68 15 -11.36 15 -10 15 C-10 14.01 -10 13.02 -10 12 C-7.74316603 9.49240669 -5.52296436 7.36316969 -2.75 5.4375 C-0.66965523 3.72864537 -0.36162566 2.62178605 0 0 Z " fill="#AF90E2" transform="translate(344,333)"/>
<path d="M0 0 C0.66 0.33 1.32 0.66 2 1 C-10.54526092 13.94994675 -10.54526092 13.94994675 -18 16 C-18.33 16.99 -18.66 17.98 -19 19 C-21.375 20.75 -21.375 20.75 -24 22 C-24.99 21.67 -25.98 21.34 -27 21 C-18.35199653 13.44377105 -9.44710661 6.52940951 0 0 Z " fill="#AF8CE5" transform="translate(91,31)"/>
<path d="M0 0 C1 2 1 2 -0.0390625 5.52734375 C-0.5585064 7.00067249 -1.08775998 8.47056691 -1.625 9.9375 C-1.89844238 10.69861084 -2.17188477 11.45972168 -2.45361328 12.24389648 C-4.66598809 18.30646961 -7.16828105 24.19873507 -10 30 C-10.33 30 -10.66 30 -11 30 C-11.13608243 24.01237329 -9.92309577 19.64108093 -8 14 C-7.34 14 -6.68 14 -6 14 C-6 12.35 -6 10.7 -6 9 C-5.01 8.67 -4.02 8.34 -3 8 C-3 6.68 -3 5.36 -3 4 C-2.34 4 -1.68 4 -1 4 C-0.67 2.68 -0.34 1.36 0 0 Z " fill="#AD87E3" transform="translate(391,258)"/>
<path d="M0 0 C2.12472576 -0.05386629 4.24983652 -0.09273071 6.375 -0.125 C7.55835938 -0.14820313 8.74171875 -0.17140625 9.9609375 -0.1953125 C13 0 13 0 15 2 C17.85478326 3.90318884 19.41941308 4.4619099 22.6875 5.125 C23.49574219 5.29257812 24.30398437 5.46015625 25.13671875 5.6328125 C25.75160156 5.75398438 26.36648437 5.87515625 27 6 C27 6.99 27 7.98 27 9 C17.57098907 7.5033316 8.92107313 4.29106874 0 1 C0 0.67 0 0.34 0 0 Z " fill="#A984E4" transform="translate(124,385)"/>
<path d="M0 0 C0.33 0.99 0.66 1.98 1 3 C1.99 3 2.98 3 4 3 C4.20496094 3.62648437 4.40992188 4.25296875 4.62109375 4.8984375 C4.89050781 5.71570313 5.15992188 6.53296875 5.4375 7.375 C5.83775391 8.59316406 5.83775391 8.59316406 6.24609375 9.8359375 C6.95179729 12.01031799 6.95179729 12.01031799 8 14 C8.35169068 15.32860925 8.68770276 16.66158328 9 18 C9.66 17.67 10.32 17.34 11 17 C11 18.32 11 19.64 11 21 C9.68 21 8.36 21 7 21 C6.67 21.66 6.34 22.32 6 23 C4.9905304 19.91968584 3.99410379 16.8353041 3 13.75 C2.71382813 12.87730469 2.42765625 12.00460937 2.1328125 11.10546875 C1.72675781 9.83896484 1.72675781 9.83896484 1.3125 8.546875 C1.06113281 7.77182617 0.80976562 6.99677734 0.55078125 6.19824219 C0 4 0 4 0 0 Z " fill="#B695EA" transform="translate(5,246)"/>
<path d="M0 0 C0.33 0 0.66 0 1 0 C1 2.64 1 5.28 1 8 C0.34 8 -0.32 8 -1 8 C-1 9.98 -1 11.96 -1 14 C-1.66 14 -2.32 14 -3 14 C-3.185625 15.2065625 -3.185625 15.2065625 -3.375 16.4375 C-3.58125 17.283125 -3.7875 18.12875 -4 19 C-4.66 19.33 -5.32 19.66 -6 20 C-6.65772428 23.02934491 -6.65772428 23.02934491 -7 26 C-7.66 26 -8.32 26 -9 26 C-9.33 26.99 -9.66 27.98 -10 29 C-9.45060312 22.72485756 -7.40836439 17.47683747 -5 11.6875 C-4.44699219 10.32915039 -4.44699219 10.32915039 -3.8828125 8.94335938 C-1.24853316 2.49706633 -1.24853316 2.49706633 0 0 Z " fill="#C7ADE7" transform="translate(18,114)"/>
<path d="M0 0 C0.66 0.33 1.32 0.66 2 1 C0.68 1.33 -0.64 1.66 -2 2 C-2 3.32 -2 4.64 -2 6 C-3.45505358 6.52992692 -4.91418127 7.0486789 -6.375 7.5625 C-7.59316406 7.99755859 -7.59316406 7.99755859 -8.8359375 8.44140625 C-11 9 -11 9 -13 8 C-13.66 9.32 -14.32 10.64 -15 12 C-16.32 11.34 -17.64 10.68 -19 10 C-15.84360534 7.45967273 -12.56709616 5.66506105 -8.9375 3.875 C-7.89464844 3.35679688 -6.85179688 2.83859375 -5.77734375 2.3046875 C-3 1 -3 1 0 0 Z " fill="#9E73E6" transform="translate(122,15)"/>
<path d="M0 0 C-0.33 0.99 -0.66 1.98 -1 3 C-4.63 3 -8.26 3 -12 3 C-12 3.66 -12 4.32 -12 5 C-14.62275173 5.55561711 -17.24707977 6.09492378 -19.875 6.625 C-20.62136719 6.78484375 -21.36773437 6.9446875 -22.13671875 7.109375 C-24.0758447 7.49370627 -26.03835574 7.75531287 -28 8 C-28.66 7.34 -29.32 6.68 -30 6 C-26.9595402 5.18293833 -23.91743317 4.3721798 -20.875 3.5625 C-20.0190625 3.33240234 -19.163125 3.10230469 -18.28125 2.86523438 C-12.18169104 1.24650527 -6.35551784 -0.186927 0 0 Z " fill="#B293E3" transform="translate(171,2)"/>
<path d="M0 0 C0.72703125 0.0721875 1.4540625 0.144375 2.203125 0.21875 C9.49220248 0.89158792 16.68214066 1.11677435 24 1 C24 1.33 24 1.66 24 2 C20.16880992 2.53746587 16.3348593 3.05192862 12.5 3.5625 C11.42234375 3.71396484 10.3446875 3.86542969 9.234375 4.02148438 C3.20725784 4.81162473 -2.01133751 5.09743694 -8 4 C-8 3.67 -8 3.34 -8 3 C-5.36 2.67 -2.72 2.34 0 2 C0 1.34 0 0.68 0 0 Z " fill="#A882E2" transform="translate(216,395)"/>
<path d="M0 0 C3.14621682 0.13822199 6.29185566 0.28685084 9.4375 0.4375 C10.33533203 0.47681641 11.23316406 0.51613281 12.15820312 0.55664062 C13.01220703 0.59853516 13.86621094 0.64042969 14.74609375 0.68359375 C15.53685303 0.72025146 16.3276123 0.75690918 17.14233398 0.79467773 C19 1 19 1 20 2 C22.52195967 2.39943176 25.02963656 2.75079848 27.5625 3.0625 C28.27341797 3.15337891 28.98433594 3.24425781 29.71679688 3.33789062 C31.47738403 3.56239503 33.23863478 3.78168397 35 4 C35 4.33 35 4.66 35 5 C27.73192503 5.45008721 20.73848912 4.68482445 13.5625 3.625 C12.24813965 3.43587036 12.24813965 3.43587036 10.90722656 3.24291992 C10.07288086 3.11377197 9.23853516 2.98462402 8.37890625 2.8515625 C7.6319751 2.73635254 6.88504395 2.62114258 6.11547852 2.50244141 C3.8532397 1.96514337 2.03298006 1.11496205 0 0 Z " fill="#AD8EDF" transform="translate(151,394)"/>
<path d="M0 0 C0.33 0 0.66 0 1 0 C2.88978853 10.85351522 1.17940836 21.54953961 -2 32 C-2.33 32 -2.66 32 -3 32 C-3 27.71 -3 23.42 -3 19 C-2.67 19 -2.34 19 -2 19 C-1.34 12.73 -0.68 6.46 0 0 Z " fill="#9D73E4" transform="translate(4,160)"/>
<path d="M0 0 C1.96923781 5.90771343 -0.57917418 10.63208187 -3 16 C-3.33 16 -3.66 16 -4 16 C-4 14.02 -4 12.04 -4 10 C-3.34 10 -2.68 10 -2 10 C-2 7.36 -2 4.72 -2 2 C-1.34 2 -0.68 2 0 2 C0 1.34 0 0.68 0 0 Z M-6 16 C-5.34 16.33 -4.68 16.66 -4 17 C-4.33 19.31 -4.66 21.62 -5 24 C-5.639375 24.12375 -6.27875 24.2475 -6.9375 24.375 C-7.618125 24.58125 -8.29875 24.7875 -9 25 C-9.33 25.66 -9.66 26.32 -10 27 C-10 25.35 -10 23.7 -10 22 C-9.01 21.67 -8.02 21.34 -7 21 C-6.67 19.35 -6.34 17.7 -6 16 Z " fill="#9E72E7" transform="translate(21,112)"/>
<path d="M0 0 C0.33 0 0.66 0 1 0 C1.97299156 4.85729645 2.12038805 9.4500625 2.0625 14.375 C2.05798828 15.11105469 2.05347656 15.84710938 2.04882812 16.60546875 C2.03715142 18.40368158 2.01922011 20.20185197 2 22 C1.01 21.67 0.02 21.34 -1 21 C-1.33 17.7 -1.66 14.4 -2 11 C-1.67 11 -1.34 11 -1 11 C-0.67 7.37 -0.34 3.74 0 0 Z " fill="#AD89E4" transform="translate(397,164)"/>
<path d="M0 0 C0.33 0.66 0.66 1.32 1 2 C1.99 2 2.98 2 4 2 C4.70226141 3.24176695 5.38629109 4.49385599 6.0625 5.75 C6.44535156 6.44609375 6.82820313 7.1421875 7.22265625 7.859375 C8.1312406 10.36140628 7.88336837 11.5332355 7 14 C5.68 13.67 4.36 13.34 3 13 C2.87625 12.236875 2.7525 11.47375 2.625 10.6875 C2.11897208 7.79732864 2.11897208 7.79732864 0 5 C-0.125 2.3125 -0.125 2.3125 0 0 Z " fill="#AF8EE2" transform="translate(375,106)"/>
<path d="M0 0 C7.625 1.75 7.625 1.75 11 4 C11.1875 6.625 11.1875 6.625 11 9 C11.66 9.33 12.32 9.66 13 10 C9.28115772 10 8.63852271 9.1259934 5.9375 6.6875 C5.24527344 6.07261719 4.55304688 5.45773437 3.83984375 4.82421875 C2 3 2 3 0 0 Z " fill="#B293E5" transform="translate(60,343)"/>
<path d="M0 0 C0.99 0 1.98 0 3 0 C1.2703384 4.20953787 -1.68206745 7.35143576 -4.625 10.75 C-5.140625 11.35199219 -5.65625 11.95398438 -6.1875 12.57421875 C-7.45469135 14.05260866 -8.72685775 15.52673171 -10 17 C-10.625 15.1875 -10.625 15.1875 -11 13 C-10.34 12.01 -9.68 11.02 -9 10 C-8.01 10 -7.02 10 -6 10 C-6 9.01 -6 8.02 -6 7 C-4.11361341 4.86209519 -2.55711823 3.27855912 0 2 C0 1.34 0 0.68 0 0 Z " fill="#B194DF" transform="translate(357,320)"/>
<path d="M0 0 C4.53847198 1.34927545 8.31932246 3.19159348 12.375 5.625 C13.43460937 6.25664062 14.49421875 6.88828125 15.5859375 7.5390625 C16.38257813 8.02117188 17.17921875 8.50328125 18 9 C14.58389775 9.94314127 11.54865136 10.08065117 8 10 C8.33 8.68 8.66 7.36 9 6 C8.2575 5.71125 7.515 5.4225 6.75 5.125 C4.43260203 4.17697356 2.22082885 3.15154089 0 2 C0 1.34 0 0.68 0 0 Z " fill="#AD8CE1" transform="translate(289,21)"/>
<path d="M0 0 C0.33 0 0.66 0 1 0 C1.50604984 6.98629919 1.0333905 11.20200116 -3 17 C-3.33 17 -3.66 17 -4 17 C-4.21192221 11.80790596 -3.5912689 7.873261 -2 3 C-1.34 3 -0.68 3 0 3 C0 2.01 0 1.02 0 0 Z " fill="#B293E4" transform="translate(9,140)"/>
<path d="M0 0 C-1.65658625 2.36655178 -2.5471347 3.57041593 -5 5 C-9.03253609 5.44572896 -12.95907202 5.29001875 -17 5 C-14.65117776 2.65117776 -12.72876333 1.96496976 -9.625 0.8125 C-8.66851562 0.44769531 -7.71203125 0.08289063 -6.7265625 -0.29296875 C-3.94714704 -1.01370542 -2.64891897 -0.98549829 0 0 Z " fill="#B08FE3" transform="translate(141,10)"/>
<path d="M0 0 C0.99 0 1.98 0 3 0 C3.86846831 1.74294678 4.71930627 3.49468663 5.5625 5.25 C6.27599609 6.71179688 6.27599609 6.71179688 7.00390625 8.203125 C8.03510273 11.09856297 8.11346788 12.19966161 7 15 C2.81211141 10.06930548 0.27305329 6.55327899 0 0 Z " fill="#A27AE6" transform="translate(32,305)"/>
<path d="M0 0 C0.66 0 1.32 0 2 0 C2.03758423 0.83978394 2.03758423 0.83978394 2.07592773 1.6965332 C2.19203745 4.23541305 2.3146958 6.77393553 2.4375 9.3125 C2.47681641 10.19357422 2.51613281 11.07464844 2.55664062 11.98242188 C2.59853516 12.82998047 2.64042969 13.67753906 2.68359375 14.55078125 C2.73858032 15.72120972 2.73858032 15.72120972 2.79467773 16.9152832 C2.94125263 19.19329101 2.94125263 19.19329101 4 22 C2.0625 21.625 2.0625 21.625 0 21 C-1.49297212 18.01405576 -1.11755228 15.29146376 -1 12 C-0.67 11.34 -0.34 10.68 0 10 C0.06996014 8.29297265 0.08440154 6.58331997 0.0625 4.875 C0.05347656 3.96492187 0.04445313 3.05484375 0.03515625 2.1171875 C0.02355469 1.41851562 0.01195313 0.71984375 0 0 Z " fill="#592FA8" transform="translate(117,222)"/>
<path d="M0 0 C-3.32975879 2.21983919 -6.67511315 3.38409772 -10.4375 4.625 C-11.10587891 4.85445313 -11.77425781 5.08390625 -12.46289062 5.3203125 C-15.85653506 6.45040619 -18.38113645 7 -22 7 C-22 6.34 -22 5.68 -22 5 C-17.46298506 3.54815522 -13.81938524 2.76490804 -9 3 C-9 2.34 -9 1.68 -9 1 C-5.92677456 0.08941469 -3.19902639 -0.08886184 0 0 Z " fill="#B698E3" transform="translate(271,387)"/>
<path d="M0 0 C0.66 0 1.32 0 2 0 C2 0.66 2 1.32 2 2 C3.65 2 5.3 2 7 2 C8.60355101 5.50776784 9.22036864 8.14354879 9 12 C4.99027798 8.32442148 2.54664585 4.81033104 0 0 Z " fill="#B395E7" transform="translate(40,320)"/>
<path d="M0 0 C0.66 0.33 1.32 0.66 2 1 C0.71937515 2.7074998 -0.61767557 4.37373596 -2 6 C-2.66 6 -3.32 6 -4 6 C-4.33 6.99 -4.66 7.98 -5 9 C-7.375 10.75 -7.375 10.75 -10 12 C-10.99 11.67 -11.98 11.34 -13 11 C-8.71 7.37 -4.42 3.74 0 0 Z " fill="#B89DE1" transform="translate(77,41)"/>
<path d="M0 0 C0.66 0.33 1.32 0.66 2 1 C0.02288228 3.04772907 -1.83474765 4.8866841 -4.1875 6.5 C-6.305434 8.25277297 -6.63089578 9.32399437 -7 12 C-7.99 12 -8.98 12 -10 12 C-9.46881788 8.17548872 -8.70420655 5.79745505 -6 3 C-2.9375 1.1875 -2.9375 1.1875 0 0 Z " fill="#9E75E5" transform="translate(70,50)"/>
<path d="M0 0 C4.51135667 2.19471406 6.06273348 4.41173718 8 9 C5.36 8.67 2.72 8.34 0 8 C0 7.01 0 6.02 0 5 C-0.66 4.34 -1.32 3.68 -2 3 C-1.34 3 -0.68 3 0 3 C0 2.01 0 1.02 0 0 Z " fill="#A67DEC" transform="translate(308,31)"/>
<path d="M0 0 C2.5872505 2.5872505 3.06556087 4.88277471 4.125 8.375 C4.47820312 9.51710937 4.83140625 10.65921875 5.1953125 11.8359375 C6 15 6 15 6 19 C5.34 19 4.68 19 4 19 C3.32263519 16.96185767 2.65856466 14.91929445 2 12.875 C1.62875 11.73804688 1.2575 10.60109375 0.875 9.4296875 C0.03088051 6.12104059 -0.16509276 3.39471984 0 0 Z " fill="#BEA3E7" transform="translate(387,128)"/>
<path d="M0 0 C0.33 0 0.66 0 1 0 C1 1.98 1 3.96 1 6 C0.01 6.33 -0.98 6.66 -2 7 C-3.20882096 9.00016466 -3.20882096 9.00016466 -4 11 C-4.66 11 -5.32 11 -6 11 C-6 11.99 -6 12.98 -6 14 C-6.66 14 -7.32 14 -8 14 C-6.67726488 10.40241608 -5.0805802 7.36262865 -2.9375 4.1875 C-2.14666016 3.00220703 -2.14666016 3.00220703 -1.33984375 1.79296875 C-0.89769531 1.20128906 -0.45554687 0.60960938 0 0 Z " fill="#C2A5E7" transform="translate(34,87)"/>
<path d="M0 0 C1.32 0 2.64 0 4 0 C4 0.66 4 1.32 4 2 C5.11375 1.95875 6.2275 1.9175 7.375 1.875 C11 2 11 2 13 4 C13.625 6.625 13.625 6.625 14 9 C10.40241608 7.67726488 7.36262865 6.0805802 4.1875 3.9375 C3.39730469 3.41027344 2.60710937 2.88304687 1.79296875 2.33984375 C1.20128906 1.89769531 0.60960938 1.45554687 0 1 C0 0.67 0 0.34 0 0 Z " fill="#B99AE8" transform="translate(82,362)"/>
<path d="M0 0 C1.98 0 3.96 0 6 0 C6.061875 0.763125 6.12375 1.52625 6.1875 2.3125 C6.76935262 5.23051809 6.76935262 5.23051809 9.5625 6.8125 C10.366875 7.204375 11.17125 7.59625 12 8 C11.67 8.99 11.34 9.98 11 11 C6.86378916 7.6189962 3.18683431 4.33409466 0 0 Z " fill="#B798E8" transform="translate(49,332)"/>
<path d="M0 0 C0.33 0 0.66 0 1 0 C1.26618595 6.95041086 0.6120509 13.23514355 -1 20 C-1.33 20 -1.66 20 -2 20 C-2.21133202 12.95559921 -2.07965362 6.75887425 0 0 Z " fill="#5B31AE" transform="translate(282,154)"/>
<path d="M0 0 C0.99 0 1.98 0 3 0 C3 0.66 3 1.32 3 2 C4.093125 2.103125 5.18625 2.20625 6.3125 2.3125 C10 3 10 3 13 6 C8.38 5.34 3.76 4.68 -1 4 C-0.67 2.68 -0.34 1.36 0 0 Z " fill="#532AA1" transform="translate(158,290)"/>
<path d="M0 0 C3.59336471 0.99815686 4.95725379 1.94825458 7.375 4.875 C9 8 9 8 8.75 10.375 C8.37875 11.179375 8.37875 11.179375 8 12 C6.5 10.75 6.5 10.75 5 9 C5 7.68 5 6.36 5 5 C4.360625 4.731875 3.72125 4.46375 3.0625 4.1875 C1 3 1 3 0 0 Z " fill="#A582E0" transform="translate(354,75)"/>
<path d="M0 0 C1.65 0.33 3.3 0.66 5 1 C2.64264116 3.72957339 0.41866474 4.88893396 -3 6 C-3.99 6 -4.98 6 -6 6 C-5.34 4.68 -4.68 3.36 -4 2 C-2.68 2 -1.36 2 0 2 C0 1.34 0 0.68 0 0 Z " fill="#AE8BE2" transform="translate(277,381)"/>
<path d="M0 0 C6.75 -0.125 6.75 -0.125 9 1 C9 1.66 9 2.32 9 3 C11.97 3.495 11.97 3.495 15 4 C14.67 4.66 14.34 5.32 14 6 C8.93001981 5.34580901 4.58009223 3.1453591 0 1 C0 0.67 0 0.34 0 0 Z " fill="#BA9CE3" transform="translate(110,379)"/>
<path d="M0 0 C0.99 0.33 1.98 0.66 3 1 C3 2.32 3 3.64 3 5 C4.32 5.33 5.64 5.66 7 6 C7 7.32 7 8.64 7 10 C7.66 10.33 8.32 10.66 9 11 C8.34 11.66 7.68 12.32 7 13 C5.82786955 11.21190303 4.66244474 9.41940875 3.5 7.625 C2.8503125 6.62726563 2.200625 5.62953125 1.53125 4.6015625 C0 2 0 2 0 0 Z " fill="#BEA2E7" transform="translate(25,297)"/>
<path d="M0 0 C0.66 1.32 1.32 2.64 2 4 C0.02 6.31 -1.96 8.62 -4 11 C-4.99 10.67 -5.98 10.34 -7 10 C-3.25 5.125 -3.25 5.125 -1 4 C-0.34786708 1.97536745 -0.34786708 1.97536745 0 0 Z " fill="#AC88E8" transform="translate(344,333)"/>
<path d="M0 0 C4.29 0.99 8.58 1.98 13 3 C9.19088912 5.53940725 7.80541872 4.97694232 3.375 4.25 C2.20710937 4.06953125 1.03921875 3.8890625 -0.1640625 3.703125 C-1.09992188 3.47109375 -2.03578125 3.2390625 -3 3 C-3.33 2.34 -3.66 1.68 -4 1 C-2.68 1.33 -1.36 1.66 0 2 C0 1.34 0 0.68 0 0 Z " fill="#9B6BF0" transform="translate(144,290)"/>
<path d="M0 0 C1.32 0.33 2.64 0.66 4 1 C-1.445 4.96 -1.445 4.96 -7 9 C-7.33 7.68 -7.66 6.36 -8 5 C-6.68 5 -5.36 5 -4 5 C-4 4.34 -4 3.68 -4 3 C-2.68 2.67 -1.36 2.34 0 2 C0 1.34 0 0.68 0 0 Z " fill="#B293E1" transform="translate(316,360)"/>
<path d="M0 0 C0.66 0 1.32 0 2 0 C4.28571429 8.42857143 4.28571429 8.42857143 4 13 C3.01 13.495 3.01 13.495 2 14 C-0.29612756 4.58997722 -0.29612756 4.58997722 0 0 Z " fill="#B597E4" transform="translate(393,151)"/>
<path d="M0 0 C0.33 0.66 0.66 1.32 1 2 C1.66 2 2.32 2 3 2 C3 4.97 3 7.94 3 11 C2.01 11.495 2.01 11.495 1 12 C0.67 10.02 0.34 8.04 0 6 C-0.66 6 -1.32 6 -2 6 C-1.34 4.02 -0.68 2.04 0 0 Z " fill="#B389F0" transform="translate(21,108)"/>
<path d="M0 0 C-1.32 0.33 -2.64 0.66 -4 1 C-4 1.66 -4 2.32 -4 3 C-6.90092502 4.93395001 -7.89674737 5.30131941 -11.1875 5.625 C-12.445625 5.74875 -13.70375 5.8725 -15 6 C-12.61827612 3.26455475 -10.29334709 2.07454642 -6.9375 0.75 C-6.05964844 0.39421875 -5.18179688 0.0384375 -4.27734375 -0.328125 C-2 -1 -2 -1 0 0 Z " fill="#BCA0E3" transform="translate(124,16)"/>
<path d="M0 0 C1.37478516 0.01740234 1.37478516 0.01740234 2.77734375 0.03515625 C3.69644531 0.04417969 4.61554688 0.05320313 5.5625 0.0625 C6.27277344 0.07410156 6.98304688 0.08570312 7.71484375 0.09765625 C7.71484375 1.08765625 7.71484375 2.07765625 7.71484375 3.09765625 C6.45671875 3.13890625 5.19859375 3.18015625 3.90234375 3.22265625 C3.19464844 3.24585938 2.48695313 3.2690625 1.7578125 3.29296875 C-0.28515625 3.09765625 -0.28515625 3.09765625 -3.28515625 1.09765625 C-2.28515625 0.09765625 -2.28515625 0.09765625 0 0 Z " fill="#A57DDE" transform="translate(176.28515625,0.90234375)"/>
<path d="M0 0 C2.875 -0.125 2.875 -0.125 6 0 C6.66 0.66 7.32 1.32 8 2 C7.34 2 6.68 2 6 2 C6 2.66 6 3.32 6 4 C7.32 4.33 8.64 4.66 10 5 C9.67 5.99 9.34 6.98 9 8 C7.49712782 6.85793642 5.99776716 5.71125043 4.5 4.5625 C3.6646875 3.92441406 2.829375 3.28632813 1.96875 2.62890625 C1.3190625 2.09136719 0.669375 1.55382812 0 1 C0 0.67 0 0.34 0 0 Z " fill="#B898E5" transform="translate(72,354)"/>
<path d="M0 0 C0.91058531 3.07322544 1.08886184 5.80097361 1 9 C-1.31 10.32 -3.62 11.64 -6 13 C-4.25 8.125 -4.25 8.125 -2 7 C-1.26924352 4.6859378 -0.59861742 2.35171131 0 0 Z " fill="#9E70ED" transform="translate(36,86)"/>
<path d="M0 0 C3 1 3 1 4.125 2.9375 C4.41375 3.618125 4.7025 4.29875 5 5 C5.33 5.66 5.66 6.32 6 7 C6.039992 8.99960012 6.04346799 11.00047242 6 13 C2.57068046 9.2440786 1.43570917 4.76533255 0 0 Z " fill="#CAB2EA" transform="translate(15,277)"/>
<path d="M0 0 C3.28465896 2.79196011 5.01321958 6.23196817 7 10 C7 10.66 7 11.32 7 12 C6.34 12 5.68 12 5 12 C3.7109375 10.390625 3.7109375 10.390625 2.375 8.25 C1.92898438 7.55390625 1.48296875 6.8578125 1.0234375 6.140625 C0 4 0 4 0 0 Z " fill="#C1A3E6" transform="translate(371,96)"/>
<path d="M0 0 C0 0.33 0 0.66 0 1 C-1.36125 0.938125 -1.36125 0.938125 -2.75 0.875 C-5.93712376 0.99758168 -7.27748938 1.54151217 -10 3 C-10.66 2.67 -11.32 2.34 -12 2 C-12 1.01 -12 0.02 -12 -1 C-7.47907032 -2.45606519 -4.48351204 -1.27032841 0 0 Z " fill="#9C6AF2" transform="translate(106,212)"/>
<path d="M0 0 C0.33 0 0.66 0 1 0 C1.07654536 4.51617599 1.10228696 8.59085217 0 13 C-0.66 13 -1.32 13 -2 13 C-2 11.68 -2 10.36 -2 9 C-2.99 8.67 -3.98 8.34 -5 8 C-3.35 7.34 -1.7 6.68 0 6 C0 4.02 0 2.04 0 0 Z " fill="#5B31AB" transform="translate(279,194)"/>
<path d="M0 0 C0.66 0.33 1.32 0.66 2 1 C0.66511872 4.59391114 -0.96022723 7.75490696 -3 11 C-3.66 10.34 -4.32 9.68 -5 9 C-4.34 9 -3.68 9 -3 9 C-3 7.35 -3 5.7 -3 4 C-2.34 4 -1.68 4 -1 4 C-0.67 2.68 -0.34 1.36 0 0 Z " fill="#BD9EE7" transform="translate(375,293)"/>
<path d="M0 0 C2 1 2 1 4 4 C3.67 4.66 3.34 5.32 3 6 C0.69 5.67 -1.62 5.34 -4 5 C-3.34 4.34 -2.68 3.68 -2 3 C-2.33 2.34 -2.66 1.68 -3 1 C-2.01 0.67 -1.02 0.34 0 0 Z " fill="#532C9F" transform="translate(150,209)"/>
<path d="M0 0 C1.12894876 0.93274109 2.25300876 1.87140122 3.375 2.8125 C4.00148438 3.33457031 4.62796875 3.85664062 5.2734375 4.39453125 C7 6 7 6 9 9 C8.01 9 7.02 9 6 9 C5.62875 8.0409375 5.62875 8.0409375 5.25 7.0625 C4.18437567 4.81258459 4.18437567 4.81258459 1.875 4.25 C1.25625 4.1675 0.6375 4.085 0 4 C0 2.68 0 1.36 0 0 Z " fill="#B595E5" transform="translate(334,51)"/>
<path d="M0 0 C1 2 1 2 0.22265625 4.8203125 C-0.16019531 5.91085937 -0.54304688 7.00140625 -0.9375 8.125 C-1.31777344 9.22070312 -1.69804687 10.31640625 -2.08984375 11.4453125 C-2.39019531 12.28835938 -2.69054687 13.13140625 -3 14 C-3.33 14 -3.66 14 -4 14 C-3.67 10.7 -3.34 7.4 -3 4 C-2.34 4 -1.68 4 -1 4 C-0.67 2.68 -0.34 1.36 0 0 Z " fill="#C1A6E8" transform="translate(391,258)"/>
<path d="M0 0 C0.66 0.66 1.32 1.32 2 2 C2.66 1.67 3.32 1.34 4 1 C4 4 4 4 2.125 5.9375 C1.42375 6.618125 0.7225 7.29875 0 8 C-1.23512079 10.13309192 -1.23512079 10.13309192 -2 12 C-3.15957207 8.52128379 -2.77456651 7.65780355 -1.5625 4.3125 C-1.13130859 3.10013672 -1.13130859 3.10013672 -0.69140625 1.86328125 C-0.46324219 1.24839844 -0.23507812 0.63351563 0 0 Z " fill="#9666E9" transform="translate(315,237)"/>
<path d="M0 0 C0.33 0.66 0.66 1.32 1 2 C1.99 2 2.98 2 4 2 C4.625 3.8125 4.625 3.8125 5 6 C4.01 7.485 4.01 7.485 3 9 C0.90250005 6.64031256 0.03094296 5.45383006 -0.1875 2.25 C-0.125625 1.5075 -0.06375 0.765 0 0 Z " fill="#A883E5" transform="translate(375,106)"/>
<path d="M0 0 C0 2 0 2 -1.625 4.125 C-4.60465619 6.47736015 -6.29706315 6.33663062 -10 6 C-7.35570758 3.077361 -4.105808 0 0 0 Z " fill="#BA99E5" transform="translate(103,25)"/>
<path d="M0 0 C1.32 0 2.64 0 4 0 C2.8141763 3.37503669 1.72426311 5.64722731 -1 8 C-1.66 7.67 -2.32 7.34 -3 7 C-3 6.34 -3 5.68 -3 5 C-2.34 5 -1.68 5 -1 5 C-0.67 3.35 -0.34 1.7 0 0 Z " fill="#B899E3" transform="translate(367,304)"/>
<path d="M0 0 C0.33 0.66 0.66 1.32 1 2 C-2.96 3.98 -2.96 3.98 -7 6 C-7.99 5.01 -8.98 4.02 -10 3 C-5.05 1.515 -5.05 1.515 0 0 Z " fill="#9A68EC" transform="translate(262,288)"/>
<path d="M0 0 C1.1446875 0.3403125 1.1446875 0.3403125 2.3125 0.6875 C2.3125 1.3475 2.3125 2.0075 2.3125 2.6875 C0.6625 3.0175 -0.9875 3.3475 -2.6875 3.6875 C-2.6875 4.3475 -2.6875 5.0075 -2.6875 5.6875 C-3.6775 5.3575 -4.6675 5.0275 -5.6875 4.6875 C-5.6875 2.6875 -5.6875 2.6875 -4.5 1 C-2.6875 -0.3125 -2.6875 -0.3125 0 0 Z " fill="#9E70E8" transform="translate(285.6875,376.3125)"/>
<path d="M0 0 C0 3.99904969 -1.72586967 5.80200422 -4 9 C-5.32 8.67 -6.64 8.34 -8 8 C-5.36 5.36 -2.72 2.72 0 0 Z " fill="#B89BEB" transform="translate(63,53)"/>
<path d="M0 0 C3.3 0 6.6 0 10 0 C10 0.99 10 1.98 10 3 C6.7 2.34 3.4 1.68 0 1 C0 0.67 0 0.34 0 0 Z " fill="#B291E4" transform="translate(141,391)"/>
<path d="M0 0 C0.33 0.66 0.66 1.32 1 2 C0.34 2 -0.32 2 -1 2 C-0.938125 2.763125 -0.87625 3.52625 -0.8125 4.3125 C-1 7 -1 7 -2.5 8.8125 C-2.995 9.204375 -3.49 9.59625 -4 10 C-4.33 9.34 -4.66 8.68 -5 8 C-2.51612903 1.25806452 -2.51612903 1.25806452 0 0 Z " fill="#9D72E6" transform="translate(373,295)"/>
<path d="M0 0 C1.32 0 2.64 0 4 0 C3.46930939 3.82097239 2.50298434 6.06171403 0 9 C0 6 0 3 0 0 Z " fill="#BFA2E6" transform="translate(380,279)"/>
<path d="M0 0 C2.64 0.99 5.28 1.98 8 3 C7.01 3.66 6.02 4.32 5 5 C1.3125 4.125 1.3125 4.125 -2 3 C-1.34 2.67 -0.68 2.34 0 2 C0 1.34 0 0.68 0 0 Z " fill="#5227A2" transform="translate(140,258)"/>
<path d="M0 0 C0.33 0 0.66 0 1 0 C1 3.96 1 7.92 1 12 C0.34 12 -0.32 12 -1 12 C-1.33 10.02 -1.66 8.04 -2 6 C-1.34 6 -0.68 6 0 6 C0 4.02 0 2.04 0 0 Z " fill="#BA8AF7" transform="translate(399,180)"/>
<path d="M0 0 C0.33 0 0.66 0 1 0 C1 2.64 1 5.28 1 8 C-0.32 8.33 -1.64 8.66 -3 9 C-2.44271087 5.65626525 -1.64826111 2.96687001 0 0 Z " fill="#C9B2EC" transform="translate(18,114)"/>
<path d="M0 0 C0 1.32 0 2.64 0 4 C-2.31 4.33 -4.62 4.66 -7 5 C-6.1875 3.0625 -6.1875 3.0625 -5 1 C-2 0 -2 0 0 0 Z " fill="#9F6FEF" transform="translate(143,9)"/>
<path d="M0 0 C-0.99 1.485 -0.99 1.485 -2 3 C-4.31 2.67 -6.62 2.34 -9 2 C-6.32750728 -0.67249272 -3.5165484 -1.7582742 0 0 Z " fill="#A270EA" transform="translate(273,384)"/>
<path d="M0 0 C1.27875 0.28875 2.5575 0.5775 3.875 0.875 C4.95394531 1.11863281 4.95394531 1.11863281 6.0546875 1.3671875 C8 2 8 2 10 4 C6.25 5.125 6.25 5.125 4 4 C4 3.34 4 2.68 4 2 C2.68 2 1.36 2 0 2 C0 1.34 0 0.68 0 0 Z " fill="#9C72EA" transform="translate(82,360)"/>
<path d="M0 0 C0 3 0 3 -2.5 5.6875 C-3.325 6.450625 -4.15 7.21375 -5 8 C-4.67 5.69 -4.34 3.38 -4 1 C-2.68 0.67 -1.36 0.34 0 0 Z " fill="#BA9BE5" transform="translate(365,312)"/>
<path d="M0 0 C2 1 2 1 2.75 2.75 C3.07158914 5.64430225 2.22746624 7.40065973 1 10 C0.67 10 0.34 10 0 10 C0 6.7 0 3.4 0 0 Z " fill="#B392E7" transform="translate(393,240)"/>
<path d="M0 0 C0.33 0.66 0.66 1.32 1 2 C0.67 2.66 0.34 3.32 0 4 C0.66 4.33 1.32 4.66 2 5 C-1.75 7 -1.75 7 -4 7 C-2.92598892 4.08482708 -2.22189824 2.22189824 0 0 Z " fill="#BA99E8" transform="translate(39,80)"/>
<path d="M0 0 C2.475 0.495 2.475 0.495 5 1 C5.33 1.99 5.66 2.98 6 4 C4.35 4 2.7 4 1 4 C0.67 2.68 0.34 1.36 0 0 Z " fill="#A172EB" transform="translate(256,386)"/>
<path d="M0 0 C0.66 1.32 1.32 2.64 2 4 C1.01 3.67 0.02 3.34 -1 3 C-0.67 2.01 -0.34 1.02 0 0 Z M-2 3 C-1.67 3.66 -1.34 4.32 -1 5 C-0.34 5.33 0.32 5.66 1 6 C-0.98 6.99 -0.98 6.99 -3 8 C-3.33 7.01 -3.66 6.02 -4 5 C-3.34 4.34 -2.68 3.68 -2 3 Z " fill="#9D71E4" transform="translate(365,306)"/>
<path d="M0 0 C0.99 0.33 1.98 0.66 3 1 C2.34 2.65 1.68 4.3 1 6 C0.01 6 -0.98 6 -2 6 C-1.125 1.125 -1.125 1.125 0 0 Z " fill="#9F71F1" transform="translate(62,56)"/>
<path d="M0 0 C0.66 0 1.32 0 2 0 C2 0.66 2 1.32 2 2 C3.32 2.66 4.64 3.32 6 4 C5.67 5.32 5.34 6.64 5 8 C4.16382818 6.8562364 3.33113541 5.70992861 2.5 4.5625 C2.0359375 3.92441406 1.571875 3.28632813 1.09375 2.62890625 C0 1 0 1 0 0 Z " fill="#BEA2E2" transform="translate(34,312)"/>
<path d="M0 0 C2.475 0.99 2.475 0.99 5 2 C4.34 3.32 3.68 4.64 3 6 C2.01 5.67 1.02 5.34 0 5 C0 3.35 0 1.7 0 0 Z " fill="#9E71E7" transform="translate(18,278)"/>
<path d="M0 0 C2.64 0.33 5.28 0.66 8 1 C7.67 1.99 7.34 2.98 7 4 C6.01 4 5.02 4 4 4 C4 3.34 4 2.68 4 2 C2.68 2 1.36 2 0 2 C0 1.34 0 0.68 0 0 Z " fill="#9769EE" transform="translate(158,216)"/>
<path d="M0 0 C0.33 0 0.66 0 1 0 C1 1.98 1 3.96 1 6 C-0.32 6 -1.64 6 -3 6 C-1.125 1.125 -1.125 1.125 0 0 Z " fill="#B592E5" transform="translate(34,87)"/>
<path d="M0 0 C0.99 0.33 1.98 0.66 3 1 C3 1.66 3 2.32 3 3 C2.01 3 1.02 3 0 3 C0 3.99 0 4.98 0 6 C-0.99 6 -1.98 6 -3 6 C-2.67 4.68 -2.34 3.36 -2 2 C-1.34 2 -0.68 2 0 2 C0 1.34 0 0.68 0 0 Z " fill="#9D70ED" transform="translate(103,25)"/>
<path d="M0 0 C1.32 0.66 2.64 1.32 4 2 C3.01 2.495 3.01 2.495 2 3 C0.86649466 5.01669827 0.86649466 5.01669827 0 7 C-0.66 7 -1.32 7 -2 7 C-1.34 4.69 -0.68 2.38 0 0 Z " fill="#AA89E1" transform="translate(322,353)"/>
<path d="M0 0 C0.99 0.33 1.98 0.66 3 1 C1.37660195 2.70884005 -0.29319053 4.37446717 -2 6 C-2.66 6 -3.32 6 -4 6 C-4 5.34 -4 4.68 -4 4 C-3.34 4 -2.68 4 -2 4 C-2 3.01 -2 2.02 -2 1 C-1.34 0.67 -0.68 0.34 0 0 Z " fill="#BA9CE1" transform="translate(336,344)"/>
<path d="M0 0 C2.31 0.66 4.62 1.32 7 2 C6.67 2.66 6.34 3.32 6 4 C3.03 3.505 3.03 3.505 0 3 C0 2.01 0 1.02 0 0 Z " fill="#9F76E3" transform="translate(49,329)"/>
<path d="M0 0 C-0.33 0.66 -0.66 1.32 -1 2 C-1.66 2 -2.32 2 -3 2 C-3 2.66 -3 3.32 -3 4 C-3.99 3.67 -4.98 3.34 -6 3 C-6 2.01 -6 1.02 -6 0 C-3 -1 -3 -1 0 0 Z " fill="#542BA2" transform="translate(248,265)"/>
<path d="M0 0 C0.66 0.33 1.32 0.66 2 1 C-0.8125 3.0625 -0.8125 3.0625 -4 5 C-4.99 4.67 -5.98 4.34 -7 4 C-4.61426621 2.10786631 -2.92824652 0.97608217 0 0 Z " fill="#B093DE" transform="translate(71,48)"/>
<path d="M0 0 C0.33 0.66 0.66 1.32 1 2 C0.67 2.99 0.34 3.98 0 5 C-2.5625 6.1875 -2.5625 6.1875 -5 7 C-3.75023244 3.34683329 -3.32901247 2.21934164 0 0 Z " fill="#9E73E6" transform="translate(95,30)"/>
<path d="M0 0 C-0.375 1.9375 -0.375 1.9375 -1 4 C-1.99 4.495 -1.99 4.495 -3 5 C-3.99 4.01 -4.98 3.02 -6 2 C-2.25 0 -2.25 0 0 0 Z " fill="#AE8DE4" transform="translate(109,22)"/>
<path d="M0 0 C-4.625 3 -4.625 3 -8 3 C-8 2.34 -8 1.68 -8 1 C-4.93251126 -0.86240388 -3.40254489 -1.2151946 0 0 Z " fill="#9D74DE" transform="translate(128,16)"/>
<path d="M0 0 C2.64 0 5.28 0 8 0 C8 0.66 8 1.32 8 2 C5.69 2.33 3.38 2.66 1 3 C0.67 2.01 0.34 1.02 0 0 Z " fill="#9F72EE" transform="translate(184,1)"/>
</svg>
