<svg version="1.1" id="Layer_1" xmlns="http://www.w3.org/2000/svg" xmlns:xlink="http://www.w3.org/1999/xlink" x="0px" y="0px"
	 width="100%" viewBox="0 0 400 400" enable-background="new 0 0 400 400" xml:space="preserve">
<path fill="#01C37F" opacity="1.000000" stroke="none" 
	d="
M224.000000,401.000000 
	C149.356506,401.000000 75.213013,401.000000 1.034760,401.000000 
	C1.034760,267.731506 1.034760,134.462997 1.034760,1.097249 
	C134.226776,1.097249 267.453644,1.097249 400.840271,1.097249 
	C400.840271,134.333176 400.840271,267.666565 400.840271,401.000000 
	C342.129730,401.000000 283.314880,401.000000 224.000000,401.000000 
M137.376740,293.245392 
	C137.567215,293.484802 137.814255,293.623352 138.563293,293.838837 
	C138.563293,293.838837 138.966354,294.098694 139.225006,294.522247 
	C139.452499,294.786224 139.739273,294.938782 140.012604,294.984344 
	C140.012604,294.984344 140.008728,294.911621 140.243469,295.389221 
	C140.533691,295.584442 140.823914,295.779663 141.021912,295.975769 
	C141.021912,295.975769 141.021774,295.883514 141.256348,296.365875 
	C141.548248,296.562347 141.840149,296.758820 142.058029,296.950928 
	C142.058029,296.950928 142.064072,296.877014 142.158890,297.588379 
	C143.811218,298.654633 145.463562,299.720856 147.565582,300.928467 
	C147.565582,300.928467 147.993210,301.126770 148.277588,301.515991 
	C148.509155,301.761566 148.792892,301.900879 149.053619,301.936920 
	C149.053619,301.936920 149.052505,301.861725 149.279831,302.329620 
	C149.565109,302.514771 149.850388,302.699890 150.688278,303.020752 
	C151.150360,303.335205 151.612457,303.649658 152.314957,304.386353 
	C152.526840,304.650177 152.798126,304.818024 153.032547,304.957672 
	C153.032547,304.957672 153.101852,304.862518 153.387268,305.294830 
	C153.698349,305.422699 154.009445,305.550537 154.725281,305.773682 
	C154.725281,305.773682 155.045929,306.038452 155.300690,306.444031 
	C155.520798,306.696320 155.796539,306.846466 156.021713,306.974945 
	C156.021713,306.974945 156.107880,306.873230 156.276108,307.510864 
	C157.192062,307.882904 158.108032,308.254944 159.739258,308.825775 
	C163.366791,310.786743 166.913208,312.918976 170.634705,314.681580 
	C200.190460,328.680054 231.125290,333.384003 263.439087,327.949341 
	C283.862213,324.514496 302.903839,317.255798 320.196045,305.822327 
	C326.768799,301.476471 330.303680,295.126892 330.037842,286.872253 
	C329.721344,277.045624 324.049835,271.175201 315.723206,266.235718 
	C311.223419,263.470062 304.917084,263.766602 300.605743,267.067200 
	C300.605743,267.067200 300.190735,267.109253 299.681763,267.214172 
	C299.415405,267.432617 299.149048,267.651093 298.545319,268.015259 
	C298.545319,268.015259 298.182281,268.072388 297.683075,268.192017 
	C297.435272,268.423492 297.187469,268.654938 296.551514,269.058685 
	C296.551514,269.058685 296.138702,269.158417 295.674713,269.335022 
	C295.381409,269.519775 295.179016,269.776306 295.017822,270.015137 
	C295.017822,270.015137 295.091827,270.085968 294.320404,269.992249 
	C293.166107,268.945190 292.011841,267.898132 290.944092,266.967285 
	C290.944092,266.967285 290.831696,266.875793 291.310822,266.672913 
	C291.507721,266.394135 291.704590,266.115356 291.902527,265.907867 
	C291.902527,265.907867 291.831757,265.899384 292.303925,265.698242 
	C292.483337,265.416229 292.662750,265.134186 292.997223,265.000000 
	C292.997223,265.000000 292.845245,264.850128 293.261292,264.649933 
	C293.516510,264.451965 293.666779,264.193115 293.862122,263.439697 
	C293.862122,263.439697 294.097961,263.046082 294.522461,262.781067 
	C294.672729,262.490784 294.822998,262.200531 294.980133,261.981812 
	C294.980133,261.981812 294.908508,261.988068 295.382965,261.744171 
	C295.574341,261.450012 295.765717,261.155853 295.953644,260.959534 
	C295.953644,260.959534 295.855835,260.954651 296.354919,260.740875 
	C296.555176,260.447174 296.755402,260.153473 296.962128,259.962036 
	C296.962128,259.962036 296.859772,259.967255 297.328888,259.724365 
	C297.514679,259.432617 297.700470,259.140869 297.943115,258.950562 
	C297.943115,258.950562 297.852661,258.877533 298.556335,258.794952 
	C299.302826,257.489990 300.049347,256.185028 300.789551,254.804443 
	C300.789551,254.804443 300.864380,254.791718 301.349915,254.489212 
	C301.554626,253.965042 301.759338,253.440887 301.977142,252.983856 
	C301.977142,252.983856 301.908997,252.989426 302.365723,252.734161 
	C302.533447,252.435501 302.701141,252.136826 302.956512,251.949448 
	C302.956512,251.949448 302.842896,251.864853 303.501221,251.705795 
	C303.975616,250.763092 304.450043,249.820404 304.935760,248.962814 
	C304.935760,248.962814 304.850464,248.972519 305.353699,248.658371 
	C305.579376,248.135696 305.805054,247.613022 305.992981,247.037079 
	C305.992981,247.037079 306.052307,247.009796 306.453674,246.715546 
	C306.701263,246.471863 306.841644,246.177109 306.920807,245.917847 
	C306.920807,245.917847 306.834656,245.871094 307.496216,245.715134 
	C307.904694,244.773438 308.313141,243.831741 308.858612,242.375427 
	C308.937500,242.216400 309.016357,242.057373 309.483856,241.652969 
	C309.728973,241.440567 309.865295,241.172745 309.973114,240.493256 
	C309.973114,240.493256 310.140747,240.168839 310.517761,239.800430 
	C310.636658,239.476257 310.755524,239.152084 310.915527,238.885559 
	C310.915527,238.885559 310.853577,238.919846 311.567505,238.822495 
	C312.943329,237.482132 314.966888,236.390625 315.592560,234.762054 
	C320.635284,221.636536 325.432373,208.513351 328.668213,194.683563 
	C333.315369,174.821960 332.018127,155.231171 329.416534,135.515060 
	C328.853149,131.245438 326.417328,127.222870 324.947052,123.030556 
	C324.947052,123.030556 324.869202,123.118256 324.963196,122.300621 
	C323.930145,119.547607 322.897095,116.794586 321.932556,114.054611 
	C321.932556,114.054611 321.909332,114.120415 321.994629,113.265724 
	C321.521515,109.518982 322.445831,105.189812 317.958435,103.038673 
	C317.958435,103.038673 317.812195,103.204117 317.712036,102.729668 
	C317.581299,102.425369 317.387604,102.168564 316.980652,101.566376 
	C316.980652,101.566376 316.933685,101.148369 316.982086,100.325188 
	C316.652618,96.486641 316.478912,92.561638 311.958923,91.030190 
	C311.958923,91.030190 311.889008,91.128799 311.829926,90.528244 
	C311.491638,90.048073 311.153320,89.567909 310.888672,89.076096 
	C310.888672,89.076096 310.863647,89.146309 310.899414,88.374542 
	C309.966278,85.435684 310.190002,81.690735 305.936493,81.065796 
	C305.936493,81.065796 305.886261,81.159676 305.674683,80.687927 
	C305.417542,80.462715 305.160431,80.237503 304.985687,80.020859 
	C304.985687,80.020859 304.976532,80.103180 304.734406,79.615105 
	C304.440826,79.410065 304.147278,79.205025 303.417542,78.899399 
	C303.127594,78.747963 302.965637,78.509567 302.929962,77.425850 
	C299.695404,69.364288 283.375824,67.313690 277.089569,74.108582 
	C277.089569,74.108582 277.163818,74.128792 276.467712,74.103401 
	C275.662720,74.777466 274.857697,75.451530 274.048126,76.057007 
	C274.048126,76.057007 274.114594,76.074615 273.468384,76.025963 
	C267.037170,76.086647 267.589478,80.967644 267.126770,85.097900 
	C267.126770,85.097900 267.203461,85.109634 266.544220,85.447456 
	C265.713654,87.351273 264.050659,89.331322 264.216644,91.143883 
	C264.629791,95.655380 265.623199,100.163673 266.885590,104.528084 
	C267.603333,107.009727 268.158142,108.719299 264.928070,109.098625 
	C264.928070,109.098625 264.936523,109.169434 264.649780,108.722115 
	C264.354736,108.536407 264.059662,108.350708 263.390778,108.110229 
	C263.390778,108.110229 263.088623,107.883301 262.797699,107.484879 
	C262.565643,107.235428 262.282318,107.078659 262.001892,106.997665 
	C262.001892,106.997665 261.990662,107.053307 261.753601,106.597702 
	C261.475800,106.404869 261.198029,106.212044 260.987549,106.013397 
	C260.987549,106.013397 260.984741,106.080894 260.727539,105.609169 
	C260.436462,105.407722 260.145416,105.206276 259.441254,104.898010 
	C259.149719,104.775955 258.985077,104.558044 258.846832,103.508148 
	C257.723999,102.964760 256.601135,102.421371 255.206757,101.813217 
	C255.206757,101.813217 255.110306,101.551270 255.244232,100.859947 
	C254.118622,100.285690 252.993027,99.711426 251.995544,99.002724 
	C251.995544,99.002724 251.874634,99.143448 251.775208,98.454659 
	C251.134338,97.522011 250.701141,96.244713 249.818710,95.712959 
	C244.330475,92.405823 238.847229,89.056999 233.137131,86.166931 
	C230.644562,84.905365 227.618927,84.696999 224.467072,83.972244 
	C224.467072,83.972244 224.135803,83.806831 223.758957,83.447289 
	C223.436920,83.332695 223.114883,83.218102 222.372864,83.090851 
	C222.372864,83.090851 221.996048,82.905014 221.750748,82.265877 
	C217.445038,80.887527 213.139328,79.509178 208.905060,78.119507 
	C208.905060,78.119507 208.892853,78.190804 208.673508,77.486336 
	C206.068817,76.594284 203.523743,75.406372 200.847946,74.867203 
	C193.635040,73.413803 186.558319,70.195930 178.394287,72.775177 
	C177.912949,72.515175 177.431610,72.255173 176.626694,71.302757 
	C175.924149,70.915634 175.203537,70.162025 174.521759,70.195671 
	C161.833206,70.821877 149.144730,71.475609 136.471756,72.348732 
	C135.261932,72.432083 134.154938,74.008331 132.386902,75.074265 
	C131.963760,75.121719 131.540604,75.169174 130.512085,74.755219 
	C125.363556,74.155968 120.624947,74.825150 117.035934,79.029533 
	C117.035934,79.029533 117.096962,79.076828 116.413712,79.022720 
	C115.610954,79.387260 114.808189,79.751808 114.024231,80.045174 
	C114.024231,80.045174 114.095108,80.065102 113.244972,79.997520 
	C109.012177,80.520111 104.338020,80.012306 101.575623,85.015762 
	C101.575623,85.015762 101.167213,85.077377 100.346436,85.022919 
	C96.495995,85.346748 92.689491,85.748940 91.051384,90.048523 
	C91.051384,90.048523 91.170609,90.160507 90.399689,90.108917 
	C86.809975,91.351616 82.287170,91.167984 81.036453,96.023674 
	C81.036453,96.023674 81.169525,96.141121 80.696251,96.348503 
	C80.470551,96.605484 80.244850,96.862457 80.029526,97.020233 
	C80.029526,97.020233 80.128647,97.031372 79.637016,97.284088 
	C79.427376,97.581192 79.217735,97.878296 78.892242,98.597466 
	C78.728592,98.870087 78.488251,99.018600 77.409851,99.052620 
	C69.380264,102.327011 67.341385,118.670952 74.112022,124.903488 
	C74.112022,124.903488 74.138008,124.828331 74.105553,125.526085 
	C74.778267,126.332993 75.450974,127.139900 76.042313,127.956482 
	C76.042313,127.956482 76.033989,127.874969 76.264374,128.346893 
	C76.537720,128.558838 76.811066,128.770798 77.019623,128.983063 
	C77.019623,128.983063 77.054619,128.928543 76.954155,129.557602 
	C76.607468,136.064621 81.919632,133.856155 85.036659,134.960983 
	C85.036659,134.960983 85.112106,134.848419 85.305923,135.570602 
	C89.556244,139.254639 97.532364,139.009048 101.419594,134.914337 
	C101.419594,134.914337 101.883041,134.853470 102.667641,134.954361 
	C104.170311,135.103836 105.672974,135.253311 107.323372,135.417465 
	C106.814651,137.738708 106.444298,139.428543 106.066101,141.042358 
	C106.066101,141.042358 106.142303,141.036255 105.662094,141.289352 
	C105.450279,141.577469 105.238457,141.865585 104.909721,142.568542 
	C104.782013,142.856567 104.562805,143.026718 103.488815,143.110779 
	C102.721977,144.463440 101.955147,145.816116 101.011375,147.022217 
	C101.011375,147.022217 101.179359,147.179688 100.472931,147.235092 
	C99.343323,149.195374 98.213715,151.155670 97.047981,153.043274 
	C97.047981,153.043274 97.122444,153.075562 96.411964,153.183380 
	C95.348297,155.180634 94.284630,157.177872 93.138199,159.645996 
	C93.138199,159.645996 92.925308,160.074081 92.552429,160.348083 
	C92.318901,160.566879 92.169945,160.833008 92.053574,161.057602 
	C92.053574,161.057602 92.140556,161.112701 91.462273,161.314133 
	C91.004128,162.578674 90.545975,163.843216 90.033531,165.033127 
	C90.033531,165.033127 90.116356,165.073837 89.435921,165.248611 
	C88.330643,167.876648 87.225365,170.504669 86.029411,173.044968 
	C86.029411,173.044968 86.141113,173.103546 85.447128,173.257782 
	C84.337952,176.217377 83.228783,179.176987 82.048370,182.059280 
	C82.048370,182.059280 82.146118,182.097961 81.487099,182.280548 
	C80.683777,184.893021 79.880447,187.505493 79.043236,190.722382 
	C78.969604,191.117966 78.895973,191.513550 78.474388,192.296585 
	C78.349686,192.616165 78.224983,192.935745 78.095444,193.611618 
	C78.095444,193.611618 77.902359,193.911087 77.257347,194.239960 
	C75.945648,198.816040 74.168297,203.320404 73.449615,207.987793 
	C72.689133,212.926697 72.936119,218.020752 72.779564,223.601791 
	C72.523582,224.082062 72.267601,224.562332 71.317184,225.367065 
	C70.892082,227.230362 70.181007,229.079391 70.087234,230.959213 
	C69.349800,245.742111 71.502693,260.277191 74.579659,274.647522 
	C75.505402,278.970978 78.055588,282.946655 80.004509,287.457458 
	C80.004509,287.457458 80.030357,287.858704 79.977104,288.713531 
	C80.245338,293.071960 80.421120,297.470093 85.002068,300.447357 
	C85.002068,300.447357 85.075531,300.875519 85.024971,301.694427 
	C85.357353,305.527496 85.514587,309.458221 90.080566,310.913361 
	C90.080566,310.913361 90.101418,310.840332 90.250420,311.297302 
	C90.408760,311.584869 90.627518,311.815033 91.102287,312.382294 
	C91.102287,312.382294 91.147469,312.820312 91.102158,313.581757 
	C92.788109,316.010498 94.474068,318.439240 96.075806,320.912689 
	C96.075806,320.912689 96.118721,320.827545 96.333809,321.302643 
	C96.594002,321.529144 96.854202,321.755646 97.022194,321.970093 
	C97.022194,321.970093 97.035027,321.877991 97.254250,322.358551 
	C97.532059,322.565918 97.809868,322.773285 98.017159,322.985962 
	C98.017159,322.985962 98.012917,322.915344 98.285225,323.366394 
	C98.576157,323.556702 98.867088,323.747009 99.086563,323.934448 
	C99.086563,323.934448 99.093742,323.863342 99.084015,324.620483 
	C100.436546,330.214966 104.897629,329.783752 109.168816,329.808319 
	C109.168816,329.808319 109.186188,329.846863 109.202286,330.335602 
	C109.798584,330.568604 110.394882,330.801605 111.722763,331.075531 
	C112.455307,331.087189 113.187843,331.098816 114.517647,331.450317 
	C116.018860,330.998993 117.520073,330.547668 119.094933,329.992950 
	C119.094933,329.992950 119.198204,330.066742 119.812080,330.099609 
	C120.548309,329.773102 121.284538,329.446564 122.401558,328.959595 
	C122.401558,328.959595 122.813942,328.933441 123.308037,328.795380 
	C123.571342,328.579712 123.834648,328.364044 124.429382,327.958527 
	C124.429382,327.958527 124.809937,327.925690 125.519722,327.932922 
	C126.343201,327.233795 127.166679,326.534668 128.119843,325.427795 
	C128.287033,325.166565 128.525406,325.026520 129.497635,325.073517 
	C130.689316,325.073517 131.880997,325.073517 133.277390,325.073517 
	C133.134979,323.233917 133.036713,321.964813 132.931580,320.389191 
	C132.931580,320.389191 133.129227,320.154846 133.508972,319.773956 
	C133.650085,319.449585 133.791183,319.125183 133.945740,318.382080 
	C133.945740,318.382080 134.096436,317.991180 134.463501,317.693970 
	C134.692245,317.458679 134.820251,317.177521 134.937500,316.408783 
	C134.937500,316.408783 135.106415,315.990723 135.764587,315.691498 
	C136.434235,312.020020 137.211594,308.361511 137.656662,304.662994 
	C137.722961,304.112152 136.225906,303.373169 135.223007,302.583313 
	C135.223007,302.583313 135.238846,302.316376 135.391663,301.900696 
	C135.421341,301.585297 135.321838,301.318024 134.917374,300.598206 
	C134.885681,300.424225 134.854004,300.250214 134.759277,299.618774 
	C134.640244,299.319153 134.442703,299.085938 133.976425,298.555969 
	C133.976425,298.555969 133.909912,298.151428 133.808044,297.666687 
	C133.662781,297.356049 133.441391,297.115448 132.961517,296.565460 
	C132.961517,296.565460 132.868866,296.154846 132.693756,295.701813 
	C132.513367,295.420166 132.270096,295.212036 131.551971,294.662628 
	C131.318512,294.130615 131.085052,293.598633 131.382721,292.598724 
	C132.633514,292.021210 133.884293,291.443695 135.016388,290.961761 
	C135.016388,290.961761 135.115341,290.845734 135.325226,291.317322 
	C135.600983,291.514679 135.876740,291.712006 136.082352,291.916656 
	C136.082352,291.916656 136.089844,291.846527 136.308929,292.295837 
	C136.519516,292.574005 136.796249,292.745026 137.159744,292.833832 
	C137.159744,292.833832 137.186600,292.851898 137.376740,293.245392 
z"/>
<path fill="#FBFFFE" opacity="1.000000" stroke="none" 
	d="
M128.834961,325.007629 
	C128.525406,325.026520 128.287033,325.166565 127.731430,325.705261 
	C126.498650,326.630402 125.654282,327.278046 124.809929,327.925659 
	C124.809937,327.925690 124.429382,327.958527 123.974251,328.012817 
	C123.284058,328.355865 123.048996,328.644653 122.813934,328.933441 
	C122.813942,328.933441 122.401558,328.959595 121.895828,328.954712 
	C120.659454,329.322144 119.928825,329.694427 119.198196,330.066711 
	C119.198204,330.066742 119.094933,329.992950 118.774826,329.975830 
	C118.263275,329.993195 118.071838,330.027679 117.462738,329.978271 
	C115.060867,329.949280 113.076637,330.004211 110.778839,329.982544 
	C110.038902,329.886261 109.612549,329.866577 109.186188,329.846863 
	C109.186188,329.846863 109.168816,329.808319 108.944290,329.516998 
	C105.511086,327.438232 102.302414,325.650787 99.093735,323.863342 
	C99.093742,323.863342 99.086563,323.934448 99.036598,323.666199 
	C98.662064,323.237061 98.337486,323.076202 98.012909,322.915344 
	C98.012917,322.915344 98.017159,322.985962 97.983032,322.715454 
	C97.644279,322.255920 97.339653,322.066956 97.035027,321.877991 
	C97.035027,321.877991 97.022194,321.970093 97.011383,321.703247 
	C96.706619,321.233429 96.412674,321.030487 96.118721,320.827545 
	C96.118721,320.827545 96.075806,320.912689 96.087250,320.539856 
	C94.448296,317.718079 92.797882,315.269196 91.147476,312.820312 
	C91.147469,312.820312 91.102287,312.382294 91.033966,311.912140 
	C90.677574,311.241425 90.389496,311.040894 90.101418,310.840332 
	C90.101418,310.840332 90.080566,310.913361 90.098221,310.538818 
	C88.435768,307.068054 86.755646,303.971771 85.075531,300.875519 
	C85.075531,300.875519 85.002068,300.447357 84.960129,299.876160 
	C83.288910,295.489532 81.659637,291.674133 80.030365,287.858704 
	C80.030357,287.858704 80.004509,287.457458 80.010406,286.884766 
	C79.042625,283.190125 78.004868,280.086548 77.105942,276.943207 
	C72.247948,259.956055 71.761009,242.534332 72.011620,225.042603 
	C72.267601,224.562332 72.523582,224.082062 72.888687,222.894226 
	C73.270630,219.929443 73.430748,217.651718 73.837067,215.418777 
	C75.143250,208.240646 76.540337,201.079056 77.902359,193.911087 
	C77.902359,193.911087 78.095444,193.611618 78.372910,193.311523 
	C78.707695,192.643997 78.765015,192.276566 78.822342,191.909134 
	C78.895973,191.513550 78.969604,191.117966 79.379448,190.228607 
	C80.525810,187.189194 81.335968,184.643585 82.146118,182.097961 
	C82.146118,182.097961 82.048370,182.059280 82.386414,181.906097 
	C83.863342,178.869797 85.002228,175.986679 86.141113,173.103546 
	C86.141113,173.103546 86.029411,173.044968 86.369461,172.902679 
	C87.845123,170.198212 88.980743,167.636017 90.116356,165.073837 
	C90.116356,165.073837 90.033531,165.033127 90.360214,164.913315 
	C91.171440,163.566574 91.655998,162.339630 92.140556,161.112701 
	C92.140556,161.112701 92.053574,161.057602 92.331818,161.025299 
	C92.715149,160.686691 92.820221,160.380386 92.925308,160.074081 
	C92.925308,160.074081 93.138199,159.645996 93.481674,159.272400 
	C94.924248,156.957718 96.023346,155.016632 97.122444,153.075562 
	C97.122444,153.075562 97.047981,153.043274 97.387604,152.962906 
	C98.877945,150.981583 100.028656,149.080643 101.179359,147.179688 
	C101.179359,147.179688 101.011375,147.022217 101.405975,146.970612 
	C102.617752,145.639008 103.434929,144.358994 104.252106,143.078979 
	C104.562805,143.026718 104.782013,142.856567 105.239182,142.276138 
	C105.759857,141.667908 105.951073,141.352081 106.142303,141.036255 
	C106.142303,141.036255 106.066101,141.042358 106.394974,140.972168 
	C110.193260,136.830948 113.662689,132.759903 117.819496,127.882263 
	C110.610283,128.046906 106.659767,132.369568 101.883041,134.853470 
	C101.883041,134.853470 101.419594,134.914337 100.788681,134.953827 
	C95.142555,134.945007 90.127327,134.896713 85.112106,134.848419 
	C85.112106,134.848419 85.036659,134.960983 84.928650,134.615372 
	C82.231964,132.489349 79.643295,130.708939 77.054619,128.928543 
	C77.054619,128.928543 77.019623,128.983063 76.991119,128.707977 
	C76.653076,128.246918 76.343536,128.060944 76.033989,127.874969 
	C76.033989,127.874969 76.042313,127.956482 76.050064,127.623962 
	C75.417885,126.470406 74.777946,125.649368 74.138008,124.828331 
	C74.138008,124.828331 74.112022,124.903488 74.109718,124.500328 
	C70.312172,114.910469 71.635422,106.554001 78.171219,99.043007 
	C78.488251,99.018600 78.728592,98.870087 79.218872,98.287796 
	C79.739876,97.662544 79.934265,97.346954 80.128647,97.031372 
	C80.128647,97.031372 80.029526,97.020233 80.295502,97.013916 
	C80.764160,96.718781 80.966835,96.429947 81.169525,96.141113 
	C81.169525,96.141121 81.036453,96.023674 81.443939,96.060394 
	C84.957817,94.118240 88.064209,92.139366 91.170609,90.160507 
	C91.170609,90.160507 91.051384,90.048523 91.457794,90.090096 
	C94.965210,88.446907 98.066208,86.762138 101.167213,85.077377 
	C101.167213,85.077377 101.575623,85.015762 102.129944,84.973389 
	C106.487885,83.309052 110.291496,81.687080 114.095108,80.065102 
	C114.095108,80.065102 114.024231,80.045174 114.367447,80.084015 
	C115.506096,79.774178 116.301529,79.425507 117.096962,79.076828 
	C117.096962,79.076828 117.035934,79.029533 117.439041,79.063995 
	C122.267250,77.804504 126.692352,76.510567 131.117462,75.216629 
	C131.540604,75.169174 131.963760,75.121719 133.098434,75.074951 
	C135.574387,74.746162 137.327316,74.224510 139.105087,74.118042 
	C151.717300,73.362770 164.334595,72.692520 176.950272,71.995171 
	C177.431610,72.255173 177.912949,72.515175 179.101990,72.892944 
	C182.088654,73.284966 184.390976,73.434441 186.642258,73.856316 
	C194.069061,75.248085 201.477417,76.738350 208.892853,78.190804 
	C208.892853,78.190804 208.905060,78.119507 209.066116,78.448174 
	C213.483459,80.152901 217.739761,81.528954 221.996048,82.905014 
	C221.996048,82.905014 222.372864,83.090851 222.717346,83.355499 
	C223.419830,83.682373 223.777817,83.744606 224.135803,83.806831 
	C224.135803,83.806831 224.467072,83.972244 224.813599,84.321907 
	C234.064957,89.495529 242.969803,94.319489 251.874634,99.143448 
	C251.874634,99.143448 251.995544,99.002724 252.040131,99.354233 
	C253.093262,100.320923 254.101776,100.936096 255.110306,101.551270 
	C255.110306,101.551270 255.206757,101.813217 255.504364,102.110153 
	C256.850433,103.019478 257.898895,103.631874 258.947327,104.244270 
	C258.985077,104.558044 259.149719,104.775955 259.733093,105.222198 
	C260.344879,105.724564 260.664795,105.902733 260.984741,106.080894 
	C260.984741,106.080894 260.987549,106.013397 261.025818,106.280807 
	C261.372955,106.716576 261.681824,106.884941 261.990662,107.053307 
	C261.990662,107.053307 262.001892,106.997665 262.051819,107.273499 
	C262.430725,107.660660 262.759674,107.771980 263.088623,107.883301 
	C263.088623,107.883301 263.390778,108.110229 263.669983,108.401749 
	C264.278290,108.851982 264.607422,109.010712 264.936523,109.169434 
	C264.936523,109.169434 264.928070,109.098625 265.019165,109.419418 
	C267.822937,112.247330 270.535583,114.754448 273.248230,117.261559 
	C273.733673,116.919533 274.219116,116.577499 274.704559,116.235466 
	C273.550812,113.659378 272.749847,110.841095 271.178101,108.552002 
	C266.192291,101.290482 264.775909,93.560486 267.203461,85.109634 
	C267.203461,85.109634 267.126770,85.097900 267.437561,84.961250 
	C269.870422,81.907936 271.992523,78.991280 274.114594,76.074615 
	C274.114594,76.074615 274.048126,76.057007 274.381378,76.074799 
	C275.531036,75.437988 276.347412,74.783394 277.163818,74.128792 
	C277.163818,74.128792 277.089569,74.108582 277.493988,74.109192 
	C287.071136,70.378929 295.451324,71.517326 302.931702,78.184204 
	C302.965637,78.509567 303.127594,78.747963 303.728821,79.216705 
	C304.352234,79.723732 304.664368,79.913460 304.976532,80.103180 
	C304.976532,80.103180 304.985687,80.020859 304.996307,80.290108 
	C305.300049,80.759460 305.593170,80.959564 305.886261,81.159668 
	C305.886261,81.159676 305.936493,81.065796 305.928589,81.445946 
	C307.568298,84.266167 309.215973,86.706245 310.863647,89.146317 
	C310.863647,89.146309 310.888672,89.076096 310.862915,89.401649 
	C311.187744,90.194405 311.538391,90.661598 311.889008,91.128799 
	C311.889008,91.128799 311.958923,91.030190 311.925690,91.430046 
	C313.572845,94.936058 315.253265,98.042221 316.933685,101.148376 
	C316.933685,101.148369 316.980652,101.566376 316.994629,102.037155 
	C317.276489,102.739998 317.544342,102.972054 317.812195,103.204117 
	C317.812195,103.204117 317.958435,103.038673 317.880737,103.486160 
	C319.171783,107.329239 320.540558,110.724831 321.909332,114.120415 
	C321.909332,114.120415 321.932556,114.054611 321.900696,114.434082 
	C322.868958,117.581787 323.869080,120.350021 324.869202,123.118256 
	C324.869202,123.118256 324.947052,123.030556 324.906311,123.467606 
	C325.008453,124.879662 325.065369,125.876518 325.306915,126.826439 
	C330.888153,148.777924 331.429169,170.818588 327.240204,193.106995 
	C324.196960,209.299301 318.189667,224.320084 310.853577,238.919846 
	C310.853577,238.919846 310.915527,238.885559 310.620239,238.972992 
	C310.263519,239.429886 310.202118,239.799362 310.140747,240.168839 
	C310.140747,240.168839 309.973114,240.493256 309.687683,240.744247 
	C309.299927,241.296280 309.197571,241.597305 309.095245,241.898346 
	C309.016357,242.057373 308.937500,242.216400 308.506897,242.753540 
	C307.714996,244.044800 307.274811,244.957947 306.834656,245.871094 
	C306.834656,245.871094 306.920807,245.917847 306.638458,245.967987 
	C306.254852,246.348679 306.153564,246.679230 306.052307,247.009796 
	C306.052307,247.009796 305.992981,247.037079 305.778961,247.232712 
	C305.326782,247.943069 305.088623,248.457794 304.850464,248.972534 
	C304.850464,248.972519 304.935760,248.962814 304.630890,249.030487 
	C303.831635,250.020386 303.337280,250.942627 302.842896,251.864853 
	C302.842896,251.864853 302.956512,251.949448 302.652771,251.983368 
	C302.202332,252.341339 302.055664,252.665375 301.908997,252.989426 
	C301.908997,252.989426 301.977142,252.983856 301.683990,253.055176 
	C301.215363,253.681564 301.039856,254.236633 300.864380,254.791718 
	C300.864380,254.791718 300.789551,254.804443 300.488953,254.952820 
	C299.409790,256.359985 298.631226,257.618744 297.852661,258.877533 
	C297.852661,258.877533 297.943115,258.950562 297.647522,258.976257 
	C297.187897,259.323700 297.023834,259.645477 296.859772,259.967255 
	C296.859772,259.967255 296.962128,259.962036 296.694092,259.997864 
	C296.235962,260.340668 296.045898,260.647675 295.855835,260.954651 
	C295.855835,260.954651 295.953644,260.959534 295.682983,260.989471 
	C295.244354,261.342316 295.076447,261.665192 294.908508,261.988068 
	C294.908508,261.988068 294.980133,261.981812 294.709045,262.024780 
	C294.324615,262.393860 294.211304,262.719971 294.097961,263.046082 
	C294.097961,263.046082 293.862122,263.439697 293.554749,263.717102 
	C292.970093,264.212280 292.836029,264.497467 292.845245,264.850128 
	C292.845245,264.850128 292.997223,265.000000 292.671753,265.008209 
	C292.174744,265.310730 292.003265,265.605072 291.831757,265.899384 
	C291.831757,265.899384 291.902527,265.907867 291.637787,265.939758 
	C291.192596,266.273041 291.012146,266.574432 290.831696,266.875793 
	C290.831696,266.875793 290.944092,266.967285 290.586212,267.024811 
	C287.216034,270.167938 284.203735,273.253571 281.191467,276.339203 
	C281.490417,276.738586 281.789398,277.138000 282.088379,277.537384 
	C286.422852,275.053589 290.757355,272.569794 295.091827,270.085968 
	C295.091827,270.085968 295.017822,270.015137 295.303406,270.013245 
	C295.772217,269.727051 295.955475,269.442719 296.138702,269.158417 
	C296.138702,269.158417 296.551514,269.058685 297.033508,269.009491 
	C297.737732,268.664307 297.959991,268.368347 298.182281,268.072388 
	C298.182281,268.072388 298.545319,268.015259 299.005890,267.998779 
	C299.707886,267.691284 299.949310,267.400269 300.190735,267.109253 
	C300.190735,267.109253 300.605743,267.067200 301.216431,267.062561 
	C306.553162,266.996521 311.279236,266.935120 316.005310,266.873688 
	C324.049835,271.175201 329.721344,277.045624 330.037842,286.872253 
	C330.303680,295.126892 326.768799,301.476471 320.196045,305.822327 
	C302.903839,317.255798 283.862213,324.514496 263.439087,327.949341 
	C231.125290,333.384003 200.190460,328.680054 170.634705,314.681580 
	C166.913208,312.918976 163.366791,310.786743 159.269653,308.452942 
	C157.902664,307.677795 157.005280,307.275513 156.107880,306.873230 
	C156.107880,306.873230 156.021713,306.974945 156.004959,306.674622 
	C155.674103,306.262390 155.360016,306.150421 155.045929,306.038452 
	C155.045929,306.038452 154.725281,305.773682 154.405914,305.492432 
	C153.758301,305.095001 153.430069,304.978760 153.101852,304.862518 
	C153.101852,304.862518 153.032547,304.957672 153.006195,304.670166 
	C152.678055,304.243164 152.376297,304.103638 152.074539,303.964111 
	C151.612457,303.649658 151.150360,303.335205 150.328827,302.696533 
	C149.663757,302.202087 149.358124,302.031921 149.052505,301.861725 
	C149.052505,301.861725 149.053619,301.936920 149.010071,301.673279 
	C148.642105,301.315369 148.317657,301.221069 147.993210,301.126770 
	C147.993210,301.126770 147.565582,300.928467 147.238281,300.553345 
	C145.295334,299.077820 143.679703,297.977417 142.064072,296.877014 
	C142.064072,296.877014 142.058029,296.950928 142.015823,296.683929 
	C141.656326,296.239136 141.339050,296.061340 141.021774,295.883514 
	C141.021774,295.883514 141.021912,295.975769 140.986145,295.707764 
	C140.636490,295.263702 140.322601,295.087677 140.008728,294.911621 
	C140.008728,294.911621 140.012604,294.984344 139.971497,294.717438 
	C139.609039,294.333252 139.287689,294.215973 138.966354,294.098694 
	C138.966354,294.098694 138.563293,293.838837 138.286163,293.528564 
	C137.796219,292.958832 137.522079,292.836700 137.186600,292.851898 
	C137.186600,292.851898 137.159744,292.833832 137.070602,292.576904 
	C136.684250,292.162170 136.387054,292.004333 136.089844,291.846527 
	C136.089844,291.846527 136.082352,291.916656 136.042267,291.654846 
	C135.706573,291.210602 135.410965,291.028168 135.115341,290.845734 
	C135.115341,290.845734 135.016388,290.961761 134.964661,290.598022 
	C132.076370,286.956238 129.239822,283.678162 126.403267,280.400116 
	C125.808960,280.890533 125.214653,281.380981 124.620346,281.871429 
	C126.697433,285.603149 128.774521,289.334900 130.851593,293.066620 
	C131.085052,293.598633 131.318512,294.130615 131.772614,295.136932 
	C132.285126,295.792450 132.576996,295.973663 132.868866,296.154846 
	C132.868866,296.154846 132.961517,296.565460 133.021851,297.029846 
	C133.358093,297.713318 133.634003,297.932373 133.909912,298.151428 
	C133.909912,298.151428 133.976425,298.555969 134.024506,298.997192 
	C134.322495,299.651001 134.572403,299.863617 134.822311,300.076233 
	C134.854004,300.250214 134.885681,300.424225 134.921906,301.053711 
	C134.889664,301.832733 134.993790,302.101776 135.238846,302.316376 
	C135.238846,302.316376 135.223007,302.583313 135.471466,303.043091 
	C135.515427,307.665497 135.310928,311.828094 135.106415,315.990723 
	C135.106415,315.990723 134.937500,316.408783 134.636230,316.715332 
	C134.255432,317.344971 134.175934,317.668091 134.096436,317.991180 
	C134.096436,317.991180 133.945740,318.382080 133.660767,318.707275 
	C133.293610,319.406586 133.211426,319.780731 133.129242,320.154846 
	C133.129227,320.154846 132.931580,320.389191 132.627563,320.685608 
	C131.160675,322.323883 129.997818,323.665771 128.834961,325.007629 
M201.486633,135.962891 
	C196.051468,136.437103 190.411758,136.137405 185.214279,137.511002 
	C151.185287,146.504105 130.172180,177.834686 137.041260,213.784058 
	C143.637802,248.307098 174.431870,270.976288 210.770630,265.654907 
	C248.509567,260.128448 271.821533,226.115356 265.097931,188.485367 
	C259.597748,157.702377 231.582550,135.404037 201.486633,135.962891 
z"/>
<path fill="#29B184" opacity="1.000000" stroke="none" 
	d="
M311.210541,238.871170 
	C318.189667,224.320084 324.196960,209.299301 327.240204,193.106995 
	C331.429169,170.818588 330.888153,148.777924 325.306915,126.826439 
	C325.065369,125.876518 325.008453,124.879662 324.854767,123.495590 
	C326.417328,127.222870 328.853149,131.245438 329.416534,135.515060 
	C332.018127,155.231171 333.315369,174.821960 328.668213,194.683563 
	C325.432373,208.513351 320.635284,221.636536 315.592560,234.762054 
	C314.966888,236.390625 312.943329,237.482132 311.210541,238.871170 
z"/>
<path fill="#29B184" opacity="1.000000" stroke="none" 
	d="
M71.664398,225.204834 
	C71.761009,242.534332 72.247948,259.956055 77.105942,276.943207 
	C78.004868,280.086548 79.042625,283.190125 79.938965,286.696838 
	C78.055588,282.946655 75.505402,278.970978 74.579659,274.647522 
	C71.502693,260.277191 69.349800,245.742111 70.087234,230.959213 
	C70.181007,229.079391 70.892082,227.230362 71.664398,225.204834 
z"/>
<path fill="#29B184" opacity="1.000000" stroke="none" 
	d="
M266.873840,85.278549 
	C264.775909,93.560486 266.192291,101.290482 271.178101,108.552002 
	C272.749847,110.841095 273.550812,113.659378 274.704559,116.235466 
	C274.219116,116.577499 273.733673,116.919533 273.248230,117.261559 
	C270.535583,114.754448 267.822937,112.247330 264.984314,109.427010 
	C268.158142,108.719299 267.603333,107.009727 266.885590,104.528084 
	C265.623199,100.163673 264.629791,95.655380 264.216644,91.143883 
	C264.050659,89.331322 265.713654,87.351273 266.873840,85.278549 
z"/>
<path fill="#29B184" opacity="1.000000" stroke="none" 
	d="
M176.788483,71.648964 
	C164.334595,72.692520 151.717300,73.362770 139.105087,74.118042 
	C137.327316,74.224510 135.574387,74.746162 133.405090,74.983574 
	C134.154938,74.008331 135.261932,72.432083 136.471756,72.348732 
	C149.144730,71.475609 161.833206,70.821877 174.521759,70.195671 
	C175.203537,70.162025 175.924149,70.915634 176.788483,71.648964 
z"/>
<path fill="#29B184" opacity="1.000000" stroke="none" 
	d="
M102.275345,134.903915 
	C106.659767,132.369568 110.610283,128.046906 117.819496,127.882263 
	C113.662689,132.759903 110.193260,136.830948 106.398895,141.010193 
	C106.444298,139.428543 106.814651,137.738708 107.323372,135.417465 
	C105.672974,135.253311 104.170311,135.103836 102.275345,134.903915 
z"/>
<path fill="#29B184" opacity="1.000000" stroke="none" 
	d="
M251.824921,98.799057 
	C242.969803,94.319489 234.064957,89.495529 224.997742,84.340958 
	C227.618927,84.696999 230.644562,84.905365 233.137131,86.166931 
	C238.847229,89.056999 244.330475,92.405823 249.818710,95.712959 
	C250.701141,96.244713 251.134338,97.522011 251.824921,98.799057 
z"/>
<path fill="#29B184" opacity="1.000000" stroke="none" 
	d="
M302.930847,77.805023 
	C295.451324,71.517326 287.071136,70.378929 277.505707,74.145844 
	C283.375824,67.313690 299.695404,69.364288 302.930847,77.805023 
z"/>
<path fill="#29B184" opacity="1.000000" stroke="none" 
	d="
M77.790535,99.047813 
	C71.635422,106.554001 70.312172,114.910469 74.147682,124.488503 
	C67.341385,118.670952 69.380264,102.327011 77.790535,99.047813 
z"/>
<path fill="#29B184" opacity="1.000000" stroke="none" 
	d="
M208.783173,77.838570 
	C201.477417,76.738350 194.069061,75.248085 186.642258,73.856316 
	C184.390976,73.434441 182.088654,73.284966 179.380188,72.880554 
	C186.558319,70.195930 193.635040,73.413803 200.847946,74.867203 
	C203.523743,75.406372 206.068817,76.594284 208.783173,77.838570 
z"/>
<path fill="#29B184" opacity="1.000000" stroke="none" 
	d="
M77.579849,194.075531 
	C76.540337,201.079056 75.143250,208.240646 73.837067,215.418777 
	C73.430748,217.651718 73.270630,219.929443 72.870438,222.616852 
	C72.936119,218.020752 72.689133,212.926697 73.449615,207.987793 
	C74.168297,203.320404 75.945648,198.816040 77.579849,194.075531 
z"/>
<path fill="#3FA888" opacity="1.000000" stroke="none" 
	d="
M294.706116,270.039124 
	C290.757355,272.569794 286.422852,275.053589 282.088379,277.537384 
	C281.789398,277.138000 281.490417,276.738586 281.191467,276.339203 
	C284.203735,273.253571 287.216034,270.167938 290.542969,266.966675 
	C292.011841,267.898132 293.166107,268.945190 294.706116,270.039124 
z"/>
<path fill="#3DA484" opacity="1.000000" stroke="none" 
	d="
M131.117157,292.832672 
	C128.774521,289.334900 126.697433,285.603149 124.620346,281.871429 
	C125.214653,281.380981 125.808960,280.890533 126.403267,280.400116 
	C129.239822,283.678162 132.076370,286.956238 135.023987,290.550232 
	C133.884293,291.443695 132.633514,292.021210 131.117157,292.832672 
z"/>
<path fill="#29B184" opacity="1.000000" stroke="none" 
	d="
M85.209015,135.209503 
	C90.127327,134.896713 95.142555,134.945007 100.571655,135.040558 
	C97.532364,139.009048 89.556244,139.254639 85.209015,135.209503 
z"/>
<path fill="#29B184" opacity="1.000000" stroke="none" 
	d="
M130.814774,74.985916 
	C126.692352,76.510567 122.267250,77.804504 117.447647,79.101624 
	C120.624947,74.825150 125.363556,74.155968 130.814774,74.985916 
z"/>
<path fill="#3DA484" opacity="1.000000" stroke="none" 
	d="
M135.435516,315.841125 
	C135.310928,311.828094 135.515427,307.665497 135.585999,303.112061 
	C136.225906,303.373169 137.722961,304.112152 137.656662,304.662994 
	C137.211594,308.361511 136.434235,312.020020 135.435516,315.841125 
z"/>
<path fill="#3FA888" opacity="1.000000" stroke="none" 
	d="
M315.864258,266.554688 
	C311.279236,266.935120 306.553162,266.996521 301.413055,266.993011 
	C304.917084,263.766602 311.223419,263.470062 315.864258,266.554688 
z"/>
<path fill="#29B184" opacity="1.000000" stroke="none" 
	d="
M273.791504,76.050293 
	C271.992523,78.991280 269.870422,81.907936 267.452881,84.996887 
	C267.589478,80.967644 267.037170,76.086647 273.791504,76.050293 
z"/>
<path fill="#29B184" opacity="1.000000" stroke="none" 
	d="
M113.670044,80.031311 
	C110.291496,81.687080 106.487885,83.309052 102.315994,84.883751 
	C104.338020,80.012306 109.012177,80.520111 113.670044,80.031311 
z"/>
<path fill="#29B184" opacity="1.000000" stroke="none" 
	d="
M80.003738,288.286133 
	C81.659637,291.674133 83.288910,295.489532 84.882187,299.673401 
	C80.421120,297.470093 80.245338,293.071960 80.003738,288.286133 
z"/>
<path fill="#29B184" opacity="1.000000" stroke="none" 
	d="
M85.050247,301.284973 
	C86.755646,303.971771 88.435768,307.068054 90.134377,310.527222 
	C85.514587,309.458221 85.357353,305.527496 85.050247,301.284973 
z"/>
<path fill="#29B184" opacity="1.000000" stroke="none" 
	d="
M90.785141,90.134705 
	C88.064209,92.139366 84.957817,94.118240 81.500778,96.128494 
	C82.287170,91.167984 86.809975,91.351616 90.785141,90.134705 
z"/>
<path fill="#29B184" opacity="1.000000" stroke="none" 
	d="
M316.957886,100.736786 
	C315.253265,98.042221 313.572845,94.936058 311.877441,91.466461 
	C316.478912,92.561638 316.652618,96.486641 316.957886,100.736786 
z"/>
<path fill="#29B184" opacity="1.000000" stroke="none" 
	d="
M77.004387,129.243073 
	C79.643295,130.708939 82.231964,132.489349 84.979584,134.570694 
	C81.919632,133.856155 76.607468,136.064621 77.004387,129.243073 
z"/>
<path fill="#29B184" opacity="1.000000" stroke="none" 
	d="
M221.873398,82.585442 
	C217.739761,81.528954 213.483459,80.152901 209.030396,78.453835 
	C213.139328,79.509178 217.445038,80.887527 221.873398,82.585442 
z"/>
<path fill="#29B184" opacity="1.000000" stroke="none" 
	d="
M100.756821,85.050148 
	C98.066208,86.762138 94.965210,88.446907 91.504143,90.157471 
	C92.689491,85.748940 96.495995,85.346748 100.756821,85.050148 
z"/>
<path fill="#29B184" opacity="1.000000" stroke="none" 
	d="
M321.951965,113.693069 
	C320.540558,110.724831 319.171783,107.329239 317.798065,103.559364 
	C322.445831,105.189812 321.521515,109.518982 321.951965,113.693069 
z"/>
<path fill="#29B184" opacity="1.000000" stroke="none" 
	d="
M99.088875,324.241913 
	C102.302414,325.650787 105.511086,327.438232 108.923424,329.513611 
	C104.897629,329.783752 100.436546,330.214966 99.088875,324.241913 
z"/>
<path fill="#29B184" opacity="1.000000" stroke="none" 
	d="
M310.881531,88.760429 
	C309.215973,86.706245 307.568298,84.266167 305.884827,81.476280 
	C310.190002,81.690735 309.966278,85.435684 310.881531,88.760429 
z"/>
<path fill="#29B184" opacity="1.000000" stroke="none" 
	d="
M91.124817,313.201050 
	C92.797882,315.269196 94.448296,317.718079 96.129364,320.517487 
	C94.474068,318.439240 92.788109,316.010498 91.124817,313.201050 
z"/>
<path fill="#29B184" opacity="1.000000" stroke="none" 
	d="
M85.794121,173.180664 
	C85.002228,175.986679 83.863342,178.869797 82.422043,181.944763 
	C83.228783,179.176987 84.337952,176.217377 85.794121,173.180664 
z"/>
<path fill="#29B184" opacity="1.000000" stroke="none" 
	d="
M81.816605,182.189255 
	C81.335968,184.643585 80.525810,187.189194 79.396393,189.926392 
	C79.880447,187.505493 80.683777,184.893021 81.816605,182.189255 
z"/>
<path fill="#29B184" opacity="1.000000" stroke="none" 
	d="
M89.776138,165.161224 
	C88.980743,167.636017 87.845123,170.198212 86.414795,172.946533 
	C87.225365,170.504669 88.330643,167.876648 89.776138,165.161224 
z"/>
<path fill="#29B184" opacity="1.000000" stroke="none" 
	d="
M324.916199,122.709442 
	C323.869080,120.350021 322.868958,117.581787 321.866455,114.427567 
	C322.897095,116.794586 323.930145,119.547607 324.916199,122.709442 
z"/>
<path fill="#29B184" opacity="1.000000" stroke="none" 
	d="
M129.166290,325.040588 
	C129.997818,323.665771 131.160675,322.323883 132.631012,320.838867 
	C133.036713,321.964813 133.134979,323.233917 133.277390,325.073517 
	C131.880997,325.073517 130.689316,325.073517 129.166290,325.040588 
z"/>
<path fill="#29B184" opacity="1.000000" stroke="none" 
	d="
M100.826141,147.207397 
	C100.028656,149.080643 98.877945,150.981583 97.405670,152.999237 
	C98.213715,151.155670 99.343323,149.195374 100.826141,147.207397 
z"/>
<path fill="#29B184" opacity="1.000000" stroke="none" 
	d="
M96.767204,153.129471 
	C96.023346,155.016632 94.924248,156.957718 93.523056,159.036957 
	C94.284630,157.177872 95.348297,155.180634 96.767204,153.129471 
z"/>
<path fill="#3DA484" opacity="1.000000" stroke="none" 
	d="
M142.111481,297.232697 
	C143.679703,297.977417 145.295334,299.077820 147.013428,300.482666 
	C145.463562,299.720856 143.811218,298.654633 142.111481,297.232697 
z"/>
<path fill="#29B184" opacity="1.000000" stroke="none" 
	d="
M103.870461,143.094879 
	C103.434929,144.358994 102.617752,145.639008 101.494446,147.043900 
	C101.955147,145.816116 102.721977,144.463440 103.870461,143.094879 
z"/>
<path fill="#3FA888" opacity="1.000000" stroke="none" 
	d="
M298.204498,258.836243 
	C298.631226,257.618744 299.409790,256.359985 300.492096,254.990646 
	C300.049347,256.185028 299.302826,257.489990 298.204498,258.836243 
z"/>
<path fill="#29B184" opacity="1.000000" stroke="none" 
	d="
M258.897095,103.876205 
	C257.898895,103.631874 256.850433,103.019478 255.640137,102.142532 
	C256.601135,102.421371 257.723999,102.964760 258.897095,103.876205 
z"/>
<path fill="#29B184" opacity="1.000000" stroke="none" 
	d="
M255.177277,101.205612 
	C254.101776,100.936096 253.093262,100.320923 251.976074,99.421455 
	C252.993027,99.711426 254.118622,100.285690 255.177277,101.205612 
z"/>
<path fill="#3DA484" opacity="1.000000" stroke="none" 
	d="
M111.092415,330.059143 
	C113.076637,330.004211 115.060867,329.949280 117.183044,330.172791 
	C116.187462,330.670929 115.053925,330.890686 113.920387,331.110443 
	C113.187843,331.098816 112.455307,331.087189 111.378372,330.810669 
	C111.033981,330.545837 111.092415,330.059143 111.092415,330.059143 
z"/>
<path fill="#29B184" opacity="1.000000" stroke="none" 
	d="
M114.219017,331.280396 
	C115.053925,330.890686 116.187462,330.670929 117.600693,330.256653 
	C118.071838,330.027679 118.263275,329.993195 118.737999,330.027527 
	C117.520073,330.547668 116.018860,330.998993 114.219017,331.280396 
z"/>
<path fill="#29B184" opacity="1.000000" stroke="none" 
	d="
M91.801414,161.213409 
	C91.655998,162.339630 91.171440,163.566574 90.387360,164.950623 
	C90.545975,163.843216 91.004128,162.578674 91.801414,161.213409 
z"/>
<path fill="#29B184" opacity="1.000000" stroke="none" 
	d="
M276.815765,74.116096 
	C276.347412,74.783394 275.531036,75.437988 274.383667,76.109100 
	C274.857697,75.451530 275.662720,74.777466 276.815765,74.116096 
z"/>
<path fill="#29B184" opacity="1.000000" stroke="none" 
	d="
M74.121780,125.177208 
	C74.777946,125.649368 75.417885,126.470406 76.090752,127.619125 
	C75.450974,127.139900 74.778267,126.332993 74.121780,125.177208 
z"/>
<path fill="#3FA888" opacity="1.000000" stroke="none" 
	d="
M307.165436,245.793121 
	C307.274811,244.957947 307.714996,244.044800 308.438354,243.010849 
	C308.313141,243.831741 307.904694,244.773438 307.165436,245.793121 
z"/>
<path fill="#3DA484" opacity="1.000000" stroke="none" 
	d="
M156.191986,307.192047 
	C157.005280,307.275513 157.902664,307.677795 158.912018,308.353516 
	C158.108032,308.254944 157.192062,307.882904 156.191986,307.192047 
z"/>
<path fill="#29B184" opacity="1.000000" stroke="none" 
	d="
M125.164825,327.929291 
	C125.654282,327.278046 126.498650,326.630402 127.666588,325.909149 
	C127.166679,326.534668 126.343201,327.233795 125.164825,327.929291 
z"/>
<path fill="#3FA888" opacity="1.000000" stroke="none" 
	d="
M303.172058,251.785324 
	C303.337280,250.942627 303.831635,250.020386 304.625244,248.987946 
	C304.450043,249.820404 303.975616,250.763092 303.172058,251.785324 
z"/>
<path fill="#29B184" opacity="1.000000" stroke="none" 
	d="
M110.778839,329.982544 
	C111.092415,330.059143 111.033981,330.545837 111.012581,330.790222 
	C110.394882,330.801605 109.798584,330.568604 109.194237,330.091248 
	C109.612549,329.866577 110.038902,329.886261 110.778839,329.982544 
z"/>
<path fill="#29B184" opacity="1.000000" stroke="none" 
	d="
M119.505142,330.083160 
	C119.928825,329.694427 120.659454,329.322144 121.705429,329.034943 
	C121.284538,329.446564 120.548309,329.773102 119.505142,330.083160 
z"/>
<path fill="#29B184" opacity="1.000000" stroke="none" 
	d="
M116.755341,79.049774 
	C116.301529,79.425507 115.506096,79.774178 114.358047,80.119598 
	C114.808189,79.751808 115.610954,79.387260 116.755341,79.049774 
z"/>
<path fill="#29B184" opacity="1.000000" stroke="none" 
	d="
M311.859467,90.828522 
	C311.538391,90.661598 311.187744,90.194405 310.826080,89.407471 
	C311.153320,89.567909 311.491638,90.048073 311.859467,90.828522 
z"/>
<path fill="#3FA888" opacity="1.000000" stroke="none" 
	d="
M305.102112,248.815460 
	C305.088623,248.457794 305.326782,247.943069 305.797852,247.259338 
	C305.805054,247.613022 305.579376,248.135696 305.102112,248.815460 
z"/>
<path fill="#3FA888" opacity="1.000000" stroke="none" 
	d="
M301.107147,254.640472 
	C301.039856,254.236633 301.215363,253.681564 301.677429,253.021606 
	C301.759338,253.440887 301.554626,253.965042 301.107147,254.640472 
z"/>
<path fill="#3DA484" opacity="1.000000" stroke="none" 
	d="
M140.126099,295.150421 
	C140.322601,295.087677 140.636490,295.263702 141.032257,295.707306 
	C140.823914,295.779663 140.533691,295.584442 140.126099,295.150421 
z"/>
<path fill="#3DA484" opacity="1.000000" stroke="none" 
	d="
M141.139069,296.124695 
	C141.339050,296.061340 141.656326,296.239136 142.052841,296.686096 
	C141.840149,296.758820 141.548248,296.562347 141.139069,296.124695 
z"/>
<path fill="#3DA484" opacity="1.000000" stroke="none" 
	d="
M133.858978,297.909058 
	C133.634003,297.932373 133.358093,297.713318 133.113007,297.219574 
	C133.441391,297.115448 133.662781,297.356049 133.858978,297.909058 
z"/>
<path fill="#29B184" opacity="1.000000" stroke="none" 
	d="
M123.060989,328.864410 
	C123.048996,328.644653 123.284058,328.355865 123.808533,328.107727 
	C123.834648,328.364044 123.571342,328.579712 123.060989,328.864410 
z"/>
<path fill="#29B184" opacity="1.000000" stroke="none" 
	d="
M98.149063,323.140869 
	C98.337486,323.076202 98.662064,323.237061 99.072327,323.667603 
	C98.867088,323.747009 98.576157,323.556702 98.149063,323.140869 
z"/>
<path fill="#29B184" opacity="1.000000" stroke="none" 
	d="
M97.144638,322.118286 
	C97.339653,322.066956 97.644279,322.255920 98.018295,322.712769 
	C97.809868,322.773285 97.532059,322.565918 97.144638,322.118286 
z"/>
<path fill="#3DA484" opacity="1.000000" stroke="none" 
	d="
M134.790802,299.847504 
	C134.572403,299.863617 134.322495,299.651001 134.119629,299.178772 
	C134.442703,299.085938 134.640244,299.319153 134.790802,299.847504 
z"/>
<path fill="#29B184" opacity="1.000000" stroke="none" 
	d="
M304.855469,79.859146 
	C304.664368,79.913460 304.352234,79.723732 303.946899,79.266998 
	C304.147278,79.205025 304.440826,79.410065 304.855469,79.859146 
z"/>
<path fill="#3DA484" opacity="1.000000" stroke="none" 
	d="
M135.315247,302.108521 
	C134.993790,302.101776 134.889664,301.832733 135.009811,301.304016 
	C135.321838,301.318024 135.421341,301.585297 135.315247,302.108521 
z"/>
<path fill="#3DA484" opacity="1.000000" stroke="none" 
	d="
M148.135406,301.321350 
	C148.317657,301.221069 148.642105,301.315369 149.047668,301.671814 
	C148.792892,301.900879 148.509155,301.761566 148.135406,301.321350 
z"/>
<path fill="#29B184" opacity="1.000000" stroke="none" 
	d="
M96.226265,321.065094 
	C96.412674,321.030487 96.706619,321.233429 97.057480,321.709229 
	C96.854202,321.755646 96.594002,321.529144 96.226265,321.065094 
z"/>
<path fill="#29B184" opacity="1.000000" stroke="none" 
	d="
M305.780457,80.923798 
	C305.593170,80.959564 305.300049,80.759460 304.955109,80.285828 
	C305.160431,80.237503 305.417542,80.462715 305.780457,80.923798 
z"/>
<path fill="#3DA484" opacity="1.000000" stroke="none" 
	d="
M149.166168,302.095673 
	C149.358124,302.031921 149.663757,302.202087 150.052521,302.628662 
	C149.850388,302.699890 149.565109,302.514771 149.166168,302.095673 
z"/>
<path fill="#29B184" opacity="1.000000" stroke="none" 
	d="
M133.319107,319.964417 
	C133.211426,319.780731 133.293610,319.406586 133.654053,318.916626 
	C133.791183,319.125183 133.650085,319.449585 133.319107,319.964417 
z"/>
<path fill="#3DA484" opacity="1.000000" stroke="none" 
	d="
M152.194748,304.175232 
	C152.376297,304.103638 152.678055,304.243164 153.054321,304.636292 
	C152.798126,304.818024 152.526840,304.650177 152.194748,304.175232 
z"/>
<path fill="#3DA484" opacity="1.000000" stroke="none" 
	d="
M153.244568,305.078674 
	C153.430069,304.978760 153.758301,305.095001 154.203537,305.444794 
	C154.009445,305.550537 153.698349,305.422699 153.244568,305.078674 
z"/>
<path fill="#3DA484" opacity="1.000000" stroke="none" 
	d="
M155.173309,306.241241 
	C155.360016,306.150421 155.674103,306.262390 156.058060,306.634369 
	C155.796539,306.846466 155.520798,306.696320 155.173309,306.241241 
z"/>
<path fill="#3DA484" opacity="1.000000" stroke="none" 
	d="
M134.279968,317.842590 
	C134.175934,317.668091 134.255432,317.344971 134.591232,316.936218 
	C134.820251,317.177521 134.692245,317.458679 134.279968,317.842590 
z"/>
<path fill="#29B184" opacity="1.000000" stroke="none" 
	d="
M90.175919,311.068817 
	C90.389496,311.040894 90.677574,311.241425 90.936165,311.714905 
	C90.627518,311.815033 90.408760,311.584869 90.175919,311.068817 
z"/>
<path fill="#3FA888" opacity="1.000000" stroke="none" 
	d="
M297.094330,259.845825 
	C297.023834,259.645477 297.187897,259.323700 297.619110,258.925537 
	C297.700470,259.140869 297.514679,259.432617 297.094330,259.845825 
z"/>
<path fill="#29B184" opacity="1.000000" stroke="none" 
	d="
M317.762115,102.966888 
	C317.544342,102.972054 317.276489,102.739998 317.069763,102.233589 
	C317.387604,102.168564 317.581299,102.425369 317.762115,102.966888 
z"/>
<path fill="#29B184" opacity="1.000000" stroke="none" 
	d="
M260.856140,105.845032 
	C260.664795,105.902733 260.344879,105.724564 259.939636,105.275612 
	C260.145416,105.206276 260.436462,105.407722 260.856140,105.845032 
z"/>
<path fill="#29B184" opacity="1.000000" stroke="none" 
	d="
M261.872131,106.825500 
	C261.681824,106.884941 261.372955,106.716576 260.992188,106.283714 
	C261.198029,106.212044 261.475800,106.404869 261.872131,106.825500 
z"/>
<path fill="#29B184" opacity="1.000000" stroke="none" 
	d="
M262.943176,107.684090 
	C262.759674,107.771980 262.430725,107.660660 262.024750,107.281960 
	C262.282318,107.078659 262.565643,107.235428 262.943176,107.684090 
z"/>
<path fill="#29B184" opacity="1.000000" stroke="none" 
	d="
M264.793152,108.945770 
	C264.607422,109.010712 264.278290,108.851982 263.856903,108.429131 
	C264.059662,108.350708 264.354736,108.536407 264.793152,108.945770 
z"/>
<path fill="#29B184" opacity="1.000000" stroke="none" 
	d="
M76.149185,128.110931 
	C76.343536,128.060944 76.653076,128.246918 77.023514,128.707825 
	C76.811066,128.770798 76.537720,128.558838 76.149185,128.110931 
z"/>
<path fill="#29B184" opacity="1.000000" stroke="none" 
	d="
M79.882828,97.157730 
	C79.934265,97.346954 79.739876,97.662544 79.276794,98.076767 
	C79.217735,97.878296 79.427376,97.581192 79.882828,97.157730 
z"/>
<path fill="#29B184" opacity="1.000000" stroke="none" 
	d="
M80.932884,96.244812 
	C80.966835,96.429947 80.764160,96.718781 80.290314,97.063522 
	C80.244850,96.862457 80.470551,96.605484 80.932884,96.244812 
z"/>
<path fill="#29B184" opacity="1.000000" stroke="none" 
	d="
M105.902191,141.162811 
	C105.951073,141.352081 105.759857,141.667908 105.297638,142.068710 
	C105.238457,141.865585 105.450279,141.577469 105.902191,141.162811 
z"/>
<path fill="#29B184" opacity="1.000000" stroke="none" 
	d="
M92.738861,160.211090 
	C92.820221,160.380386 92.715149,160.686691 92.357811,161.069748 
	C92.169945,160.833008 92.318901,160.566879 92.738861,160.211090 
z"/>
<path fill="#29B184" opacity="1.000000" stroke="none" 
	d="
M78.648361,192.102859 
	C78.765015,192.276566 78.707695,192.643997 78.375328,193.133377 
	C78.224983,192.935745 78.349686,192.616165 78.648361,192.102859 
z"/>
<path fill="#3FA888" opacity="1.000000" stroke="none" 
	d="
M310.329224,239.984634 
	C310.202118,239.799362 310.263519,239.429886 310.599670,238.944153 
	C310.755524,239.152084 310.636658,239.476257 310.329224,239.984634 
z"/>
<path fill="#3FA888" opacity="1.000000" stroke="none" 
	d="
M309.289551,241.775665 
	C309.197571,241.597305 309.299927,241.296280 309.647522,240.922363 
	C309.865295,241.172745 309.728973,241.440567 309.289551,241.775665 
z"/>
<path fill="#3FA888" opacity="1.000000" stroke="none" 
	d="
M306.252991,246.862671 
	C306.153564,246.679230 306.254852,246.348679 306.615479,245.924698 
	C306.841644,246.177109 306.701263,246.471863 306.252991,246.862671 
z"/>
<path fill="#3FA888" opacity="1.000000" stroke="none" 
	d="
M302.137360,252.861786 
	C302.055664,252.665375 302.202332,252.341339 302.608948,251.927734 
	C302.701141,252.136826 302.533447,252.435501 302.137360,252.861786 
z"/>
<path fill="#3DA484" opacity="1.000000" stroke="none" 
	d="
M132.781311,295.928345 
	C132.576996,295.973663 132.285126,295.792450 131.978592,295.344299 
	C132.270096,295.212036 132.513367,295.420166 132.781311,295.928345 
z"/>
<path fill="#3FA888" opacity="1.000000" stroke="none" 
	d="
M296.105377,260.847778 
	C296.045898,260.647675 296.235962,260.340668 296.690826,259.946716 
	C296.755402,260.153473 296.555176,260.447174 296.105377,260.847778 
z"/>
<path fill="#3FA888" opacity="1.000000" stroke="none" 
	d="
M295.145752,261.866119 
	C295.076447,261.665192 295.244354,261.342316 295.684692,260.940552 
	C295.765717,261.155853 295.574341,261.450012 295.145752,261.866119 
z"/>
<path fill="#3FA888" opacity="1.000000" stroke="none" 
	d="
M294.310242,262.913574 
	C294.211304,262.719971 294.324615,262.393860 294.705597,261.988983 
	C294.822998,262.200531 294.672729,262.490784 294.310242,262.913574 
z"/>
<path fill="#3FA888" opacity="1.000000" stroke="none" 
	d="
M293.053284,264.750031 
	C292.836029,264.497467 292.970093,264.212280 293.479736,263.933929 
	C293.666779,264.193115 293.516510,264.451965 293.053284,264.750031 
z"/>
<path fill="#3FA888" opacity="1.000000" stroke="none" 
	d="
M292.067841,265.798828 
	C292.003265,265.605072 292.174744,265.310730 292.594177,264.934265 
	C292.662750,265.134186 292.483337,265.416229 292.067841,265.798828 
z"/>
<path fill="#3FA888" opacity="1.000000" stroke="none" 
	d="
M291.071259,266.774353 
	C291.012146,266.574432 291.192596,266.273041 291.637268,265.904144 
	C291.704590,266.115356 291.507721,266.394135 291.071259,266.774353 
z"/>
<path fill="#29B184" opacity="1.000000" stroke="none" 
	d="
M223.947388,83.627060 
	C223.777817,83.744606 223.419830,83.682373 222.927338,83.361816 
	C223.114883,83.218102 223.436920,83.332695 223.947388,83.627060 
z"/>
<path fill="#3FA888" opacity="1.000000" stroke="none" 
	d="
M299.936249,267.161713 
	C299.949310,267.400269 299.707886,267.691284 299.174591,267.925934 
	C299.149048,267.651093 299.415405,267.432617 299.936249,267.161713 
z"/>
<path fill="#3FA888" opacity="1.000000" stroke="none" 
	d="
M297.932678,268.132202 
	C297.959991,268.368347 297.737732,268.664307 297.227600,268.923340 
	C297.187469,268.654938 297.435272,268.423492 297.932678,268.132202 
z"/>
<path fill="#3FA888" opacity="1.000000" stroke="none" 
	d="
M295.906708,269.246704 
	C295.955475,269.442719 295.772217,269.727051 295.328278,270.057983 
	C295.179016,269.776306 295.381409,269.519775 295.906708,269.246704 
z"/>
<path fill="#3DA484" opacity="1.000000" stroke="none" 
	d="
M135.220276,291.081543 
	C135.410965,291.028168 135.706573,291.210602 136.077347,291.651184 
	C135.876740,291.712006 135.600983,291.514679 135.220276,291.081543 
z"/>
<path fill="#3DA484" opacity="1.000000" stroke="none" 
	d="
M136.199387,292.071167 
	C136.387054,292.004333 136.684250,292.162170 137.060303,292.564453 
	C136.796249,292.745026 136.519516,292.574005 136.199387,292.071167 
z"/>
<path fill="#3DA484" opacity="1.000000" stroke="none" 
	d="
M137.281677,293.048645 
	C137.522079,292.836700 137.796219,292.958832 138.063446,293.439697 
	C137.814255,293.623352 137.567215,293.484802 137.281677,293.048645 
z"/>
<path fill="#3DA484" opacity="1.000000" stroke="none" 
	d="
M139.095673,294.310486 
	C139.287689,294.215973 139.609039,294.333252 140.007843,294.715271 
	C139.739273,294.938782 139.452499,294.786224 139.095673,294.310486 
z"/>
<path fill="#05C180" opacity="1.000000" stroke="none" 
	d="
M201.973892,135.963593 
	C231.582550,135.404037 259.597748,157.702377 265.097931,188.485367 
	C271.821533,226.115356 248.509567,260.128448 210.770630,265.654907 
	C174.431870,270.976288 143.637802,248.307098 137.041260,213.784058 
	C130.172180,177.834686 151.185287,146.504105 185.214279,137.511002 
	C190.411758,136.137405 196.051468,136.437103 201.973892,135.963593 
M193.036102,223.536636 
	C199.423416,229.771057 202.787537,229.781921 208.947083,223.606354 
	C214.357605,218.181763 219.859283,212.845123 225.166946,207.321884 
	C229.242615,203.080688 229.174713,198.870193 225.062622,194.653290 
	C219.248840,188.691254 213.366592,182.793350 207.409744,176.974365 
	C203.047607,172.713181 198.847870,172.802734 194.413956,177.153412 
	C188.707657,182.752594 183.056000,188.408173 177.427780,194.086029 
	C172.686447,198.869186 172.663116,203.094177 177.342773,207.824768 
	C182.379150,212.915970 187.473846,217.949463 193.036102,223.536636 
z"/>
<path fill="#F6FEFD" opacity="1.000000" stroke="none" 
	d="
M192.789597,223.272385 
	C187.473846,217.949463 182.379150,212.915970 177.342773,207.824768 
	C172.663116,203.094177 172.686447,198.869186 177.427780,194.086029 
	C183.056000,188.408173 188.707657,182.752594 194.413956,177.153412 
	C198.847870,172.802734 203.047607,172.713181 207.409744,176.974365 
	C213.366592,182.793350 219.248840,188.691254 225.062622,194.653290 
	C229.174713,198.870193 229.242615,203.080688 225.166946,207.321884 
	C219.859283,212.845123 214.357605,218.181763 208.947083,223.606354 
	C202.787537,229.781921 199.423416,229.771057 192.789597,223.272385 
z"/>
</svg>