<?xml version="1.0" encoding="UTF-8"?>
<svg version="1.1" xmlns="http://www.w3.org/2000/svg" width="512" height="512">
<path d="M0 0 C168.96 0 337.92 0 512 0 C512 168.96 512 337.92 512 512 C343.04 512 174.08 512 0 512 C0 343.04 0 174.08 0 0 Z " fill="#04010A" transform="translate(0,0)"/>
<path d="M0 0 C-0.24363281 1.46373047 -0.24363281 1.46373047 -0.4921875 2.95703125 C-1.42996619 9.55296231 -1.15325359 16.22500871 -1.03710938 22.87011719 C-1.0067296 24.61375625 -0.9931603 26.35768093 -0.984375 28.1015625 C-0.46415949 40.99547545 4.54586025 53.71056269 8.61035156 65.85229492 C8.9561174 66.88729252 8.9561174 66.88729252 9.30886841 67.94319916 C9.8721102 69.62895612 10.43598946 71.31450008 11 73 C12.24261581 73.02180911 12.24261581 73.02180911 13.51033497 73.0440588 C33.84321664 73.40105373 54.17605927 73.76020587 74.5088625 74.12164211 C84.34239771 74.2963933 94.17594402 74.47046366 104.00952148 74.64282227 C112.59917324 74.79337973 121.18879924 74.94532548 129.77839917 75.09881264 C134.3094928 75.17973337 138.84059502 75.26004475 143.3717289 75.33868217 C166.5864557 75.74210906 189.79279146 76.28160083 213 77 C211.23291016 80.85498047 211.23291016 80.85498047 209.13671875 82.16015625 C187.58506961 90.10023751 161.64412852 90.15418538 138.88671875 91.109375 C137.90278326 91.15124687 136.91884777 91.19311874 135.90509605 91.23625946 C103.0520572 92.57815928 70.14903193 92.30803881 37.27539837 92.26114702 C30.63944884 92.25168345 24.0035093 92.24701339 17.36755371 92.24462891 C-45.10651297 92.21782993 -107.54423104 91.59096911 -170 90 C-164.20509434 84.03970787 -157.36519942 82.59486519 -149.375 81 C-148.53743164 80.83266357 -147.69986328 80.66532715 -146.83691406 80.49291992 C-134.0155414 78.09091517 -120.98433232 77.10273636 -108 76 C-107.18015625 75.92652344 -106.3603125 75.85304688 -105.515625 75.77734375 C-92.37738795 74.61663484 -79.1761577 74.90196311 -66 75 C-65.85828369 74.24114502 -65.71656738 73.48229004 -65.57055664 72.70043945 C-60.44478522 48.44020937 -43.0212594 21.03464869 -23 7 C-15.77351791 2.68520997 -8.55800202 -0.41746351 0 0 Z " fill="#C96DA0" transform="translate(229,246)"/>
<path d="M0 0 C5.12285234 -0.0745935 10.24538304 -0.12881017 15.36865234 -0.16479492 C17.10861728 -0.17980854 18.84854484 -0.20022577 20.58837891 -0.22631836 C23.1006802 -0.26303107 25.6124778 -0.27980069 28.125 -0.29296875 C29.27705933 -0.31619453 29.27705933 -0.31619453 30.45239258 -0.33988953 C39.31656998 -0.3426032 45.56182137 2.77371928 52.015625 8.8046875 C58.03870712 15.4680185 59.3644733 22.86517009 59.27734375 31.578125 C58.32486047 43.32989048 50.85059984 51.86924342 42.234375 59.2421875 C34.79909768 65.09161896 27.66429436 67.31923158 18.3203125 67.1953125 C17.50754852 67.1924826 16.69478455 67.18965271 15.85739136 67.18673706 C13.27977325 67.17560619 10.70251181 67.15051515 8.125 67.125 C6.36979671 67.11496101 4.61458794 67.10583677 2.859375 67.09765625 C-1.42721926 67.07569015 -5.7135493 67.04120978 -10 67 C-10.0270043 65.54176788 -10.04639787 64.08339325 -10.0625 62.625 C-10.07410156 61.81289062 -10.08570313 61.00078125 -10.09765625 60.1640625 C-10 58 -10 58 -9 56 C-8.54834609 52.93912926 -8.13807922 49.88158242 -7.75 46.8125 C-6.45575531 36.9512284 -4.95606071 27.1309442 -3.375 17.3125 C-3.26490601 16.62266022 -3.15481201 15.93282043 -3.04138184 15.22207642 C-2.72581504 13.24784327 -2.40596035 11.27429697 -2.0859375 9.30078125 C-1.9007959 8.15778564 -1.7156543 7.01479004 -1.52490234 5.8371582 C-1 3 -1 3 0 0 Z " fill="#F9F9F9" transform="translate(298,175)"/>
<path d="M0 0 C5.55194953 4.28634383 8.80783818 10.12663954 11.00390625 16.71484375 C12.04245482 29.80736586 9.21247071 39.4827727 1.00390625 49.71484375 C-6.25015442 57.65202224 -16.225293 63.09358707 -26.9765625 63.953125 C-36.80269595 64.18052638 -44.05286755 62.81136108 -51.37109375 55.96484375 C-56.53224889 50.73780152 -59.45957293 44.6638864 -59.70532227 37.32202148 C-59.69815186 36.58540283 -59.69098145 35.84878418 -59.68359375 35.08984375 C-59.67706787 34.3100415 -59.67054199 33.53023926 -59.66381836 32.72680664 C-59.21011973 21.59129126 -53.81941866 12.20650983 -45.66796875 4.6875 C-31.91039069 -5.4697762 -15.19244734 -9.7814387 0 0 Z " fill="#FAFAFA" transform="translate(229.99609375,179.28515625)"/>
<path d="M0 0 C5.90910054 4.22224658 10.66904116 9.00712349 13 16 C13.90785838 27.91888363 13.39847489 37.9614821 5.83984375 47.81640625 C0.86297487 53.5244345 -4.21642737 58.33324185 -11.0625 61.6875 C-11.89910156 62.10386719 -12.73570312 62.52023437 -13.59765625 62.94921875 C-20.8506445 66.12166402 -30.04882671 66.1877092 -37.703125 64.3515625 C-45.26479501 61.25815204 -51.20631572 56.18386324 -55 48.9375 C-58.49405892 40.26177547 -58.28648891 31.45807777 -55 22.75 C-49.29765354 10.75430759 -40.60224949 2.23739635 -28.125 -2.4375 C-18.27850373 -5.35357774 -9.02052003 -5.17844668 0 0 Z " fill="#FAFAFA" transform="translate(372,249)"/>
<path d="M0 0 C6.93 0 13.86 0 21 0 C22.588125 3.01125 24.17625 6.0225 25.8125 9.125 C26.55463745 10.53096436 26.55463745 10.53096436 27.31176758 11.96533203 C27.71032959 12.72185059 28.1088916 13.47836914 28.51953125 14.2578125 C29.12438354 15.40467529 29.12438354 15.40467529 29.74145508 16.57470703 C31.19087249 19.36782295 32.5927113 22.18542261 34 25 C35.65 16.75 37.3 8.5 39 0 C45.93 0 52.86 0 60 0 C59.19642857 11.65178571 59.19642857 11.65178571 58.0625 16.25 C56.71041407 21.73846735 56.18553529 27.3301824 55.5625 32.9375 C55.2109331 35.77800862 54.68744506 38.52116919 54.0390625 41.30859375 C52.8326406 46.51814285 52.09747363 51.76758413 51.375 57.0625 C50.92125 60.341875 50.4675 63.62125 50 67 C42.74 67 35.48 67 28 67 C24.04 58.75 20.08 50.5 16 42 C14.52534239 45.68664403 13.68281263 48.09836556 13.1484375 51.86328125 C13.03161621 52.66290283 12.91479492 53.46252441 12.79443359 54.28637695 C12.58681396 55.78430786 12.58681396 55.78430786 12.375 57.3125 C11.92125 60.509375 11.4675 63.70625 11 67 C4.07 67 -2.86 67 -10 67 C-9.61855529 60.21028424 -9.04027428 53.71651208 -7.625 47.0625 C-6.28814812 40.77410449 -5.33071189 34.49927443 -4.5 28.125 C-3.26897 18.68764788 -1.72423529 9.36013445 0 0 Z " fill="#F9F9F9" transform="translate(392,246)"/>
<path d="M0 0 C6.93 0 13.86 0 21 0 C21 9 21 9 20.34375 12.0625 C20.22193359 12.65160156 20.10011719 13.24070313 19.97460938 13.84765625 C19.81798828 14.55792969 19.66136719 15.26820313 19.5 16 C19.005 18.31 18.51 20.62 18 23 C23.61 23 29.22 23 35 23 C34.95875 21.7625 34.9175 20.525 34.875 19.25 C34.86514704 13.05248969 35.19431246 5.61137507 38 0 C44.93 0 51.86 0 59 0 C58.36436826 5.08505392 57.72788434 10.16888325 57.0625 15.25 C56.83240234 17.02117187 56.83240234 17.02117187 56.59765625 18.828125 C56.00945187 23.0948569 55.28549677 27.33679507 54.56860352 31.58349609 C53.94034165 35.35846242 53.34079292 39.13761228 52.74609375 42.91796875 C52.5294151 44.28712809 52.31261754 45.65626862 52.09570312 47.02539062 C51.76232811 49.12964976 51.43023359 51.23407373 51.10180664 53.33911133 C50.7786452 55.40767503 50.45036881 57.47537066 50.12109375 59.54296875 C49.83383423 61.3686438 49.83383423 61.3686438 49.54077148 63.23120117 C49 66 49 66 48 67 C46.43827255 67.08685603 44.87270656 67.10702219 43.30859375 67.09765625 C42.36435547 67.09443359 41.42011719 67.09121094 40.44726562 67.08789062 C39.45404297 67.07951172 38.46082031 67.07113281 37.4375 67.0625 C36.44041016 67.05798828 35.44332031 67.05347656 34.41601562 67.04882812 C31.94395151 67.03700007 29.47200482 67.02051849 27 67 C27.31094086 64.45813394 27.62370536 61.91651402 27.9375 59.375 C28.02451172 58.66214844 28.11152344 57.94929688 28.20117188 57.21484375 C28.28818359 56.51230469 28.37519531 55.80976563 28.46484375 55.0859375 C28.58267212 54.1276001 28.58267212 54.1276001 28.70288086 53.14990234 C29.07946915 50.42497507 29.54776688 47.71339871 30 45 C24.72 44.67 19.44 44.34 14 44 C13.86722656 45.40894531 13.73445313 46.81789062 13.59765625 48.26953125 C13.41945419 50.11720519 13.24105872 51.96486049 13.0625 53.8125 C12.97548828 54.74126953 12.88847656 55.67003906 12.79882812 56.62695312 C12.71181641 57.51962891 12.62480469 58.41230469 12.53515625 59.33203125 C12.41732788 60.56530151 12.41732788 60.56530151 12.29711914 61.82348633 C12 64 12 64 11 67 C4.07 67 -2.86 67 -10 67 C-9.35047647 59.02013948 -8.36419811 51.15851784 -7.125 43.25 C-6.94791504 42.10619873 -6.77083008 40.96239746 -6.58837891 39.78393555 C-5.46124586 32.61510513 -4.15714745 25.52235787 -2.66015625 18.421875 C-1.48238374 12.31697134 -0.76386876 6.16970922 0 0 Z " fill="#F8F8F8" transform="translate(115,175)"/>
<path d="M0 0 C0.99 0.474375 1.98 0.94875 3 1.4375 C6.41595301 5.81418979 5.48469773 10.66832499 5 16 C4.44902907 20.35683739 3.78063321 24.6786376 3 29 C2.34 29 1.68 29 1 29 C0.443125 28.0925 -0.11375 27.185 -0.6875 26.25 C-3.84691484 21.80974131 -7.16251524 19.53767625 -12.453125 18.53515625 C-14.63825513 18.28434729 -16.80322737 18.09962688 -19 18 C-16.46187938 20.96697548 -13.65097026 22.21658079 -10.125 23.8125 C-4.31911182 26.62768883 -0.92166985 29.1566603 2 35 C2.69576608 43.8174971 1.85464165 50.39778135 -3.5 57.625 C-8.48762277 63.02724178 -14.50438372 65.54977926 -21.73046875 66.48046875 C-29.6557799 66.77458762 -35.70799681 66.03076832 -42 61 C-42.57621094 60.608125 -43.15242188 60.21625 -43.74609375 59.8125 C-45.78635073 56.8633435 -45.12689376 53.72525011 -44.8125 50.3125 C-44.75715088 49.59513672 -44.70180176 48.87777344 -44.64477539 48.13867188 C-44.22756455 43.25846861 -43.46438235 38.68602351 -42 34 C-41.278125 34.7425 -40.55625 35.485 -39.8125 36.25 C-34.53438733 41.78474071 -34.53438733 41.78474071 -27.6171875 44.09765625 C-26.71226563 44.08605469 -25.80734375 44.07445312 -24.875 44.0625 C-23.96492188 44.05347656 -23.05484375 44.04445313 -22.1171875 44.03515625 C-21.41851562 44.02355469 -20.71984375 44.01195312 -20 44 C-21.44632813 43.32904297 -21.44632813 43.32904297 -22.921875 42.64453125 C-24.19822973 42.03450877 -25.47425417 41.42379487 -26.75 40.8125 C-27.38421875 40.52052734 -28.0184375 40.22855469 -28.671875 39.92773438 C-34.10765434 37.29477876 -37.79887343 33.76538737 -40 28 C-40.79638025 21.33936521 -40.3604379 14.89763598 -37 9 C-27.53944284 -2.30010995 -13.57192151 -6.83110019 0 0 Z " fill="#F8F8F9" transform="translate(122,248)"/>
<path d="M0 0 C18.81 0 37.62 0 57 0 C56.12105744 7.0315405 55.09364289 14.00068551 54 21 C48.06 21 42.12 21 36 21 C35.81244141 23.31644531 35.81244141 23.31644531 35.62109375 25.6796875 C35.02664797 32.2050097 34.07581716 38.65333128 33.0625 45.125 C32.80823242 46.79755859 32.80823242 46.79755859 32.54882812 48.50390625 C31.57975287 54.76052138 30.37899397 60.79452712 29 67 C22.07 67 15.14 67 8 67 C8.7734375 55.78515625 8.7734375 55.78515625 9.94140625 50.80078125 C11.18265518 45.45381938 11.87229657 40.06628628 12.5625 34.625 C12.81112581 32.67934364 13.06231226 30.73401229 13.31640625 28.7890625 C13.42412354 27.94037598 13.53184082 27.09168945 13.64282227 26.21728516 C14 24 14 24 15 21 C9.06 21 3.12 21 -3 21 C-2.43918921 13.70945979 -1.45529854 7.27649269 0 0 Z " fill="#F7F7F7" transform="translate(131,246)"/>
<path d="M0 0 C18.81 0 37.62 0 57 0 C57 4.83151154 56.87083562 8.66899538 56.0625 13.3125 C55.88847656 14.33988281 55.71445312 15.36726563 55.53515625 16.42578125 C55 19 55 19 54 21 C48.06 21 42.12 21 36 21 C35.9175 22.69125 35.835 24.3825 35.75 26.125 C35.1961244 33.53715872 33.86977584 40.75091539 32.45996094 48.04345703 C31.62868419 52.37464196 30.88658817 56.65773982 30.4375 61.046875 C30 65 30 65 29 67 C22.07 67 15.14 67 8 67 C8.45317406 63.35345938 8.91238154 59.7078445 9.375 56.0625 C9.50132812 55.04091797 9.62765625 54.01933594 9.7578125 52.96679688 C10.44546388 47.5859248 11.29678059 42.33654801 12.54052734 37.05688477 C13.25124488 33.875272 13.6861492 30.666188 14.125 27.4375 C14.558125 24.2509375 14.558125 24.2509375 15 21 C9.06 21 3.12 21 -3 21 C-2.01 14.07 -1.02 7.14 0 0 Z " fill="#F8F8F8" transform="translate(237,246)"/>
<path d="M0 0 C6.93 0 13.86 0 21 0 C20.57885048 6.6682008 20.14596435 13.01706562 18.53515625 19.49609375 C17.57881819 23.97063897 17.11097681 28.51896874 16.5625 33.05859375 C15.89493546 37.73618136 14.92664549 42.36677257 14 47 C22.58 47 31.16 47 40 47 C39.25 60.25 39.25 60.25 37 67 C21.49 67 5.98 67 -10 67 C-7.7321157 44.32115704 -7.7321157 44.32115704 -6.0625 36.625 C-4.33465996 28.15591064 -3.0446913 19.67918674 -1.95141602 11.10595703 C-1.83983154 10.23438965 -1.72824707 9.36282227 -1.61328125 8.46484375 C-1.51829346 7.697771 -1.42330566 6.93069824 -1.32543945 6.14038086 C-1.01067959 4.07023854 -0.50785379 2.03141515 0 0 Z " fill="#F9F9F9" transform="translate(248,175)"/>
<path d="M0 0 C6.93 0 13.86 0 21 0 C20.0709979 7.43201677 19.03706236 14.84084528 17.953125 22.25097656 C17.73649564 23.73579031 17.52129729 25.22081364 17.30761719 26.70605469 C15.97561297 35.96410256 14.46961392 45.15623415 12.66162109 54.33398438 C12.17369204 57.03757945 11.78614489 59.67674019 11.47509766 62.40039062 C11 66 11 66 10 67 C8.43827255 67.08685603 6.87270656 67.10702219 5.30859375 67.09765625 C4.36435547 67.09443359 3.42011719 67.09121094 2.44726562 67.08789062 C1.45404297 67.07951172 0.46082031 67.07113281 -0.5625 67.0625 C-1.55958984 67.05798828 -2.55667969 67.05347656 -3.58398438 67.04882812 C-6.05604849 67.03700007 -8.52799518 67.02051849 -11 67 C-9.35747918 53.79306427 -7.27759964 40.73885884 -4.77563477 27.66699219 C-3.33213835 20.04409554 -2.17566525 12.46003662 -1.359375 4.74609375 C-1 2 -1 2 0 0 Z " fill="#F8F8F8" transform="translate(297,246)"/>
<path d="M0 0 C2.15987564 3.23981345 2.21791718 3.91157383 2.0546875 7.60546875 C2.01794922 8.95801758 2.01794922 8.95801758 1.98046875 10.33789062 C1.91086674 12.21843375 1.8329157 14.09868881 1.74609375 15.97851562 C1.56577521 23.45112793 3.22295179 28.15910745 7.5703125 34.171875 C12.12839968 38.79867706 16.85246608 41.00854535 23 43 C22 45 22 45 20.29290771 45.61790466 C17.59563165 46.06738486 15.04916692 46.1195778 12.31347656 46.11352539 C11.17259583 46.11344986 10.03171509 46.11337433 8.85626221 46.11329651 C7.63010193 46.10813522 6.40394165 46.10297394 5.140625 46.09765625 C3.88111023 46.0962413 2.62159546 46.09482635 1.32391357 46.09336853 C-2.01665119 46.08872073 -5.35714721 46.07974281 -8.69769287 46.06866455 C-12.1096538 46.05841598 -15.52162185 46.05386354 -18.93359375 46.04882812 C-25.6224148 46.03779963 -32.31120343 46.02106189 -39 46 C-39.06597885 46.75114578 -39.1319577 47.50229156 -39.19993591 48.27619934 C-39.28791946 49.26375717 -39.37590302 50.251315 -39.46655273 51.26879883 C-39.55315659 52.24681961 -39.63976044 53.22484039 -39.72898865 54.23249817 C-40.21597293 59.20546292 -41.13201206 64.08140165 -42 69 C-36.39 69 -30.78 69 -25 69 C-25 69.33 -25 69.66 -25 70 C-30.61 70 -36.22 70 -42 70 C-42.33 72.64 -42.66 75.28 -43 78 C-43.33 78 -43.66 78 -44 78 C-45.03243676 73.29667698 -44.68725804 69.73444424 -44 65 C-43.5081525 60.89034086 -43.16067396 57.07507265 -44 53 C-45.96205941 51.00788716 -47.70770772 50.00592258 -50.25 48.8671875 C-51.11625 48.43792969 -51.11625 48.43792969 -52 48 C-52 47.34 -52 46.68 -52 46 C-56.29 45.67 -60.58 45.34 -65 45 C-65 44.67 -65 44.34 -65 44 C-58.07 44 -51.14 44 -44 44 C-43.38351133 37.59846205 -43.38351133 37.59846205 -42.77368164 31.19628906 C-42.69496826 30.39416992 -42.61625488 29.59205078 -42.53515625 28.765625 C-42.456604 27.94868164 -42.37805176 27.13173828 -42.29711914 26.29003906 C-42 24 -42 24 -41 20 C-35.39 20 -29.78 20 -24 20 C-25.32 27.59 -26.64 35.18 -28 43 C-17.605 42.505 -17.605 42.505 -7 42 C-6.3041188 37.75024582 -5.60967236 33.50030457 -4.91870117 29.24975586 C-4.68383624 27.80756607 -4.44817728 26.36550534 -4.21166992 24.92358398 C-2.6121606 15.29966748 -2.6121606 15.29966748 -1.40234375 5.62109375 C-1 2 -1 2 0 0 Z " fill="#0A080E" transform="translate(170,199)"/>
<path d="M0 0 C3.8026029 2.0050088 5.61790841 3.42686262 8 7 C8.24953875 11.83273385 7.46886238 16.02620891 5.375 20.375 C1.02251193 25.18564471 -2.72379418 27.21005266 -9.125 27.5625 C-13.00076705 27.41502028 -13.85135968 27.11527209 -17.0625 24.625 C-20.40351228 20.09846724 -20.67180467 16.5330579 -20 11 C-15.61264377 2.38778222 -9.37764855 -1.16629579 0 0 Z " fill="#08050D" transform="translate(212,195)"/>
<path d="M0 0 C4.95304201 3.85236601 4.95304201 3.85236601 5.5703125 7.796875 C5.846766 13.28908452 4.93051841 16.47264077 1.25 20.75 C-3.53757981 25.07049885 -7.22159689 26.10692898 -13.52734375 26.03515625 C-16.877774 25.60531195 -18.50527284 24.19879327 -20.75 21.75 C-23.28796459 18.24519176 -23.24282229 14.97419108 -22.75 10.75 C-20.85813525 6.04233655 -18.34666262 2.71202436 -13.875 0.25 C-9.02338909 -1.80576734 -4.8884477 -2.22202168 0 0 Z " fill="#05020A" transform="translate(358.75,267.25)"/>
<path d="M0 0 C2.22855574 -0.0814222 4.45797655 -0.13938079 6.6875 -0.1875 C8.54955078 -0.23970703 8.54955078 -0.23970703 10.44921875 -0.29296875 C14.2254029 0.0185976 16.024168 0.71342321 19 3 C21.08342131 6.67078992 21.57200187 9.83255784 21 14 C19.18329633 18.10122804 17.00714766 21.19428187 13.5 24 C8.04691351 25.55802471 2.63147824 25.22559334 -3 25 C-2.68978487 21.95808469 -2.37690547 18.91648266 -2.0625 15.875 C-1.97548828 15.0190625 -1.88847656 14.163125 -1.79882812 13.28125 C-1.33583609 8.82280819 -0.80306863 4.41326006 0 0 Z " fill="#0A070E" transform="translate(315,196)"/>
<path d="M0 0 C0.33 0 0.66 0 1 0 C0.8595017 2.7920301 0.71284617 5.58349796 0.5625 8.375 C0.52318359 9.1690625 0.48386719 9.963125 0.44335938 10.78125 C0.11328125 16.7734375 0.11328125 16.7734375 -1 19 C-1.33 21.97 -1.66 24.94 -2 28 C16.315 28.495 16.315 28.495 35 29 C35 29.33 35 29.66 35 30 C29.92405884 30.83639712 25.0088602 31.13912523 19.86157227 31.11352539 C19.08026443 31.11367142 18.2989566 31.11381744 17.49397278 31.1139679 C14.9347548 31.11327627 12.37561138 31.10551927 9.81640625 31.09765625 C8.03279154 31.0957894 6.24917632 31.09436676 4.46556091 31.09336853 C-0.21151158 31.08956435 -4.88855265 31.07975213 -9.56561279 31.06866455 C-14.34516983 31.05840516 -19.12473198 31.05386123 -23.90429688 31.04882812 C-33.269545 31.03812786 -42.63476988 31.02107682 -52 31 C-52 30.34 -52 29.68 -52 29 C-36.49 28.67 -20.98 28.34 -5 28 C-3.515 18.1 -3.515 18.1 -2 8 C-10.58 8 -19.16 8 -28 8 C-28 6.02 -28 4.04 -28 2 C-27.01 2.66 -26.02 3.32 -25 4 C-22.51739743 4.35077904 -22.51739743 4.35077904 -19.74609375 4.37890625 C-18.21758789 4.43014648 -18.21758789 4.43014648 -16.65820312 4.48242188 C-15.59537109 4.50884766 -14.53253906 4.53527344 -13.4375 4.5625 C-11.33191367 4.62229611 -9.2264311 4.68590612 -7.12109375 4.75390625 C-6.1870874 4.77783447 -5.25308105 4.8017627 -4.29077148 4.82641602 C-2 5 -2 5 0 6 C0 4.02 0 2.04 0 0 Z " fill="#1F1D21" transform="translate(290,214)"/>
<path d="M0 0 C0.99 0.66 1.98 1.32 3 2 C2.67 4.64 2.34 7.28 2 10 C2.66 10 3.32 10 4 10 C3.39601383 14.25969194 2.35548265 18.06926469 0.9375 22.125 C-1.11186141 28.55422406 -1.43451691 34.30119757 -1 41 C-2.98 41.495 -2.98 41.495 -5 42 C-5.85958515 38.52508132 -6.03380395 36.09545506 -5.1875 32.625 C-4.22982794 28.30583475 -3.56208828 24.01378528 -3 19.625 C-2.15753931 13.05246938 -1.14245591 6.52658322 0 0 Z " fill="#19181B" transform="translate(316,254)"/>
<path d="M0 0 C0.33 0 0.66 0 1 0 C0.38297872 18.34042553 0.38297872 18.34042553 -3 27 C-3.33 27 -3.66 27 -4 27 C-3.85820962 24.77057252 -3.71140302 22.54146372 -3.5625 20.3125 C-3.48128906 19.07113281 -3.40007812 17.82976562 -3.31640625 16.55078125 C-3 13 -3 13 -2 8 C-10.58 8 -19.16 8 -28 8 C-28 6.02 -28 4.04 -28 2 C-26.515 2.99 -26.515 2.99 -25 4 C-22.51739743 4.35077904 -22.51739743 4.35077904 -19.74609375 4.37890625 C-18.21758789 4.43014648 -18.21758789 4.43014648 -16.65820312 4.48242188 C-15.59537109 4.50884766 -14.53253906 4.53527344 -13.4375 4.5625 C-11.33191367 4.62229611 -9.2264311 4.68590612 -7.12109375 4.75390625 C-6.1870874 4.77783447 -5.25308105 4.8017627 -4.29077148 4.82641602 C-2 5 -2 5 0 6 C0 4.02 0 2.04 0 0 Z " fill="#2A292B" transform="translate(290,214)"/>
<path d="M0 0 C0.66 0 1.32 0 2 0 C2.556875 1.155 3.11375 2.31 3.6875 3.5 C7.566908 10.16401375 15.29554132 12.82908621 22 16 C22 16.33 22 16.66 22 17 C10.40169523 17.74295191 10.40169523 17.74295191 5 13 C4.236875 12.443125 3.47375 11.88625 2.6875 11.3125 C0.14899458 7.83380738 0.18015193 4.21555511 0 0 Z " fill="#0E0E10" transform="translate(81,276)"/>
<path d="M0 0 C0.66 0 1.32 0 2 0 C2.68241901 10.74178076 0.93853064 21.42473781 -4 31 C-4.25284367 33.75146274 -4.25284367 33.75146274 -4 36 C-4.66 35.01 -5.32 34.02 -6 33 C-8.475 35.475 -8.475 35.475 -11 38 C-10.37069383 34.64117311 -9.06447831 32.51484708 -7.1875 29.6875 C-2.09788751 20.73468767 -1.41159967 10.05226228 0 0 Z " fill="#151516" transform="translate(243,191)"/>
<path d="M0 0 C6.24534561 -0.65055683 10.14294616 0.09616378 15.37109375 3.61328125 C17 5 17 5 19 8 C18.34 8.66 17.68 9.32 17 10 C11.19137441 7.60078508 5.59962003 4.8505108 0 2 C0 1.34 0 0.68 0 0 Z " fill="#1D1C1F" transform="translate(103,266)"/>
<path d="M0 0 C3 4 3 4 2.75 7.9375 C2.51908928 9.29505206 2.27006177 10.64969115 2 12 C1.814375 12.99 1.62875 13.98 1.4375 15 C1.293125 15.66 1.14875 16.32 1 17 C0.34 16.67 -0.32 16.34 -1 16 C-1 15.01 -1 14.02 -1 13 C-6.28 13 -11.56 13 -17 13 C-17.33 14.32 -17.66 15.64 -18 17 C-18.33 15.02 -18.66 13.04 -19 11 C-13.06 11 -7.12 11 -1 11 C-0.67 7.37 -0.34 3.74 0 0 Z " fill="#161517" transform="translate(292,256)"/>
<path d="M0 0 C0.33 0 0.66 0 1 0 C1.60020264 4.20141847 2.03655501 8.01535381 1.75 12.25 C1.59895602 16.08760715 1.59895602 16.08760715 4.25 18.3125 C5.1575 18.869375 6.065 19.42625 7 20 C7.763125 20.5775 8.52625 21.155 9.3125 21.75 C9.869375 22.1625 10.42625 22.575 11 23 C6.21698781 23 4.76633601 21.80471831 1 19 C0.42765625 18.62875 -0.1446875 18.2575 -0.734375 17.875 C-2.85382598 14.73507262 -1.76675765 11.35929148 -1.1875 7.8125 C-1.07857422 7.06291016 -0.96964844 6.31332031 -0.85742188 5.54101562 C-0.58651277 3.69176651 -0.29519943 1.84552739 0 0 Z " fill="#141215" transform="translate(76,290)"/>
<path d="M0 0 C0.66 0.33 1.32 0.66 2 1 C1.67 1.33 1.34 1.66 1 2 C1.66418945 1.99476318 2.32837891 1.98952637 3.01269531 1.98413086 C27.36924918 1.81727622 27.36924918 1.81727622 37 3 C37 3.33 37 3.66 37 4 C23.47 4 9.94 4 -4 4 C-2.68 2.68 -1.36 1.36 0 0 Z " fill="#6047E3" transform="translate(63,332)"/>
<path d="M0 0 C2.74054368 3.32486381 4.42376049 6.83057886 6.1875 10.75 C6.71730469 11.92046875 7.24710937 13.0909375 7.79296875 14.296875 C8.19128906 15.18890625 8.58960938 16.0809375 9 17 C8.34 17.66 7.68 18.32 7 19 C5.35 15.7 3.7 12.4 2 9 C1.34 9.66 0.68 10.32 0 11 C-1.125 3.375 -1.125 3.375 0 0 Z " fill="#1E1E20" transform="translate(407,286)"/>
<path d="M0 0 C5.94 0 11.88 0 18 0 C18 2.64 18 5.28 18 8 C17.67 8 17.34 8 17 8 C16.67 6.35 16.34 4.7 16 3 C14.92878906 2.95101563 13.85757813 2.90203125 12.75390625 2.8515625 C11.35674361 2.77654706 9.9596095 2.7009987 8.5625 2.625 C7.85544922 2.5940625 7.14839844 2.563125 6.41992188 2.53125 C4.60760812 2.42719371 2.80182012 2.22080108 1 2 C0.67 1.34 0.34 0.68 0 0 Z " fill="#1A1A1B" transform="translate(234,267)"/>
<path d="M0 0 C0.33 0 0.66 0 1 0 C0.33742578 7.72422049 -0.76464626 15.34800303 -2 23 C-2.33 23 -2.66 23 -3 23 C-4.04559253 16.41276707 -3.83292414 11.40766041 -2 5 C-1.34 5 -0.68 5 0 5 C0 3.35 0 1.7 0 0 Z " fill="#252527" transform="translate(452,253)"/>
<path d="M0 0 C0.42410156 0.38671875 0.84820312 0.7734375 1.28515625 1.171875 C6.45164389 5.75926183 11.7623562 9.00593098 18 12 C15.49877439 12.91881757 14.3501699 13.13154862 11.81640625 12.1796875 C7.26084744 9.54267426 3.34709062 7.10288528 0 3 C0 2.01 0 1.02 0 0 Z " fill="#181719" transform="translate(175,231)"/>
<path d="M0 0 C4.95 0.33 9.9 0.66 15 1 C15 2.65 15 4.3 15 6 C14.67 4.68 14.34 3.36 14 2 C10.04 2 6.08 2 2 2 C1.67 5.63 1.34 9.26 1 13 C0.67 13 0.34 13 0 13 C-0.19658808 11.58456585 -0.38187546 10.16755969 -0.5625 8.75 C-0.66691406 7.96109375 -0.77132812 7.1721875 -0.87890625 6.359375 C-1 4 -1 4 0 0 Z " fill="#272628" transform="translate(129,219)"/>
<path d="M0 0 C0.99 0.33 1.98 0.66 3 1 C2.38125 1.78375 1.7625 2.5675 1.125 3.375 C-1.6882496 7.52504196 -2.26744459 12.12272322 -3 17 C-5 15 -5 15 -5.4375 11.875 C-4.8790017 6.92830074 -2.88005594 3.96007691 0 0 Z " fill="#222123" transform="translate(341,270)"/>
<path d="M0 0 C0.33 0 0.66 0 1 0 C0.67 3.96 0.34 7.92 0 12 C3.96 12 7.92 12 12 12 C12 12.33 12 12.66 12 13 C7.38 13 2.76 13 -2 13 C-3 8 -3 8 -2 5 C-1.34 5 -0.68 5 0 5 C0 3.35 0 1.7 0 0 Z " fill="#242326" transform="translate(136,184)"/>
<path d="M0 0 C1.77174819 0.08723378 3.54247377 0.19541655 5.3125 0.3125 C6.29863281 0.37050781 7.28476563 0.42851562 8.30078125 0.48828125 C11.24384457 1.04622813 12.18182999 1.68540132 14 4 C12.22950311 4.05410687 10.45853151 4.09284119 8.6875 4.125 C7.20830078 4.15980469 7.20830078 4.15980469 5.69921875 4.1953125 C3 4 3 4 0 2 C0 1.34 0 0.68 0 0 Z " fill="#171718" transform="translate(89,289)"/>
<path d="M0 0 C0.66 0.66 1.32 1.32 2 2 C1.9765625 5.2578125 1.9765625 5.2578125 1.625 9.125 C1.51414062 10.40632813 1.40328125 11.68765625 1.2890625 13.0078125 C1.19367188 13.99523437 1.09828125 14.98265625 1 16 C0.01 16 -0.98 16 -2 16 C-1.34 10.72 -0.68 5.44 0 0 Z " fill="#2B2A2C" transform="translate(269,290)"/>
<path d="M0 0 C2.31 0 4.62 0 7 0 C7 0.99 7 1.98 7 3 C7.99 3.33 8.98 3.66 10 4 C10.99 5.485 10.99 5.485 12 7 C10.56068883 6.54738642 9.12361001 6.08767021 7.6875 5.625 C6.88699219 5.36976563 6.08648437 5.11453125 5.26171875 4.8515625 C3 4 3 4 0 2 C0 1.34 0 0.68 0 0 Z " fill="#131215" transform="translate(103,266)"/>
<path d="M0 0 C0.45375 0.78375 0.9075 1.5675 1.375 2.375 C5.09558679 6.09558679 8.91344923 6.34962042 14 7 C14 7.66 14 8.32 14 9 C9.40708123 9.36022892 6.05021547 9.57869016 1.9375 7.3125 C0 5 0 5 -0.3125 2.25 C-0.209375 1.5075 -0.10625 0.765 0 0 Z " fill="#141315" transform="translate(338,284)"/>
<path d="M0 0 C0.66 0 1.32 0 2 0 C1.67 3.3 1.34 6.6 1 10 C0.34 9.01 -0.32 8.02 -1 7 C-2.65 8.65 -4.3 10.3 -6 12 C-5.36567062 8.83548038 -4.26817072 6.48312221 -2.5625 3.75 C-2.13066406 3.04359375 -1.69882813 2.3371875 -1.25390625 1.609375 C-0.84011719 1.07828125 -0.42632812 0.5471875 0 0 Z " fill="#1C1B1E" transform="translate(238,217)"/>
<path d="M0 0 C2.08229108 3.12343663 2.23770457 3.53852922 1.9765625 7.01171875 C1.925 7.76904297 1.8734375 8.52636719 1.8203125 9.30664062 C1.75585938 10.09232422 1.69140625 10.87800781 1.625 11.6875 C1.56828125 12.48478516 1.5115625 13.28207031 1.453125 14.10351562 C1.31183972 16.06973581 1.15720094 18.03498824 1 20 C0.67 20 0.34 20 0 20 C-0.144375 18.88625 -0.28875 17.7725 -0.4375 16.625 C-0.78372035 13.17857953 -0.78372035 13.17857953 -2 11 C-1.9140625 8.90625 -1.9140625 8.90625 -1.625 6.5 C-1.53476563 5.7059375 -1.44453125 4.911875 -1.3515625 4.09375 C-1 2 -1 2 0 0 Z " fill="#2D2D2E" transform="translate(170,199)"/>
<path d="M0 0 C0.33 0 0.66 0 1 0 C1.02717692 2.06242617 1.0464758 4.12495703 1.0625 6.1875 C1.07410156 7.33605469 1.08570313 8.48460937 1.09765625 9.66796875 C1.01192832 12.59300586 0.67849023 15.16316291 0 18 C-0.33 18 -0.66 18 -1 18 C-2.04559253 11.41276707 -1.83292414 6.40766041 0 0 Z " fill="#252426" transform="translate(446,283)"/>
<path d="M0 0 C0.66 0 1.32 0 2 0 C1.25 7.75 1.25 7.75 -1 10 C-1.99 9.67 -2.98 9.34 -4 9 C-2.68 6.03 -1.36 3.06 0 0 Z " fill="#303031" transform="translate(385,281)"/>
<path d="M0 0 C0.99 0 1.98 0 3 0 C2.39174965 4.34464536 1.73832608 8.67551867 1 13 C0.34 12.67 -0.32 12.34 -1 12 C-0.67 8.04 -0.34 4.08 0 0 Z " fill="#201F21" transform="translate(111,186)"/>
<path d="M0 0 C0.33 0 0.66 0 1 0 C1 1.65 1 3.3 1 5 C1.66 5 2.32 5 3 5 C2.25 10.75 2.25 10.75 0 13 C-0.33 12.67 -0.66 12.34 -1 12 C-0.90997602 9.97591245 -0.75358962 7.95455713 -0.5625 5.9375 C-0.46066406 4.83277344 -0.35882813 3.72804687 -0.25390625 2.58984375 C-0.17011719 1.73519531 -0.08632812 0.88054687 0 0 Z " fill="#19171B" transform="translate(173,187)"/>
<path d="M0 0 C0.99 0 1.98 0 3 0 C3.04254356 1.99954746 3.04080783 4.00041636 3 6 C2.67 6.33 2.34 6.66 2 7 C1.76712992 8.68183948 1.58735834 10.3712416 1.4375 12.0625 C1.35371094 12.98160156 1.26992188 13.90070313 1.18359375 14.84765625 C1.12300781 15.55792969 1.06242187 16.26820313 1 17 C0.67 17 0.34 17 0 17 C0 11.39 0 5.78 0 0 Z " fill="#383739" transform="translate(385,262)"/>
<path d="M0 0 C1.485 0.99 1.485 0.99 3 2 C2.34 6.29 1.68 10.58 1 15 C0.67 15 0.34 15 0 15 C-0.75612577 9.76528314 -1.2063366 5.22745859 0 0 Z " fill="#2D2C2F" transform="translate(266,191)"/>
<path d="M0 0 C0.33 1.32 0.66 2.64 1 4 C0.34 4 -0.32 4 -1 4 C-1 5.65 -1 7.3 -1 9 C-1.66 8.01 -2.32 7.02 -3 6 C-3.99 6 -4.98 6 -6 6 C-3.375 1.125 -3.375 1.125 0 0 Z " fill="#19181B" transform="translate(384,290)"/>
<path d="M0 0 C0.33 0 0.66 0 1 0 C0.03644647 12.66970387 0.03644647 12.66970387 -1 18 C-1.33 18 -1.66 18 -2 18 C-2.83796731 13.34462607 -3.0161692 9.62921525 -2 5 C-1.34 5 -0.68 5 0 5 C0 3.35 0 1.7 0 0 Z " fill="#161518" transform="translate(166,280)"/>
<path d="M0 0 C-3.53186832 2.15059309 -6.66287993 2.3797728 -10.75 2.625 C-11.92046875 2.69976562 -13.0909375 2.77453125 -14.296875 2.8515625 C-15.18890625 2.90054687 -16.0809375 2.94953125 -17 3 C-17 2.67 -17 2.34 -17 2 C-15.02 2 -13.04 2 -11 2 C-11 1.34 -11 0.68 -11 0 C-6.98195309 -0.84098656 -3.98196457 -1.05404945 0 0 Z " fill="#150C0D" transform="translate(429,332)"/>
<path d="M0 0 C0.99 0.33 1.98 0.66 3 1 C2.67 3.97 2.34 6.94 2 10 C1.34 10 0.68 10 0 10 C0 6.7 0 3.4 0 0 Z " fill="#1B1A1D" transform="translate(217,201)"/>
<path d="M0 0 C0 0.99 0 1.98 0 3 C-4.8333472 3.08333357 -9.23692563 2.95261487 -14 2 C-14 1.67 -14 1.34 -14 1 C-12.22932584 0.83165067 -10.45845388 0.66538091 -8.6875 0.5 C-7.70136719 0.4071875 -6.71523438 0.314375 -5.69921875 0.21875 C-3 0 -3 0 0 0 Z " fill="#281917" transform="translate(411,333)"/>
<path d="M0 0 C2.55694972 3.83542457 2.04045639 5.65902533 1.625 10.1875 C1.51414062 11.45980469 1.40328125 12.73210937 1.2890625 14.04296875 C1.19367188 15.01878906 1.09828125 15.99460937 1 17 C0.67 17 0.34 17 0 17 C-0.89316269 11.06390334 -0.97040422 5.93024803 0 0 Z " fill="#212022" transform="translate(313,273)"/>
<path d="M0 0 C3 1 3 1 4 3 C4.06950541 4.54023996 4.08452357 6.08334988 4.0625 7.625 C4.05347656 8.44226563 4.04445313 9.25953125 4.03515625 10.1015625 C4.02355469 10.72804688 4.01195312 11.35453125 4 12 C3.34 11.67 2.68 11.34 2 11 C1.3671875 8.49609375 1.3671875 8.49609375 0.875 5.4375 C0.70742188 4.42558594 0.53984375 3.41367187 0.3671875 2.37109375 C0.24601562 1.58863281 0.12484375 0.80617188 0 0 Z " fill="#131214" transform="translate(360,270)"/>
<path d="M0 0 C0.66 0 1.32 0 2 0 C2.125 7.75 2.125 7.75 1 10 C0.34 10 -0.32 10 -1 10 C-1.125 3.375 -1.125 3.375 0 0 Z " fill="#1E0C17" transform="translate(228,250)"/>
<path d="M0 0 C0.33 0 0.66 0 1 0 C1.84888195 5.37625234 2.0024305 9.65370398 1 15 C-1.42945561 11.35581659 -1.0828781 10.07076636 -0.625 5.8125 C-0.51414062 4.72582031 -0.40328125 3.63914062 -0.2890625 2.51953125 C-0.19367188 1.68808594 -0.09828125 0.85664063 0 0 Z " fill="#1F1E21" transform="translate(76,290)"/>
<path d="M0 0 C0.33 0 0.66 0 1 0 C1.22245393 1.60226955 1.42746669 3.20696767 1.625 4.8125 C1.74101562 5.70582031 1.85703125 6.59914063 1.9765625 7.51953125 C2 10 2 10 0 13 C-0.33 12.67 -0.66 12.34 -1 12 C-0.90997602 9.97591245 -0.75358962 7.95455713 -0.5625 5.9375 C-0.46066406 4.83277344 -0.35882813 3.72804688 -0.25390625 2.58984375 C-0.17011719 1.73519531 -0.08632812 0.88054687 0 0 Z " fill="#262527" transform="translate(141,282)"/>
<path d="M0 0 C3 4 3 4 2.6875 7.25 C2.460625 8.1575 2.23375 9.065 2 10 C1.01 10.33 0.02 10.66 -1 11 C-0.67 7.37 -0.34 3.74 0 0 Z " fill="#2A2A2B" transform="translate(292,256)"/>
<path d="M0 0 C4.95 0 9.9 0 15 0 C14.67 0.99 14.34 1.98 14 3 C13.01 3 12.02 3 11 3 C11 2.34 11 1.68 11 1 C7.37 1 3.74 1 0 1 C0 0.67 0 0.34 0 0 Z " fill="#F6B792" transform="translate(426,324)"/>
<path d="M0 0 C1.89213369 2.38573379 3.02391783 4.07175348 4 7 C3.01 7 2.02 7 1 7 C0.67 8.32 0.34 9.64 0 11 C-1.125 3.375 -1.125 3.375 0 0 Z " fill="#131214" transform="translate(407,286)"/>
<path d="M0 0 C0.33 0 0.66 0 1 0 C1.2226746 1.43534841 1.42761906 2.87345525 1.625 4.3125 C1.74101562 5.11300781 1.85703125 5.91351563 1.9765625 6.73828125 C2 9 2 9 0 12 C-0.33 11.67 -0.66 11.34 -1 11 C-0.91015699 9.14227838 -0.75388139 7.28752015 -0.5625 5.4375 C-0.46066406 4.42558594 -0.35882813 3.41367188 -0.25390625 2.37109375 C-0.17011719 1.58863281 -0.08632812 0.80617187 0 0 Z " fill="#262527" transform="translate(234,252)"/>
<path d="M0 0 C2.375 0.1875 2.375 0.1875 5 1 C7.16789459 4.61315766 7.19258541 7.85941364 7 12 C6.67 12 6.34 12 6 12 C5.81824219 11.38511719 5.63648438 10.77023438 5.44921875 10.13671875 C5.07216797 8.92435547 5.07216797 8.92435547 4.6875 7.6875 C4.32205078 6.48673828 4.32205078 6.48673828 3.94921875 5.26171875 C2.95817977 2.90035427 1.91925057 1.66120007 0 0 Z " fill="#1F1F21" transform="translate(329,198)"/>
<path d="M0 0 C0.33 0 0.66 0 1 0 C1.33 3.3 1.66 6.6 2 10 C1.34 10 0.68 10 0 10 C-0.33 10.99 -0.66 11.98 -1 13 C-0.67 8.71 -0.34 4.42 0 0 Z " fill="#2F2F30" transform="translate(186,254)"/>
<path d="M0 0 C0.33 0 0.66 0 1 0 C2.28571429 8.42857143 2.28571429 8.42857143 1 13 C0.34 12.67 -0.32 12.34 -1 12 C-0.67 8.04 -0.34 4.08 0 0 Z " fill="#19181B" transform="translate(105,223)"/>
<path d="M0 0 C0.66 0 1.32 0 2 0 C2.99 2.31 3.98 4.62 5 7 C4.01 7 3.02 7 2 7 C1.67 7.66 1.34 8.32 1 9 C0.67 6.03 0.34 3.06 0 0 Z " fill="#18171A" transform="translate(81,276)"/>
<path d="M0 0 C0.66 0.33 1.32 0.66 2 1 C2 2.98 2 4.96 2 7 C1.34 7 0.68 7 0 7 C0 8.65 0 10.3 0 12 C-0.33 12 -0.66 12 -1 12 C-1.08159574 7.83861737 -0.98248524 4.0527516 0 0 Z " fill="#0D0C0E" transform="translate(166,273)"/>
<path d="M0 0 C0.33 0 0.66 0 1 0 C1.76173392 4.3164922 2.16063604 7.74433453 1 12 C0.34 11.67 -0.32 11.34 -1 11 C-0.67 7.37 -0.34 3.74 0 0 Z " fill="#1A191B" transform="translate(286,298)"/>
<path d="M0 0 C3.875 1.75 3.875 1.75 5 4 C4.34 4.66 3.68 5.32 3 6 C2.01 5.67 1.02 5.34 0 5 C0 3.35 0 1.7 0 0 Z " fill="#131215" transform="translate(117,270)"/>
<path d="M0 0 C6.625 -0.25 6.625 -0.25 10 2 C6.18510326 3.46726798 3.70988378 2.43336419 0 1 C0 0.67 0 0.34 0 0 Z " fill="#131215" transform="translate(349,266)"/>
<path d="M0 0 C0.66 0.33 1.32 0.66 2 1 C1.67 4.3 1.34 7.6 1 11 C-1.26609984 6.46780033 -0.92735976 4.82227075 0 0 Z " fill="#212023" transform="translate(269,176)"/>
<path d="M0 0 C-1.39332574 3.36720387 -2.9789286 4.9859524 -6 7 C-6 4 -6 4 -4.125 1.8125 C-2 0 -2 0 0 0 Z " fill="#171619" transform="translate(201,197)"/>
<path d="M0 0 C4.42857143 5.14285714 4.42857143 5.14285714 5 9 C4.01 9.495 4.01 9.495 3 10 C0.96564469 6.27034861 0 4.33094958 0 0 Z " fill="#18181A" transform="translate(352,184)"/>
<path d="M0 0 C0.33 0 0.66 0 1 0 C1.2226746 1.43534841 1.42761906 2.87345525 1.625 4.3125 C1.74101563 5.11300781 1.85703125 5.91351563 1.9765625 6.73828125 C2 9 2 9 0 12 C-1.53166168 7.91556885 -0.63081652 4.20544343 0 0 Z " fill="#2B2A2C" transform="translate(124,287)"/>
<path d="M0 0 C4.75 0.875 4.75 0.875 7 2 C6.67 2.99 6.34 3.98 6 5 C4.02 4.01 2.04 3.02 0 2 C0 1.34 0 0.68 0 0 Z " fill="#1B1A1D" transform="translate(366,245)"/>
<path d="M0 0 C3 1 3 1 4.75 3.375 C6 6 6 6 5 9 C4.16094435 7.87926138 3.32892169 6.75325453 2.5 5.625 C2.0359375 4.99851563 1.571875 4.37203125 1.09375 3.7265625 C0 2 0 2 0 0 Z " fill="#181719" transform="translate(232,180)"/>
</svg>
