<?xml version="1.0" encoding="UTF-8"?>
<svg version="1.1" xmlns="http://www.w3.org/2000/svg" width="200" height="200">
<path d="M0 0 C12.21 0 24.42 0 37 0 C36.67 2.31 36.34 4.62 36 7 C37.98 7 39.96 7 42 7 C40.5214788 14.16112038 38.54152967 21.08185091 36.375 28.0625 C35.26125 31.671875 34.1475 35.28125 33 39 C47.355 38.505 47.355 38.505 62 38 C62.78246094 35.34066406 63.56492187 32.68132812 64.37109375 29.94140625 C65.12821325 27.37631655 65.88643949 24.81155648 66.64477539 22.24682617 C67.17262865 20.45940807 67.69932435 18.67164772 68.22485352 16.88354492 C68.97891559 14.31859674 69.73708466 11.75489422 70.49609375 9.19140625 C70.73154404 8.3872377 70.96699432 7.58306915 71.20957947 6.75453186 C72.88612829 1.11387171 72.88612829 1.11387171 74 0 C76.73894085 -0.08858646 79.4525327 -0.11523479 82.19140625 -0.09765625 C83.01124496 -0.0962413 83.83108368 -0.09482635 84.67576599 -0.09336853 C87.30471382 -0.08775289 89.93357773 -0.07519779 92.5625 -0.0625 C94.34049357 -0.05748701 96.11848846 -0.05292376 97.89648438 -0.04882812 C102.26435545 -0.03777839 106.63216348 -0.02050331 111 0 C110.67 1.98 110.34 3.96 110 6 C111.98 6.33 113.96 6.66 116 7 C114.73891621 11.23654242 113.47543546 15.47236017 112.2097168 19.70751953 C111.77936714 21.14872822 111.34967607 22.59013374 110.9206543 24.03173828 C110.30429871 26.10240803 109.68558736 28.17236115 109.06640625 30.2421875 C108.69459229 31.4885498 108.32277832 32.73491211 107.93969727 34.01904297 C107 37 107 37 106 39 C115.9 39 125.8 39 136 39 C135.67 40.98 135.34 42.96 135 45 C136.98 45 138.96 45 141 45 C138.93994536 53.64750731 136.51675369 62.13848723 133.875 70.625 C133.51535156 71.79417969 133.15570313 72.96335937 132.78515625 74.16796875 C130.1381079 82.72378419 130.1381079 82.72378419 129 85 C116.79 85 104.58 85 92 85 C92.33 83.02 92.66 81.04 93 79 C91.35 78.67 89.7 78.34 88 78 C88.6842507 71.28277837 90.62954406 65.01340721 92.5625 58.5625 C94.2640625 52.8390625 94.2640625 52.8390625 96 47 C86.43 46.67 76.86 46.34 67 46 C66.01 50.95 66.01 50.95 65 56 C64.31994069 58.45193383 63.6011187 60.89359498 62.8359375 63.3203125 C62.4754834 64.47289551 62.1150293 65.62547852 61.74365234 66.81298828 C61.29199707 68.23595215 60.8403418 69.65891602 60.375 71.125 C58.93125 75.70375 57.4875 80.2825 56 85 C43.79 85 31.58 85 19 85 C19.33 82.69 19.66 80.38 20 78 C18.02 78 16.04 78 14 78 C16.5068959 67.18076507 19.77006856 56.62288561 23 46 C13.43 46 3.86 46 -6 46 C-6.99 49.63 -7.98 53.26 -9 57 C-10.34601515 61.71694843 -11.7351248 66.42080702 -13.125 71.125 C-13.48464844 72.35476562 -13.84429687 73.58453125 -14.21484375 74.8515625 C-14.55902344 76.016875 -14.90320312 77.1821875 -15.2578125 78.3828125 C-15.5686377 79.43871582 -15.87946289 80.49461914 -16.19970703 81.58251953 C-17 84 -17 84 -18 85 C-20.73894085 85.08858646 -23.4525327 85.11523479 -26.19140625 85.09765625 C-27.01124496 85.0962413 -27.83108368 85.09482635 -28.67576599 85.09336853 C-31.30471382 85.08775289 -33.93357773 85.07519779 -36.5625 85.0625 C-38.34049357 85.05748701 -40.11848846 85.05292376 -41.89648438 85.04882812 C-46.26435545 85.03777839 -50.63216348 85.02050331 -55 85 C-54.67 83.02 -54.34 81.04 -54 79 C-55.65 78.67 -57.3 78.34 -59 78 C-57.57713519 69.81410665 -55.33393412 61.9481017 -52.9375 54 C-52.57333984 52.77410156 -52.20917969 51.54820313 -51.83398438 50.28515625 C-49.14593707 41.29187414 -49.14593707 41.29187414 -48 39 C-35.79 39 -23.58 39 -11 39 C-9.68 33.72 -8.36 28.44 -7 23 C-5.78091087 18.81743406 -4.54638331 14.65706068 -3.25 10.5 C-2.1775 7.035 -1.105 3.57 0 0 Z M-11 40 C-11.33 41.65 -11.66 43.3 -12 45 C-10.02 45 -8.04 45 -6 45 C-5.67 43.35 -5.34 41.7 -5 40 C-6.98 40 -8.96 40 -11 40 Z M63 40 C62.34 41.65 61.68 43.3 61 45 C62.98 45 64.96 45 67 45 C67.33 43.35 67.66 41.7 68 40 C66.35 40 64.7 40 63 40 Z " fill="#38D895" transform="translate(59,58)"/>
<path d="M0 0 C1.56047445 0.00015913 3.12095416 0.00585397 4.68139648 0.01586914 C5.5012352 0.01728409 6.32107391 0.01869904 7.16575623 0.02015686 C9.79470406 0.0257725 12.42356797 0.0383276 15.05249023 0.05102539 C16.8304838 0.05603838 18.60847869 0.06060163 20.38647461 0.06469727 C24.75434569 0.07574701 29.12215371 0.09302208 33.48999023 0.11352539 C33.15999023 2.09352539 32.82999023 4.07352539 32.48999023 6.11352539 C34.46999023 6.11352539 36.44999023 6.11352539 38.48999023 6.11352539 C36.42993559 14.7610327 34.00674393 23.25201262 31.36499023 31.73852539 C30.82551758 33.49229492 30.82551758 33.49229492 30.27514648 35.28149414 C27.62809814 43.83730959 27.62809814 43.83730959 26.48999023 46.11352539 C14.27999023 46.11352539 2.06999023 46.11352539 -10.51000977 46.11352539 C-10.01500977 43.14352539 -10.01500977 43.14352539 -9.51000977 40.11352539 C-11.16000977 39.78352539 -12.81000977 39.45352539 -14.51000977 39.11352539 C-13.89804328 34.13368815 -12.88520697 29.51648474 -11.47875977 24.68383789 C-11.28278198 24.0080368 -11.0868042 23.33223572 -10.8848877 22.63595581 C-10.47364552 21.22188613 -10.06008357 19.80848918 -9.64428711 18.39575195 C-9.00612116 16.22529993 -8.37670708 14.052443 -7.74829102 11.87915039 C-4.3244398 0.13986677 -4.3244398 0.13986677 0 0 Z " fill="#FE99EF" transform="translate(161.510009765625,96.886474609375)"/>
<path d="M0 0 C12.21 0 24.42 0 37 0 C36.67 1.98 36.34 3.96 36 6 C37.65 6 39.3 6 41 6 C42.37904027 10.13712082 40.99078071 13.12690992 39.7265625 17.1328125 C39.48336273 17.9252536 39.24016296 18.7176947 38.98959351 19.53414917 C38.47405226 21.20811694 37.95429845 22.88079227 37.43066406 24.55224609 C36.62678677 27.11929425 35.83574457 29.69002362 35.046875 32.26171875 C34.54501644 33.88564728 34.04243685 35.50935319 33.5390625 37.1328125 C33.30047516 37.90569611 33.06188782 38.67857971 32.81607056 39.47488403 C31.11690214 44.88309786 31.11690214 44.88309786 30 46 C27.26105915 46.08858646 24.5474673 46.11523479 21.80859375 46.09765625 C20.98875504 46.0962413 20.16891632 46.09482635 19.32423401 46.09336853 C16.69528618 46.08775289 14.06642227 46.07519779 11.4375 46.0625 C9.65950643 46.05748701 7.88151154 46.05292376 6.10351562 46.04882812 C1.73564455 46.03777839 -2.63216348 46.02050331 -7 46 C-6.505 43.03 -6.505 43.03 -6 40 C-7.65 39.67 -9.3 39.34 -11 39 C-9.57713519 30.81410665 -7.33393412 22.9481017 -4.9375 15 C-4.57333984 13.77410156 -4.20917969 12.54820313 -3.83398438 11.28515625 C-1.14593707 2.29187414 -1.14593707 2.29187414 0 0 Z " fill="#FF6D00" transform="translate(11,97)"/>
<path d="M0 0 C1.56047445 0.00015913 3.12095416 0.00585397 4.68139648 0.01586914 C5.5012352 0.01728409 6.32107391 0.01869904 7.16575623 0.02015686 C9.79470406 0.0257725 12.42356797 0.0383276 15.05249023 0.05102539 C16.8304838 0.05603838 18.60847869 0.06060163 20.38647461 0.06469727 C24.75434569 0.07574701 29.12215371 0.09302208 33.48999023 0.11352539 C33.15999023 2.09352539 32.82999023 4.07352539 32.48999023 6.11352539 C34.46999023 6.44352539 36.44999023 6.77352539 38.48999023 7.11352539 C37.22890644 11.35006781 35.9654257 15.58588556 34.69970703 19.82104492 C34.26935738 21.26225362 33.8396663 22.70365913 33.41064453 24.14526367 C32.79428894 26.21593342 32.17557759 28.28588654 31.55639648 30.35571289 C31.18458252 31.6020752 30.81276855 32.8484375 30.4296875 34.13256836 C29.48999023 37.11352539 29.48999023 37.11352539 28.48999023 39.11352539 C26.16842426 39.52081767 23.83311154 39.85791216 21.48999023 40.11352539 C20.82999023 42.09352539 20.16999023 44.07352539 19.48999023 46.11352539 C9.58999023 46.11352539 -0.31000977 46.11352539 -10.51000977 46.11352539 C-10.01500977 43.14352539 -10.01500977 43.14352539 -9.51000977 40.11352539 C-11.16000977 40.11352539 -12.81000977 40.11352539 -14.51000977 40.11352539 C-16.19694009 36.73966475 -14.2877168 33.30748053 -13.23657227 29.85961914 C-12.9933725 29.04356705 -12.75017273 28.22751495 -12.49960327 27.38673401 C-11.98340739 25.65994597 -11.4636634 23.93421526 -10.94067383 22.20947266 C-10.13794695 19.56071721 -9.34651249 16.90878992 -8.55688477 14.25610352 C-8.05494208 12.58207691 -7.5523595 10.90824201 -7.04907227 9.23461914 C-6.81048492 8.4367247 -6.57189758 7.63883026 -6.32608032 6.8167572 C-4.2944426 0.13889656 -4.2944426 0.13889656 0 0 Z " fill="#F9C66F" transform="translate(136.510009765625,57.886474609375)"/>
<path d="M0 0 C12.21 0 24.42 0 37 0 C36.67 2.31 36.34 4.62 36 7 C37.98 7 39.96 7 42 7 C40.52143235 14.16134532 38.5420279 21.08132273 36.375 28.0625 C36.05015625 29.11888672 35.7253125 30.17527344 35.390625 31.26367188 C34.59685528 33.84342348 33.79992286 36.42215108 33 39 C30.36 39 27.72 39 25 39 C24.67 41.31 24.34 43.62 24 46 C13.77 46 3.54 46 -7 46 C-6.67 44.35 -6.34 42.7 -6 41 C-7.65 40.67 -9.3 40.34 -11 40 C-9.52930833 31.23593153 -6.971862 22.85672373 -4.375 14.375 C-2.93125 9.63125 -1.4875 4.8875 0 0 Z " fill="#DFFE67" transform="translate(59,58)"/>
</svg>
