<?xml version="1.0" encoding="UTF-8"?>
<svg version="1.1" xmlns="http://www.w3.org/2000/svg" width="64" height="64">
<path d="M0 0 C21.12 0 42.24 0 64 0 C64 21.12 64 42.24 64 64 C42.88 64 21.76 64 0 64 C0 42.88 0 21.76 0 0 Z " fill="#000F55" transform="translate(0,0)"/>
<path d="M0 0 C0 0.99 0 1.98 0 3 C-0.56847656 2.855625 -1.13695312 2.71125 -1.72265625 2.5625 C-7.62684269 1.14312964 -13.08439576 0.02813192 -19 2 C-14.38 2 -9.76 2 -5 2 C-4.505 3.485 -4.505 3.485 -4 5 C-2.2984375 5.2165625 -2.2984375 5.2165625 -0.5625 5.4375 C3 6 3 6 4 7 C4.18623791 9.20529338 4.32349994 11.4147947 4.4375 13.625 C4.76420664 19.36795256 4.76420664 19.36795256 6.0625 24.9375 C7.12529037 28.40928188 7.07217832 31.3910842 7 35 C7.33 35.33 7.66 35.66 8 36 C8.26042863 39.90642938 8.2551416 42.73004468 6 46 C0.0336796 51.9663204 -9.02315712 51.23154217 -16.828125 51.265625 C-19.85694227 51.0119802 -21.5831349 50.81840326 -24 49 C-24.75 46.875 -24.75 46.875 -25 45 C-24.43152344 45.2165625 -23.86304687 45.433125 -23.27734375 45.65625 C-14.84335481 48.69755486 -9.2185957 48.46046135 -1 45 C-1 44.34 -1 43.68 -1 43 C-1.56847656 43.37253906 -2.13695312 43.74507812 -2.72265625 44.12890625 C-6.50584726 46.44682127 -9.05820234 47.98347723 -13.5625 48.0625 C-17.05270473 46.98370945 -19.94865286 45.50859238 -23.1484375 43.78515625 C-25.71399257 42.697231 -27.38820862 43.20195263 -30 44 C-32.3125 43.5625 -32.3125 43.5625 -34 43 C-34 42.34 -34 41.68 -34 41 C-35.98 41.495 -35.98 41.495 -38 42 C-38 41.34 -38 40.68 -38 40 C-38.66 40 -39.32 40 -40 40 C-40.05865035 36.81257885 -40.09381259 33.62529882 -40.125 30.4375 C-40.14175781 29.54224609 -40.15851562 28.64699219 -40.17578125 27.72460938 C-40.21462203 22.4228427 -39.9094238 17.9738487 -38 13 C-37.34 12.67 -36.68 12.34 -36 12 C-35.7834375 11.0409375 -35.7834375 11.0409375 -35.5625 10.0625 C-35 8 -35 8 -32 6 C-31.34 5.71125 -30.68 5.4225 -30 5.125 C-27.850204 4.12290061 -27.850204 4.12290061 -26.6875 1.9375 C-24.69539208 -0.34973501 -23.33888118 -0.64622745 -20.3671875 -0.9140625 C-4.73828354 -1.48144845 -4.73828354 -1.48144845 0 0 Z " fill="#142194" transform="translate(44,4)"/>
<path d="M0 0 C8.25 0 16.5 0 25 0 C22.6864371 1.54237527 20.81092855 2.54048943 18.3125 3.625 C11.39204948 7.07885284 5.50864748 12.84895698 2.61328125 20.09375 C1.07813838 27.36856716 0.64984382 36.94953145 3 44 C3.99 44 4.98 44 6 44 C6 44.66 6 45.32 6 46 C6.66 46 7.32 46 8 46 C8 47.32 8 48.64 8 50 C8.5775 50.226875 9.155 50.45375 9.75 50.6875 C12 52 12 52 13.8125 54.5 C16.58754466 57.67147961 18.94684362 58.14260153 23 59 C23 59.66 23 60.32 23 61 C26.75399798 62.2039337 30.33217412 62.09877617 34.25 62.0625 C35.51328125 62.05347656 36.7765625 62.04445312 38.078125 62.03515625 C39.52445313 62.01775391 39.52445313 62.01775391 41 62 C41 61.34 41 60.68 41 60 C41.886875 59.608125 42.77375 59.21625 43.6875 58.8125 C47.1397098 56.92355501 49.30755236 54.83798535 52 52 C52.99 51.34 53.98 50.68 55 50 C60.19081344 38.70887163 59.48388092 27.86496687 57 16 C60 17 60 17 61.6875 20.1875 C64.32395903 27.84710729 64.1231647 36.59648207 61 44 C61 45.32 61 46.64 61 48 C61.99 46.68 62.98 45.36 64 44 C64 50.6 64 57.2 64 64 C42.88 64 21.76 64 0 64 C0 42.88 0 21.76 0 0 Z " fill="#000F41" transform="translate(0,0)"/>
<path d="M0 0 C1.27259511 0.45341868 2.54301243 0.91295227 3.8125 1.375 C4.52019531 1.63023438 5.22789063 1.88546875 5.95703125 2.1484375 C8 3 8 3 11 5 C18.74066836 6.34929082 24.43337298 3.91203312 31 0 C32.87512312 1.87512312 32.30782972 5.11098445 32.4375 7.625 C32.7619137 12.77899179 33.44076273 17.11438989 35 22 C35.125 24.9375 35.125 24.9375 35 27 C34.01 27 33.02 27 32 27 C31.505 21.06 31.505 21.06 31 15 C30.01 15 29.02 15 28 15 C28 19.29 28 23.58 28 28 C25.54724859 29.2263757 23.9494219 29.11415314 21.2109375 29.09765625 C20.26992188 29.09443359 19.32890625 29.09121094 18.359375 29.08789062 C16.88210937 29.07532227 16.88210937 29.07532227 15.375 29.0625 C14.38242187 29.05798828 13.38984375 29.05347656 12.3671875 29.04882812 C9.9113984 29.03702145 7.45572896 29.020554 5 29 C4.67 30.32 4.34 31.64 4 33 C2.35 33 0.7 33 -1 33 C-1.144375 32.360625 -1.28875 31.72125 -1.4375 31.0625 C-1.81007181 29.02454854 -1.81007181 29.02454854 -3 28 C-3.47411632 22.14521474 -2.84982795 17.54948384 -1 12 C-0.89825801 9.37912639 -0.93600926 6.79277787 -1.02734375 4.171875 C-1 2 -1 2 0 0 Z " fill="#FEDC39" transform="translate(16,10)"/>
<path d="M0 0 C2 0 2 0 4.5 2.4375 C9.24225493 8.39679381 9.79162461 16.63549228 9 24 C7.8758054 29.59017316 6.65921993 35.4963447 3 40 C1.35666496 41.03789581 -0.31243867 42.03567924 -2 43 C-2.86625 43.886875 -3.7325 44.77375 -4.625 45.6875 C-7 48 -7 48 -10 48 C-10 48.66 -10 49.32 -10 50 C-13.0526063 50.88327729 -15.82505177 51.1633007 -19 51.1875 C-20.2684375 51.20876953 -20.2684375 51.20876953 -21.5625 51.23046875 C-24.15408616 50.98543096 -25.77024992 50.30584901 -28 49 C-28 48.34 -28 47.68 -28 47 C-29.03125 46.979375 -30.0625 46.95875 -31.125 46.9375 C-35.77078292 45.81352026 -36.97279334 44.29116945 -39.73828125 40.59375 C-40.92830149 38.85931379 -40.92830149 38.85931379 -43 38 C-43 36.35 -43 34.7 -43 33 C-41.68 33 -40.36 33 -39 33 C-39 33.66 -39 34.32 -39 35 C-38.071875 35 -37.14375 35 -36.1875 35 C-29.74576271 35 -29.74576271 35 -26.25 37.0625 C-22.07969048 39.20092514 -19.60500565 39.3157159 -15 38 C-12.25609825 36.79500611 -9.61594227 35.46085088 -7 34 C-7 34.99 -7 35.98 -7 37 C-12.21479237 40.76623893 -16.63625067 41.42424996 -23 41 C-25.76877727 40.16597252 -28.3276159 39.12521436 -31 38 C-30.67 38.99 -30.34 39.98 -30 41 C-21.78264317 43.73911894 -11.77783275 42.72486779 -4 39 C-3.67 38.67 -3.34 38.34 -3 38 C-3.66 37.34 -4.32 36.68 -5 36 C-3.35 35.34 -1.7 34.68 0 34 C0.07427838 30.65747276 0.06546953 28.1964086 -1 25 C-0.34 25 0.32 25 1 25 C0.69163768 22.87439563 0.37818386 20.74952935 0.0625 18.625 C-0.11152344 17.44164063 -0.28554688 16.25828125 -0.46484375 15.0390625 C-0.83462786 12.09297619 -0.83462786 12.09297619 -2 10 C-2.039992 8.00039988 -2.04346799 5.99952758 -2 4 C1.95610676 5.31870225 2.8269803 7.11705299 4.92578125 10.58984375 C6.71217527 14.59786234 6.90209405 18.65653611 7 23 C6.96132812 21.948125 6.96132812 21.948125 6.921875 20.875 C6.52853117 14.29543051 5.33330929 9.64775801 2 4 C1.32493751 2.67089773 0.65605462 1.33858678 0 0 Z " fill="#041392" transform="translate(51,12)"/>
<path d="M0 0 C0.66 0.33 1.32 0.66 2 1 C2.62553748 3.34651379 3.12850212 5.61715993 3.5625 8 C3.69180908 8.67683838 3.82111816 9.35367676 3.9543457 10.05102539 C4.88148299 15.02363694 5.5582104 19.96359859 6 25 C5.01 25 4.02 25 3 25 C2.67 21.04 2.34 17.08 2 13 C1.01 13 0.02 13 -1 13 C-1 17.29 -1 21.58 -1 26 C-3.34852528 27.17426264 -4.73774065 27.11508173 -7.3515625 27.09765625 C-8.20234375 27.09443359 -9.053125 27.09121094 -9.9296875 27.08789062 C-10.81914063 27.07951172 -11.70859375 27.07113281 -12.625 27.0625 C-13.5221875 27.05798828 -14.419375 27.05347656 -15.34375 27.04882812 C-17.56252831 27.03702611 -19.78127243 27.01909039 -22 27 C-22.33 22.05 -22.66 17.1 -23 12 C-21.02966797 11.90912109 -21.02966797 11.90912109 -19.01953125 11.81640625 C-17.28384459 11.73196744 -15.54816802 11.64732112 -13.8125 11.5625 C-12.94818359 11.52318359 -12.08386719 11.48386719 -11.19335938 11.44335938 C-7.04085878 11.23652984 -3.05462138 10.99896469 1 10 C-2.32086771 7.22999175 -2.32086771 7.22999175 -6 5 C-6 4.34 -6 3.68 -6 3 C-4.03533587 1.93224776 -2.03144641 0.93446535 0 0 Z " fill="#F6AA10" transform="translate(45,12)"/>
<path d="M0 0 C0.99 0 1.98 0 3 0 C3.10957031 0.83144531 3.21914063 1.66289062 3.33203125 2.51953125 C3.49058594 3.60621094 3.64914063 4.69289063 3.8125 5.8125 C3.96332031 6.89144531 4.11414063 7.97039063 4.26953125 9.08203125 C5.03946615 12.15765355 5.722707 12.95659115 8 15 C8.41519287 18.90281298 8.24968262 21.7379602 6 25 C0.0336796 30.9663204 -9.02315712 30.23154217 -16.828125 30.265625 C-19.85694227 30.0119802 -21.5831349 29.81840326 -24 28 C-24.75 25.875 -24.75 25.875 -25 24 C-24.43152344 24.2165625 -23.86304687 24.433125 -23.27734375 24.65625 C-14.84335481 27.69755486 -9.2185957 27.46046135 -1 24 C-1 23.34 -1 22.68 -1 22 C-1.56847656 22.37253906 -2.13695313 22.74507812 -2.72265625 23.12890625 C-6.53910036 25.46719505 -9.07917877 26.98412377 -13.625 27.0625 C-17.54807256 25.82745864 -20.52925538 24.19577721 -24 22 C-23.67 20.68 -23.34 19.36 -23 18 C-22.01 18.495 -21.02 18.99 -20 19.5 C-15.83292977 21.29922381 -12.50639139 21.30551806 -8 21 C-7.34 20.67 -6.68 20.34 -6 20 C-5.67 19.01 -5.34 18.02 -5 17 C-10.28 17.33 -15.56 17.66 -21 18 C-21 17.01 -21 16.02 -21 15 C-15.06 15 -9.12 15 -3 15 C-3 15.99 -3 16.98 -3 18 C-2.67 16.35 -2.34 14.7 -2 13 C-1.34 13 -0.68 13 0 13 C0 8.71 0 4.42 0 0 Z " fill="#424DB6" transform="translate(44,25)"/>
<path d="M0 0 C1.125 3.75 1.125 3.75 0 6 C-0.22858114 8.0374763 -0.41024278 10.08040303 -0.5625 12.125 C-0.64628906 13.22070312 -0.73007813 14.31640625 -0.81640625 15.4453125 C-0.87699219 16.28835937 -0.93757812 17.13140625 -1 18 C-1.66 18 -2.32 18 -3 18 C-2.67 19.32 -2.34 20.64 -2 22 C-1.01 20.68 -0.02 19.36 1 18 C1.66 18.33 2.32 18.66 3 19 C2.67 20.32 2.34 21.64 2 23 C3.65 23.33 5.3 23.66 7 24 C7 22.35 7 20.7 7 19 C14.26 19.33 21.52 19.66 29 20 C28.505 22.475 28.505 22.475 28 25 C27.505 23.515 27.505 23.515 27 22 C21.39 21.67 15.78 21.34 10 21 C10.33 21.66 10.66 22.32 11 23 C15.95 23 20.9 23 26 23 C25.67 24.32 25.34 25.64 25 27 C21.2688297 28.86558515 16.82518685 28.58899088 12.91796875 27.328125 C11.25282251 26.60916165 9.62225036 25.81112518 8 25 C7.01 26.32 6.02 27.64 5 29 C2.36 28.67 -0.28 28.34 -3 28 C-3 27.34 -3 26.68 -3 26 C-4.32 26.33 -5.64 26.66 -7 27 C-7 26.34 -7 25.68 -7 25 C-7.66 25 -8.32 25 -9 25 C-9.05819424 21.75007554 -9.09366116 18.50028565 -9.125 15.25 C-9.14175781 14.32960938 -9.15851562 13.40921875 -9.17578125 12.4609375 C-9.18222656 11.57148438 -9.18867188 10.68203125 -9.1953125 9.765625 C-9.20578613 8.94868164 -9.21625977 8.13173828 -9.22705078 7.29003906 C-8.97829916 4.78112482 -8.25700129 3.16604375 -7 1 C-6.67 1.66 -6.34 2.32 -6 3 C-6.33 3.99 -6.66 4.98 -7 6 C-7.06970052 8.39490986 -7.08448003 10.79167691 -7.0625 13.1875 C-7.05347656 14.45980469 -7.04445313 15.73210938 -7.03515625 17.04296875 C-7.02355469 18.01878906 -7.01195312 18.99460937 -7 20 C-7 18.81718575 -7.05652912 17.63492636 -7.10546875 16.453125 C-7.13253906 15.39609375 -7.15960938 14.3390625 -7.1875 13.25 C-7.22230469 12.20328125 -7.25710937 11.1565625 -7.29296875 10.078125 C-6.96502289 6.63250719 -5.97576033 4.80029023 -4 2 C-3.34 2.33 -2.68 2.66 -2 3 C-1.34 2.01 -0.68 1.02 0 0 Z " fill="#1927A6" transform="translate(13,19)"/>
<path d="M0 0 C1.32 0 2.64 0 4 0 C4 0.66 4 1.32 4 2 C4.928125 2 5.85625 2 6.8125 2 C13.25423729 2 13.25423729 2 16.75 4.0625 C20.92030952 6.20092514 23.39499435 6.3157159 28 5 C30.74390175 3.79500611 33.38405773 2.46085088 36 1 C36 1.99 36 2.98 36 4 C30.78520763 7.76623893 26.36374933 8.42424996 20 8 C17.23122273 7.16597252 14.6723841 6.12521436 12 5 C12.33 5.99 12.66 6.98 13 8 C16.45202465 9.15067488 19.17618272 9.13274508 22.8125 9.125 C24.01519531 9.12757812 25.21789062 9.13015625 26.45703125 9.1328125 C29.73160318 9.01006118 32.78672598 8.62001918 36 8 C36 8.66 36 9.32 36 10 C34.02 10.66 32.04 11.32 30 12 C31.98 12.66 33.96 13.32 36 14 C35.01 14.33 34.02 14.66 33 15 C33 15.66 33 16.32 33 17 C29.9473937 17.88327729 27.17494823 18.1633007 24 18.1875 C23.154375 18.20167969 22.30875 18.21585938 21.4375 18.23046875 C18.84591384 17.98543096 17.22975008 17.30584901 15 16 C15 15.34 15 14.68 15 14 C13.453125 13.9690625 13.453125 13.9690625 11.875 13.9375 C7.22921708 12.81352026 6.02720666 11.29116945 3.26171875 7.59375 C2.07169851 5.85931379 2.07169851 5.85931379 0 5 C0 3.35 0 1.7 0 0 Z " fill="#1E2CAA" transform="translate(8,45)"/>
<path d="M0 0 C0 -0.99 0 -1.98 0 -3 C1.32 -3 2.64 -3 4 -3 C4 -2.34 4 -1.68 4 -1 C4.90492187 -0.86271484 4.90492187 -0.86271484 5.828125 -0.72265625 C8.53257263 0.17720492 9.2082314 1.20702019 10.75 3.5625 C11.17796875 4.20316406 11.6059375 4.84382812 12.046875 5.50390625 C12.36140625 5.99761719 12.6759375 6.49132813 13 7 C12.67 7.66 12.34 8.32 12 9 C11.01 8.34 10.02 7.68 9 7 C9.268125 7.53625 9.53625 8.0725 9.8125 8.625 C10.4003125 9.800625 10.4003125 9.800625 11 11 C11.7734375 12.2684375 11.7734375 12.2684375 12.5625 13.5625 C15.17806856 19.81712047 15.57158039 26.41603064 14 33 C13.67 33 13.34 33 13 33 C12.98582031 32.01 12.97164062 31.02 12.95703125 30 C12.72884001 22.45536744 12.47756889 15.76765821 7 10 C6.34 9.67 5.68 9.34 5 9 C5.4640625 10.8871875 5.4640625 10.8871875 5.9375 12.8125 C6.11152344 13.52019531 6.28554688 14.22789063 6.46484375 14.95703125 C6.91010705 16.65683202 7.44433985 18.33301954 8 20 C8.06802967 21.72795352 8.08495645 23.45835365 8.0625 25.1875 C8.05347656 26.08855469 8.04445312 26.98960938 8.03515625 27.91796875 C8.02355469 28.60503906 8.01195312 29.29210938 8 30 C7.67 30 7.34 30 7 30 C4.47553488 21.33108203 3.38663453 13.01258426 3 4 C1.8553125 3.8453125 1.8553125 3.8453125 0.6875 3.6875 C-2 3 -2 3 -3.3828125 1.453125 C-5.97332431 -0.87458127 -8.4877821 -0.32161137 -11.875 -0.25 C-13.08929688 -0.23453125 -14.30359375 -0.2190625 -15.5546875 -0.203125 C-18.48478214 -0.03037566 -21.15014474 0.328171 -24 1 C-23 -1 -23 -1 -19.875 -2.125 C-12.37993792 -3.81743337 -7.01480673 -2.67230732 0 0 Z " fill="#021071" transform="translate(44,7)"/>
<path d="M0 0 C0.928125 0.103125 1.85625 0.20625 2.8125 0.3125 C3.95327657 3.73482972 3.91065117 6.39923217 3.875 10 C3.86597656 11.17949219 3.85695313 12.35898437 3.84765625 13.57421875 C3.83605469 14.47785156 3.82445312 15.38148437 3.8125 16.3125 C3.1525 16.3125 2.4925 16.3125 1.8125 16.3125 C1.4825 17.6325 1.1525 18.9525 0.8125 20.3125 C-0.8375 20.3125 -2.4875 20.3125 -4.1875 20.3125 C-4.331875 19.673125 -4.47625 19.03375 -4.625 18.375 C-4.99757181 16.33704854 -4.99757181 16.33704854 -6.1875 15.3125 C-6.62996462 10.71767514 -6.63249081 6.5485856 -5.0625 2.1875 C-3.1875 0.3125 -3.1875 0.3125 0 0 Z " fill="#EDD51B" transform="translate(19.1875,22.6875)"/>
<path d="M0 0 C5.94 0 11.88 0 18 0 C18 0.99 18 1.98 18 3 C18.66 2.67 19.32 2.34 20 2 C20.33 3.32 20.66 4.64 21 6 C16.18530038 9.3890483 12.09041798 12.21369888 6 12 C2.81185632 10.60518714 -0.09229252 8.90550445 -3 7 C-2.67 5.68 -2.34 4.36 -2 3 C-1.01 3.495 -0.02 3.99 1 4.5 C5.16707023 6.29922381 8.49360861 6.30551806 13 6 C13.66 5.67 14.32 5.34 15 5 C15.33 4.01 15.66 3.02 16 2 C8.08 2.495 8.08 2.495 0 3 C0 2.01 0 1.02 0 0 Z " fill="#DEB879" transform="translate(23,40)"/>
<path d="M0 0 C5.94 0 11.88 0 18 0 C18 6.6 18 13.2 18 20 C16.89181604 18.33772406 15.79889841 16.66376327 14.7734375 14.94921875 C11.67674026 9.94087321 8.60943188 6.50757866 3.734375 3.19140625 C2 2 2 2 0 0 Z " fill="#000F4D" transform="translate(46,0)"/>
<path d="M0 0 C0.33 0 0.66 0 1 0 C1 6.6 1 13.2 1 20 C-4.61 20 -10.22 20 -16 20 C-13 17 -13 17 -11.1328125 15.52734375 C-5.56006665 11.11468312 -2.7291157 6.52101203 0 0 Z " fill="#031285" transform="translate(63,44)"/>
<path d="M0 0 C3 1 3 1 4.6875 4.1875 C7.53616493 12.74881019 7.19767587 21.44168137 3.3125 29.5625 C0.1649349 35.12443268 -2.89786656 39.51394564 -9 42 C-9 42.66 -9 43.32 -9 44 C-11.64738916 45.4606285 -12.89448334 46 -16 46 C-16 45.34 -16 44.68 -16 44 C-14.6696875 43.4121875 -14.6696875 43.4121875 -13.3125 42.8125 C-9.8602902 40.92355501 -7.69244764 38.83798535 -5 36 C-4.01 35.34 -3.02 34.68 -2 34 C3.19081344 22.70887163 2.48388092 11.86496687 0 0 Z " fill="#000F7C" transform="translate(57,16)"/>
<path d="M0 0 C3.88557849 1.29519283 4.91395791 2.83732117 6.98046875 6.27734375 C9.0861538 11.90057163 8.79072494 18.11568856 8 24 C6.46875 26.95703125 6.46875 26.95703125 5 29 C3.22293791 26.33440687 2.12451727 23.9719385 1 21 C1.66 21 2.32 21 3 21 C2.69163768 18.87439563 2.37818386 16.74952935 2.0625 14.625 C1.88847656 13.44164062 1.71445312 12.25828125 1.53515625 11.0390625 C1.16537214 8.09297619 1.16537214 8.09297619 0 6 C-0.039992 4.00039988 -0.04346799 1.99952758 0 0 Z " fill="#101EA2" transform="translate(49,16)"/>
<path d="M0 0 C4.62 0 9.24 0 14 0 C13.01 0.33 12.02 0.66 11 1 C11 4.96 11 8.92 11 13 C9.39125 12.7215625 9.39125 12.7215625 7.75 12.4375 C3.92789678 11.76775571 3.92789678 11.76775571 0 13 C0 8.71 0 4.42 0 0 Z " fill="#EE5B17" transform="translate(26,24)"/>
<path d="M0 0 C5.61 0 11.22 0 17 0 C12 4 12 4 9.5625 5.625 C6.28678017 8.66103301 4.40707776 12.07809844 2.234375 15.953125 C1.82703125 16.62859375 1.4196875 17.3040625 1 18 C0.67 18 0.34 18 0 18 C0 12.06 0 6.12 0 0 Z " fill="#000F62" transform="translate(0,0)"/>
<path d="M0 0 C1.15628906 -0.00257812 2.31257813 -0.00515625 3.50390625 -0.0078125 C6.4375 0.125 6.4375 0.125 8.4375 1.125 C8.4375 1.785 8.4375 2.445 8.4375 3.125 C9.0975 3.455 9.7575 3.785 10.4375 4.125 C6.39794368 7.35664506 2.87427603 7.62283287 -2.11328125 7.49609375 C-5.79199341 6.93871312 -7.7430861 5.49924328 -10.5625 3.125 C-8.53183441 -0.93633119 -4.00154594 -0.008942 0 0 Z " fill="#1B29A0" transform="translate(31.5625,8.875)"/>
<path d="M0 0 C6.93 0 13.86 0 21 0 C20.67 1.65 20.34 3.3 20 5 C19.67 4.01 19.34 3.02 19 2 C13.39 1.67 7.78 1.34 2 1 C2.33 1.66 2.66 2.32 3 3 C7.95 3 12.9 3 18 3 C17.67 4.32 17.34 5.64 17 7 C13.78424322 8.60787839 10.4875413 8.48211971 7 8 C4.42183623 6.89230862 2.35109248 5.56739499 0 4 C0 2.68 0 1.36 0 0 Z " fill="#473215" transform="translate(21,39)"/>
<path d="M0 0 C-2.3135629 1.54237527 -4.18907145 2.54048943 -6.6875 3.625 C-14.21573849 7.38218716 -19.26642223 13.15938128 -22.32421875 20.9453125 C-23.09128364 23.27754449 -23.68550902 25.56269487 -24 28 C-24.33 28 -24.66 28 -25 28 C-26.0220152 20.52144431 -24.51894569 15.71722275 -20.19140625 9.5625 C-14.50023455 2.90758265 -8.89562561 -1.15313665 0 0 Z " fill="#000F3D" transform="translate(25,0)"/>
<path d="M0 0 C2.66661156 2.23651292 3.8886778 3.61832387 4.875 7 C5 10 5 10 4.0390625 11.83984375 C2.40194967 15.24331517 2.54597956 18.71532661 2.34375 22.44140625 C2 25 2 25 0 28 C-0.33 26.35 -0.66 24.7 -1 23 C-0.34 23 0.32 23 1 23 C1 22.16855469 1 21.33710937 1 20.48046875 C1 16.3203125 1 12.16015625 1 8 C0.01 8 -0.98 8 -2 8 C-5.76873037 14.22659801 -4.52153787 23.15307959 -3 30 C-6.42126965 26.57873035 -6.24254551 23.07850151 -6.375 18.4375 C-6.35391219 11.66128397 -4.99071894 4.99071894 0 0 Z " fill="#252A82" transform="translate(11,14)"/>
<path d="M0 0 C0.66 0.33 1.32 0.66 2 1 C2.62553748 3.34651379 3.12850212 5.61715993 3.5625 8 C3.69180908 8.67683838 3.82111816 9.35367676 3.9543457 10.05102539 C4.88148299 15.02363694 5.5582104 19.96359859 6 25 C5.01 25 4.02 25 3 25 C2.67 21.04 2.34 17.08 2 13 C0.68 13.33 -0.64 13.66 -2 14 C-2 13.34 -2 12.68 -2 12 C-2.66 11.67 -3.32 11.34 -4 11 C-2.35 10.67 -0.7 10.34 1 10 C-2.32086771 7.22999175 -2.32086771 7.22999175 -6 5 C-6 4.34 -6 3.68 -6 3 C-4.03533587 1.93224776 -2.03144641 0.93446535 0 0 Z " fill="#C66B2F" transform="translate(45,12)"/>
<path d="M0 0 C3.41788271 0.27840794 6.83394735 0.57503207 10.25 0.875 C11.21808594 0.95363281 12.18617187 1.03226563 13.18359375 1.11328125 C14.11816406 1.19707031 15.05273438 1.28085937 16.015625 1.3671875 C16.87446289 1.44050293 17.73330078 1.51381836 18.61816406 1.58935547 C21.07709617 2.0132919 22.84159153 2.77224134 25 4 C24.01 4 23.02 4 22 4 C22 4.66 22 5.32 22 6 C18.9473937 6.88327729 16.17494823 7.1633007 13 7.1875 C12.154375 7.20167969 11.30875 7.21585938 10.4375 7.23046875 C7.84591384 6.98543096 6.22975008 6.30584901 4 5 C4 4.01 4 3.02 4 2 C2.68 1.34 1.36 0.68 0 0 Z " fill="#051382" transform="translate(19,56)"/>
<path d="M0 0 C1.77049689 -0.05410687 3.54146849 -0.09284119 5.3125 -0.125 C6.29863281 -0.14820312 7.28476562 -0.17140625 8.30078125 -0.1953125 C11 0 11 0 14 2 C14 3.32 14 4.64 14 6 C9.38 6 4.76 6 0 6 C0 4.02 0 2.04 0 0 Z " fill="#FCE05F" transform="translate(25,18)"/>
<path d="M0 0 C0 0.66 0 1.32 0 2 C0.66 2 1.32 2 2 2 C2 2.66 2 3.32 2 4 C0.83984375 3.97679687 -0.3203125 3.95359375 -1.515625 3.9296875 C-10.56184037 3.80558079 -19.11285598 4.04831347 -28 6 C-26.3785334 2.75706679 -23.59603459 2.10959087 -20.3203125 0.8203125 C-13.67548206 -0.82135149 -6.7946246 -0.28376622 0 0 Z " fill="#000F61" transform="translate(42,0)"/>
<path d="M0 0 C1.32 0 2.64 0 4 0 C4 0.66 4 1.32 4 2 C6.97 2.495 6.97 2.495 10 3 C9.34 4.32 8.68 5.64 8 7 C8.639375 7.268125 9.27875 7.53625 9.9375 7.8125 C12 9 12 9 13 12 C13.66 12.66 14.32 13.32 15 14 C11.51031121 13.93020622 8.91669724 13.84220266 6.26953125 11.41015625 C5.23637028 10.16271004 4.23185825 8.89081322 3.26171875 7.59375 C2.07169851 5.85931379 2.07169851 5.85931379 0 5 C0 3.35 0 1.7 0 0 Z " fill="#0D1B90" transform="translate(8,45)"/>
<path d="M0 0 C0.99 0 1.98 0 3 0 C4.09571574 3.72883107 4.00217377 7.02843823 3.83984375 10.87890625 C3.84859155 13.30423942 3.84859155 13.30423942 6 16 C2.25 19 2.25 19 0 19 C-0.66 17.02 -1.32 15.04 -2 13 C-1.34 13 -0.68 13 0 13 C0 8.71 0 4.42 0 0 Z " fill="#79A5A6" transform="translate(44,25)"/>
<path d="M0 0 C0.66 0 1.32 0 2 0 C2.33 5.94 2.66 11.88 3 18 C1.35 18 -0.3 18 -2 18 C-3.125 14.25 -3.125 14.25 -2 12 C-2.03238412 9.99218478 -2.06480122 7.98437007 -2.09765625 5.9765625 C-1.97979867 3.59112509 -1.32057043 1.98085564 0 0 Z " fill="#AFCC6F" transform="translate(17,25)"/>
<path d="M0 0 C2 0 2 0 4.5 2.4375 C9.24225493 8.39679381 9.79162461 16.63549228 9 24 C6.65993031 35.63623693 6.65993031 35.63623693 3 40 C1.35149577 40.71039146 -0.31454717 41.38236663 -2 42 C-1.51789062 41.29875 -1.03578125 40.5975 -0.5390625 39.875 C5.29303428 31.11495259 7.76349917 25.21816749 6.55078125 14.68359375 C5.72975351 10.68326712 4.05808764 7.48709943 2 4 C1.32493751 2.67089773 0.65605462 1.33858678 0 0 Z " fill="#2735AE" transform="translate(51,12)"/>
<path d="M0 0 C1.27445454 0.42683632 2.54445882 0.86697202 3.8125 1.3125 C4.52019531 1.55613281 5.22789063 1.79976562 5.95703125 2.05078125 C8.14472373 3.06724258 9.40896718 4.20820594 11 6 C7 8 3 10 -1 12 C-1.02698189 10.37509046 -1.04638757 8.75005367 -1.0625 7.125 C-1.07410156 6.22007813 -1.08570313 5.31515625 -1.09765625 4.3828125 C-1 2 -1 2 0 0 Z " fill="#EDA425" transform="translate(16,10)"/>
<path d="M0 0 C0.66 0 1.32 0 2 0 C2 1.32 2 2.64 2 4 C2.99 4.33 3.98 4.66 5 5 C5 5.66 5 6.32 5 7 C5.598125 7.268125 6.19625 7.53625 6.8125 7.8125 C9 9 9 9 12 12 C8.04 12 4.08 12 0 12 C0 8.04 0 4.08 0 0 Z " fill="#000F44" transform="translate(0,52)"/>
<path d="M0 0 C2 2 2 2 2.1953125 4.8203125 C2.16050781 6.45613281 2.16050781 6.45613281 2.125 8.125 C2.10695313 9.22070312 2.08890625 10.31640625 2.0703125 11.4453125 C2.04710937 12.28835937 2.02390625 13.13140625 2 14 C0.35 14.33 -1.3 14.66 -3 15 C-3 10.71 -3 6.42 -3 2 C-2.01 2 -1.02 2 0 2 C0 1.34 0 0.68 0 0 Z " fill="#E3D227" transform="translate(42,24)"/>
<path d="M0 0 C0.33 0 0.66 0 1 0 C1 3.63 1 7.26 1 11 C-2.63 11 -6.26 11 -10 11 C-7.22169429 7.3984926 -4.2594334 4.17134061 -1 1 C-0.67 0.67 -0.34 0.34 0 0 Z " fill="#000F4F" transform="translate(63,53)"/>
<path d="M0 0 C2.64 0 5.28 0 8 0 C8.12375 0.928125 8.12375 0.928125 8.25 1.875 C8.4975 2.57625 8.745 3.2775 9 4 C9.5775 4.268125 10.155 4.53625 10.75 4.8125 C14.25474965 6.66222898 16.2474115 9.48074598 18 13 C18.3125 16.9375 18.3125 16.9375 18 20 C16.89181604 18.33772406 15.79889841 16.66376327 14.7734375 14.94921875 C11.67674026 9.94087321 8.60943188 6.50757866 3.734375 3.19140625 C2 2 2 2 0 0 Z " fill="#051491" transform="translate(46,0)"/>
<path d="M0 0 C0.66 0.33 1.32 0.66 2 1 C1.67 2.32 1.34 3.64 1 5 C2.65 5.33 4.3 5.66 6 6 C6 4.35 6 2.7 6 1 C6.33 1 6.66 1 7 1 C7.36923077 6.41538462 7.36923077 6.41538462 5.5 9.375 C5.005 9.91125 4.51 10.4475 4 11 C1.03 10.505 1.03 10.505 -2 10 C-3.06351675 6.61608307 -3.21442982 5.4195366 -1.5625 2.1875 C-1.046875 1.465625 -0.53125 0.74375 0 0 Z " fill="#0CA0D7" transform="translate(14,37)"/>
<path d="M0 0 C3.875 1.875 3.875 1.875 5 3 C5.1875 5.9375 5.1875 5.9375 5 9 C4.34 9.66 3.68 10.32 3 11 C0 10.9375 0 10.9375 -3 10 C-4.4375 7.625 -4.4375 7.625 -5 5 C-4.67 4.01 -4.34 3.02 -4 2 C-3.67 3.65 -3.34 5.3 -3 7 C-1.35 6.01 0.3 5.02 2 4 C1.34 2.68 0.68 1.36 0 0 Z " fill="#0AA6DD" transform="translate(47,37)"/>
<path d="M0 0 C1.48907063 1.96068245 2.94801704 3.92286894 4.32421875 5.96484375 C7.50003245 10.56021888 10.56555766 13.38546725 15.4609375 16.08984375 C15.96882812 16.39019531 16.47671875 16.69054687 17 17 C17 17.33 17 17.66 17 18 C11.68277974 17.58296312 8.88519965 16.66935523 5 13 C4.401875 12.505 3.80375 12.01 3.1875 11.5 C2 10 2 10 2 6 C1.34 6 0.68 6 0 6 C0 4.02 0 2.04 0 0 Z " fill="#041391" transform="translate(0,46)"/>
<path d="M0 0 C3 1 3 1 4.6875 4.1875 C7.24969311 11.63134524 7.37905465 20.851482 4 28 C3.67 28 3.34 28 3 28 C3 20.41 3 12.82 3 5 C2.34 5 1.68 5 1 5 C0.67 3.35 0.34 1.7 0 0 Z " fill="#000F60" transform="translate(57,16)"/>
<path d="M0 0 C1.2065625 0.0309375 1.2065625 0.0309375 2.4375 0.0625 C-2.5625 4.0625 -2.5625 4.0625 -5 5.6875 C-8.80425193 9.21339203 -11.06010258 13.55646478 -13.5625 18.0625 C-14.47651261 15.56457733 -14.67799263 14.38886722 -13.77734375 11.84375 C-10.94428956 6.78410581 -8.66869995 3.84769997 -3.5625 1.0625 C-2.5625 0.0625 -2.5625 0.0625 0 0 Z " fill="#051492" transform="translate(14.5625,-0.0625)"/>
<path d="M0 0 C0.64066406 0.37253906 1.28132813 0.74507812 1.94140625 1.12890625 C7.47223305 4.16175982 7.47223305 4.16175982 13.625 5.0625 C17.67796954 3.78656514 21.29694419 2.06794026 25 0 C25 0.99 25 1.98 25 3 C19.78520763 6.76623893 15.36374933 7.42424996 9 7 C4.43868854 5.80399609 1.67532141 5.01298212 -1 1 C-0.67 0.67 -0.34 0.34 0 0 Z " fill="#030A4C" transform="translate(19,46)"/>
<path d="M0 0 C0.66 0 1.32 0 2 0 C2 0.66 2 1.32 2 2 C2.66 2 3.32 2 4 2 C4 3.32 4 4.64 4 6 C4.5775 6.226875 5.155 6.45375 5.75 6.6875 C8.5663661 8.33038023 10.08077114 10.39533227 12 13 C10.68 13.33 9.36 13.66 8 14 C7.34 12.68 6.68 11.36 6 10 C5.34 10 4.68 10 4 10 C3.67 8.68 3.34 7.36 3 6 C2.34 6 1.68 6 1 6 C0.67 4.02 0.34 2.04 0 0 Z " fill="#000F74" transform="translate(4,44)"/>
<path d="M0 0 C1.15628906 -0.00257812 2.31257813 -0.00515625 3.50390625 -0.0078125 C6.4375 0.125 6.4375 0.125 8.4375 1.125 C8.4375 1.785 8.4375 2.445 8.4375 3.125 C9.0975 3.455 9.7575 3.785 10.4375 4.125 C9.58027344 4.04121094 8.72304688 3.95742187 7.83984375 3.87109375 C1.83818264 3.33656024 -3.64671487 2.88681241 -9.5625 4.125 C-9.5625 3.135 -9.5625 2.145 -9.5625 1.125 C-6.18481526 -0.00089491 -3.55437928 -0.00794275 0 0 Z " fill="#444FB9" transform="translate(31.5625,8.875)"/>
<path d="M0 0 C1.125 3.75 1.125 3.75 0 6 C-0.22858114 8.0374763 -0.41024278 10.08040303 -0.5625 12.125 C-0.64628906 13.22070312 -0.73007813 14.31640625 -0.81640625 15.4453125 C-0.87699219 16.28835937 -0.93757812 17.13140625 -1 18 C-1.99 17.67 -2.98 17.34 -4 17 C-4.37908343 10.80830398 -3.87999855 6.52959722 -1 1 C-0.67 0.67 -0.34 0.34 0 0 Z " fill="#4651B8" transform="translate(13,19)"/>
<path d="M0 0 C0.66 0.33 1.32 0.66 2 1 C1.34 3.31 0.68 5.62 0 8 C-2.64 8 -5.28 8 -8 8 C-8 7.01 -8 6.02 -8 5 C-5.36740403 2.58085776 -3.40571201 1.13523734 0 0 Z " fill="#FCD93E" transform="translate(25,16)"/>
<path d="M0 0 C0.65234375 1.78125 0.65234375 1.78125 1 4 C0.00390625 5.71875 0.00390625 5.71875 -1.4375 7.5 C-5.63496763 13.70899644 -4.44806668 20.63949989 -3.5 27.75 C-3.335 28.4925 -3.17 29.235 -3 30 C-6.42126965 26.57873035 -6.24254551 23.07850151 -6.375 18.4375 C-6.35391219 11.66128397 -4.99071894 4.99071894 0 0 Z " fill="#010F78" transform="translate(11,14)"/>
<path d="M0 0 C0 0.66 0 1.32 0 2 C-1.32 2 -2.64 2 -4 2 C-4 1.34 -4 0.68 -4 0 C-6.39614126 -0.05425226 -8.79103853 -0.09379027 -11.1875 -0.125 C-11.86103516 -0.14175781 -12.53457031 -0.15851562 -13.22851562 -0.17578125 C-17.28807807 -0.21538674 -20.34998815 0.19979998 -24 2 C-23 -1 -23 -1 -21.0625 -2.1875 C-13.45114518 -4.20683904 -7.09384264 -3.15281895 0 0 Z " fill="#1E2CAB" transform="translate(44,10)"/>
<path d="M0 0 C0.66 0.33 1.32 0.66 2 1 C2 3.97 2 6.94 2 10 C0.66144944 9.21718695 -0.67073644 8.42348123 -2 7.625 C-2.7425 7.18414063 -3.485 6.74328125 -4.25 6.2890625 C-5.11625 5.65097656 -5.11625 5.65097656 -6 5 C-6 4.34 -6 3.68 -6 3 C-4.03533587 1.93224776 -2.03144641 0.93446535 0 0 Z " fill="#C47727" transform="translate(45,12)"/>
<path d="M0 0 C1.32 0 2.64 0 4 0 C4.66 2.31 5.32 4.62 6 7 C0.25 7.125 0.25 7.125 -2 6 C-1.34 4.02 -0.68 2.04 0 0 Z " fill="#70522E" transform="translate(30,29)"/>
<path d="M0 0 C1 3 1 3 -0.07421875 5.19140625 C-0.60660156 5.97386719 -1.13898437 6.75632812 -1.6875 7.5625 C-2.20699219 8.34753906 -2.72648437 9.13257813 -3.26171875 9.94140625 C-5.05639264 12.06678409 -6.44536515 12.97035415 -9 14 C-8.01 12.35 -7.02 10.7 -6 9 C-7.32 8.67 -8.64 8.34 -10 8 C-9.21625 7.7525 -8.4325 7.505 -7.625 7.25 C-4.67682892 5.84610901 -4.0975223 4.99324263 -3 2 C-2.67 2.66 -2.34 3.32 -2 4 C-1.34 2.68 -0.68 1.36 0 0 Z " fill="#060F6A" transform="translate(56,40)"/>
<path d="M0 0 C1.546875 0.7115625 1.546875 0.7115625 3.125 1.4375 C6.38534162 2.84522388 9.46051083 3.56835498 13 4 C13 4.33 13 4.66 13 5 C11.02 5 9.04 5 7 5 C7 5.66 7 6.32 7 7 C3.62537285 6.45276317 1.91765 5.9451 -1 4 C-0.67 2.68 -0.34 1.36 0 0 Z " fill="#E3A22B" transform="translate(21,43)"/>
<path d="M0 0 C3 1 3 1 5 4 C5.1953125 7.13671875 5.1953125 7.13671875 5.125 10.6875 C5.10695313 11.86699219 5.08890625 13.04648437 5.0703125 14.26171875 C5.03550781 15.61716797 5.03550781 15.61716797 5 17 C4.34 17 3.68 17 3 17 C2.86722656 16.10796875 2.73445313 15.2159375 2.59765625 14.296875 C2.42105469 13.12640625 2.24445312 11.9559375 2.0625 10.75 C1.88847656 9.58984375 1.71445312 8.4296875 1.53515625 7.234375 C1.1272264 4.76893039 0.66098697 2.40575438 0 0 Z " fill="#4752BC" transform="translate(49,20)"/>
<path d="M0 0 C3.37503669 1.1858237 5.64722731 2.27573689 8 5 C5.33333333 6.33333333 2.66666667 7.66666667 0 9 C0 6.03 0 3.06 0 0 Z " fill="#C27628" transform="translate(17,12)"/>
<path d="M0 0 C0.33 0.66 0.66 1.32 1 2 C3.02463255 2.65213292 3.02463255 2.65213292 5 3 C1.30827405 6.53790403 -2.09390595 6.59115883 -7 7 C-5.66667905 3.00003714 -3.5042173 2.16217663 0 0 Z " fill="#414CB6" transform="translate(45,47)"/>
<path d="M0 0 C2.64 0 5.28 0 8 0 C7.04578192 1.14926266 6.08647955 2.29430541 5.125 3.4375 C4.59132813 4.07558594 4.05765625 4.71367188 3.5078125 5.37109375 C2 7 2 7 0 8 C0 5.36 0 2.72 0 0 Z " fill="#000F3C" transform="translate(0,0)"/>
<path d="M0 0 C0.928125 0.103125 1.85625 0.20625 2.8125 0.3125 C0.8125 2.3125 0.8125 2.3125 -2.1875 3.3125 C-2.30867188 4.09496094 -2.42984375 4.87742187 -2.5546875 5.68359375 C-2.72226562 6.69550781 -2.88984375 7.70742188 -3.0625 8.75 C-3.30613281 10.26400391 -3.30613281 10.26400391 -3.5546875 11.80859375 C-3.76351563 12.63488281 -3.97234375 13.46117187 -4.1875 14.3125 C-5.1775 14.8075 -5.1775 14.8075 -6.1875 15.3125 C-6.64512712 6.58368644 -6.64512712 6.58368644 -5.0625 2.1875 C-3.1875 0.3125 -3.1875 0.3125 0 0 Z " fill="#D67C29" transform="translate(19.1875,22.6875)"/>
<path d="M0 0 C0.33 0.66 0.66 1.32 1 2 C3.01669827 3.13350534 3.01669827 3.13350534 5 4 C4.34 4.66 3.68 5.32 3 6 C2.01 6 1.02 6 0 6 C-0.66 5.34 -1.32 4.68 -2 4 C-3.98356483 3.28591666 -5.98315437 2.61382258 -8 2 C-4.91190305 0.23537317 -3.76687864 0 0 0 Z " fill="#0C198F" transform="translate(48,7)"/>
<path d="M0 0 C0.33 0.66 0.66 1.32 1 2 C-0.41152344 1.94779297 -0.41152344 1.94779297 -1.8515625 1.89453125 C-3.09679687 1.86746094 -4.34203125 1.84039062 -5.625 1.8125 C-6.85476562 1.77769531 -8.08453125 1.74289063 -9.3515625 1.70703125 C-13.27982511 2.0224699 -15.59394692 3.09720495 -19 5 C-19.66 5 -20.32 5 -21 5 C-21 4.01 -21 3.02 -21 2 C-14.11997829 -0.62096065 -7.27823961 -0.18170362 0 0 Z " fill="#041398" transform="translate(39,6)"/>
<path d="M0 0 C0 1.32 0 2.64 0 4 C-3.375 4.625 -3.375 4.625 -7 5 C-7.66 4.34 -8.32 3.68 -9 3 C-8.67 2.34 -8.34 1.68 -8 1 C-5.30114269 0.42577504 -2.76207303 0 0 0 Z " fill="#D58C2A" transform="translate(36,47)"/>
<path d="M0 0 C2.125 0.375 2.125 0.375 4 1 C4 2.65 4 4.3 4 6 C2.35 6 0.7 6 -1 6 C-1.625 4.125 -1.625 4.125 -2 2 C-1.34 1.34 -0.68 0.68 0 0 Z " fill="#B2E1ED" transform="translate(16,37)"/>
<path d="M0 0 C1.50960093 4.74109041 1.02245072 9.57566441 0.9375 14.4921875 C0.99600121 17.77556786 1.3703267 20.78276296 2 24 C0.10942176 22.41266302 -0.90371193 21.52549545 -1.35644531 19.0546875 C-1.34709961 18.33539063 -1.33775391 17.61609375 -1.328125 16.875 C-1.32296875 16.08609375 -1.3178125 15.2971875 -1.3125 14.484375 C-1.291875 13.66453125 -1.27125 12.8446875 -1.25 12 C-1.24226562 10.77023438 -1.24226562 10.77023438 -1.234375 9.515625 C-1.18881327 6.03015265 -1.11216218 3.33648654 0 0 Z " fill="#000F5F" transform="translate(2,20)"/>
<path d="M0 0 C2.31 0.33 4.62 0.66 7 1 C7 1.99 7 2.98 7 4 C4.36 4 1.72 4 -1 4 C-0.67 2.68 -0.34 1.36 0 0 Z " fill="#FCF077" transform="translate(29,19)"/>
<path d="M0 0 C2.24993359 -0.02707139 4.49996095 -0.04642829 6.75 -0.0625 C8.00296875 -0.07410156 9.2559375 -0.08570313 10.546875 -0.09765625 C13.28536501 -0.02021027 15.41880293 0.17219185 18 1 C18 1.99 18 2.98 18 4 C17.45472656 3.86722656 16.90945312 3.73445312 16.34765625 3.59765625 C10.90097013 2.32210753 5.56879648 1.53036157 0 1 C0 0.67 0 0.34 0 0 Z " fill="#0D1B9E" transform="translate(26,3)"/>
<path d="M0 0 C0.33 0 0.66 0 1 0 C1 2.31 1 4.62 1 7 C-1.31 7 -3.62 7 -6 7 C-5.02433888 5.83040013 -4.044375 4.66438823 -3.0625 3.5 C-2.51722656 2.8503125 -1.97195312 2.200625 -1.41015625 1.53125 C-0.71212891 0.77328125 -0.71212891 0.77328125 0 0 Z " fill="#000F3B" transform="translate(63,57)"/>
<path d="M0 0 C0.33 0.99 0.66 1.98 1 3 C-0.52994792 4.23697917 -2.05989583 5.47395833 -3.58984375 6.7109375 C-5.13266437 7.9666391 -5.13266437 7.9666391 -6 10 C-7.65 10 -9.3 10 -11 10 C-8.70395251 7.64600809 -6.29439874 5.46890382 -3.8125 3.3125 C-2.73935547 2.37857422 -2.73935547 2.37857422 -1.64453125 1.42578125 C-1.10183594 0.95527344 -0.55914062 0.48476563 0 0 Z " fill="#08179A" transform="translate(58,54)"/>
<path d="M0 0 C0.99 0.33 1.98 0.66 3 1 C3 1.66 3 2.32 3 3 C3.598125 3.268125 4.19625 3.53625 4.8125 3.8125 C6.97224808 4.98493467 8.35790256 6.19369282 10 8 C6.05783322 7.7312159 4.43510186 7.44655191 1.625 4.5625 C0 2 0 2 0 0 Z " fill="#000F5E" transform="translate(2,56)"/>
<path d="M0 0 C2.31 0.33 4.62 0.66 7 1 C7 1.66 7 2.32 7 3 C9.31 3.66 11.62 4.32 14 5 C11.26980214 6.06528748 10.20701188 6.07998186 7.421875 5.00390625 C6.54015625 4.52824219 5.6584375 4.05257812 4.75 3.5625 C3.85796875 3.08941406 2.9659375 2.61632813 2.046875 2.12890625 C1.37140625 1.75636719 0.6959375 1.38382813 0 1 C0 0.67 0 0.34 0 0 Z " fill="#000F6F" transform="translate(16,58)"/>
<path d="M0 0 C0.66 0 1.32 0 2 0 C0.85485202 5.41342681 -0.34012809 7.9342948 -5 11 C-5.66 10.67 -6.32 10.34 -7 10 C-6.57847656 9.44570313 -6.15695313 8.89140625 -5.72265625 8.3203125 C-5.17480469 7.59585938 -4.62695312 6.87140625 -4.0625 6.125 C-3.51722656 5.40570313 -2.97195312 4.68640625 -2.41015625 3.9453125 C-0.96035376 2.05642921 -0.96035376 2.05642921 0 0 Z " fill="#1726A7" transform="translate(56,43)"/>
<path d="M0 0 C1.32 0 2.64 0 4 0 C3.625 1.9375 3.625 1.9375 3 4 C-0.21451269 5.60725635 -3.43612536 5.05748185 -7 5 C-6.401875 4.71125 -5.80375 4.4225 -5.1875 4.125 C-2.80672208 2.95257974 -2.80672208 2.95257974 0 1 C0 0.67 0 0.34 0 0 Z " fill="#211914" transform="translate(35,42)"/>
<path d="M0 0 C1.32 1.32 2.64 2.64 4 4 C0.25 7 0.25 7 -2 7 C-2 5.35 -2 3.7 -2 2 C-1.34 2 -0.68 2 0 2 C0 1.34 0 0.68 0 0 Z " fill="#ADE2F1" transform="translate(46,37)"/>
<path d="M0 0 C0.66 0.33 1.32 0.66 2 1 C2 3.64 2 6.28 2 9 C1.67 9 1.34 9 1 9 C0.67 7.02 0.34 5.04 0 3 C-2.35171131 3.59861742 -4.6859378 4.26924352 -7 5 C-7.33 5.66 -7.66 6.32 -8 7 C-8 6.01 -8 5.02 -8 4 C-6.71349294 3.30289269 -5.42059335 2.61757124 -4.125 1.9375 C-3.40570313 1.55464844 -2.68640625 1.17179688 -1.9453125 0.77734375 C-1.30335937 0.52082031 -0.66140625 0.26429687 0 0 Z " fill="#F0A923" transform="translate(46,10)"/>
<path d="M0 0 C0.33 0 0.66 0 1 0 C1.36923077 5.41538462 1.36923077 5.41538462 -0.5 8.375 C-0.995 8.91125 -1.49 9.4475 -2 10 C-3.32 9.67 -4.64 9.34 -6 9 C-5.67 8.01 -5.34 7.02 -5 6 C-2.9375 5.3125 -2.9375 5.3125 -1 5 C-0.67 3.35 -0.34 1.7 0 0 Z " fill="#049AD1" transform="translate(20,38)"/>
<path d="M0 0 C0.33 0 0.66 0 1 0 C1.02708567 1.60407328 1.04643483 3.2082785 1.0625 4.8125 C1.07410156 5.70582031 1.08570313 6.59914063 1.09765625 7.51953125 C1 10 1 10 0 13 C-1.32 12.34 -2.64 11.68 -4 11 C-4 10.34 -4 9.68 -4 9 C-2.68 9 -1.36 9 0 9 C0 6.03 0 3.06 0 0 Z " fill="#2E399A" transform="translate(54,28)"/>
<path d="M0 0 C1.85776765 3.13498292 2.20140476 5.37471432 2 9 C1.01 9 0.02 9 -1 9 C-1.09765625 2.84765625 -1.09765625 2.84765625 -1 1 C-0.67 0.67 -0.34 0.34 0 0 Z " fill="#DA9018" transform="translate(49,28)"/>
<path d="M0 0 C2.31 0 4.62 0 7 0 C7.33 0.99 7.66 1.98 8 3 C5.03 3 2.06 3 -1 3 C-0.67 2.01 -0.34 1.02 0 0 Z " fill="#F9C746" transform="translate(28,35)"/>
<path d="M0 0 C3.65316671 1.24976756 4.78065836 1.67098753 7 5 C6.625 7.1875 6.625 7.1875 6 9 C5.38125 8.030625 4.7625 7.06125 4.125 6.0625 C2.34321154 2.97164638 2.34321154 2.97164638 0 2 C0 1.34 0 0.68 0 0 Z " fill="#04138A" transform="translate(49,14)"/>
<path d="M0 0 C0.66 0 1.32 0 2 0 C7 5.35714286 7 5.35714286 7 9 C6.34 9 5.68 9 5 9 C3.35 6.03 1.7 3.06 0 0 Z " fill="#1826A4" transform="translate(51,12)"/>
<path d="M0 0 C3.77727089 1.81309003 7.37269822 3.9073259 11 6 C8 7 8 7 5.5 6.375 C2.48121179 4.71466648 1.52052744 3.04105488 0 0 Z " fill="#1C2BA7" transform="translate(12,52)"/>
<path d="M0 0 C2.375 0.3125 2.375 0.3125 5 1 C5.66 1.99 6.32 2.98 7 4 C5.02 4 3.04 4 1 4 C0.67 2.68 0.34 1.36 0 0 Z " fill="#FBC50B" transform="translate(40,19)"/>
<path d="M0 0 C3 1 3 1 5 4 C4.625 6.1875 4.625 6.1875 4 8 C2 6.25 2 6.25 0 4 C0 2.68 0 1.36 0 0 Z " fill="#2431AB" transform="translate(49,16)"/>
<path d="M0 0 C1.32 0 2.64 0 4 0 C4 0.66 4 1.32 4 2 C6.97 2.495 6.97 2.495 10 3 C10 3.33 10 3.66 10 4 C7.69 4.33 5.38 4.66 3 5 C2.01 3.35 1.02 1.7 0 0 Z " fill="#081463" transform="translate(8,45)"/>
<path d="M0 0 C0.66 0.33 1.32 0.66 2 1 C0.875 3 0.875 3 -1 5 C-4.1875 5.25 -4.1875 5.25 -7 5 C-4.702779 3.25728062 -2.40133271 1.60088848 0 0 Z " fill="#1827A4" transform="translate(47,54)"/>
<path d="M0 0 C0.33 0.66 0.66 1.32 1 2 C3.02463255 2.65213292 3.02463255 2.65213292 5 3 C1.25 6 1.25 6 -1 6 C-1.042721 4.33388095 -1.04063832 2.66617115 -1 1 C-0.67 0.67 -0.34 0.34 0 0 Z " fill="#26369B" transform="translate(45,47)"/>
<path d="M0 0 C2.32472205 2.85306797 3.7508258 5.54074837 5 9 C4.01 8.67 3.02 8.34 2 8 C2 7.34 2 6.68 2 6 C1.34 6 0.68 6 0 6 C0 4.02 0 2.04 0 0 Z " fill="#091899" transform="translate(0,46)"/>
<path d="M0 0 C0.99 0.495 0.99 0.495 2 1 C2 2.32 2 3.64 2 5 C4.475 5.99 4.475 5.99 7 7 C7 7.33 7 7.66 7 8 C5.35 8 3.7 8 2 8 C0.74335022 5.09399739 0 3.20395416 0 0 Z " fill="#038DC8" transform="translate(42,39)"/>
<path d="M0 0 C2.64 0 5.28 0 8 0 C7.67 0.66 7.34 1.32 7 2 C3.9375 2.625 3.9375 2.625 1 3 C0.67 2.01 0.34 1.02 0 0 Z " fill="#2F261F" transform="translate(28,43)"/>
<path d="M0 0 C0.66 1.32 1.32 2.64 2 4 C1.01 4.66 0.02 5.32 -1 6 C-1.99 5.67 -2.98 5.34 -4 5 C-2.68 3.35 -1.36 1.7 0 0 Z " fill="#FAC722" transform="translate(20,18)"/>
<path d="M0 0 C0.99 0 1.98 0 3 0 C1.87548273 2.9719385 0.77706209 5.33440687 -1 8 C-1.66 8 -2.32 8 -3 8 C-3 7.01 -3 6.02 -3 5 C-2.34 4.67 -1.68 4.34 -1 4 C-0.34786708 1.97536745 -0.34786708 1.97536745 0 0 Z " fill="#1927A5" transform="translate(9,12)"/>
</svg>
