<svg width="24" height="24" viewBox="0 0 24 24" fill="none" xmlns="http://www.w3.org/2000/svg">
<rect width="24" height="24" rx="12" fill="url(#paint0_radial_4800_923)"/>
<path d="M18.185 7.62934C18.145 7.20934 17.925 6.81933 17.585 6.55933C17.245 6.30933 16.805 6.20934 16.385 6.29934C16.195 6.33934 15.995 6.43934 15.605 6.62934C15.285 6.78934 15.125 6.86934 14.965 6.93934C14.305 7.19934 13.585 7.24934 12.895 7.08934C12.725 7.04934 12.555 6.98934 12.215 6.87934L11.665 6.69933C10.395 6.27933 9.76496 6.06933 9.13496 6.17933C8.53496 6.28933 7.99496 6.60934 7.62496 7.08934C7.22496 7.58934 7.11496 8.25933 6.89496 9.56933L5.90496 15.5393C5.83496 15.9793 5.79496 16.1793 5.81496 16.3693C5.85496 16.7893 6.07496 17.1793 6.41496 17.4393C6.75496 17.6893 7.19496 17.7893 7.60496 17.6993C7.79496 17.6593 7.99496 17.5593 8.40496 17.3493C8.71496 17.1993 8.86496 17.1193 9.02496 17.0593C9.68496 16.7993 10.405 16.7493 11.095 16.9093C11.265 16.9493 11.435 17.0093 11.775 17.1193L12.325 17.2993C13.365 17.6393 13.975 17.8493 14.515 17.8493C14.635 17.8493 14.745 17.8493 14.865 17.8193C15.465 17.7093 16.005 17.3893 16.375 16.9093C16.775 16.4093 16.885 15.7493 17.105 14.4293L18.095 8.46934C18.165 8.02934 18.205 7.81934 18.185 7.62934Z" fill="white"/>
<defs>
<radialGradient id="paint0_radial_4800_923" cx="0" cy="0" r="1" gradientUnits="userSpaceOnUse" gradientTransform="translate(12) rotate(90) scale(24)">
<stop stop-color="#99EEFF"/>
<stop offset="0.526042" stop-color="#BB33FF"/>
<stop offset="0.864583" stop-color="#2200CC"/>
<stop offset="1" stop-color="#00AACC"/>
</radialGradient>
</defs>
</svg>
