<?xml version="1.0" encoding="UTF-8"?>
<svg version="1.1" xmlns="http://www.w3.org/2000/svg" width="480" height="480">
<path d="M0 0 C158.4 0 316.8 0 480 0 C480 158.4 480 316.8 480 480 C321.6 480 163.2 480 0 480 C0 321.6 0 163.2 0 0 Z " fill="#FEFEFE" transform="translate(0,0)"/>
<path d="M0 0 C6.99859255 5.7119826 12.23498308 12.14660885 13.75 21.25 C14.65757337 31.76892413 12.90209114 39.6987446 6.25 48 C-0.61786179 55.10773196 -8.31139538 58.80198226 -18.25 59 C-28.18860462 58.80198226 -35.88213821 55.10773196 -42.75 48 C-48.64866831 40.6389535 -50.92495781 33.56610803 -50.57421875 24.14453125 C-49.42949434 13.92476272 -44.21132042 5.66891197 -36.25 -0.75 C-24.64057839 -7.36119721 -11.15228118 -7.95983428 0 0 Z " fill="#014EFE" transform="translate(68.25,391.75)"/>
<path d="M0 0 C2.046875 1.125 2.046875 1.125 4 2.4375 C4.70640625 2.911875 5.4128125 3.38625 6.140625 3.875 C11.87216404 8.29040785 15.22746641 13.42088086 17 20.4375 C18.50179126 32.17351648 17.16506427 42.53911231 11 52.75 C6.43055835 57.6930438 -2.44041341 62.00245688 -9.12890625 62.640625 C-18.37986015 62.81881352 -25.20871781 61.34449219 -32.375 55.25 C-39.23159352 48.61944803 -41.62568447 42.57771429 -42.203125 33.10546875 C-42.34033242 22.91781799 -41.26956581 15.38354111 -34.81640625 7.296875 C-25.92946451 -1.80029547 -11.95953583 -4.90970418 0 0 Z " fill="#040404" transform="translate(60,316.5625)"/>
<path d="M0 0 C7.26 0 14.52 0 22 0 C25.96 11.88 29.92 23.76 34 36 C36.18832407 32.71751389 37.33147855 29.44634097 38.56640625 25.7421875 C38.80536118 25.03853058 39.0443161 24.33487366 39.29051208 23.6098938 C40.05199144 21.36630847 40.80771691 19.12084614 41.5625 16.875 C42.32135335 14.62219162 43.08147954 12.36984629 43.84519958 10.11868286 C44.32006095 8.71854259 44.79203168 7.31741809 45.26087952 5.91525269 C46.88772008 1.11227992 46.88772008 1.11227992 48 0 C54.93 0 61.86 0 69 0 C69 20.46 69 40.92 69 62 C64.38 62 59.76 62 55 62 C54.67 47.48 54.34 32.96 54 18 C50.18422545 29.48674456 50.18422545 29.48674456 46.37182617 40.97460938 C45.88732767 42.43102972 45.40271586 43.88741238 44.91796875 45.34375 C44.67421509 46.08012695 44.43046143 46.81650391 44.17932129 47.57519531 C42.56187424 52.42833996 40.82106821 57.21940071 39 62 C35.7 62 32.4 62 29 62 C24.38 48.47 19.76 34.94 15 21 C14.67 34.53 14.34 48.06 14 62 C9.38 62 4.76 62 0 62 C0 41.54 0 21.08 0 0 Z " fill="#090909" transform="translate(204,387)"/>
<path d="M0 0 C6.93 0 13.86 0 21 0 C23.04964052 4.78249454 24.85753332 9.33513331 26.48046875 14.24609375 C26.87903076 15.4467749 27.27759277 16.64745605 27.68823242 17.88452148 C28.18299072 19.38700439 28.67774902 20.8894873 29.1875 22.4375 C30.775625 27.243125 32.36375 32.04875 34 37 C38.29 24.79 42.58 12.58 47 0 C53.93 0 60.86 0 68 0 C68 20.46 68 40.92 68 62 C63.71 62 59.42 62 55 62 C54.67 47.15 54.34 32.3 54 17 C52.081875 22.754375 50.16375 28.50875 48.1875 34.4375 C45.125 43.625 42.0625 52.8125 39 62 C35.7 62 32.4 62 29 62 C27.02421074 56.35841671 25.04871296 50.71673147 23.07348633 45.07495117 C22.40136618 43.15532668 21.7291661 41.23573016 21.05688477 39.31616211 C20.09109873 36.55850442 19.12559928 33.80074654 18.16015625 31.04296875 C17.85908463 30.18350143 17.558013 29.32403412 17.24781799 28.43852234 C16.967603 27.63791885 16.687388 26.83731537 16.39868164 26.01245117 C16.15219376 25.3085173 15.90570587 24.60458344 15.65174866 23.87931824 C15.0891289 22.25700332 14.54299601 20.62898803 14 19 C13.67 33.19 13.34 47.38 13 62 C8.71 62 4.42 62 0 62 C0 41.54 0 21.08 0 0 Z " fill="#040404" transform="translate(280,387)"/>
<path d="M0 0 C8.3840625 -0.12375 8.3840625 -0.12375 16.9375 -0.25 C18.68281006 -0.28641602 20.42812012 -0.32283203 22.22631836 -0.36035156 C31.35088445 -0.47272449 38.86306976 -0.32730537 46.15625 5.81640625 C46.5996875 6.39261719 47.043125 6.96882813 47.5 7.5625 C47.9640625 8.14128906 48.428125 8.72007812 48.90625 9.31640625 C52.18798995 14.36794167 51.73188966 21.38755377 50.57421875 27.1015625 C49.07566899 31.27543729 46.59398502 33.71398946 42.984375 36.06640625 C39.67816249 37.62188812 36.63061871 37.8089148 33 38 C38.32296993 44.36159821 44.10696289 50.175229 50.01977539 55.98266602 C50.66164795 56.61615967 51.30352051 57.24965332 51.96484375 57.90234375 C52.5487085 58.47460693 53.13257324 59.04687012 53.73413086 59.63647461 C55 61 55 61 55 62 C48.56050118 63.31121017 42.34191509 64.11985405 36 62 C28.3497565 56.81148151 19.18889258 48.37778515 15 40 C14.67 47.26 14.34 54.52 14 62 C9.38 62 4.76 62 0 62 C0 41.54 0 21.08 0 0 Z " fill="#020202" transform="translate(407,387)"/>
<path d="M0 0 C17 0 17 0 20.64453125 3.26953125 C21.79760742 5.43798828 21.79760742 5.43798828 22.8125 7.8125 C23.65531705 9.45364424 24.50181063 11.09290447 25.3515625 12.73046875 C25.77211914 13.58946777 26.19267578 14.4484668 26.62597656 15.33349609 C29.00681528 19.95387998 31.86863702 24.26360318 34.6875 28.625 C36.440625 31.38875 38.19375 34.1525 40 37 C40.33 24.79 40.66 12.58 41 0 C45.62 0 50.24 0 55 0 C55 20.46 55 40.92 55 62 C49.72 62 44.44 62 39 62 C37.96875 60.164375 36.9375 58.32875 35.875 56.4375 C29.26536242 44.78794123 22.43030602 33.14545903 15 22 C14.67 34.87 14.34 47.74 14 61 C9.38 61 4.76 61 0 61 C0 40.87 0 20.74 0 0 Z " fill="#070707" transform="translate(347,316)"/>
<path d="M0 0 C16 0 16 0 20.30859375 4.28515625 C21.4119424 6.17699107 22.45335822 8.10600257 23.4375 10.0625 C24.00041748 11.05862305 24.56333496 12.05474609 25.14331055 13.08105469 C26.27345834 15.08711952 27.38018718 17.10657631 28.46191406 19.13916016 C30.59429983 23.10539768 32.95067784 26.91801966 35.3125 30.75 C38.69343276 36.38686552 38.69343276 36.38686552 40 39 C40.33 26.13 40.66 13.26 41 0 C45.29 0 49.58 0 54 0 C54 20.13 54 40.26 54 61 C48.72 61 43.44 61 38 61 C34.5278797 57.38953477 33.15631484 55.47711701 31.1875 51.125 C30.14792457 49.11350117 29.10622035 47.10310125 28.0625 45.09375 C27.55976562 44.07667969 27.05703125 43.05960937 26.5390625 42.01171875 C24.17673691 37.38899533 21.44143499 33.02134201 18.6875 28.625 C17.140625 26.10875 15.59375 23.5925 14 21 C13.67 34.2 13.34 47.4 13 61 C8.71 61 4.42 61 0 61 C0 40.87 0 20.74 0 0 Z " fill="#010101" transform="translate(83,316)"/>
<path d="M0 0 C5.61 0 11.22 0 17 0 C23.15126375 15.72394047 29.11871253 31.50190795 34.875 47.375 C35.28089355 48.48818604 35.68678711 49.60137207 36.10498047 50.74829102 C36.48025879 51.78783936 36.85553711 52.8273877 37.2421875 53.8984375 C37.5810498 54.83349121 37.91991211 55.76854492 38.26904297 56.73193359 C39 59 39 59 39 61 C34.05 61 29.1 61 24 61 C21 53.375 21 53.375 21 50 C12.42 50 3.84 50 -5 50 C-5.66 53.3 -6.32 56.6 -7 60 C-8 61 -8 61 -11.16015625 61.09765625 C-12.44792969 61.08605469 -13.73570312 61.07445312 -15.0625 61.0625 C-16.35285156 61.05347656 -17.64320313 61.04445313 -18.97265625 61.03515625 C-19.97167969 61.02355469 -20.97070312 61.01195312 -22 61 C-20.65188567 54.01691041 -18.49635306 47.76150794 -15.8125 41.1875 C-12.44104544 32.77351617 -9.2726403 24.32719947 -6.3840332 15.73510742 C-4.54796542 10.33514513 -2.37661307 5.18627495 0 0 Z " fill="#040404" transform="translate(283,316)"/>
<path d="M0 0 C14.85 0 29.7 0 45 0 C45 4.29 45 8.58 45 13 C34.77 13 24.54 13 14 13 C14 16.63 14 20.26 14 24 C23.24 24 32.48 24 42 24 C42 28.29 42 32.58 42 37 C32.76 37 23.52 37 14 37 C14 40.96 14 44.92 14 49 C24.23 49 34.46 49 45 49 C45 53.29 45 57.58 45 62 C30.15 62 15.3 62 0 62 C0 41.54 0 21.08 0 0 Z " fill="#0B0B0B" transform="translate(356,387)"/>
<path d="M0 0 C4.62 0 9.24 0 14 0 C14 7.92 14 15.84 14 24 C22.58 24 31.16 24 40 24 C40 16.08 40 8.16 40 0 C44.62 0 49.24 0 54 0 C54 20.13 54 40.26 54 61 C49.38 61 44.76 61 40 61 C40 52.75 40 44.5 40 36 C31.42 36 22.84 36 14 36 C14 44.25 14 52.5 14 61 C9.38 61 4.76 61 0 61 C0 40.87 0 20.74 0 0 Z " fill="#020202" transform="translate(203,316)"/>
<path d="M0 0 C5.25347441 2.88028327 9.17242675 6.88602999 11.75 12.3125 C11.75 13.9625 11.75 15.6125 11.75 17.3125 C6.8 17.3125 1.85 17.3125 -3.25 17.3125 C-3.745 14.3425 -3.745 14.3425 -4.25 11.3125 C-7.48275701 10.35719355 -10.44675639 10.14789622 -13.8125 10.125 C-15.23755859 10.10373047 -15.23755859 10.10373047 -16.69140625 10.08203125 C-19.49225243 10.12891112 -19.49225243 10.12891112 -22.25 12.3125 C-22.50015873 15.89607241 -22.50015873 15.89607241 -22.25 19.3125 C-17.30401122 21.64418042 -12.79491272 22.85501842 -7.375 23.625 C0.70500107 24.96902784 6.8131228 27.30766745 11.8125 34.125 C13.51796205 39.92357098 13.63976828 44.98581721 11.125 50.5625 C7.67725242 56.64747204 2.35316846 60.24068017 -4.25 62.3125 C-7.1995057 62.76317153 -10.08190472 62.83745411 -13.0625 62.8125 C-13.85495117 62.80677979 -14.64740234 62.80105957 -15.46386719 62.79516602 C-22.99754364 62.56600769 -28.62339849 60.79702846 -34.14453125 55.4921875 C-38.33544146 50.80072361 -39.25 48.97599936 -39.25 42.3125 C-34.63 42.3125 -30.01 42.3125 -25.25 42.3125 C-24.26 44.2925 -23.27 46.2725 -22.25 48.3125 C-18.10247938 51.30457828 -13.14179218 50.80246949 -8.25 50.3125 C-5.08211216 49.50066067 -5.08211216 49.50066067 -3.25 47.3125 C-2.83274322 43.68650578 -2.83274322 43.68650578 -3.25 40.3125 C-6.88890176 38.62582956 -10.37073383 37.89861636 -14.32958984 37.32421875 C-23.32292121 36.01838625 -29.88513095 34.11010802 -36.25 27.3125 C-38.92485229 22.66670391 -39.00303044 17.51237338 -38.25 12.3125 C-35.83558035 5.8441013 -31.32533054 2.27390589 -25.25 -0.6875 C-17.96247237 -3.11667588 -7.14081148 -3.00156143 0 0 Z " fill="#060606" transform="translate(128.25,387.6875)"/>
<path d="M0 0 C4.62 0 9.24 0 14 0 C14.01458252 1.27641357 14.02916504 2.55282715 14.04418945 3.86791992 C14.1022354 8.61120379 14.17946828 13.35401607 14.26245117 18.09692383 C14.29567083 20.14827816 14.32371197 22.19972325 14.34643555 24.2512207 C14.3800357 27.20302949 14.43235476 30.15400886 14.48828125 33.10546875 C14.49467117 34.02023483 14.5010611 34.93500092 14.50764465 35.87748718 C14.61858165 40.70026906 14.80390379 44.12612967 18 48 C22.02314866 50.68209911 25.27219919 50.68843415 30 50 C33.49890004 47.88608123 34.70578686 46.88263941 36 43 C36.11322825 41.5735686 36.17595476 40.1427751 36.20532227 38.7121582 C36.22526749 37.85149246 36.24521271 36.99082672 36.26576233 36.1040802 C36.28247482 35.17899155 36.29918732 34.25390289 36.31640625 33.30078125 C36.33718735 32.35059616 36.35796844 31.40041107 36.37937927 30.4214325 C36.44478052 27.38519544 36.50371604 24.34887169 36.5625 21.3125 C36.60569417 19.25454831 36.64930876 17.19660541 36.69335938 15.13867188 C36.80045231 10.09253684 36.90174646 5.04631457 37 0 C41.62 0 46.24 0 51 0 C51.09938176 6.24385004 51.17171075 12.48723272 51.21972656 18.73168945 C51.23975746 20.85286487 51.26699025 22.97398565 51.30175781 25.0949707 C51.35065214 28.15589941 51.37305452 31.21609376 51.390625 34.27734375 C51.41127014 35.21521225 51.43191528 36.15308075 51.45318604 37.11936951 C51.45554977 44.16270317 50.18228981 50.50787923 45.3081665 55.85655212 C39.39320733 61.39844317 33.10037476 63.55784188 25.0625 63.4375 C24.00808716 63.42722778 24.00808716 63.42722778 22.93237305 63.41674805 C15.65759904 63.19138958 11.67584755 61.25014453 6.25 56.6875 C0.40681384 49.70813875 -0.57662981 44.97214293 -0.390625 36.03515625 C-0.38496521 35.00184677 -0.37930542 33.96853729 -0.37347412 32.90391541 C-0.35119049 29.62296043 -0.30100783 26.34312156 -0.25 23.0625 C-0.2299247 20.83009396 -0.21167574 18.59767071 -0.1953125 16.36523438 C-0.15135174 10.90973013 -0.0823787 5.45505391 0 0 Z " fill="#030303" transform="translate(146,387)"/>
<path d="M0 0 C4.93477313 3.2183303 8.9325029 7.93241098 11.15625 13.40625 C11.15625 14.72625 11.15625 16.04625 11.15625 17.40625 C8.71690775 17.54126894 6.28500896 17.64028897 3.84375 17.71875 C3.15345703 17.76064453 2.46316406 17.80253906 1.75195312 17.84570312 C-0.26953125 17.89453125 -0.26953125 17.89453125 -3.84375 17.40625 C-5.57421875 15.01171875 -5.57421875 15.01171875 -6.84375 12.40625 C-10.87820051 9.68917108 -15.14678138 9.75389325 -19.84375 10.40625 C-24.87599158 12.82918113 -26.77495968 15.29929331 -28.84375 20.40625 C-29.30055149 23.20950953 -29.36759566 25.94455736 -29.34375 28.78125 C-29.34020508 29.53349854 -29.33666016 30.28574707 -29.33300781 31.06079102 C-29.18010608 36.16139348 -28.42052982 39.86857611 -25.328125 44.05859375 C-21.52537189 47.51109329 -17.97865726 47.78633377 -13.02734375 47.65625 C-9.9519087 47.30414295 -8.19251504 46.40960842 -5.84375 44.40625 C-5.45316406 43.5503125 -5.06257813 42.694375 -4.66015625 41.8125 C-2.84375 39.40625 -2.84375 39.40625 0.51171875 38.91796875 C1.77628906 38.97597656 3.04085937 39.03398437 4.34375 39.09375 C5.61605469 39.13886719 6.88835937 39.18398438 8.19921875 39.23046875 C9.66294922 39.31748047 9.66294922 39.31748047 11.15625 39.40625 C10.04910803 46.65299742 8.00889972 51.4122628 2.23046875 56.015625 C-4.93191772 60.81752629 -12.29547138 62.59249181 -20.84375 61.40625 C-29.1053304 59.33779505 -35.47809318 55.08213819 -40.44921875 48.17578125 C-45.62895698 38.81743066 -45.12153883 27.28726191 -43.21484375 17.01953125 C-40.67161581 8.84242618 -35.27552275 2.96446939 -27.78125 -1.09375 C-19.13921751 -4.44291138 -8.36049851 -3.90156597 0 0 Z " fill="#050505" transform="translate(186.84375,317.59375)"/>
<path d="M0 0 C5.3035228 2.70179463 9.09832298 6.29496895 11 12 C12.11476856 27.405736 12.11476856 27.405736 8.31640625 33.48046875 C5.2340944 37.03838955 2.18522458 38.5994926 -2.4296875 39.4453125 C-7.11672532 39.77297776 -10.22379477 39.3585264 -13.9375 36.375 C-17.830673 32.75922754 -19.78240714 28.66458536 -20.46875 23.4140625 C-20.53294224 15.63075371 -20.4009663 9.90302795 -15 4 C-14.51144531 3.45859375 -14.02289063 2.9171875 -13.51953125 2.359375 C-9.85520716 -0.91873498 -4.61574457 -0.5690644 0 0 Z " fill="#FAFAFA" transform="translate(52,327)"/>
<path d="M0 0 C4.95 0 9.9 0 15 0 C15 20.46 15 40.92 15 62 C10.05 62 5.1 62 0 62 C0 41.54 0 21.08 0 0 Z " fill="#111111" transform="translate(325,316)"/>
<path d="M0 0 C3.08427046 -0.10800947 6.16475747 -0.18731002 9.25 -0.25 C10.12269531 -0.28351563 10.99539063 -0.31703125 11.89453125 -0.3515625 C18.35641403 -0.4502172 18.35641403 -0.4502172 21.57421875 1.80078125 C23.69862633 5.07760718 23.60306045 7.18061718 23 11 C20.97091099 13.8082592 19.41630333 15.73084798 15.90209961 16.39868164 C13.47870154 16.49195769 11.10932689 16.43674526 8.6875 16.3125 C7.85154297 16.28994141 7.01558594 16.26738281 6.15429688 16.24414062 C4.10208851 16.1855061 2.05080798 16.09583215 0 16 C0 10.72 0 5.44 0 0 Z " fill="#F8F8F8" transform="translate(421,399)"/>
<path d="M0 0 C0.66 0 1.32 0 2 0 C3.17171756 3.28989086 4.33651088 6.58219102 5.5 9.875 C5.83386719 10.81214844 6.16773438 11.74929688 6.51171875 12.71484375 C6.98544922 14.05869141 6.98544922 14.05869141 7.46875 15.4296875 C7.76201172 16.25710449 8.05527344 17.08452148 8.35742188 17.93701172 C9 20 9 20 9 22 C3.72 22 -1.56 22 -7 22 C-5.04910592 14.48905779 -2.76288395 7.25081726 0 0 Z " fill="#F2F2F2" transform="translate(290,332)"/>
<path d="M0 0 C0.33 0 0.66 0 1 0 C1 15.18 1 30.36 1 46 C0.67 46 0.34 46 0 46 C-0.02505615 44.86457764 -0.0501123 43.72915527 -0.07592773 42.55932617 C-0.17005576 38.34924919 -0.27026337 34.13933512 -0.37231445 29.92944336 C-0.41564287 28.10689096 -0.45731947 26.28429852 -0.49731445 24.46166992 C-0.55506762 21.84281339 -0.61874756 19.22415805 -0.68359375 16.60546875 C-0.70030624 15.78974899 -0.71701874 14.97402924 -0.73423767 14.1335907 C-0.82013245 10.85820456 -0.95752134 8.12743599 -2 5 C-1.0625 2.3125 -1.0625 2.3125 0 0 Z " fill="#D8D8D8" transform="translate(258,403)"/>
<path d="M0 0 C2.35953094 2.35953094 2.49141413 3.77895617 3 7 C2.34 7 1.68 7 1 7 C1 19.54 1 32.08 1 45 C0.67 45 0.34 45 0 45 C0 30.15 0 15.3 0 0 Z " fill="#DBDBDB" transform="translate(293,404)"/>
</svg>
