<svg width="240" height="240" viewBox="0 0 240 240" fill="none" xmlns="http://www.w3.org/2000/svg">
<path d="M120.862 179.694C117.019 179.694 113.263 180.833 110.068 182.968C106.873 185.103 104.383 188.138 102.912 191.687C101.442 195.238 101.057 199.144 101.807 202.913C102.556 206.682 104.407 210.143 107.124 212.861C109.841 215.578 113.303 217.428 117.071 218.178C120.84 218.927 124.747 218.543 128.297 217.072C131.847 215.602 134.881 213.111 137.016 209.916C139.151 206.721 140.29 202.965 140.29 199.122C140.29 193.97 138.244 189.028 134.6 185.384C130.956 181.741 126.015 179.694 120.862 179.694Z" fill="black"/>
<path d="M192.32 101.456C188.477 101.456 184.721 102.595 181.526 104.73C178.331 106.865 175.841 109.899 174.37 113.449C172.9 116.999 172.515 120.906 173.265 124.675C174.014 128.443 175.865 131.905 178.582 134.622C181.299 137.339 184.761 139.19 188.53 139.94C192.299 140.689 196.205 140.304 199.755 138.834C203.305 137.363 206.34 134.873 208.474 131.678C210.609 128.483 211.749 124.727 211.749 120.884C211.749 115.731 209.702 110.79 206.058 107.146C202.414 103.503 197.473 101.456 192.32 101.456Z" fill="black"/>
<path d="M48 101.456C44.1576 101.456 40.4012 102.595 37.2061 104.73C34.011 106.865 31.5211 109.899 30.0506 113.449C28.5801 116.999 28.195 120.906 28.945 124.675C29.6946 128.443 31.5451 131.905 34.262 134.622C36.9792 137.34 40.441 139.19 44.2099 139.94C47.9788 140.689 51.885 140.305 55.4352 138.834C58.9855 137.364 62.0197 134.873 64.1545 131.678C66.2893 128.483 67.4287 124.727 67.4287 120.884C67.4287 115.731 65.382 110.79 61.7381 107.146C58.0947 103.503 53.153 101.456 48 101.456Z" fill="black"/>
<path d="M120.861 58.2857C124.706 58.2936 128.466 57.1605 131.666 55.0304C134.866 52.9004 137.363 49.8689 138.839 46.3194C140.316 42.77 140.706 38.8623 139.961 35.091C139.216 31.3197 137.368 27.8541 134.653 25.1329C131.937 22.4121 128.475 20.5577 124.706 19.805C120.936 19.0518 117.028 19.4345 113.475 20.9038C109.923 22.3731 106.886 24.8631 104.749 28.059C102.613 31.2548 101.472 35.0127 101.472 38.8571C101.472 44.003 103.514 48.9387 107.149 52.5814C110.784 56.2237 115.716 58.2751 120.861 58.2857Z" fill="black"/>
<path d="M164.544 145.673C157.651 138.728 153.782 129.334 153.782 119.542C153.782 109.749 157.651 100.355 164.544 93.41C167.232 90.7082 169.059 87.27 169.797 83.5292C170.534 79.788 170.148 75.9124 168.687 72.3907C167.227 68.8694 164.757 65.8601 161.59 63.7434C158.423 61.6263 154.7 60.4967 150.892 60.4967C147.085 60.4967 143.362 61.6263 140.195 63.7434C137.028 65.8601 134.558 68.8694 133.098 72.3907C131.637 75.9124 131.251 79.788 131.988 83.5292C132.726 87.27 134.553 90.7082 137.24 93.41C140.703 96.8454 143.452 100.934 145.327 105.439C147.203 109.945 148.169 114.778 148.169 119.659C148.169 124.54 147.203 129.373 145.327 133.878C143.452 138.383 140.703 142.472 137.24 145.908C134.553 148.609 132.726 152.047 131.988 155.788C131.251 159.53 131.637 163.405 133.098 166.927C134.558 170.448 137.028 173.457 140.195 175.574C143.362 177.691 147.085 178.821 150.892 178.821C154.7 178.821 158.423 177.691 161.59 175.574C164.757 173.457 167.227 170.448 168.687 166.927C170.148 163.405 170.534 159.53 169.797 155.788C169.059 152.047 167.232 148.609 164.544 145.908V145.673Z" fill="black"/>
<path d="M109.079 156.922C109.058 151.856 107.072 146.996 103.54 143.368C96.6468 136.423 92.7778 127.029 92.7778 117.236C92.7778 107.444 96.6468 98.0502 103.54 91.1048C106.227 88.4034 108.055 84.9649 108.792 81.224C109.529 77.4832 109.143 73.6072 107.683 70.0859C106.222 66.5642 103.752 63.5553 100.585 61.4383C97.4183 59.3216 93.6956 58.1917 89.8879 58.1917C86.0802 58.1917 82.3579 59.3216 79.1907 61.4383C76.0239 63.5553 73.554 66.5642 72.0933 70.0859C70.6329 73.6072 70.2468 77.4832 70.984 81.224C71.7216 84.9649 73.549 88.4034 76.2361 91.1048C79.6927 94.5398 82.4364 98.6259 84.3086 103.128C86.1809 107.629 87.1447 112.458 87.1447 117.334C87.1447 122.211 86.1809 127.039 84.3086 131.541C82.4364 136.043 79.6927 140.129 76.2361 143.563C74.0178 145.819 72.3878 148.588 71.4903 151.624C70.5928 154.66 70.4547 157.87 71.0889 160.972C71.7231 164.074 73.1098 166.972 75.1267 169.41C77.1437 171.849 79.7286 173.753 82.654 174.954C85.5794 176.156 88.7548 176.618 91.9006 176.3C95.0464 175.982 98.0658 174.894 100.692 173.131C103.319 171.369 105.472 168.986 106.962 166.193C108.452 163.401 109.232 160.284 109.235 157.117L109.079 156.922Z" fill="black"/>
</svg>
