<svg xmlns="http://www.w3.org/2000/svg" xmlns:xlink="http://www.w3.org/1999/xlink" viewBox="0 0 95 93"><path d="M 9.901 36.319 L 1.674 30.676 L 26.355 30.676 L 40.239 53.246 L 29.955 47.604 L 23.27 58.376 L 45.381 58.376 L 45.381 80.433 L 25.2 80.433 C 22.12 80.433 19.298 78.717 17.887 75.987 L 5.301 51.635 C 4.004 49.126 4.09 46.129 5.53 43.699 Z" fill="rgb(78,82,154)"></path><path d="M 9.901 36.319 L 1.674 30.676 L 26.355 30.676 L 40.239 53.246 L 29.955 47.604 L 23.27 58.376 C 20.103 63.809 16.628 70.363 17.887 75.987 L 5.301 51.635 C 4.004 49.126 4.09 46.129 5.53 43.699 Z" fill="rgb(140,141,252)"></path><path d="M 74.715 12.006 L 83.51 7.294 L 72.209 29.183 L 45.738 31.16 L 55.476 24.623 L 48.937 13.763 L 38.812 33.372 L 19.156 23.271 L 28.397 5.373 C 29.808 2.642 32.628 0.926 35.708 0.924 L 63.172 0.913 C 66.002 0.911 68.633 2.361 70.14 4.75 Z" fill="rgb(78,82,154)"></path><path d="M 74.715 12.006 L 83.51 7.294 L 72.209 29.183 L 45.738 31.16 L 55.476 24.623 L 48.937 13.763 C 45.546 8.466 41.297 2.383 35.708 0.924 L 63.172 0.913 C 66.002 0.911 68.633 2.361 70.14 4.75 Z" fill="rgb(140,141,252)"></path><path d="M 62.363 81.333 L 61.578 91.262 L 49.237 69.939 L 61.889 46.66 L 62.132 58.366 L 74.826 58.755 L 63.771 39.653 L 82.919 28.624 L 93.009 46.06 C 94.549 48.72 94.471 52.015 92.806 54.6 L 77.959 77.65 C 76.43 80.025 73.784 81.449 70.955 81.42 Z" fill="rgb(110,87,149)"></path><path d="M 62.363 81.333 L 61.578 91.262 L 49.237 69.939 L 61.889 46.66 L 62.132 58.366 L 74.826 58.755 C 81.126 58.775 88.553 58.5 92.806 54.6 L 77.959 77.65 C 76.43 80.025 73.784 81.449 70.955 81.42 Z" fill="rgb(204,153,255)"></path></svg>