<?xml version="1.0" encoding="UTF-8"?>
<svg version="1.1" xmlns="http://www.w3.org/2000/svg" width="142" height="114">
<path d="M0 0 C4.6687041 1.58003944 8.32572038 4.12235537 12.3125 6.9375 C13.72753183 7.92755909 15.14290711 8.91712746 16.55859375 9.90625 C17.28546387 10.41542969 18.01233398 10.92460937 18.76123047 11.44921875 C21.00303546 13.00210265 23.26443182 14.52102948 25.53515625 16.03125 C26.2624292 16.51859619 26.98970215 17.00594238 27.73901367 17.50805664 C29.13704781 18.44364812 30.53941935 19.37279843 31.9465332 20.29467773 C37.83303944 24.26415982 37.83303944 24.26415982 39 28 C39.4375 30.875 39.4375 30.875 39 34 C35.74432757 38.42391919 32.43789807 41.37743843 27.875 44.5 C26.6471296 45.34967554 25.42064904 46.20136187 24.1953125 47.0546875 C23.53176758 47.51584961 22.86822266 47.97701172 22.18457031 48.45214844 C19.73865441 50.18517334 17.33266664 51.96574495 14.9296875 53.7578125 C14.07133301 54.39783203 13.21297852 55.03785156 12.32861328 55.69726562 C10.62413999 56.97150546 8.92194558 58.24879993 7.22216797 59.52929688 C6.44244629 60.11001953 5.66272461 60.69074219 4.859375 61.2890625 C4.16295898 61.81193848 3.46654297 62.33481445 2.74902344 62.87353516 C1 64 1 64 -1 64 C-1 63.01 -1 62.02 -1 61 C0.54125977 59.54541016 0.54125977 59.54541016 2.69140625 58.0390625 C3.86219727 57.20761719 3.86219727 57.20761719 5.05664062 56.359375 C5.88357422 55.78703125 6.71050781 55.2146875 7.5625 54.625 C8.36236328 54.06039062 9.16222656 53.49578125 9.98632812 52.9140625 C12.99877254 50.78936701 16.01192417 48.66782391 19.06616211 46.60351562 C23.90858524 43.28299691 26.30645707 40.581677 28 35 C28.88602639 29.69297594 28.44166471 25.63341626 25.60498047 20.92016602 C22.00482791 16.61301666 16.97275163 13.79065109 12.3125 10.75 C10.19979854 9.35594774 8.09147618 7.95522874 5.98828125 6.546875 C5.05540283 5.93682617 4.12252441 5.32677734 3.16137695 4.69824219 C1 3 1 3 0 0 Z " fill="#000000" transform="translate(43,1)"/>
<path d="M0 0 C0.93134766 0.02255859 1.86269531 0.04511719 2.82226562 0.06835938 C5.1123396 0.12707922 7.39907875 0.20913142 9.6875 0.3125 C9.6875 1.6325 9.6875 2.9525 9.6875 4.3125 C0.2825 4.8075 0.2825 4.8075 -9.3125 5.3125 C-9.3125 6.3025 -9.3125 7.2925 -9.3125 8.3125 C-8.19230469 8.34988281 -7.07210937 8.38726562 -5.91796875 8.42578125 C-4.4452791 8.49144257 -2.97262434 8.55788986 -1.5 8.625 C-0.76201172 8.64755859 -0.02402344 8.67011719 0.73632812 8.69335938 C6.16179198 8.96340509 6.16179198 8.96340509 8.67578125 10.6328125 C10.40831261 13.50921592 10.04149522 16.06754384 9.6875 19.3125 C6.38461664 21.51442224 5.41287273 21.55209968 1.58203125 21.5078125 C0.59912109 21.50136719 -0.38378906 21.49492188 -1.39648438 21.48828125 C-2.42064453 21.47152344 -3.44480469 21.45476562 -4.5 21.4375 C-5.53576172 21.42847656 -6.57152344 21.41945313 -7.63867188 21.41015625 C-10.19684685 21.3865786 -12.75455748 21.3536703 -15.3125 21.3125 C-15.3125 20.3225 -15.3125 19.3325 -15.3125 18.3125 C-4.9175 17.8175 -4.9175 17.8175 5.6875 17.3125 C5.6875 15.9925 5.6875 14.6725 5.6875 13.3125 C4.66269531 13.34730469 3.63789062 13.38210937 2.58203125 13.41796875 C1.22137064 13.44612035 -0.1393078 13.47341904 -1.5 13.5 C-2.17353516 13.52513672 -2.84707031 13.55027344 -3.54101562 13.57617188 C-8.0076533 13.6415373 -10.78210589 13.08780043 -14.3125 10.3125 C-15.4375 7.9375 -15.4375 7.9375 -15.3125 5.3125 C-11.05758572 -0.72644543 -6.76590837 -0.31080144 0 0 Z " fill="#000000" transform="translate(46.3125,86.6875)"/>
<path d="M0 0 C3.2175 -0.04125 6.435 -0.0825 9.75 -0.125 C11.26158691 -0.15231201 11.26158691 -0.15231201 12.80371094 -0.18017578 C13.60583008 -0.1851709 14.40794922 -0.19016602 15.234375 -0.1953125 C16.05131836 -0.20578613 16.86826172 -0.21625977 17.70996094 -0.22705078 C20.21887518 0.02170084 21.83395625 0.74299871 24 2 C24.35233161 7.37305699 24.35233161 7.37305699 24 10 C22 12 22 12 20 13 C20.66 13.94875 21.32 14.8975 22 15.875 C24 19 24 19 24 21 C21.75 20.9375 21.75 20.9375 19 20 C16.040801 16.40736224 15 13.6756942 15 9 C16.98 8.67 18.96 8.34 21 8 C20.67 7.01 20.34 6.02 20 5 C14.72 4.67 9.44 4.34 4 4 C4 9.61 4 15.22 4 21 C2.68 21 1.36 21 0 21 C0 14.07 0 7.14 0 0 Z " fill="#000000" transform="translate(114,87)"/>
<path d="M0 0 C2.1875 0.0625 2.1875 0.0625 5 1 C6.1640625 2.625 6.1640625 2.625 7.3125 4.5625 C8.73367975 6.72341054 9.48690632 7.80145051 11.91796875 8.7421875 C14.3038906 8.96600756 15.77084162 8.90346745 18 8 C19.57969415 6.02857577 20.6760425 4.02213559 21.8359375 1.78125 C22.22007813 1.1934375 22.60421875 0.605625 23 0 C25.8125 -0.5 25.8125 -0.5 28 0 C27.0234375 1.66015625 26.046875 3.3203125 25.0703125 4.98046875 C24.71710937 5.64691406 24.36390625 6.31335938 24 7 C23.3503125 8.2065625 23.3503125 8.2065625 22.6875 9.4375 C21.70040468 12.03195302 21.70040468 12.03195302 23.1171875 14.45703125 C23.69726562 15.23433594 24.27734375 16.01164062 24.875 16.8125 C25.44992188 17.60269531 26.02484375 18.39289063 26.6171875 19.20703125 C27.07351562 19.79871094 27.52984375 20.39039062 28 21 C25.640625 21.21484375 25.640625 21.21484375 23 21 C21.734375 19.50390625 21.734375 19.50390625 20.75 17.5625 C19.19372874 15.08047252 18.53252142 14.1580502 15.68359375 13.3125 C13.43846591 13.08763587 11.25531099 12.96560528 9 13 C8.71125 13.763125 8.4225 14.52625 8.125 15.3125 C7 18 7 18 5 21 C3.35 21 1.7 21 0 21 C1.98 17.37 3.96 13.74 6 10 C5.01 8.535625 4.02 7.07125 3 5.5625 C0 1.125 0 1.125 0 0 Z " fill="#000000" transform="translate(1,87)"/>
<path d="M0 0 C0.33 0.99 0.66 1.98 1 3 C0.53102295 3.31227539 0.0620459 3.62455078 -0.42114258 3.94628906 C-2.55638782 5.37383642 -4.68443553 6.81177242 -6.8125 8.25 C-7.55048828 8.74113281 -8.28847656 9.23226562 -9.04882812 9.73828125 C-9.76103516 10.22167969 -10.47324219 10.70507812 -11.20703125 11.203125 C-11.8616333 11.64301758 -12.51623535 12.08291016 -13.19067383 12.53613281 C-15.84072128 14.68020035 -17.73419765 16.78173925 -18.46875 20.1484375 C-18.4790625 20.88320313 -18.489375 21.61796875 -18.5 22.375 C-18.54640625 23.46941406 -18.54640625 23.46941406 -18.59375 24.5859375 C-16.95680841 31.24139737 -10.50032331 35.07932208 -5.1875 38.75 C-2.73803102 40.44981754 -0.36487606 42.17949164 2 44 C2 44.66 2 45.32 2 46 C-2.37527764 44.53347175 -5.68304299 42.15684757 -9.25 39.3125 C-9.81630127 38.86769287 -10.38260254 38.42288574 -10.96606445 37.96459961 C-12.10803009 37.06760637 -13.24843767 36.16862569 -14.38720703 35.26757812 C-17.32297194 32.96020734 -20.31314916 30.7227241 -23.29296875 28.47265625 C-25 27 -25 27 -27 24 C-27.0625 21.6875 -27.0625 21.6875 -26 19 C-21.08089338 13.89873884 -14.91050544 10.05628274 -9.0625 6.125 C-8.18787109 5.53203125 -7.31324219 4.9390625 -6.41210938 4.328125 C-4.27729005 2.88158076 -2.13991978 1.43898328 0 0 Z " fill="#000000" transform="translate(98,29)"/>
<path d="M0 0 C0.86367187 -0.03738281 1.72734375 -0.07476562 2.6171875 -0.11328125 C6.05902146 0.47107997 7.03025748 1.53276784 9.125 4.3125 C10.18157479 6.87608409 11.07200052 9.30123756 11.875 11.9375 C12.09542969 12.618125 12.31585938 13.29875 12.54296875 14 C14.125 18.97209821 14.125 18.97209821 14.125 21.3125 C12.805 21.3125 11.485 21.3125 10.125 21.3125 C8.145 16.0325 6.165 10.7525 4.125 5.3125 C1.485 5.3125 -1.155 5.3125 -3.875 5.3125 C-5.855 10.5925 -7.835 15.8725 -9.875 21.3125 C-11.195 21.3125 -12.515 21.3125 -13.875 21.3125 C-12.17863982 14.4371008 -10.42960232 7.50067408 -6.875 1.3125 C-4.44538821 0.0976941 -2.71115884 0.07642733 0 0 Z " fill="#000000" transform="translate(96.875,86.6875)"/>
<path d="M0 0 C1.79244141 0.01740234 1.79244141 0.01740234 3.62109375 0.03515625 C5.41740234 0.04869141 5.41740234 0.04869141 7.25 0.0625 C8.17683594 0.07410156 9.10367188 0.08570312 10.05859375 0.09765625 C10.05859375 1.41765625 10.05859375 2.73765625 10.05859375 4.09765625 C6.42859375 4.09765625 2.79859375 4.09765625 -0.94140625 4.09765625 C-0.94140625 9.70765625 -0.94140625 15.31765625 -0.94140625 21.09765625 C-1.93140625 21.09765625 -2.92140625 21.09765625 -3.94140625 21.09765625 C-3.97028771 17.78517438 -3.98816424 14.47272458 -4.00390625 11.16015625 C-4.01228516 10.21462891 -4.02066406 9.26910156 -4.02929688 8.29492188 C-4.03251953 7.39580078 -4.03574219 6.49667969 -4.0390625 5.5703125 C-4.04429932 4.73765869 -4.04953613 3.90500488 -4.05493164 3.04711914 C-3.86784489 -0.16554252 -3.26672345 0.10845695 0 0 Z " fill="#000000" transform="translate(73.94140625,86.90234375)"/>
<path d="M0 0 C2.64 0 5.28 0 8 0 C8 1.32 8 2.64 8 4 C5.36 4 2.72 4 0 4 C0 2.68 0 1.36 0 0 Z " fill="#000000" transform="translate(59,87)"/>
</svg>
