<?xml version="1.0" standalone="no"?>
<!DOCTYPE svg PUBLIC "-//W3C//DTD SVG 20010904//EN"
 "http://www.w3.org/TR/2001/REC-SVG-20010904/DTD/svg10.dtd">
<svg version="1.0" xmlns="http://www.w3.org/2000/svg"
 width="400.000000pt" height="400.000000pt" viewBox="0 0 400.000000 400.000000"
 preserveAspectRatio="xMidYMid meet">

<g transform="translate(0.000000,400.000000) scale(0.100000,-0.100000)"
fill="#000000" stroke="none">
<path d="M0 2000 l0 -2000 2000 0 2000 0 0 2000 0 2000 -2000 0 -2000 0 0
-2000z m1115 1428 c121 -86 443 -311 715 -502 597 -418 593 -415 631 -474 40
-64 52 -114 47 -202 -5 -85 -36 -155 -92 -208 -17 -16 -166 -127 -331 -247
-165 -120 -340 -248 -390 -285 -49 -36 -166 -122 -260 -190 -93 -68 -268 -195
-388 -283 -127 -92 -224 -157 -234 -155 -10 2 -19 11 -21 20 -3 16 74 74 748
565 325 237 406 315 483 468 90 180 109 443 43 605 -79 197 -129 243 -725 660
-306 214 -491 350 -491 360 0 22 11 32 30 27 8 -2 114 -74 235 -159z m2042
-1089 c2 -8 -16 -27 -40 -43 -674 -466 -743 -522 -798 -640 -44 -95 -56 -176
-41 -282 22 -146 68 -240 168 -339 43 -43 346 -269 661 -494 89 -63 105 -82
83 -96 -6 -4 -198 130 -426 297 -229 167 -480 349 -558 406 -77 56 -154 117
-169 135 -41 48 -62 129 -49 188 19 83 44 111 195 218 526 373 953 669 962
667 6 -1 11 -9 12 -17z"/>
</g>
</svg>
